<svg width="169" height="78" viewBox="0 0 169 78" fill="none" xmlns="http://www.w3.org/2000/svg">
<g filter="url(#filter0_d_10256_225913)">
<g clip-path="url(#clip0_10256_225913)">
<mask id="mask0_10256_225913" style="mask-type:luminance" maskUnits="userSpaceOnUse" x="4" y="2" width="161" height="70">
<path d="M160.091 2H8.90854C6.19763 2 4 4.17639 4 6.86111V67.1389C4 69.8236 6.19763 72 8.90854 72H160.091C162.802 72 165 69.8236 165 67.1389V6.86111C165 4.17639 162.802 2 160.091 2Z" fill="white"/>
</mask>
<g mask="url(#mask0_10256_225913)">
<path d="M165 2H4V72H165V2Z" fill="white"/>
<path d="M9.89024 31.1667H4V37.0001L9.89024 31.1667Z" fill="#E3C5C8"/>
<path d="M9.89024 37H4V42.8333L9.89024 37Z" fill="#E3C5C8"/>
<path d="M9.89024 13.6667H4V19.5001L9.89024 13.6667Z" fill="#E3C5C8"/>
<path d="M9.89024 25.3333H4V31.1666L9.89024 25.3333Z" fill="#E3C5C8"/>
<path d="M9.89024 19.5H4V25.3333L9.89024 19.5Z" fill="#E3C5C8"/>
<path d="M9.89024 42.8333H4V48.6666L9.89024 42.8333Z" fill="#E3C5C8"/>
<path d="M4 2V7.83333L9.89024 2H4Z" fill="#E3C5C8"/>
<path d="M9.89024 66.1667H4V72.0001L9.89024 66.1667Z" fill="#E3C5C8"/>
<path d="M4 7.83325V13.6666L9.89024 7.83325H4Z" fill="#E3C5C8"/>
<path d="M9.89024 54.5H4V60.3333L9.89024 54.5Z" fill="#E3C5C8"/>
<path d="M9.89024 60.3333H4V66.1666L9.89024 60.3333Z" fill="#E3C5C8"/>
<path d="M9.89024 48.6667H4V54.5001L9.89024 48.6667Z" fill="#E3C5C8"/>
<path d="M159.109 42.8333H165V37L159.109 42.8333Z" fill="#E3C5C8"/>
<path d="M159.109 37.0001H165V31.1667L159.109 37.0001Z" fill="#E3C5C8"/>
<path d="M159.109 60.3333H165V54.5L159.109 60.3333Z" fill="#E3C5C8"/>
<path d="M159.109 48.6666H165V42.8333L159.109 48.6666Z" fill="#E3C5C8"/>
<path d="M159.109 54.5001H165V48.6667L159.109 54.5001Z" fill="#E3C5C8"/>
<path d="M159.109 31.1666H165V25.3333L159.109 31.1666Z" fill="#E3C5C8"/>
<path d="M165 72.0001V66.1667L159.109 72.0001H165Z" fill="#E3C5C8"/>
<path d="M159.109 7.83333H165V2L159.109 7.83333Z" fill="#E3C5C8"/>
<path d="M165 66.1666V60.3333L159.109 66.1666H165Z" fill="#E3C5C8"/>
<path d="M159.109 19.5001H165V13.6667L159.109 19.5001Z" fill="#E3C5C8"/>
<path d="M159.109 13.6666H165V7.83325L159.109 13.6666Z" fill="#E3C5C8"/>
<path d="M159.109 25.3333H165V19.5L159.109 25.3333Z" fill="#E3C5C8"/>
<path fill-rule="evenodd" clip-rule="evenodd" d="M70.7654 22.9417L84.0578 9.77783V36.1056L70.7654 22.9417ZM84.8529 16.2723H104.86L84.8529 36.0862V16.2723ZM111.987 36.6501H85.4125L98.7048 23.4959L111.997 36.6501H111.987ZM57.0117 37.4181H83.4982L70.2549 50.5334L57.0117 37.4181ZM64.1487 57.6987H84.0578V37.982L64.1487 57.6987ZM63.5401 36.6501V16.8848L83.4982 36.6501H63.5401ZM84.8529 64.2223L98.0962 51.107L84.8529 37.9917V64.2223ZM105.361 37.4473V57.2028L85.4125 37.4473H105.361Z" fill="#F6ECED"/>
</g>
<path d="M43.5 39L27.5 37L43.5 35L43.5 39Z" fill="#54080E"/>
<g filter="url(#filter1_d_10256_225913)">
<path d="M59.9713 45.352C59.5166 45.352 59.194 45.22 59.0033 44.956C58.8273 44.692 58.7393 44.3987 58.7393 44.076C58.7393 43.7827 58.8053 43.4087 58.9373 42.954C59.084 42.4993 59.2673 42.0007 59.4873 41.458C59.7073 40.9007 59.9346 40.3507 60.1693 39.808C60.4186 39.2213 60.7046 38.5467 61.0273 37.784C61.35 37.0213 61.724 36.1487 62.1493 35.166C62.5746 34.1833 63.0513 33.0687 63.5793 31.822L58.9593 31.778C58.4606 31.7633 58.0573 31.8733 57.7493 32.108C57.4413 32.328 57.2873 32.7387 57.2873 33.34H55.9013L56.0553 29.6H65.4273V31.602C64.9286 32.614 64.496 33.5967 64.1293 34.55C63.7773 35.5033 63.4546 36.4567 63.1613 37.41C62.8826 38.3633 62.6113 39.3533 62.3473 40.38C62.098 41.4067 61.8266 42.5067 61.5333 43.68C61.4306 44.0907 61.2473 44.4793 60.9833 44.846C60.734 45.198 60.3966 45.3667 59.9713 45.352ZM71.4938 45.352C70.5258 45.352 69.7485 45.2127 69.1618 44.934C68.5751 44.6553 68.1425 44.296 67.8638 43.856C67.5998 43.416 67.4678 42.954 67.4678 42.47C67.4678 42.074 67.5925 41.7073 67.8418 41.37C68.1058 41.018 68.4651 40.842 68.9198 40.842C69.4771 40.842 69.8511 41.0033 70.0418 41.326C70.2325 41.634 70.3278 41.9347 70.3278 42.228C70.3278 42.3453 70.2985 42.5067 70.2398 42.712C70.1958 42.9027 70.1225 43.0567 70.0198 43.174C70.1371 43.35 70.3205 43.504 70.5698 43.636C70.8338 43.7533 71.1491 43.8047 71.5158 43.79C71.9411 43.7607 72.3151 43.6433 72.6378 43.438C72.9605 43.218 73.2318 42.9247 73.4518 42.558C73.6865 42.1913 73.8698 41.7733 74.0018 41.304C74.1485 40.8347 74.2438 40.336 74.2878 39.808C74.3465 39.2653 74.3611 38.7153 74.3318 38.158C74.0971 38.4367 73.7158 38.708 73.1878 38.972C72.6598 39.236 72.1171 39.3827 71.5598 39.412C70.7531 39.4267 70.0491 39.3167 69.4478 39.082C68.8611 38.8327 68.3698 38.4733 67.9738 38.004C67.5925 37.5347 67.3065 36.9847 67.1158 36.354C66.9251 35.7233 66.8298 35.034 66.8298 34.286C66.8298 33.3033 67.0498 32.438 67.4898 31.69C67.9445 30.9273 68.5678 30.3333 69.3598 29.908C70.1665 29.468 71.0905 29.248 72.1318 29.248C73.1145 29.248 73.9431 29.4313 74.6178 29.798C75.3071 30.1647 75.8645 30.6853 76.2898 31.36C76.7151 32.02 77.0231 32.8047 77.2138 33.714C77.4191 34.6233 77.5218 35.6133 77.5218 36.684C77.5218 37.344 77.4705 38.0627 77.3678 38.84C77.2798 39.6173 77.1111 40.3873 76.8618 41.15C76.6271 41.9127 76.2825 42.6167 75.8278 43.262C75.3878 43.8927 74.8085 44.3987 74.0898 44.78C73.3858 45.1613 72.5205 45.352 71.4938 45.352ZM72.1758 37.652C72.4838 37.652 72.7771 37.586 73.0558 37.454C73.3345 37.322 73.5838 37.146 73.8038 36.926C74.0238 36.706 74.1998 36.464 74.3318 36.2C74.3318 35.496 74.2951 34.8213 74.2218 34.176C74.1485 33.5307 74.0238 32.9513 73.8478 32.438C73.6865 31.9247 73.4591 31.5213 73.1658 31.228C72.8871 30.9347 72.5351 30.788 72.1098 30.788C71.6698 30.788 71.3031 30.9347 71.0098 31.228C70.7165 31.5067 70.4965 31.8733 70.3498 32.328C70.2178 32.7827 70.1518 33.2667 70.1518 33.78C70.1518 34.1027 70.1738 34.484 70.2178 34.924C70.2618 35.364 70.3498 35.7967 70.4818 36.222C70.6138 36.6327 70.8118 36.9773 71.0758 37.256C71.3545 37.52 71.7211 37.652 72.1758 37.652ZM84.1696 45.352C83.2016 45.352 82.4242 45.2127 81.8376 44.934C81.2509 44.6553 80.8182 44.296 80.5396 43.856C80.2756 43.416 80.1436 42.954 80.1436 42.47C80.1436 42.074 80.2682 41.7073 80.5176 41.37C80.7816 41.018 81.1409 40.842 81.5956 40.842C82.1529 40.842 82.5269 41.0033 82.7176 41.326C82.9082 41.634 83.0036 41.9347 83.0036 42.228C83.0036 42.3453 82.9742 42.5067 82.9156 42.712C82.8716 42.9027 82.7982 43.0567 82.6956 43.174C82.8129 43.35 82.9962 43.504 83.2456 43.636C83.5096 43.7533 83.8249 43.8047 84.1916 43.79C84.6169 43.7607 84.9909 43.6433 85.3136 43.438C85.6362 43.218 85.9076 42.9247 86.1276 42.558C86.3622 42.1913 86.5456 41.7733 86.6776 41.304C86.8242 40.8347 86.9196 40.336 86.9636 39.808C87.0222 39.2653 87.0369 38.7153 87.0076 38.158C86.7729 38.4367 86.3916 38.708 85.8636 38.972C85.3356 39.236 84.7929 39.3827 84.2356 39.412C83.4289 39.4267 82.7249 39.3167 82.1236 39.082C81.5369 38.8327 81.0456 38.4733 80.6496 38.004C80.2682 37.5347 79.9822 36.9847 79.7916 36.354C79.6009 35.7233 79.5056 35.034 79.5056 34.286C79.5056 33.3033 79.7256 32.438 80.1656 31.69C80.6202 30.9273 81.2436 30.3333 82.0356 29.908C82.8422 29.468 83.7662 29.248 84.8076 29.248C85.7902 29.248 86.6189 29.4313 87.2936 29.798C87.9829 30.1647 88.5402 30.6853 88.9656 31.36C89.3909 32.02 89.6989 32.8047 89.8896 33.714C90.0949 34.6233 90.1976 35.6133 90.1976 36.684C90.1976 37.344 90.1462 38.0627 90.0436 38.84C89.9556 39.6173 89.7869 40.3873 89.5376 41.15C89.3029 41.9127 88.9582 42.6167 88.5036 43.262C88.0636 43.8927 87.4842 44.3987 86.7656 44.78C86.0616 45.1613 85.1962 45.352 84.1696 45.352ZM84.8516 37.652C85.1596 37.652 85.4529 37.586 85.7316 37.454C86.0102 37.322 86.2596 37.146 86.4796 36.926C86.6996 36.706 86.8756 36.464 87.0076 36.2C87.0076 35.496 86.9709 34.8213 86.8976 34.176C86.8242 33.5307 86.6996 32.9513 86.5236 32.438C86.3622 31.9247 86.1349 31.5213 85.8416 31.228C85.5629 30.9347 85.2109 30.788 84.7856 30.788C84.3456 30.788 83.9789 30.9347 83.6856 31.228C83.3922 31.5067 83.1722 31.8733 83.0256 32.328C82.8936 32.7827 82.8276 33.2667 82.8276 33.78C82.8276 34.1027 82.8496 34.484 82.8936 34.924C82.9376 35.364 83.0256 35.7967 83.1576 36.222C83.2896 36.6327 83.4876 36.9773 83.7516 37.256C84.0302 37.52 84.3969 37.652 84.8516 37.652ZM95.6354 45.352C95.1807 45.352 94.858 45.22 94.6674 44.956C94.4914 44.692 94.4034 44.3987 94.4034 44.076C94.4034 43.7827 94.4694 43.4087 94.6014 42.954C94.748 42.4993 94.9314 42.0007 95.1514 41.458C95.3714 40.9007 95.5987 40.3507 95.8334 39.808C96.0827 39.2213 96.3687 38.5467 96.6914 37.784C97.014 37.0213 97.388 36.1487 97.8134 35.166C98.2387 34.1833 98.7154 33.0687 99.2434 31.822L94.6234 31.778C94.1247 31.7633 93.7214 31.8733 93.4134 32.108C93.1054 32.328 92.9514 32.7387 92.9514 33.34H91.5654L91.7194 29.6H101.091V31.602C100.593 32.614 100.16 33.5967 99.7934 34.55C99.4414 35.5033 99.1187 36.4567 98.8254 37.41C98.5467 38.3633 98.2754 39.3533 98.0114 40.38C97.762 41.4067 97.4907 42.5067 97.1974 43.68C97.0947 44.0907 96.9114 44.4793 96.6474 44.846C96.398 45.198 96.0607 45.3667 95.6354 45.352ZM107.048 45.352C106.095 45.352 105.281 45.198 104.606 44.89C103.931 44.582 103.411 44.2007 103.044 43.746C102.692 43.2767 102.516 42.8073 102.516 42.338C102.516 41.9127 102.648 41.5313 102.912 41.194C103.176 40.8567 103.535 40.6807 103.99 40.666C104.357 40.6513 104.643 40.7247 104.848 40.886C105.053 41.0327 105.2 41.216 105.288 41.436C105.376 41.656 105.42 41.8687 105.42 42.074C105.42 42.1913 105.398 42.338 105.354 42.514C105.325 42.6753 105.266 42.8293 105.178 42.976C105.251 43.1373 105.383 43.284 105.574 43.416C105.765 43.5333 105.977 43.6287 106.212 43.702C106.461 43.7607 106.689 43.79 106.894 43.79C107.481 43.79 107.95 43.636 108.302 43.328C108.669 43.02 108.933 42.624 109.094 42.14C109.255 41.656 109.336 41.1647 109.336 40.666C109.336 40.3287 109.314 39.9473 109.27 39.522C109.226 39.0967 109.116 38.6787 108.94 38.268C108.779 37.8573 108.515 37.52 108.148 37.256C107.796 36.992 107.312 36.86 106.696 36.86C106.491 36.86 106.249 36.8893 105.97 36.948C105.691 36.992 105.383 37.0727 105.046 37.19C104.723 37.3073 104.393 37.4687 104.056 37.674L103.11 36.948L103.022 29.6H108.72C109.233 29.6 109.637 29.5193 109.93 29.358C110.238 29.182 110.392 28.786 110.392 28.17H111.778L111.624 31.734L104.716 31.866V35.782C105.053 35.6353 105.471 35.5107 105.97 35.408C106.469 35.3053 106.938 35.254 107.378 35.254C108.287 35.254 109.079 35.386 109.754 35.65C110.429 35.914 110.986 36.2807 111.426 36.75C111.866 37.2047 112.189 37.7327 112.394 38.334C112.614 38.9207 112.724 39.544 112.724 40.204C112.724 41.3333 112.445 42.2867 111.888 43.064C111.345 43.8267 110.641 44.3987 109.776 44.78C108.911 45.1613 108.001 45.352 107.048 45.352Z" fill="#54080E"/>
</g>
<path d="M125.5 35L141.5 37L125.5 39V35Z" fill="#54080E"/>
</g>
<rect x="4.5" y="2.5" width="160" height="69" rx="4.5" stroke="#E7E5E4" shape-rendering="crispEdges"/>
</g>
<defs>
<filter id="filter0_d_10256_225913" x="0" y="0" width="169" height="78" filterUnits="userSpaceOnUse" color-interpolation-filters="sRGB">
<feFlood flood-opacity="0" result="BackgroundImageFix"/>
<feColorMatrix in="SourceAlpha" type="matrix" values="0 0 0 0 0 0 0 0 0 0 0 0 0 0 0 0 0 0 127 0" result="hardAlpha"/>
<feOffset dy="2"/>
<feGaussianBlur stdDeviation="2"/>
<feComposite in2="hardAlpha" operator="out"/>
<feColorMatrix type="matrix" values="0 0 0 0 0.109804 0 0 0 0 0.0980392 0 0 0 0 0.0901961 0 0 0 0.08 0"/>
<feBlend mode="normal" in2="BackgroundImageFix" result="effect1_dropShadow_10256_225913"/>
<feBlend mode="normal" in="SourceGraphic" in2="effect1_dropShadow_10256_225913" result="shape"/>
</filter>
<filter id="filter1_d_10256_225913" x="55.9004" y="28.1699" width="58.8242" height="19.2041" filterUnits="userSpaceOnUse" color-interpolation-filters="sRGB">
<feFlood flood-opacity="0" result="BackgroundImageFix"/>
<feColorMatrix in="SourceAlpha" type="matrix" values="0 0 0 0 0 0 0 0 0 0 0 0 0 0 0 0 0 0 127 0" result="hardAlpha"/>
<feOffset dx="2" dy="2"/>
<feComposite in2="hardAlpha" operator="out"/>
<feColorMatrix type="matrix" values="0 0 0 0 1 0 0 0 0 1 0 0 0 0 1 0 0 0 1 0"/>
<feBlend mode="normal" in2="BackgroundImageFix" result="effect1_dropShadow_10256_225913"/>
<feBlend mode="normal" in="SourceGraphic" in2="effect1_dropShadow_10256_225913" result="shape"/>
</filter>
<clipPath id="clip0_10256_225913">
<rect x="4" y="2" width="161" height="70" rx="5" fill="white"/>
</clipPath>
</defs>
</svg>
