<svg width="56" height="56" viewBox="0 0 56 56" fill="none" xmlns="http://www.w3.org/2000/svg">
<g clip-path="url(#clip0_9639_56610)">
<rect width="56" height="56" rx="3" fill="#003B64"/>
<rect width="56" height="56" fill="#003B64"/>
<path fill-rule="evenodd" clip-rule="evenodd" d="M41.4409 44.3332C43.977 44.3332 44.6872 42.5405 44.1799 40.947C43.5713 39.1543 38.8033 25.51 38.8033 25.51C38.8033 25.51 33.9339 39.9511 33.3253 41.7437C32.3108 44.7315 28.0501 43.636 29.0645 40.3494C30.079 37.0628 36.0643 18.5385 36.8759 16.2478C37.8903 13.26 39.2091 11.8657 42.2525 11.6665H27.34C24.7024 11.6665 22.8764 13.4592 22.2677 15.5506C21.659 17.6421 14.9636 37.9592 14.3549 39.9511C13.5434 42.3413 12.0217 43.7356 10.5 44.2336C12.7318 44.3332 41.4409 44.3332 41.4409 44.3332Z" fill="#FF0000"/>
</g>
<defs>
<clipPath id="clip0_9639_56610">
<rect width="56" height="56" rx="3" fill="white"/>
</clipPath>
</defs>
</svg>
