<svg width="214" height="93" viewBox="0 0 214 93" fill="none" xmlns="http://www.w3.org/2000/svg">
<g clip-path="url(#clip0_9639_56661)">
<g filter="url(#filter0_d_9639_56661)">
<path d="M26.0727 53.048C26.41 53.0333 26.6887 52.9893 26.9087 52.916C27.1433 52.8427 27.3193 52.674 27.4367 52.41C27.5687 52.146 27.6347 51.7207 27.6347 51.134V42.708C27.6347 42.312 27.642 41.9307 27.6567 41.564C27.686 41.1973 27.708 40.9187 27.7227 40.728C27.488 40.7427 27.1947 40.7573 26.8427 40.772C26.4907 40.772 26.234 40.7793 26.0727 40.794V39.1C27.114 39.0853 28.1553 39.078 29.1967 39.078C30.238 39.078 31.2793 39.0707 32.3207 39.056C33.6113 39.0413 34.7333 39.21 35.6867 39.562C36.6547 39.914 37.3953 40.4567 37.9087 41.19C38.4367 41.9233 38.686 42.8767 38.6567 44.05C38.642 44.6367 38.5027 45.216 38.2387 45.788C37.9747 46.3453 37.586 46.8587 37.0727 47.328C36.5593 47.7827 35.914 48.1567 35.1367 48.45C34.3593 48.7433 33.45 48.9047 32.4087 48.934C32.086 48.9487 31.8 48.956 31.5507 48.956C31.316 48.956 31.074 48.9487 30.8247 48.934V50.87C30.8247 51.2807 30.8173 51.6693 30.8027 52.036C30.788 52.4027 30.766 52.6813 30.7367 52.872C30.898 52.8573 31.1033 52.85 31.3527 52.85C31.602 52.8353 31.844 52.828 32.0787 52.828C32.328 52.8133 32.504 52.806 32.6067 52.806V54.5H26.0727V53.048ZM30.8247 47.284C30.986 47.2987 31.1473 47.3133 31.3087 47.328C31.47 47.3427 31.6387 47.35 31.8147 47.35C32.6213 47.35 33.274 47.218 33.7727 46.954C34.286 46.6753 34.66 46.2793 34.8947 45.766C35.1293 45.238 35.2467 44.6 35.2467 43.852C35.2467 43.1187 35.144 42.532 34.9387 42.092C34.748 41.652 34.4987 41.3293 34.1907 41.124C33.8827 40.904 33.56 40.7647 33.2227 40.706C32.8853 40.6327 32.5773 40.596 32.2987 40.596C31.9907 40.596 31.7267 40.6327 31.5067 40.706C31.2867 40.7793 31.118 40.9407 31.0007 41.19C30.8833 41.4393 30.8247 41.8207 30.8247 42.334V47.284ZM44.4794 54.852C43.5994 54.852 42.8881 54.6833 42.3454 54.346C41.8174 54.0087 41.4288 53.4807 41.1794 52.762C40.9448 52.0433 40.8274 51.1193 40.8274 49.99V47.46C40.8274 47.196 40.8348 46.8953 40.8494 46.558C40.8641 46.206 40.8788 45.8687 40.8934 45.546C40.6588 45.5607 40.3801 45.5753 40.0574 45.59C39.7494 45.59 39.5148 45.5973 39.3534 45.612V43.94H39.5734C40.4828 43.94 41.2014 43.8667 41.7294 43.72C42.2574 43.5733 42.5948 43.4267 42.7414 43.28H43.9514V50.012C43.9514 50.9653 44.0761 51.6767 44.3254 52.146C44.5748 52.6007 44.9708 52.828 45.5134 52.828C45.8948 52.828 46.2761 52.7253 46.6574 52.52C47.0534 52.3 47.3761 52.0507 47.6254 51.772V47.46C47.6254 47.196 47.6328 46.8953 47.6474 46.558C47.6621 46.206 47.6841 45.8687 47.7134 45.546C47.4788 45.5607 47.2001 45.5753 46.8774 45.59C46.5694 45.59 46.3348 45.5973 46.1734 45.612V43.94H46.7014C47.3908 43.94 47.9994 43.8667 48.5274 43.72C49.0554 43.5587 49.3928 43.412 49.5394 43.28H50.7494V50.958C50.7494 51.1633 50.7421 51.4567 50.7274 51.838C50.7128 52.2047 50.6908 52.5567 50.6614 52.894C50.8961 52.8647 51.1528 52.85 51.4314 52.85C51.7248 52.8353 51.9448 52.828 52.0914 52.828V54.5H47.9114C47.8968 54.3093 47.8748 54.1187 47.8454 53.928C47.8308 53.7373 47.8088 53.5467 47.7794 53.356C47.3248 53.7373 46.8334 54.082 46.3054 54.39C45.7921 54.698 45.1834 54.852 44.4794 54.852ZM53.525 53.07C53.9357 53.07 54.229 52.9893 54.405 52.828C54.581 52.6667 54.691 52.4393 54.735 52.146C54.7937 51.838 54.823 51.4933 54.823 51.112V47.416C54.823 47.152 54.8304 46.8587 54.845 46.536C54.8597 46.1987 54.8817 45.8687 54.911 45.546C54.6764 45.5607 54.3977 45.5753 54.075 45.59C53.767 45.59 53.5324 45.5973 53.371 45.612V43.94H54.251C54.823 43.94 55.3437 43.8667 55.813 43.72C56.297 43.5733 56.6124 43.4267 56.759 43.28H57.837C57.8664 43.4267 57.8884 43.7053 57.903 44.116C57.9177 44.512 57.925 44.864 57.925 45.172C58.321 44.688 58.695 44.2993 59.047 44.006C59.399 43.7127 59.7437 43.5 60.081 43.368C60.433 43.2213 60.785 43.148 61.137 43.148C61.6504 43.148 62.0977 43.2947 62.479 43.588C62.8604 43.8667 63.051 44.3287 63.051 44.974C63.051 45.194 62.9997 45.4287 62.897 45.678C62.7944 45.9127 62.633 46.1107 62.413 46.272C62.193 46.4333 61.8924 46.514 61.511 46.514C61.2177 46.514 60.917 46.426 60.609 46.25C60.301 46.074 60.125 45.7367 60.081 45.238C59.7877 45.238 59.4944 45.3627 59.201 45.612C58.9077 45.8467 58.6437 46.1327 58.409 46.47C58.189 46.7927 58.035 47.0933 57.947 47.372V50.958C57.947 51.1633 57.9397 51.4567 57.925 51.838C57.9104 52.2047 57.8884 52.5567 57.859 52.894C58.0937 52.8647 58.3504 52.85 58.629 52.85C58.9224 52.8353 59.1424 52.828 59.289 52.828V54.5H53.525V53.07ZM69.1155 54.852C68.1328 54.852 67.2308 54.632 66.4095 54.192C65.5882 53.752 64.9282 53.114 64.4295 52.278C63.9455 51.442 63.7035 50.43 63.7035 49.242C63.7035 48.406 63.8428 47.6213 64.1215 46.888C64.4002 46.1547 64.7888 45.5093 65.2875 44.952C65.8008 44.3947 66.4022 43.9547 67.0915 43.632C67.7955 43.3093 68.5728 43.148 69.4235 43.148C70.3622 43.148 71.1395 43.2947 71.7555 43.588C72.3862 43.8667 72.8555 44.2407 73.1635 44.71C73.4862 45.1647 73.6475 45.6487 73.6475 46.162C73.6475 46.5873 73.5155 46.9687 73.2515 47.306C73.0022 47.6287 72.6428 47.7973 72.1735 47.812C71.6162 47.8267 71.2275 47.6727 71.0075 47.35C70.7875 47.0127 70.6775 46.69 70.6775 46.382C70.6775 46.25 70.6995 46.096 70.7435 45.92C70.7875 45.7293 70.8535 45.5607 70.9415 45.414C70.8388 45.194 70.6848 45.0327 70.4795 44.93C70.2742 44.8273 70.0615 44.7613 69.8415 44.732C69.6362 44.688 69.4675 44.6733 69.3355 44.688C68.6315 44.732 68.0522 45.084 67.5975 45.744C67.1428 46.404 66.9155 47.3573 66.9155 48.604C66.9155 49.3373 67.0035 50.0267 67.1795 50.672C67.3702 51.3027 67.6782 51.8233 68.1035 52.234C68.5288 52.6447 69.1008 52.8647 69.8195 52.894C70.4355 52.9087 71.0368 52.762 71.6235 52.454C72.2102 52.146 72.7088 51.728 73.1195 51.2L74.1315 52.19C73.6035 52.9233 73.0535 53.4807 72.4815 53.862C71.9095 54.2433 71.3375 54.5 70.7655 54.632C70.2082 54.7787 69.6582 54.852 69.1155 54.852ZM81.8662 53.07C82.2769 53.07 82.5702 52.9893 82.7462 52.828C82.9369 52.6667 83.0542 52.4393 83.0982 52.146C83.1569 51.838 83.1862 51.4933 83.1862 51.112L83.1642 47.988C83.1495 47.0347 83.0029 46.3307 82.7242 45.876C82.4455 45.4067 81.9982 45.172 81.3822 45.172C81.0155 45.172 80.6489 45.2527 80.2822 45.414C79.9302 45.5753 79.6295 45.766 79.3802 45.986V50.958C79.3802 51.1633 79.3729 51.4567 79.3582 51.838C79.3435 52.2047 79.3215 52.5567 79.2922 52.894C79.5415 52.8647 79.8055 52.85 80.0842 52.85C80.3629 52.8353 80.5755 52.828 80.7222 52.828V54.5H74.9582V53.07C75.3689 53.07 75.6622 52.9893 75.8382 52.828C76.0289 52.6667 76.1462 52.4393 76.1902 52.146C76.2342 51.838 76.2562 51.4933 76.2562 51.112V42.07C76.2562 41.806 76.2635 41.5053 76.2782 41.168C76.2929 40.816 76.3149 40.4787 76.3442 40.156C76.1095 40.1707 75.8309 40.1853 75.5082 40.2C75.2002 40.2 74.9655 40.2073 74.8042 40.222V38.55C75.4935 38.55 76.0655 38.5133 76.5202 38.44C76.9895 38.3667 77.3562 38.2787 77.6202 38.176C77.8989 38.0733 78.0895 37.978 78.1922 37.89H79.3802V44.38C79.6735 44.1453 80.0109 43.94 80.3922 43.764C80.7735 43.5733 81.1622 43.4267 81.5582 43.324C81.9542 43.2067 82.2989 43.148 82.5922 43.148C83.9415 43.148 84.8949 43.5367 85.4522 44.314C86.0242 45.0767 86.3102 46.3087 86.3102 48.01V50.958C86.3102 51.1633 86.3029 51.4567 86.2882 51.838C86.2735 52.2047 86.2515 52.5567 86.2222 52.894C86.4569 52.8647 86.7135 52.85 86.9922 52.85C87.2709 52.8353 87.4909 52.828 87.6522 52.828V54.5H81.8662V53.07ZM95.0903 54.5C95.0609 54.2947 95.0389 54.126 95.0243 53.994C95.0243 53.8473 95.0169 53.6787 95.0023 53.488C94.5036 53.9867 93.9756 54.3387 93.4183 54.544C92.8609 54.7493 92.2963 54.852 91.7243 54.852C90.7856 54.852 90.0523 54.5733 89.5243 54.016C88.9963 53.4587 88.7323 52.762 88.7323 51.926C88.7323 51.222 88.9083 50.6207 89.2603 50.122C89.6269 49.6233 90.1036 49.22 90.6903 48.912C91.2916 48.5893 91.9516 48.3473 92.6703 48.186C93.4036 48.01 94.1369 47.9073 94.8703 47.878V46.734C94.8703 46.3527 94.8189 46.008 94.7163 45.7C94.6283 45.392 94.4669 45.15 94.2323 44.974C94.0123 44.798 93.6969 44.7173 93.2863 44.732C93.0076 44.7467 92.7363 44.8053 92.4723 44.908C92.2083 45.0107 91.9809 45.1573 91.7903 45.348C91.9076 45.48 91.9809 45.6267 92.0103 45.788C92.0396 45.9347 92.0543 46.0667 92.0543 46.184C92.0543 46.4773 91.9369 46.7853 91.7023 47.108C91.4676 47.416 91.0936 47.5627 90.5803 47.548C90.1403 47.5333 89.8029 47.3793 89.5683 47.086C89.3336 46.7927 89.2163 46.448 89.2163 46.052C89.2163 45.4653 89.4216 44.9593 89.8323 44.534C90.2576 44.094 90.8223 43.7567 91.5263 43.522C92.2303 43.2727 93.0076 43.148 93.8583 43.148C95.1489 43.148 96.1463 43.4853 96.8503 44.16C97.5689 44.82 97.9283 45.8833 97.9283 47.35C97.9283 47.8487 97.9283 48.274 97.9283 48.626C97.9283 48.978 97.9209 49.33 97.9063 49.682C97.9063 50.034 97.9063 50.4593 97.9063 50.958C97.9063 51.1633 97.8989 51.4567 97.8843 51.838C97.8696 52.2047 97.8476 52.5567 97.8183 52.894C98.0676 52.8647 98.3316 52.85 98.6103 52.85C98.8889 52.8353 99.1016 52.828 99.2483 52.828V54.5H95.0903ZM94.8483 49.44C94.4376 49.484 94.0489 49.5573 93.6823 49.66C93.3156 49.7627 92.9929 49.902 92.7143 50.078C92.4503 50.254 92.2376 50.4667 92.0763 50.716C91.9296 50.9653 91.8563 51.244 91.8563 51.552C91.8709 51.9627 92.0029 52.256 92.2523 52.432C92.5016 52.608 92.7876 52.696 93.1103 52.696C93.4476 52.696 93.7629 52.6227 94.0563 52.476C94.3496 52.3293 94.6136 52.1387 94.8483 51.904C94.8483 51.7573 94.8483 51.618 94.8483 51.486C94.8483 51.3393 94.8483 51.1927 94.8483 51.046C94.8483 50.782 94.8483 50.518 94.8483 50.254C94.8483 49.9753 94.8483 49.704 94.8483 49.44ZM105.571 54.852C104.941 54.852 104.325 54.7713 103.723 54.61C103.122 54.4487 102.653 54.2433 102.315 53.994L102.359 54.654H100.687L100.599 50.87H102.029C102.073 51.31 102.249 51.7133 102.557 52.08C102.865 52.4467 103.269 52.74 103.767 52.96C104.266 53.1653 104.823 53.268 105.439 53.268C105.689 53.268 105.923 53.2313 106.143 53.158C106.378 53.0847 106.569 52.9673 106.715 52.806C106.877 52.63 106.957 52.4173 106.957 52.168C106.957 51.8893 106.855 51.662 106.649 51.486C106.459 51.31 106.173 51.1413 105.791 50.98C105.425 50.8187 104.963 50.6353 104.405 50.43C103.951 50.254 103.489 50.0707 103.019 49.88C102.565 49.6893 102.139 49.462 101.743 49.198C101.362 48.9193 101.054 48.582 100.819 48.186C100.585 47.7753 100.467 47.2767 100.467 46.69C100.467 46.2647 100.548 45.8467 100.709 45.436C100.871 45.0107 101.12 44.6293 101.457 44.292C101.795 43.94 102.22 43.6613 102.733 43.456C103.261 43.2507 103.885 43.148 104.603 43.148C104.999 43.148 105.447 43.214 105.945 43.346C106.459 43.4633 106.891 43.6467 107.243 43.896V43.258H108.915V47.152H107.485C107.397 46.6387 107.214 46.1987 106.935 45.832C106.671 45.4653 106.327 45.1867 105.901 44.996C105.476 44.7907 104.999 44.688 104.471 44.688C104.105 44.688 103.767 44.776 103.459 44.952C103.166 45.128 103.019 45.4287 103.019 45.854C103.019 46.1913 103.137 46.4627 103.371 46.668C103.606 46.8587 103.929 47.02 104.339 47.152C104.75 47.284 105.205 47.438 105.703 47.614C106.451 47.8633 107.111 48.1567 107.683 48.494C108.27 48.8313 108.732 49.242 109.069 49.726C109.407 50.1953 109.575 50.7747 109.575 51.464C109.575 52.2267 109.385 52.8573 109.003 53.356C108.622 53.8547 108.123 54.2287 107.507 54.478C106.906 54.7273 106.261 54.852 105.571 54.852ZM116.403 54.852C115.332 54.852 114.386 54.6173 113.565 54.148C112.744 53.664 112.106 52.9893 111.651 52.124C111.196 51.244 110.969 50.21 110.969 49.022C110.969 47.9953 111.196 47.0347 111.651 46.14C112.106 45.2453 112.744 44.5267 113.565 43.984C114.401 43.4267 115.369 43.148 116.469 43.148C117.085 43.148 117.686 43.236 118.273 43.412C118.86 43.5733 119.388 43.8593 119.857 44.27C120.341 44.6807 120.722 45.238 121.001 45.942C121.294 46.646 121.434 47.526 121.419 48.582L114.203 48.714C114.203 49.506 114.298 50.2173 114.489 50.848C114.694 51.4787 115.024 51.9773 115.479 52.344C115.934 52.7107 116.542 52.894 117.305 52.894C117.598 52.894 117.928 52.8427 118.295 52.74C118.676 52.6373 119.058 52.4687 119.439 52.234C119.835 51.9847 120.202 51.6547 120.539 51.244L121.529 52.168C121.001 52.916 120.436 53.488 119.835 53.884C119.234 54.2653 118.632 54.522 118.031 54.654C117.444 54.786 116.902 54.852 116.403 54.852ZM114.335 47.174H118.383C118.368 46.558 118.28 46.074 118.119 45.722C117.972 45.3553 117.767 45.0913 117.503 44.93C117.239 44.7687 116.931 44.688 116.579 44.688C115.934 44.688 115.428 44.9227 115.061 45.392C114.694 45.8467 114.452 46.4407 114.335 47.174ZM133.162 54.852C132.722 54.852 132.297 54.8007 131.886 54.698C131.476 54.5953 131.109 54.4047 130.786 54.126C130.464 53.8327 130.207 53.4073 130.016 52.85C129.826 52.2927 129.73 51.552 129.73 50.628L129.774 45.326H128.278V43.5C128.733 43.4853 129.173 43.3313 129.598 43.038C130.024 42.7447 130.383 42.3633 130.676 41.894C130.984 41.4247 131.19 40.9333 131.292 40.42H132.92L132.898 43.5H135.692V45.194L132.898 45.26L132.876 50.672C132.876 51.0093 132.906 51.3467 132.964 51.684C133.038 52.0067 133.17 52.278 133.36 52.498C133.551 52.7033 133.83 52.806 134.196 52.806C134.402 52.806 134.68 52.7327 135.032 52.586C135.399 52.4393 135.788 52.0727 136.198 51.486L137.254 52.476C136.858 53.0627 136.448 53.5173 136.022 53.84C135.597 54.1627 135.186 54.3973 134.79 54.544C134.409 54.6907 134.072 54.7787 133.778 54.808C133.485 54.8373 133.28 54.852 133.162 54.852ZM137.894 53.07C138.305 53.07 138.598 52.9893 138.774 52.828C138.95 52.6667 139.06 52.4393 139.104 52.146C139.163 51.838 139.192 51.4933 139.192 51.112V47.46C139.192 47.196 139.2 46.8953 139.214 46.558C139.229 46.206 139.251 45.8687 139.28 45.546C139.046 45.5607 138.767 45.5753 138.444 45.59C138.136 45.59 137.902 45.5973 137.74 45.612V43.94C138.415 43.94 138.987 43.9033 139.456 43.83C139.926 43.7567 140.292 43.6687 140.556 43.566C140.835 43.4633 141.026 43.368 141.128 43.28H142.316V50.958C142.316 51.1633 142.309 51.4567 142.294 51.838C142.28 52.2047 142.258 52.5567 142.228 52.894C142.463 52.8647 142.72 52.85 142.998 52.85C143.292 52.8353 143.512 52.828 143.658 52.828V54.5H137.894V53.07ZM140.644 41.542C140.146 41.542 139.735 41.366 139.412 41.014C139.09 40.662 138.928 40.2367 138.928 39.738C138.928 39.2393 139.097 38.814 139.434 38.462C139.772 38.11 140.168 37.934 140.622 37.934C141.092 37.934 141.48 38.11 141.788 38.462C142.111 38.814 142.272 39.2393 142.272 39.738C142.272 40.2367 142.126 40.662 141.832 41.014C141.539 41.366 141.143 41.542 140.644 41.542ZM150.283 54.852C149.301 54.852 148.399 54.632 147.577 54.192C146.756 53.752 146.096 53.114 145.597 52.278C145.113 51.442 144.871 50.43 144.871 49.242C144.871 48.406 145.011 47.6213 145.289 46.888C145.568 46.1547 145.957 45.5093 146.455 44.952C146.969 44.3947 147.57 43.9547 148.259 43.632C148.963 43.3093 149.741 43.148 150.591 43.148C151.53 43.148 152.307 43.2947 152.923 43.588C153.554 43.8667 154.023 44.2407 154.331 44.71C154.654 45.1647 154.815 45.6487 154.815 46.162C154.815 46.5873 154.683 46.9687 154.419 47.306C154.17 47.6287 153.811 47.7973 153.341 47.812C152.784 47.8267 152.395 47.6727 152.175 47.35C151.955 47.0127 151.845 46.69 151.845 46.382C151.845 46.25 151.867 46.096 151.911 45.92C151.955 45.7293 152.021 45.5607 152.109 45.414C152.007 45.194 151.853 45.0327 151.647 44.93C151.442 44.8273 151.229 44.7613 151.009 44.732C150.804 44.688 150.635 44.6733 150.503 44.688C149.799 44.732 149.22 45.084 148.765 45.744C148.311 46.404 148.083 47.3573 148.083 48.604C148.083 49.3373 148.171 50.0267 148.347 50.672C148.538 51.3027 148.846 51.8233 149.271 52.234C149.697 52.6447 150.269 52.8647 150.987 52.894C151.603 52.9087 152.205 52.762 152.791 52.454C153.378 52.146 153.877 51.728 154.287 51.2L155.299 52.19C154.771 52.9233 154.221 53.4807 153.649 53.862C153.077 54.2433 152.505 54.5 151.933 54.632C151.376 54.7787 150.826 54.852 150.283 54.852ZM156.126 54.5V53.07C156.537 53.07 156.83 52.9893 157.006 52.828C157.197 52.6667 157.314 52.4393 157.358 52.146C157.417 51.838 157.446 51.4933 157.446 51.112V42.07C157.446 41.806 157.454 41.5053 157.468 41.168C157.483 40.816 157.505 40.4787 157.534 40.156C157.3 40.1707 157.021 40.1853 156.698 40.2C156.39 40.2 156.156 40.2073 155.994 40.222V38.55C156.669 38.55 157.234 38.5133 157.688 38.44C158.158 38.3667 158.532 38.2787 158.81 38.176C159.089 38.0733 159.272 37.978 159.36 37.89H160.57V47.922H161.626L163.21 46.096C163.401 45.8907 163.555 45.7147 163.672 45.568C163.804 45.4213 163.936 45.2893 164.068 45.172H162.902V43.5H167.852V44.908C167.339 44.9667 166.884 45.0913 166.488 45.282C166.092 45.458 165.748 45.6707 165.454 45.92C165.176 46.1693 164.934 46.4113 164.728 46.646L163.32 48.23C163.54 48.3327 163.753 48.4867 163.958 48.692C164.178 48.8827 164.442 49.1833 164.75 49.594L166.224 51.53C166.312 51.6327 166.422 51.772 166.554 51.948C166.701 52.124 166.862 52.3 167.038 52.476C167.214 52.6373 167.405 52.7767 167.61 52.894C167.816 53.0113 168.028 53.07 168.248 53.07V54.5H165.718C165.249 54.5 164.838 54.3387 164.486 54.016C164.134 53.6787 163.731 53.202 163.276 52.586C163.012 52.234 162.734 51.86 162.44 51.464C162.162 51.0533 161.898 50.672 161.648 50.32C161.414 49.9533 161.223 49.6673 161.076 49.462L160.57 49.484V50.958C160.57 51.1633 160.563 51.4567 160.548 51.838C160.534 52.2047 160.512 52.5567 160.482 52.894C160.717 52.8647 160.974 52.85 161.252 52.85C161.531 52.8353 161.751 52.828 161.912 52.828V54.5H156.126ZM174.218 54.852C173.147 54.852 172.201 54.6173 171.38 54.148C170.558 53.664 169.92 52.9893 169.466 52.124C169.011 51.244 168.784 50.21 168.784 49.022C168.784 47.9953 169.011 47.0347 169.466 46.14C169.92 45.2453 170.558 44.5267 171.38 43.984C172.216 43.4267 173.184 43.148 174.284 43.148C174.9 43.148 175.501 43.236 176.088 43.412C176.674 43.5733 177.202 43.8593 177.672 44.27C178.156 44.6807 178.537 45.238 178.816 45.942C179.109 46.646 179.248 47.526 179.234 48.582L172.018 48.714C172.018 49.506 172.113 50.2173 172.304 50.848C172.509 51.4787 172.839 51.9773 173.294 52.344C173.748 52.7107 174.357 52.894 175.12 52.894C175.413 52.894 175.743 52.8427 176.11 52.74C176.491 52.6373 176.872 52.4687 177.254 52.234C177.65 51.9847 178.016 51.6547 178.354 51.244L179.344 52.168C178.816 52.916 178.251 53.488 177.65 53.884C177.048 54.2653 176.447 54.522 175.846 54.654C175.259 54.786 174.716 54.852 174.218 54.852ZM172.15 47.174H176.198C176.183 46.558 176.095 46.074 175.934 45.722C175.787 45.3553 175.582 45.0913 175.318 44.93C175.054 44.7687 174.746 44.688 174.394 44.688C173.748 44.688 173.242 44.9227 172.876 45.392C172.509 45.8467 172.267 46.4407 172.15 47.174ZM185.197 54.852C184.757 54.852 184.332 54.8007 183.921 54.698C183.511 54.5953 183.144 54.4047 182.821 54.126C182.499 53.8327 182.242 53.4073 182.051 52.85C181.861 52.2927 181.765 51.552 181.765 50.628L181.809 45.326H180.313V43.5C180.768 43.4853 181.208 43.3313 181.633 43.038C182.059 42.7447 182.418 42.3633 182.711 41.894C183.019 41.4247 183.225 40.9333 183.327 40.42H184.955L184.933 43.5H187.727V45.194L184.933 45.26L184.911 50.672C184.911 51.0093 184.941 51.3467 184.999 51.684C185.073 52.0067 185.205 52.278 185.395 52.498C185.586 52.7033 185.865 52.806 186.231 52.806C186.437 52.806 186.715 52.7327 187.067 52.586C187.434 52.4393 187.823 52.0727 188.233 51.486L189.289 52.476C188.893 53.0627 188.483 53.5173 188.057 53.84C187.632 54.1627 187.221 54.3973 186.825 54.544C186.444 54.6907 186.107 54.7787 185.813 54.808C185.52 54.8373 185.315 54.852 185.197 54.852Z" fill="#54080E"/>
</g>
</g>
<rect x="0.5" y="0.5" width="213" height="92" rx="4.5" stroke="#D6D3D1" stroke-dasharray="10 10"/>
<defs>
<filter id="filter0_d_9639_56661" x="26.0723" y="37.8901" width="165.217" height="18.9619" filterUnits="userSpaceOnUse" color-interpolation-filters="sRGB">
<feFlood flood-opacity="0" result="BackgroundImageFix"/>
<feColorMatrix in="SourceAlpha" type="matrix" values="0 0 0 0 0 0 0 0 0 0 0 0 0 0 0 0 0 0 127 0" result="hardAlpha"/>
<feOffset dx="2" dy="2"/>
<feComposite in2="hardAlpha" operator="out"/>
<feColorMatrix type="matrix" values="0 0 0 0 1 0 0 0 0 1 0 0 0 0 1 0 0 0 1 0"/>
<feBlend mode="normal" in2="BackgroundImageFix" result="effect1_dropShadow_9639_56661"/>
<feBlend mode="normal" in="SourceGraphic" in2="effect1_dropShadow_9639_56661" result="shape"/>
</filter>
<clipPath id="clip0_9639_56661">
<rect width="214" height="93" rx="5" fill="white"/>
</clipPath>
</defs>
</svg>
