<svg width="500" height="36" viewBox="0 0 500 36" fill="none" xmlns="http://www.w3.org/2000/svg">
<g clip-path="url(#clip0_9560_51492)">
<path fill-rule="evenodd" clip-rule="evenodd" d="M9.33333 30C9.33333 28.5272 10.5272 27.3333 12 27.3333C13.4728 27.3333 14.6667 28.5272 14.6667 30C14.6667 31.4728 13.4728 32.6667 12 32.6667C10.5272 32.6667 9.33333 31.4728 9.33333 30Z" fill="#44403C"/>
<path fill-rule="evenodd" clip-rule="evenodd" d="M24 30C24 28.5272 25.1939 27.3333 26.6667 27.3333C28.1394 27.3333 29.3333 28.5272 29.3333 30C29.3333 31.4728 28.1394 32.6667 26.6667 32.6667C25.1939 32.6667 24 31.4728 24 30Z" fill="#44403C"/>
<path fill-rule="evenodd" clip-rule="evenodd" d="M0 3.33333C0 2.59695 0.596954 2 1.33333 2H6.66667C7.30217 2 7.84935 2.44851 7.97407 3.07166L9.09391 8.66667H30.6667C31.064 8.66667 31.4407 8.8439 31.694 9.15007C31.9473 9.45624 32.0508 9.85944 31.9764 10.2498L29.8412 21.4464C29.6583 22.3672 29.1573 23.1943 28.426 23.783C27.6984 24.3688 26.7888 24.6813 25.8551 24.6667H12.9182C11.9845 24.6813 11.0749 24.3688 10.3473 23.783C9.61633 23.1946 9.11551 22.3679 8.93244 21.4476C8.93236 21.4472 8.93251 21.4479 8.93244 21.4476L6.70505 10.3189C6.69602 10.2821 6.68851 10.2447 6.6826 10.2068L5.57375 4.66667H1.33333C0.596954 4.66667 0 4.06971 0 3.33333ZM9.62764 11.3333L11.5478 20.9269C11.6087 21.2338 11.7757 21.5096 12.0195 21.7058C12.2632 21.902 12.5683 22.0062 12.8811 22.0002L12.9067 22H25.8667L25.8922 22.0002C26.2051 22.0062 26.5101 21.902 26.7539 21.7058C26.9965 21.5105 27.163 21.2364 27.2247 20.9312L29.055 11.3333H9.62764Z" fill="#44403C"/>
</g>
<path d="M63.876 14.728C63.876 13.72 63.736 12.8893 63.456 12.236C63.176 11.564 62.7747 11.0693 62.252 10.752C61.748 10.416 61.1413 10.2573 60.432 10.276H59.088V23.408C59.088 23.912 59.0787 24.3973 59.06 24.864C59.0413 25.3307 59.0133 25.6853 58.976 25.928C59.2933 25.8907 59.6947 25.872 60.18 25.872C60.684 25.8533 61.0293 25.844 61.216 25.844V28H53.04V26.152C53.4693 26.1333 53.824 26.0773 54.104 25.984C54.4027 25.8907 54.6267 25.676 54.776 25.34C54.944 25.004 55.028 24.4627 55.028 23.716V10.304H53.74C52.676 10.3227 51.836 10.6867 51.22 11.396C50.604 12.1053 50.296 13.216 50.296 14.728H48.448L48.588 8.4H65.556L65.724 14.728H63.876ZM67.2496 26.18C67.7722 26.18 68.1456 26.0773 68.3696 25.872C68.5936 25.6667 68.7336 25.3773 68.7896 25.004C68.8642 24.612 68.9016 24.1733 68.9016 23.688V19.04C68.9016 18.704 68.9109 18.3213 68.9296 17.892C68.9482 17.444 68.9762 17.0147 69.0136 16.604C68.7149 16.6227 68.3602 16.6413 67.9496 16.66C67.5576 16.66 67.2589 16.6693 67.0536 16.688V14.56C67.9122 14.56 68.6402 14.5133 69.2376 14.42C69.8349 14.3267 70.3016 14.2147 70.6376 14.084C70.9922 13.9533 71.2349 13.832 71.3656 13.72H72.8776V23.492C72.8776 23.7533 72.8682 24.1267 72.8496 24.612C72.8309 25.0787 72.8029 25.5267 72.7656 25.956C73.0642 25.9187 73.3909 25.9 73.7456 25.9C74.1189 25.8813 74.3989 25.872 74.5856 25.872V28H67.2496V26.18ZM70.7496 11.508C70.1149 11.508 69.5922 11.284 69.1816 10.836C68.7709 10.388 68.5656 9.84667 68.5656 9.212C68.5656 8.57733 68.7802 8.036 69.2096 7.588C69.6389 7.14 70.1429 6.916 70.7216 6.916C71.3189 6.916 71.8136 7.14 72.2056 7.588C72.6162 8.036 72.8216 8.57733 72.8216 9.212C72.8216 9.84667 72.6349 10.388 72.2616 10.836C71.8882 11.284 71.3842 11.508 70.7496 11.508ZM83.0177 28.448C81.7671 28.448 80.6191 28.168 79.5737 27.608C78.5284 27.048 77.6884 26.236 77.0537 25.172C76.4377 24.108 76.1297 22.82 76.1297 21.308C76.1297 20.244 76.3071 19.2453 76.6617 18.312C77.0164 17.3787 77.5111 16.5573 78.1457 15.848C78.7991 15.1387 79.5644 14.5787 80.4417 14.168C81.3377 13.7573 82.3271 13.552 83.4097 13.552C84.6044 13.552 85.5937 13.7387 86.3777 14.112C87.1804 14.4667 87.7777 14.9427 88.1697 15.54C88.5804 16.1187 88.7857 16.7347 88.7857 17.388C88.7857 17.9293 88.6177 18.4147 88.2817 18.844C87.9644 19.2547 87.5071 19.4693 86.9097 19.488C86.2004 19.5067 85.7057 19.3107 85.4257 18.9C85.1457 18.4707 85.0057 18.06 85.0057 17.668C85.0057 17.5 85.0337 17.304 85.0897 17.08C85.1457 16.8373 85.2297 16.6227 85.3417 16.436C85.2111 16.156 85.0151 15.9507 84.7537 15.82C84.4924 15.6893 84.2217 15.6053 83.9417 15.568C83.6804 15.512 83.4657 15.4933 83.2977 15.512C82.4017 15.568 81.6644 16.016 81.0857 16.856C80.5071 17.696 80.2177 18.9093 80.2177 20.496C80.2177 21.4293 80.3297 22.3067 80.5537 23.128C80.7964 23.9307 81.1884 24.5933 81.7297 25.116C82.2711 25.6387 82.9991 25.9187 83.9137 25.956C84.6977 25.9747 85.4631 25.788 86.2097 25.396C86.9564 25.004 87.5911 24.472 88.1137 23.8L89.4017 25.06C88.7297 25.9933 88.0297 26.7027 87.3017 27.188C86.5737 27.6733 85.8457 28 85.1177 28.168C84.4084 28.3547 83.7084 28.448 83.0177 28.448ZM90.4539 28V26.18C90.9766 26.18 91.3499 26.0773 91.5739 25.872C91.8166 25.6667 91.9659 25.3773 92.0219 25.004C92.0966 24.612 92.1339 24.1733 92.1339 23.688V12.18C92.1339 11.844 92.1432 11.4613 92.1619 11.032C92.1806 10.584 92.2086 10.1547 92.2459 9.744C91.9472 9.76267 91.5926 9.78133 91.1819 9.8C90.7899 9.8 90.4912 9.80933 90.2859 9.828V7.7C91.1446 7.7 91.8632 7.65333 92.4419 7.56C93.0392 7.46667 93.5152 7.35467 93.8699 7.224C94.2246 7.09333 94.4579 6.972 94.5699 6.86H96.1099V19.628H97.4539L99.4699 17.304C99.7126 17.0427 99.9086 16.8187 100.058 16.632C100.226 16.4453 100.394 16.2773 100.562 16.128H99.0779V14H105.378V15.792C104.725 15.8667 104.146 16.0253 103.642 16.268C103.138 16.492 102.699 16.7627 102.326 17.08C101.971 17.3973 101.663 17.7053 101.402 18.004L99.6099 20.02C99.8899 20.1507 100.161 20.3467 100.422 20.608C100.702 20.8507 101.038 21.2333 101.43 21.756L103.306 24.22C103.418 24.3507 103.558 24.528 103.726 24.752C103.913 24.976 104.118 25.2 104.342 25.424C104.566 25.6293 104.809 25.8067 105.07 25.956C105.331 26.1053 105.602 26.18 105.882 26.18V28H102.662C102.065 28 101.542 27.7947 101.094 27.384C100.646 26.9547 100.133 26.348 99.5539 25.564C99.2179 25.116 98.8632 24.64 98.4899 24.136C98.1352 23.6133 97.7992 23.128 97.4819 22.68C97.1832 22.2133 96.9406 21.8493 96.7539 21.588L96.1099 21.616V23.492C96.1099 23.7533 96.1006 24.1267 96.0819 24.612C96.0632 25.0787 96.0352 25.5267 95.9979 25.956C96.2966 25.9187 96.6232 25.9 96.9779 25.9C97.3326 25.8813 97.6126 25.872 97.8179 25.872V28H90.4539ZM113.479 28.448C112.117 28.448 110.913 28.1493 109.867 27.552C108.822 26.936 108.01 26.0773 107.431 24.976C106.853 23.856 106.563 22.54 106.563 21.028C106.563 19.7213 106.853 18.4987 107.431 17.36C108.01 16.2213 108.822 15.3067 109.867 14.616C110.931 13.9067 112.163 13.552 113.563 13.552C114.347 13.552 115.113 13.664 115.859 13.888C116.606 14.0933 117.278 14.4573 117.875 14.98C118.491 15.5027 118.977 16.212 119.331 17.108C119.705 18.004 119.882 19.124 119.863 20.468L110.679 20.636C110.679 21.644 110.801 22.5493 111.043 23.352C111.305 24.1547 111.725 24.7893 112.303 25.256C112.882 25.7227 113.657 25.956 114.627 25.956C115.001 25.956 115.421 25.8907 115.887 25.76C116.373 25.6293 116.858 25.4147 117.343 25.116C117.847 24.7987 118.314 24.3787 118.743 23.856L120.003 25.032C119.331 25.984 118.613 26.712 117.847 27.216C117.082 27.7013 116.317 28.028 115.551 28.196C114.805 28.364 114.114 28.448 113.479 28.448ZM110.847 18.676H115.999C115.981 17.892 115.869 17.276 115.663 16.828C115.477 16.3613 115.215 16.0253 114.879 15.82C114.543 15.6147 114.151 15.512 113.703 15.512C112.882 15.512 112.238 15.8107 111.771 16.408C111.305 16.9867 110.997 17.7427 110.847 18.676ZM127.454 28.448C126.894 28.448 126.352 28.3827 125.83 28.252C125.307 28.1213 124.84 27.8787 124.43 27.524C124.019 27.1507 123.692 26.6093 123.45 25.9C123.207 25.1907 123.086 24.248 123.086 23.072L123.142 16.324H121.238V14C121.816 13.9813 122.376 13.7853 122.918 13.412C123.459 13.0387 123.916 12.5533 124.29 11.956C124.682 11.3587 124.943 10.7333 125.074 10.08H127.146L127.118 14H130.674V16.156L127.118 16.24L127.09 23.128C127.09 23.5573 127.127 23.9867 127.202 24.416C127.295 24.8267 127.463 25.172 127.706 25.452C127.948 25.7133 128.303 25.844 128.77 25.844C129.031 25.844 129.386 25.7507 129.834 25.564C130.3 25.3773 130.795 24.9107 131.318 24.164L132.662 25.424C132.158 26.1707 131.635 26.7493 131.094 27.16C130.552 27.5707 130.03 27.8693 129.526 28.056C129.04 28.2427 128.611 28.3547 128.238 28.392C127.864 28.4293 127.603 28.448 127.454 28.448ZM139.916 28.448C139.113 28.448 138.329 28.3453 137.564 28.14C136.799 27.9347 136.201 27.6733 135.772 27.356L135.828 28.196H133.7L133.588 23.38H135.408C135.464 23.94 135.688 24.4533 136.08 24.92C136.472 25.3867 136.985 25.76 137.62 26.04C138.255 26.3013 138.964 26.432 139.748 26.432C140.065 26.432 140.364 26.3853 140.644 26.292C140.943 26.1987 141.185 26.0493 141.372 25.844C141.577 25.62 141.68 25.3493 141.68 25.032C141.68 24.6773 141.549 24.388 141.288 24.164C141.045 23.94 140.681 23.7253 140.196 23.52C139.729 23.3147 139.141 23.0813 138.432 22.82C137.853 22.596 137.265 22.3627 136.668 22.12C136.089 21.8773 135.548 21.588 135.044 21.252C134.559 20.8973 134.167 20.468 133.868 19.964C133.569 19.4413 133.42 18.8067 133.42 18.06C133.42 17.5187 133.523 16.9867 133.728 16.464C133.933 15.9227 134.251 15.4373 134.68 15.008C135.109 14.56 135.651 14.2053 136.304 13.944C136.976 13.6827 137.769 13.552 138.684 13.552C139.188 13.552 139.757 13.636 140.392 13.804C141.045 13.9533 141.596 14.1867 142.044 14.504V13.692H144.172V18.648H142.352C142.24 17.9947 142.007 17.4347 141.652 16.968C141.316 16.5013 140.877 16.1467 140.336 15.904C139.795 15.6427 139.188 15.512 138.516 15.512C138.049 15.512 137.62 15.624 137.228 15.848C136.855 16.072 136.668 16.4547 136.668 16.996C136.668 17.4253 136.817 17.7707 137.116 18.032C137.415 18.2747 137.825 18.48 138.348 18.648C138.871 18.816 139.449 19.012 140.084 19.236C141.036 19.5533 141.876 19.9267 142.604 20.356C143.351 20.7853 143.939 21.308 144.368 21.924C144.797 22.5213 145.012 23.2587 145.012 24.136C145.012 25.1067 144.769 25.9093 144.284 26.544C143.799 27.1787 143.164 27.6547 142.38 27.972C141.615 28.2893 140.793 28.448 139.916 28.448ZM154.421 26.18C154.944 26.18 155.317 26.0773 155.541 25.872C155.765 25.6667 155.905 25.3773 155.961 25.004C156.036 24.612 156.073 24.1733 156.073 23.688V19.04C156.073 18.704 156.083 18.3213 156.101 17.892C156.12 17.444 156.148 17.0147 156.185 16.604C155.887 16.6227 155.532 16.6413 155.121 16.66C154.729 16.66 154.431 16.6693 154.225 16.688V14.56C155.084 14.56 155.812 14.5133 156.409 14.42C157.007 14.3267 157.473 14.2147 157.809 14.084C158.164 13.9533 158.407 13.832 158.537 13.72H160.049V23.492C160.049 23.7533 160.04 24.1267 160.021 24.612C160.003 25.0787 159.975 25.5267 159.937 25.956C160.236 25.9187 160.563 25.9 160.917 25.9C161.291 25.8813 161.571 25.872 161.757 25.872V28H154.421V26.18ZM157.921 11.508C157.287 11.508 156.764 11.284 156.353 10.836C155.943 10.388 155.737 9.84667 155.737 9.212C155.737 8.57733 155.952 8.036 156.381 7.588C156.811 7.14 157.315 6.916 157.893 6.916C158.491 6.916 158.985 7.14 159.377 7.588C159.788 8.036 159.993 8.57733 159.993 9.212C159.993 9.84667 159.807 10.388 159.433 10.836C159.06 11.284 158.556 11.508 157.921 11.508ZM163.582 28V26.18C164.104 26.18 164.478 26.0773 164.702 25.872C164.926 25.6667 165.066 25.3773 165.122 25.004C165.196 24.612 165.234 24.1733 165.234 23.688V18.984C165.234 18.648 165.243 18.2747 165.262 17.864C165.28 17.4347 165.308 17.0147 165.346 16.604C165.047 16.6227 164.692 16.6413 164.282 16.66C163.89 16.66 163.591 16.6693 163.386 16.688V14.56C164.244 14.56 164.972 14.5133 165.57 14.42C166.167 14.3267 166.634 14.2147 166.97 14.084C167.324 13.9533 167.567 13.832 167.698 13.72H169.07C169.107 13.9627 169.126 14.14 169.126 14.252C169.126 14.364 169.126 14.476 169.126 14.588C169.144 14.6813 169.182 14.8587 169.238 15.12C169.611 14.8213 170.04 14.56 170.526 14.336C171.011 14.0933 171.496 13.9067 171.982 13.776C172.467 13.6267 172.896 13.552 173.27 13.552C174.987 13.552 176.2 14.0467 176.91 15.036C177.638 16.0067 178.002 17.5747 178.002 19.74V23.492C178.002 23.7533 177.992 24.1267 177.974 24.612C177.955 25.0787 177.927 25.5267 177.89 25.956C178.207 25.9187 178.543 25.9 178.898 25.9C179.252 25.8813 179.523 25.872 179.71 25.872V28H172.374V26.18C172.896 26.18 173.27 26.0773 173.494 25.872C173.736 25.6667 173.886 25.3773 173.942 25.004C174.016 24.612 174.054 24.1733 174.054 23.688L174.026 19.712C174.026 18.4987 173.848 17.6027 173.494 17.024C173.158 16.4267 172.579 16.128 171.758 16.128C171.291 16.128 170.824 16.2307 170.358 16.436C169.91 16.6413 169.527 16.884 169.21 17.164C169.21 17.4253 169.21 17.696 169.21 17.976C169.21 18.2373 169.21 18.4987 169.21 18.76V23.492C169.21 23.7533 169.2 24.1267 169.182 24.612C169.163 25.0787 169.135 25.5267 169.098 25.956C169.396 25.9187 169.723 25.9 170.078 25.9C170.451 25.8813 170.731 25.872 170.918 25.872V28H163.582ZM195.401 28.448C194.15 28.448 193.002 28.168 191.957 27.608C190.911 27.048 190.071 26.236 189.437 25.172C188.821 24.108 188.513 22.82 188.513 21.308C188.513 20.244 188.69 19.2453 189.045 18.312C189.399 17.3787 189.894 16.5573 190.529 15.848C191.182 15.1387 191.947 14.5787 192.825 14.168C193.721 13.7573 194.71 13.552 195.793 13.552C196.987 13.552 197.977 13.7387 198.761 14.112C199.563 14.4667 200.161 14.9427 200.553 15.54C200.963 16.1187 201.169 16.7347 201.169 17.388C201.169 17.9293 201.001 18.4147 200.665 18.844C200.347 19.2547 199.89 19.4693 199.293 19.488C198.583 19.5067 198.089 19.3107 197.809 18.9C197.529 18.4707 197.389 18.06 197.389 17.668C197.389 17.5 197.417 17.304 197.473 17.08C197.529 16.8373 197.613 16.6227 197.725 16.436C197.594 16.156 197.398 15.9507 197.137 15.82C196.875 15.6893 196.605 15.6053 196.325 15.568C196.063 15.512 195.849 15.4933 195.681 15.512C194.785 15.568 194.047 16.016 193.469 16.856C192.89 17.696 192.601 18.9093 192.601 20.496C192.601 21.4293 192.713 22.3067 192.937 23.128C193.179 23.9307 193.571 24.5933 194.113 25.116C194.654 25.6387 195.382 25.9187 196.297 25.956C197.081 25.9747 197.846 25.788 198.593 25.396C199.339 25.004 199.974 24.472 200.497 23.8L201.785 25.06C201.113 25.9933 200.413 26.7027 199.685 27.188C198.957 27.6733 198.229 28 197.501 28.168C196.791 28.3547 196.091 28.448 195.401 28.448ZM211.069 28C211.031 27.7387 211.003 27.524 210.985 27.356C210.985 27.1693 210.975 26.9547 210.957 26.712C210.322 27.3467 209.65 27.7947 208.941 28.056C208.231 28.3173 207.513 28.448 206.785 28.448C205.59 28.448 204.657 28.0933 203.985 27.384C203.313 26.6747 202.977 25.788 202.977 24.724C202.977 23.828 203.201 23.0627 203.649 22.428C204.115 21.7933 204.722 21.28 205.469 20.888C206.234 20.4773 207.074 20.1693 207.989 19.964C208.922 19.74 209.855 19.6093 210.789 19.572V18.116C210.789 17.6307 210.723 17.192 210.593 16.8C210.481 16.408 210.275 16.1 209.977 15.876C209.697 15.652 209.295 15.5493 208.773 15.568C208.418 15.5867 208.073 15.6613 207.737 15.792C207.401 15.9227 207.111 16.1093 206.869 16.352C207.018 16.52 207.111 16.7067 207.149 16.912C207.186 17.0987 207.205 17.2667 207.205 17.416C207.205 17.7893 207.055 18.1813 206.757 18.592C206.458 18.984 205.982 19.1707 205.329 19.152C204.769 19.1333 204.339 18.9373 204.041 18.564C203.742 18.1907 203.593 17.752 203.593 17.248C203.593 16.5013 203.854 15.8573 204.377 15.316C204.918 14.756 205.637 14.3267 206.533 14.028C207.429 13.7107 208.418 13.552 209.501 13.552C211.143 13.552 212.413 13.9813 213.309 14.84C214.223 15.68 214.681 17.0333 214.681 18.9C214.681 19.5347 214.681 20.076 214.681 20.524C214.681 20.972 214.671 21.42 214.653 21.868C214.653 22.316 214.653 22.8573 214.653 23.492C214.653 23.7533 214.643 24.1267 214.625 24.612C214.606 25.0787 214.578 25.5267 214.541 25.956C214.858 25.9187 215.194 25.9 215.549 25.9C215.903 25.8813 216.174 25.872 216.361 25.872V28H211.069ZM210.761 21.56C210.238 21.616 209.743 21.7093 209.277 21.84C208.81 21.9707 208.399 22.148 208.045 22.372C207.709 22.596 207.438 22.8667 207.233 23.184C207.046 23.5013 206.953 23.856 206.953 24.248C206.971 24.7707 207.139 25.144 207.457 25.368C207.774 25.592 208.138 25.704 208.549 25.704C208.978 25.704 209.379 25.6107 209.753 25.424C210.126 25.2373 210.462 24.9947 210.761 24.696C210.761 24.5093 210.761 24.332 210.761 24.164C210.761 23.9773 210.761 23.7907 210.761 23.604C210.761 23.268 210.761 22.932 210.761 22.596C210.761 22.2413 210.761 21.896 210.761 21.56ZM217.968 26.18C218.491 26.18 218.864 26.0773 219.088 25.872C219.312 25.6667 219.452 25.3773 219.508 25.004C219.583 24.612 219.62 24.1733 219.62 23.688V18.984C219.62 18.648 219.63 18.2747 219.648 17.864C219.667 17.4347 219.695 17.0147 219.732 16.604C219.434 16.6227 219.079 16.6413 218.668 16.66C218.276 16.66 217.978 16.6693 217.772 16.688V14.56H218.892C219.62 14.56 220.283 14.4667 220.88 14.28C221.496 14.0933 221.898 13.9067 222.084 13.72H223.456C223.494 13.9067 223.522 14.2613 223.54 14.784C223.559 15.288 223.568 15.736 223.568 16.128C224.072 15.512 224.548 15.0173 224.996 14.644C225.444 14.2707 225.883 14 226.312 13.832C226.76 13.6453 227.208 13.552 227.656 13.552C228.31 13.552 228.879 13.7387 229.364 14.112C229.85 14.4667 230.092 15.0547 230.092 15.876C230.092 16.156 230.027 16.4547 229.896 16.772C229.766 17.0707 229.56 17.3227 229.28 17.528C229 17.7333 228.618 17.836 228.132 17.836C227.759 17.836 227.376 17.724 226.984 17.5C226.592 17.276 226.368 16.8467 226.312 16.212C225.939 16.212 225.566 16.3707 225.192 16.688C224.819 16.9867 224.483 17.3507 224.184 17.78C223.904 18.1907 223.708 18.5733 223.596 18.928V23.492C223.596 23.7533 223.587 24.1267 223.568 24.612C223.55 25.0787 223.522 25.5267 223.484 25.956C223.783 25.9187 224.11 25.9 224.464 25.9C224.838 25.8813 225.118 25.872 225.304 25.872V28H217.968V26.18ZM236.965 28.448C236.405 28.448 235.864 28.3827 235.341 28.252C234.819 28.1213 234.352 27.8787 233.941 27.524C233.531 27.1507 233.204 26.6093 232.961 25.9C232.719 25.1907 232.597 24.248 232.597 23.072L232.653 16.324H230.749V14C231.328 13.9813 231.888 13.7853 232.429 13.412C232.971 13.0387 233.428 12.5533 233.801 11.956C234.193 11.3587 234.455 10.7333 234.585 10.08H236.657L236.629 14H240.185V16.156L236.629 16.24L236.601 23.128C236.601 23.5573 236.639 23.9867 236.713 24.416C236.807 24.8267 236.975 25.172 237.217 25.452C237.46 25.7133 237.815 25.844 238.281 25.844C238.543 25.844 238.897 25.7507 239.345 25.564C239.812 25.3773 240.307 24.9107 240.829 24.164L242.173 25.424C241.669 26.1707 241.147 26.7493 240.605 27.16C240.064 27.5707 239.541 27.8693 239.037 28.056C238.552 28.2427 238.123 28.3547 237.749 28.392C237.376 28.4293 237.115 28.448 236.965 28.448Z" fill="#292524"/>
<defs>
<clipPath id="clip0_9560_51492">
<rect width="32" height="32" fill="white" transform="translate(0 2)"/>
</clipPath>
</defs>
</svg>
