<svg width="214" height="93" viewBox="0 0 214 93" fill="none" xmlns="http://www.w3.org/2000/svg">
<g clip-path="url(#clip0_9560_51507)">
<rect width="214" height="93" rx="5" fill="white"/>
<g filter="url(#filter0_d_9560_51507)">
<path d="M56.4171 54.5V52.982C56.8278 52.982 57.1578 52.8647 57.4071 52.63C57.6564 52.3953 57.8618 52.0873 58.0231 51.706C58.1991 51.3247 58.3678 50.914 58.5291 50.474L62.8191 38.704H64.3591L69.0451 50.694C69.1331 50.914 69.2504 51.2513 69.3971 51.706C69.5438 52.146 69.6318 52.5347 69.6611 52.872C69.9104 52.8427 70.1451 52.828 70.3651 52.828C70.5998 52.8133 70.7904 52.806 70.9371 52.806V54.5H65.0191V53.048C65.4298 53.048 65.7084 52.9673 65.8551 52.806C66.0164 52.63 66.0898 52.3953 66.0751 52.102C66.0604 51.8087 65.9798 51.4787 65.8331 51.112L65.3931 49.902L60.6191 49.99L60.2671 51.024C60.1938 51.2147 60.0838 51.5007 59.9371 51.882C59.8051 52.2487 59.6804 52.5567 59.5631 52.806C59.7978 52.7767 60.0764 52.762 60.3991 52.762C60.7364 52.7473 60.9784 52.74 61.1251 52.74V54.5H56.4171ZM61.1691 48.34H64.8431L63.8311 45.59C63.6404 45.062 63.4718 44.534 63.3251 44.006C63.1784 43.4633 63.0684 42.9867 62.9951 42.576H62.9731C62.9144 42.8253 62.8264 43.1993 62.7091 43.698C62.5918 44.1967 62.4084 44.7907 62.1591 45.48L61.1691 48.34ZM75.8931 54.852C75.0131 54.852 74.2358 54.6247 73.5611 54.17C72.9011 53.7153 72.3805 53.07 71.9991 52.234C71.6325 51.398 71.4491 50.4153 71.4491 49.286C71.4491 48.098 71.6765 47.042 72.1311 46.118C72.5858 45.194 73.2238 44.468 74.0451 43.94C74.8665 43.412 75.8198 43.148 76.9051 43.148C77.3011 43.148 77.6531 43.192 77.9611 43.28C78.2838 43.3533 78.5845 43.4413 78.8631 43.544V42.092C78.8631 41.8867 78.8705 41.5933 78.8851 41.212C78.8998 40.8307 78.9218 40.4787 78.9511 40.156C78.7165 40.1707 78.4378 40.1853 78.1151 40.2C77.7925 40.2147 77.5505 40.222 77.3891 40.222V38.55C78.0785 38.55 78.6505 38.5133 79.1051 38.44C79.5745 38.3667 79.9411 38.2787 80.2051 38.176C80.4838 38.0733 80.6745 37.978 80.7771 37.89H81.9651V50.958C81.9651 51.1633 81.9578 51.4567 81.9431 51.838C81.9285 52.2047 81.9065 52.5567 81.8771 52.894C82.1265 52.8647 82.3905 52.85 82.6691 52.85C82.9478 52.8353 83.1605 52.828 83.3071 52.828V54.5H79.1271C79.1125 54.3387 79.0905 54.17 79.0611 53.994C79.0465 53.818 79.0245 53.6493 78.9951 53.488C78.5111 53.9867 78.0125 54.3387 77.4991 54.544C76.9858 54.7493 76.4505 54.852 75.8931 54.852ZM77.0371 52.85C77.4185 52.85 77.7705 52.7547 78.0931 52.564C78.4158 52.3587 78.6725 52.102 78.8631 51.794C78.8631 51.574 78.8631 51.354 78.8631 51.134C78.8631 50.914 78.8631 50.694 78.8631 50.474V45.194C78.7165 45.0767 78.4965 44.9813 78.2031 44.908C77.9098 44.82 77.6091 44.776 77.3011 44.776C76.6265 44.7907 76.0985 45.0033 75.7171 45.414C75.3358 45.8247 75.0645 46.3453 74.9031 46.976C74.7565 47.6067 74.6831 48.2667 74.6831 48.956C74.6831 49.572 74.7565 50.1807 74.9031 50.782C75.0645 51.3833 75.3138 51.882 75.6511 52.278C76.0031 52.6593 76.4651 52.85 77.0371 52.85ZM88.9986 54.852C88.1186 54.852 87.3413 54.6247 86.6666 54.17C86.0066 53.7153 85.4859 53.07 85.1046 52.234C84.7379 51.398 84.5546 50.4153 84.5546 49.286C84.5546 48.098 84.7819 47.042 85.2366 46.118C85.6913 45.194 86.3293 44.468 87.1506 43.94C87.9719 43.412 88.9253 43.148 90.0106 43.148C90.4066 43.148 90.7586 43.192 91.0666 43.28C91.3893 43.3533 91.6899 43.4413 91.9686 43.544V42.092C91.9686 41.8867 91.9759 41.5933 91.9906 41.212C92.0053 40.8307 92.0273 40.4787 92.0566 40.156C91.8219 40.1707 91.5433 40.1853 91.2206 40.2C90.8979 40.2147 90.6559 40.222 90.4946 40.222V38.55C91.1839 38.55 91.7559 38.5133 92.2106 38.44C92.6799 38.3667 93.0466 38.2787 93.3106 38.176C93.5893 38.0733 93.7799 37.978 93.8826 37.89H95.0706V50.958C95.0706 51.1633 95.0633 51.4567 95.0486 51.838C95.0339 52.2047 95.0119 52.5567 94.9826 52.894C95.2319 52.8647 95.4959 52.85 95.7746 52.85C96.0533 52.8353 96.2659 52.828 96.4126 52.828V54.5H92.2326C92.2179 54.3387 92.1959 54.17 92.1666 53.994C92.1519 53.818 92.1299 53.6493 92.1006 53.488C91.6166 53.9867 91.1179 54.3387 90.6046 54.544C90.0913 54.7493 89.5559 54.852 88.9986 54.852ZM90.1426 52.85C90.5239 52.85 90.8759 52.7547 91.1986 52.564C91.5213 52.3587 91.7779 52.102 91.9686 51.794C91.9686 51.574 91.9686 51.354 91.9686 51.134C91.9686 50.914 91.9686 50.694 91.9686 50.474V45.194C91.8219 45.0767 91.6019 44.9813 91.3086 44.908C91.0153 44.82 90.7146 44.776 90.4066 44.776C89.7319 44.7907 89.2039 45.0033 88.8226 45.414C88.4413 45.8247 88.1699 46.3453 88.0086 46.976C87.8619 47.6067 87.7886 48.2667 87.7886 48.956C87.7886 49.572 87.8619 50.1807 88.0086 50.782C88.1699 51.3833 88.4193 51.882 88.7566 52.278C89.1086 52.6593 89.5706 52.85 90.1426 52.85ZM103.637 54.5V53.07C104.048 53.07 104.341 52.9893 104.517 52.828C104.693 52.6667 104.803 52.4393 104.847 52.146C104.906 51.838 104.935 51.4933 104.935 51.112V47.416C104.935 47.152 104.943 46.8587 104.957 46.536C104.972 46.1987 104.994 45.8687 105.023 45.546C104.789 45.5607 104.51 45.5753 104.187 45.59C103.879 45.59 103.645 45.5973 103.483 45.612V43.94C104.158 43.94 104.73 43.9033 105.199 43.83C105.669 43.7567 106.035 43.6687 106.299 43.566C106.578 43.4633 106.769 43.368 106.871 43.28H107.949C107.979 43.4267 107.993 43.61 107.993 43.83C108.008 44.05 108.023 44.2333 108.037 44.38C108.536 43.9987 109.071 43.698 109.643 43.478C110.23 43.258 110.78 43.148 111.293 43.148C111.968 43.148 112.525 43.2727 112.965 43.522C113.405 43.7567 113.757 44.116 114.021 44.6C114.549 44.16 115.129 43.808 115.759 43.544C116.405 43.28 117.021 43.148 117.607 43.148C118.795 43.148 119.69 43.4927 120.291 44.182C120.907 44.8567 121.215 46.0373 121.215 47.724V50.958C121.215 51.1633 121.208 51.4567 121.193 51.838C121.179 52.2047 121.157 52.5567 121.127 52.894C121.362 52.8647 121.619 52.85 121.897 52.85C122.191 52.8353 122.411 52.828 122.557 52.828V54.5H116.991V53.07C117.329 53.07 117.571 52.9893 117.717 52.828C117.879 52.6667 117.981 52.4393 118.025 52.146C118.069 51.838 118.091 51.4933 118.091 51.112V47.746C118.077 46.7927 117.915 46.1327 117.607 45.766C117.314 45.3993 116.918 45.2087 116.419 45.194C116.038 45.1793 115.679 45.2453 115.341 45.392C115.019 45.5387 114.725 45.7147 114.461 45.92C114.535 46.2133 114.586 46.536 114.615 46.888C114.645 47.24 114.659 47.614 114.659 48.01C114.659 48.5087 114.659 49 114.659 49.484C114.659 49.968 114.659 50.4593 114.659 50.958C114.659 51.1633 114.652 51.4567 114.637 51.838C114.623 52.2047 114.601 52.5567 114.571 52.894C114.806 52.8647 115.063 52.85 115.341 52.85C115.62 52.8353 115.84 52.828 116.001 52.828V54.5H110.325V53.07C110.707 53.07 110.978 52.9893 111.139 52.828C111.315 52.6667 111.425 52.4393 111.469 52.146C111.513 51.838 111.535 51.4933 111.535 51.112L111.513 47.68C111.513 46.7267 111.374 46.074 111.095 45.722C110.817 45.37 110.428 45.1867 109.929 45.172C109.563 45.172 109.218 45.2527 108.895 45.414C108.587 45.5753 108.309 45.766 108.059 45.986C108.059 46.1767 108.059 46.36 108.059 46.536C108.059 46.712 108.059 46.8953 108.059 47.086V50.958C108.059 51.1633 108.052 51.4567 108.037 51.838C108.023 52.2047 108.001 52.5567 107.971 52.894C108.206 52.8647 108.448 52.85 108.697 52.85C108.947 52.8353 109.145 52.828 109.291 52.828V54.5H103.637ZM129.266 54.852C128.21 54.852 127.256 54.6247 126.406 54.17C125.555 53.7153 124.88 53.07 124.382 52.234C123.898 51.3833 123.656 50.386 123.656 49.242C123.656 48.0247 123.905 46.9613 124.404 46.052C124.917 45.128 125.592 44.4167 126.428 43.918C127.278 43.4047 128.202 43.148 129.2 43.148C130.256 43.148 131.202 43.3753 132.038 43.83C132.874 44.2847 133.534 44.9373 134.018 45.788C134.502 46.624 134.744 47.6287 134.744 48.802C134.744 50.034 134.509 51.1047 134.04 52.014C133.57 52.9233 132.925 53.6273 132.104 54.126C131.282 54.61 130.336 54.852 129.266 54.852ZM129.354 53.29C129.94 53.2753 130.38 53.07 130.674 52.674C130.982 52.278 131.194 51.7793 131.312 51.178C131.429 50.5767 131.488 49.968 131.488 49.352C131.488 48.8093 131.444 48.2593 131.356 47.702C131.282 47.1447 131.158 46.6387 130.982 46.184C130.806 45.7293 130.564 45.3627 130.256 45.084C129.962 44.8053 129.596 44.6733 129.156 44.688C128.584 44.7027 128.129 44.908 127.792 45.304C127.469 45.7 127.234 46.1987 127.088 46.8C126.956 47.3867 126.89 48.0027 126.89 48.648C126.89 49.396 126.97 50.1293 127.132 50.848C127.293 51.5667 127.55 52.1607 127.902 52.63C128.268 53.0847 128.752 53.3047 129.354 53.29ZM136.337 53.07C136.747 53.07 137.041 52.9893 137.217 52.828C137.393 52.6667 137.503 52.4393 137.547 52.146C137.605 51.838 137.635 51.4933 137.635 51.112V47.416C137.635 47.152 137.642 46.8587 137.657 46.536C137.671 46.1987 137.693 45.8687 137.723 45.546C137.488 45.5607 137.209 45.5753 136.887 45.59C136.579 45.59 136.344 45.5973 136.183 45.612V43.94H137.063C137.635 43.94 138.155 43.8667 138.625 43.72C139.109 43.5733 139.424 43.4267 139.571 43.28H140.649C140.678 43.4267 140.7 43.7053 140.715 44.116C140.729 44.512 140.737 44.864 140.737 45.172C141.133 44.688 141.507 44.2993 141.859 44.006C142.211 43.7127 142.555 43.5 142.893 43.368C143.245 43.2213 143.597 43.148 143.949 43.148C144.462 43.148 144.909 43.2947 145.291 43.588C145.672 43.8667 145.863 44.3287 145.863 44.974C145.863 45.194 145.811 45.4287 145.709 45.678C145.606 45.9127 145.445 46.1107 145.225 46.272C145.005 46.4333 144.704 46.514 144.323 46.514C144.029 46.514 143.729 46.426 143.421 46.25C143.113 46.074 142.937 45.7367 142.893 45.238C142.599 45.238 142.306 45.3627 142.013 45.612C141.719 45.8467 141.455 46.1327 141.221 46.47C141.001 46.7927 140.847 47.0933 140.759 47.372V50.958C140.759 51.1633 140.751 51.4567 140.737 51.838C140.722 52.2047 140.7 52.5567 140.671 52.894C140.905 52.8647 141.162 52.85 141.441 52.85C141.734 52.8353 141.954 52.828 142.101 52.828V54.5H136.337V53.07ZM151.949 54.852C150.878 54.852 149.932 54.6173 149.111 54.148C148.29 53.664 147.652 52.9893 147.197 52.124C146.742 51.244 146.515 50.21 146.515 49.022C146.515 47.9953 146.742 47.0347 147.197 46.14C147.652 45.2453 148.29 44.5267 149.111 43.984C149.947 43.4267 150.915 43.148 152.015 43.148C152.631 43.148 153.232 43.236 153.819 43.412C154.406 43.5733 154.934 43.8593 155.403 44.27C155.887 44.6807 156.268 45.238 156.547 45.942C156.84 46.646 156.98 47.526 156.965 48.582L149.749 48.714C149.749 49.506 149.844 50.2173 150.035 50.848C150.24 51.4787 150.57 51.9773 151.025 52.344C151.48 52.7107 152.088 52.894 152.851 52.894C153.144 52.894 153.474 52.8427 153.841 52.74C154.222 52.6373 154.604 52.4687 154.985 52.234C155.381 51.9847 155.748 51.6547 156.085 51.244L157.075 52.168C156.547 52.916 155.982 53.488 155.381 53.884C154.78 54.2653 154.178 54.522 153.577 54.654C152.99 54.786 152.448 54.852 151.949 54.852ZM149.881 47.174H153.929C153.914 46.558 153.826 46.074 153.665 45.722C153.518 45.3553 153.313 45.0913 153.049 44.93C152.785 44.7687 152.477 44.688 152.125 44.688C151.48 44.688 150.974 44.9227 150.607 45.392C150.24 45.8467 149.998 46.4407 149.881 47.174Z" fill="#54080E"/>
</g>
</g>
<rect x="0.5" y="0.5" width="213" height="92" rx="4.5" stroke="#D6D3D1" stroke-dasharray="10 10"/>
<defs>
<filter id="filter0_d_9560_51507" x="56.418" y="37.8901" width="102.656" height="18.9619" filterUnits="userSpaceOnUse" color-interpolation-filters="sRGB">
<feFlood flood-opacity="0" result="BackgroundImageFix"/>
<feColorMatrix in="SourceAlpha" type="matrix" values="0 0 0 0 0 0 0 0 0 0 0 0 0 0 0 0 0 0 127 0" result="hardAlpha"/>
<feOffset dx="2" dy="2"/>
<feComposite in2="hardAlpha" operator="out"/>
<feColorMatrix type="matrix" values="0 0 0 0 1 0 0 0 0 1 0 0 0 0 1 0 0 0 1 0"/>
<feBlend mode="normal" in2="BackgroundImageFix" result="effect1_dropShadow_9560_51507"/>
<feBlend mode="normal" in="SourceGraphic" in2="effect1_dropShadow_9560_51507" result="shape"/>
</filter>
<clipPath id="clip0_9560_51507">
<rect width="214" height="93" rx="5" fill="white"/>
</clipPath>
</defs>
</svg>
