<svg width="154" height="98" viewBox="0 0 154 98" fill="none" xmlns="http://www.w3.org/2000/svg">
<g filter="url(#filter0_d_9833_70971)">
<path d="M89 26L65 26L77 14L89 26Z" fill="#8C0E18"/>
<path d="M16 31C16 28.2386 18.2386 26 21 26H133C135.761 26 138 28.2386 138 31V75C138 77.7614 135.761 80 133 80H21C18.2386 80 16 77.7614 16 75V31Z" fill="#8C0E18"/>
<path d="M38.3457 48.3916L34.8652 59H32.0615L36.8164 46.2031H38.6006L38.3457 48.3916ZM41.2373 59L37.748 48.3916L37.4668 46.2031H39.2686L44.0498 59H41.2373ZM41.0791 54.2363V56.3018H34.3203V54.2363H41.0791ZM50.6943 56.9258V45.5H53.2432V59H50.9492L50.6943 56.9258ZM44.6826 54.3594V54.1748C44.6826 53.4482 44.7646 52.7891 44.9287 52.1973C45.0928 51.5996 45.333 51.0869 45.6494 50.6592C45.9658 50.2314 46.3555 49.9004 46.8184 49.666C47.2812 49.4316 47.8086 49.3145 48.4004 49.3145C48.957 49.3145 49.4434 49.4316 49.8594 49.666C50.2812 49.9004 50.6387 50.2344 50.9316 50.668C51.2305 51.0957 51.4707 51.6025 51.6523 52.1885C51.834 52.7686 51.9658 53.4043 52.0479 54.0957V54.5C51.9658 55.1621 51.834 55.7773 51.6523 56.3457C51.4707 56.9141 51.2305 57.4121 50.9316 57.8398C50.6387 58.2617 50.2812 58.5898 49.8594 58.8242C49.4375 59.0586 48.9453 59.1758 48.3828 59.1758C47.791 59.1758 47.2637 59.0557 46.8008 58.8154C46.3438 58.5752 45.957 58.2383 45.6406 57.8047C45.3301 57.3711 45.0928 56.8613 44.9287 56.2754C44.7646 55.6895 44.6826 55.0508 44.6826 54.3594ZM47.2139 54.1748V54.3594C47.2139 54.752 47.2432 55.1182 47.3018 55.458C47.3662 55.7979 47.4688 56.0996 47.6094 56.3633C47.7559 56.6211 47.9434 56.8232 48.1719 56.9697C48.4062 57.1104 48.6904 57.1807 49.0244 57.1807C49.458 57.1807 49.8154 57.084 50.0967 56.8906C50.3779 56.6914 50.5918 56.4189 50.7383 56.0732C50.8906 55.7275 50.9785 55.3291 51.002 54.8779V53.7266C50.9844 53.3574 50.9316 53.0264 50.8438 52.7334C50.7617 52.4346 50.6387 52.1797 50.4746 51.9688C50.3164 51.7578 50.1172 51.5938 49.877 51.4766C49.6426 51.3594 49.3643 51.3008 49.042 51.3008C48.7139 51.3008 48.4326 51.377 48.1982 51.5293C47.9639 51.6758 47.7734 51.8779 47.627 52.1357C47.4863 52.3936 47.3809 52.6982 47.3105 53.0498C47.2461 53.3955 47.2139 53.7705 47.2139 54.1748ZM60.8369 56.9258V45.5H63.3857V59H61.0918L60.8369 56.9258ZM54.8252 54.3594V54.1748C54.8252 53.4482 54.9072 52.7891 55.0713 52.1973C55.2354 51.5996 55.4756 51.0869 55.792 50.6592C56.1084 50.2314 56.498 49.9004 56.9609 49.666C57.4238 49.4316 57.9512 49.3145 58.543 49.3145C59.0996 49.3145 59.5859 49.4316 60.002 49.666C60.4238 49.9004 60.7812 50.2344 61.0742 50.668C61.373 51.0957 61.6133 51.6025 61.7949 52.1885C61.9766 52.7686 62.1084 53.4043 62.1904 54.0957V54.5C62.1084 55.1621 61.9766 55.7773 61.7949 56.3457C61.6133 56.9141 61.373 57.4121 61.0742 57.8398C60.7812 58.2617 60.4238 58.5898 60.002 58.8242C59.5801 59.0586 59.0879 59.1758 58.5254 59.1758C57.9336 59.1758 57.4062 59.0557 56.9434 58.8154C56.4863 58.5752 56.0996 58.2383 55.7832 57.8047C55.4727 57.3711 55.2354 56.8613 55.0713 56.2754C54.9072 55.6895 54.8252 55.0508 54.8252 54.3594ZM57.3564 54.1748V54.3594C57.3564 54.752 57.3857 55.1182 57.4443 55.458C57.5088 55.7979 57.6113 56.0996 57.752 56.3633C57.8984 56.6211 58.0859 56.8232 58.3145 56.9697C58.5488 57.1104 58.833 57.1807 59.167 57.1807C59.6006 57.1807 59.958 57.084 60.2393 56.8906C60.5205 56.6914 60.7344 56.4189 60.8809 56.0732C61.0332 55.7275 61.1211 55.3291 61.1445 54.8779V53.7266C61.127 53.3574 61.0742 53.0264 60.9863 52.7334C60.9043 52.4346 60.7812 52.1797 60.6172 51.9688C60.459 51.7578 60.2598 51.5938 60.0195 51.4766C59.7852 51.3594 59.5068 51.3008 59.1846 51.3008C58.8564 51.3008 58.5752 51.377 58.3408 51.5293C58.1064 51.6758 57.916 51.8779 57.7695 52.1357C57.6289 52.3936 57.5234 52.6982 57.4531 53.0498C57.3887 53.3955 57.3564 53.7705 57.3564 54.1748ZM74.5039 49.4902V51.2832H68.9668V49.4902H74.5039ZM70.3379 47.1436H72.8691V56.1348C72.8691 56.4102 72.9043 56.6211 72.9746 56.7676C73.0508 56.9141 73.1621 57.0166 73.3086 57.0752C73.4551 57.1279 73.6396 57.1543 73.8623 57.1543C74.0205 57.1543 74.1611 57.1484 74.2842 57.1367C74.4131 57.1191 74.5215 57.1016 74.6094 57.084L74.6182 58.9473C74.4014 59.0176 74.167 59.0732 73.915 59.1143C73.6631 59.1553 73.3848 59.1758 73.0801 59.1758C72.5234 59.1758 72.0371 59.085 71.6211 58.9033C71.2109 58.7158 70.8945 58.417 70.6719 58.0068C70.4492 57.5967 70.3379 57.0576 70.3379 56.3896V47.1436ZM75.3125 54.3418V54.1572C75.3125 53.46 75.4121 52.8184 75.6113 52.2324C75.8105 51.6406 76.1006 51.1279 76.4814 50.6943C76.8623 50.2607 77.3311 49.9238 77.8877 49.6836C78.4443 49.4375 79.083 49.3145 79.8037 49.3145C80.5244 49.3145 81.166 49.4375 81.7285 49.6836C82.291 49.9238 82.7627 50.2607 83.1436 50.6943C83.5303 51.1279 83.8232 51.6406 84.0225 52.2324C84.2217 52.8184 84.3213 53.46 84.3213 54.1572V54.3418C84.3213 55.0332 84.2217 55.6748 84.0225 56.2666C83.8232 56.8525 83.5303 57.3652 83.1436 57.8047C82.7627 58.2383 82.2939 58.5752 81.7373 58.8154C81.1807 59.0557 80.542 59.1758 79.8213 59.1758C79.1006 59.1758 78.459 59.0557 77.8965 58.8154C77.3398 58.5752 76.8682 58.2383 76.4814 57.8047C76.1006 57.3652 75.8105 56.8525 75.6113 56.2666C75.4121 55.6748 75.3125 55.0332 75.3125 54.3418ZM77.8438 54.1572V54.3418C77.8438 54.7402 77.8789 55.1123 77.9492 55.458C78.0195 55.8037 78.1309 56.1084 78.2832 56.3721C78.4414 56.6299 78.6465 56.832 78.8984 56.9785C79.1504 57.125 79.458 57.1982 79.8213 57.1982C80.1729 57.1982 80.4746 57.125 80.7266 56.9785C80.9785 56.832 81.1807 56.6299 81.333 56.3721C81.4854 56.1084 81.5967 55.8037 81.667 55.458C81.7432 55.1123 81.7812 54.7402 81.7812 54.3418V54.1572C81.7812 53.7705 81.7432 53.4072 81.667 53.0674C81.5967 52.7217 81.4824 52.417 81.3242 52.1533C81.1719 51.8838 80.9697 51.6729 80.7178 51.5205C80.4658 51.3682 80.1611 51.292 79.8037 51.292C79.4463 51.292 79.1416 51.3682 78.8896 51.5205C78.6436 51.6729 78.4414 51.8838 78.2832 52.1533C78.1309 52.417 78.0195 52.7217 77.9492 53.0674C77.8789 53.4072 77.8438 53.7705 77.8438 54.1572ZM94.2881 57.1982C94.5986 57.1982 94.874 57.1396 95.1143 57.0225C95.3545 56.8994 95.542 56.7295 95.6768 56.5127C95.8174 56.29 95.8906 56.0293 95.8965 55.7305H98.2783C98.2725 56.3984 98.0938 56.9932 97.7422 57.5146C97.3906 58.0303 96.9189 58.4375 96.3271 58.7363C95.7354 59.0293 95.0732 59.1758 94.3408 59.1758C93.6025 59.1758 92.958 59.0527 92.4072 58.8066C91.8623 58.5605 91.4082 58.2207 91.0449 57.7871C90.6816 57.3477 90.4092 56.8379 90.2275 56.2578C90.0459 55.6719 89.9551 55.0449 89.9551 54.377V54.1221C89.9551 53.4482 90.0459 52.8213 90.2275 52.2412C90.4092 51.6553 90.6816 51.1455 91.0449 50.7119C91.4082 50.2725 91.8623 49.9297 92.4072 49.6836C92.9521 49.4375 93.5908 49.3145 94.3232 49.3145C95.1025 49.3145 95.7852 49.4639 96.3711 49.7627C96.9629 50.0615 97.4258 50.4893 97.7598 51.0459C98.0996 51.5967 98.2725 52.25 98.2783 53.0059H95.8965C95.8906 52.6895 95.8232 52.4023 95.6943 52.1445C95.5713 51.8867 95.3896 51.6816 95.1494 51.5293C94.915 51.3711 94.625 51.292 94.2793 51.292C93.9102 51.292 93.6084 51.3711 93.374 51.5293C93.1396 51.6816 92.958 51.8926 92.8291 52.1621C92.7002 52.4258 92.6094 52.7275 92.5566 53.0674C92.5098 53.4014 92.4863 53.7529 92.4863 54.1221V54.377C92.4863 54.7461 92.5098 55.1006 92.5566 55.4404C92.6035 55.7803 92.6914 56.082 92.8203 56.3457C92.9551 56.6094 93.1396 56.8174 93.374 56.9697C93.6084 57.1221 93.9131 57.1982 94.2881 57.1982ZM104.879 56.8555V52.6191C104.879 52.3145 104.829 52.0537 104.729 51.8369C104.63 51.6143 104.475 51.4414 104.264 51.3184C104.059 51.1953 103.792 51.1338 103.464 51.1338C103.183 51.1338 102.939 51.1836 102.734 51.2832C102.529 51.377 102.371 51.5146 102.26 51.6963C102.148 51.8721 102.093 52.0801 102.093 52.3203H99.5615C99.5615 51.916 99.6553 51.5322 99.8428 51.1689C100.03 50.8057 100.303 50.4863 100.66 50.2109C101.018 49.9297 101.442 49.71 101.935 49.5518C102.433 49.3936 102.989 49.3145 103.604 49.3145C104.343 49.3145 104.999 49.4375 105.573 49.6836C106.147 49.9297 106.599 50.2988 106.927 50.791C107.261 51.2832 107.428 51.8984 107.428 52.6367V56.7061C107.428 57.2275 107.46 57.6553 107.524 57.9893C107.589 58.3174 107.683 58.6045 107.806 58.8506V59H105.248C105.125 58.7422 105.031 58.4199 104.967 58.0332C104.908 57.6406 104.879 57.248 104.879 56.8555ZM105.213 53.208L105.23 54.6406H103.815C103.481 54.6406 103.191 54.6787 102.945 54.7549C102.699 54.8311 102.497 54.9395 102.339 55.0801C102.181 55.2148 102.063 55.373 101.987 55.5547C101.917 55.7363 101.882 55.9355 101.882 56.1523C101.882 56.3691 101.932 56.5654 102.031 56.7412C102.131 56.9111 102.274 57.0459 102.462 57.1455C102.649 57.2393 102.869 57.2861 103.121 57.2861C103.502 57.2861 103.833 57.21 104.114 57.0576C104.396 56.9053 104.612 56.7178 104.765 56.4951C104.923 56.2725 105.005 56.0615 105.011 55.8623L105.679 56.9346C105.585 57.1748 105.456 57.4238 105.292 57.6816C105.134 57.9395 104.932 58.1826 104.686 58.4111C104.439 58.6338 104.144 58.8184 103.798 58.9648C103.452 59.1055 103.042 59.1758 102.567 59.1758C101.964 59.1758 101.416 59.0557 100.924 58.8154C100.438 58.5693 100.051 58.2324 99.7637 57.8047C99.4824 57.3711 99.3418 56.8789 99.3418 56.3281C99.3418 55.8301 99.4355 55.3877 99.623 55.001C99.8105 54.6143 100.086 54.2891 100.449 54.0254C100.818 53.7559 101.278 53.5537 101.829 53.4189C102.38 53.2783 103.019 53.208 103.745 53.208H105.213ZM111.91 51.5645V59H109.379V49.4902H111.761L111.91 51.5645ZM114.775 49.4287L114.731 51.7754C114.608 51.7578 114.459 51.7432 114.283 51.7314C114.113 51.7139 113.958 51.7051 113.817 51.7051C113.46 51.7051 113.149 51.752 112.886 51.8457C112.628 51.9336 112.411 52.0654 112.235 52.2412C112.065 52.417 111.937 52.6309 111.849 52.8828C111.767 53.1348 111.72 53.4219 111.708 53.7441L111.198 53.5859C111.198 52.9707 111.26 52.4053 111.383 51.8896C111.506 51.3682 111.685 50.9141 111.919 50.5273C112.159 50.1406 112.452 49.8418 112.798 49.6309C113.144 49.4199 113.539 49.3145 113.984 49.3145C114.125 49.3145 114.269 49.3262 114.415 49.3496C114.562 49.3672 114.682 49.3936 114.775 49.4287ZM121.068 49.4902V51.2832H115.531V49.4902H121.068ZM116.902 47.1436H119.434V56.1348C119.434 56.4102 119.469 56.6211 119.539 56.7676C119.615 56.9141 119.727 57.0166 119.873 57.0752C120.02 57.1279 120.204 57.1543 120.427 57.1543C120.585 57.1543 120.726 57.1484 120.849 57.1367C120.978 57.1191 121.086 57.1016 121.174 57.084L121.183 58.9473C120.966 59.0176 120.731 59.0732 120.479 59.1143C120.228 59.1553 119.949 59.1758 119.645 59.1758C119.088 59.1758 118.602 59.085 118.186 58.9033C117.775 58.7158 117.459 58.417 117.236 58.0068C117.014 57.5967 116.902 57.0576 116.902 56.3896V47.1436Z" fill="white"/>
</g>
<defs>
<filter id="filter0_d_9833_70971" x="0" y="0" width="154" height="98" filterUnits="userSpaceOnUse" color-interpolation-filters="sRGB">
<feFlood flood-opacity="0" result="BackgroundImageFix"/>
<feColorMatrix in="SourceAlpha" type="matrix" values="0 0 0 0 0 0 0 0 0 0 0 0 0 0 0 0 0 0 127 0" result="hardAlpha"/>
<feOffset dy="2"/>
<feGaussianBlur stdDeviation="8"/>
<feComposite in2="hardAlpha" operator="out"/>
<feColorMatrix type="matrix" values="0 0 0 0 0 0 0 0 0 0 0 0 0 0 0 0 0 0 0.08 0"/>
<feBlend mode="normal" in2="BackgroundImageFix" result="effect1_dropShadow_9833_70971"/>
<feBlend mode="normal" in="SourceGraphic" in2="effect1_dropShadow_9833_70971" result="shape"/>
</filter>
</defs>
</svg>
