<svg width="172" height="80" viewBox="0 0 172 80" fill="none" xmlns="http://www.w3.org/2000/svg">
<g filter="url(#filter0_d_9779_92512)">
<g clip-path="url(#clip0_9779_92512)">
<mask id="mask0_9779_92512" style="mask-type:luminance" maskUnits="userSpaceOnUse" x="4" y="2" width="164" height="72">
<path d="M163 2H9C6.23858 2 4 4.23858 4 7V69C4 71.7614 6.23858 74 9 74H163C165.761 74 168 71.7614 168 69V7C168 4.23858 165.761 2 163 2Z" fill="white"/>
</mask>
<g mask="url(#mask0_9779_92512)">
<path d="M168 2H4V74H168V2Z" fill="white"/>
<path d="M10 32H4V38L10 32Z" fill="#E3C5C8"/>
<path d="M10 38H4V44L10 38Z" fill="#E3C5C8"/>
<path d="M10 14H4V20L10 14Z" fill="#E3C5C8"/>
<path d="M10 26H4V32L10 26Z" fill="#E3C5C8"/>
<path d="M10 20H4V26L10 20Z" fill="#E3C5C8"/>
<path d="M10 44H4V50L10 44Z" fill="#E3C5C8"/>
<path d="M4 2V8L10 2H4Z" fill="#E3C5C8"/>
<path d="M10 68H4V74L10 68Z" fill="#E3C5C8"/>
<path d="M4 8V14L10 8H4Z" fill="#E3C5C8"/>
<path d="M10 56H4V62L10 56Z" fill="#E3C5C8"/>
<path d="M10 62H4V68L10 62Z" fill="#E3C5C8"/>
<path d="M10 50H4V56L10 50Z" fill="#E3C5C8"/>
<path d="M162 44H168V38L162 44Z" fill="#E3C5C8"/>
<path d="M162 38H168V32L162 38Z" fill="#E3C5C8"/>
<path d="M162 62H168V56L162 62Z" fill="#E3C5C8"/>
<path d="M162 50H168V44L162 50Z" fill="#E3C5C8"/>
<path d="M162 56H168V50L162 56Z" fill="#E3C5C8"/>
<path d="M162 32H168V26L162 32Z" fill="#E3C5C8"/>
<path d="M168 74V68L162 74H168Z" fill="#E3C5C8"/>
<path d="M162 8H168V2L162 8Z" fill="#E3C5C8"/>
<path d="M168 68V62L162 68H168Z" fill="#E3C5C8"/>
<path d="M162 20H168V14L162 20Z" fill="#E3C5C8"/>
<path d="M162 14H168V8L162 14Z" fill="#E3C5C8"/>
<path d="M162 26H168V20L162 26Z" fill="#E3C5C8"/>
<path fill-rule="evenodd" clip-rule="evenodd" d="M72.01 23.54L85.55 10V37.08L72.01 23.54ZM86.36 16.68H106.74L86.36 37.06V16.68ZM114 37.64H86.93L100.47 24.11L114.01 37.64H114ZM58 38.43H84.98L71.49 51.92L58 38.43ZM65.27 59.29H85.55V39.01L65.27 59.29ZM64.65 37.64V17.31L84.98 37.64H64.65ZM86.36 66L99.85 52.51L86.36 39.02V66ZM107.25 38.46V58.78L86.93 38.46H107.25Z" fill="#F6ECED"/>
</g>
<path d="M47.5 40L31.5 38L47.5 36L47.5 40Z" fill="#54080E"/>
<g filter="url(#filter1_d_9779_92512)">
<path d="M72.9683 44.752C72.9683 45.328 72.9576 45.8827 72.9363 46.416C72.9149 46.9493 72.8829 47.3547 72.8403 47.632C73.2029 47.5893 73.6403 47.568 74.1523 47.568C74.6643 47.5467 75.0269 47.536 75.2403 47.536V50H66.1203V47.888H66.3123C66.8029 47.888 67.2189 47.8347 67.5603 47.728C67.9229 47.6213 68.2002 47.376 68.3923 46.992C68.6056 46.5867 68.7123 45.9573 68.7123 45.104V44.208H60.0403V41.2L71.0163 27.088H72.9683V41.328H76.1042V44.208H72.9683V44.752ZM68.6803 33.808L63.0163 41.232L68.7123 41.264L68.7443 33.808H68.6803ZM85.2203 50.512C83.6203 50.512 82.3083 50.2773 81.2843 49.808C80.2603 49.3173 79.5029 48.7093 79.0123 47.984C78.5216 47.2587 78.2763 46.5333 78.2763 45.808C78.2763 45.168 78.4683 44.6133 78.8523 44.144C79.2576 43.6533 79.7909 43.3973 80.4523 43.376C80.9856 43.3547 81.4016 43.4613 81.7003 43.696C81.9989 43.9307 82.2123 44.208 82.3403 44.528C82.4683 44.848 82.5323 45.1467 82.5323 45.424C82.5323 45.6373 82.4896 45.8827 82.4043 46.16C82.3189 46.416 82.1909 46.6613 82.0203 46.896C82.2549 47.3013 82.6389 47.6213 83.1723 47.856C83.7269 48.0693 84.3029 48.176 84.9003 48.176C86.2443 48.176 87.2576 47.7707 87.9403 46.96C88.6229 46.1493 88.9643 45.1467 88.9643 43.952C88.9643 43.2267 88.8256 42.5013 88.5483 41.776C88.2709 41.0507 87.7909 40.4533 87.1083 39.984C86.4256 39.4933 85.4656 39.2587 84.2283 39.28C84.0789 39.28 83.8123 39.2907 83.4283 39.312C83.0443 39.3333 82.7563 39.3547 82.5643 39.376V37.072C82.7349 37.0933 82.8949 37.104 83.0443 37.104C83.1936 37.104 83.3429 37.104 83.4923 37.104C84.4309 37.104 85.2309 36.9333 85.8923 36.592C86.5536 36.2507 87.0549 35.7813 87.3963 35.184C87.7589 34.5867 87.9509 33.8933 87.9723 33.104C87.9936 32.3573 87.8976 31.7067 87.6843 31.152C87.4923 30.576 87.1723 30.128 86.7243 29.808C86.2976 29.488 85.7216 29.328 84.9963 29.328C84.4203 29.328 83.8976 29.4667 83.4283 29.744C82.9589 30.0213 82.6389 30.3307 82.4683 30.672C82.6603 30.9067 82.7883 31.184 82.8523 31.504C82.9376 31.8027 82.9803 32.048 82.9803 32.24C82.9803 32.496 82.9056 32.7947 82.7563 33.136C82.6283 33.456 82.4043 33.7333 82.0843 33.968C81.7643 34.2027 81.3376 34.3093 80.8043 34.288C80.1429 34.2667 79.6416 34.032 79.3003 33.584C78.9589 33.136 78.7883 32.6027 78.7883 31.984C78.7883 31.344 79.0336 30.64 79.5243 29.872C80.0149 29.104 80.7616 28.4533 81.7643 27.92C82.7669 27.3653 84.0149 27.088 85.5083 27.088C86.8309 27.088 88.0256 27.2693 89.0923 27.632C90.1803 27.9947 91.0336 28.592 91.6523 29.424C92.2923 30.256 92.6123 31.3653 92.6123 32.752C92.6123 33.3067 92.4523 33.936 92.1323 34.64C91.8336 35.3227 91.3323 35.952 90.6283 36.528C89.9243 37.104 88.9856 37.5307 87.8123 37.808C89.8603 38.1707 91.3643 38.9067 92.3243 40.016C93.3056 41.1253 93.7963 42.3627 93.7963 43.728C93.7963 45.1787 93.4229 46.416 92.6763 47.44C91.9509 48.4427 90.9376 49.2107 89.6363 49.744C88.3563 50.256 86.8843 50.512 85.2203 50.512ZM103.062 50.512C101.676 50.512 100.492 50.288 99.5105 49.84C98.5292 49.392 97.7718 48.8373 97.2385 48.176C96.7265 47.4933 96.4705 46.8107 96.4705 46.128C96.4705 45.5093 96.6625 44.9547 97.0465 44.464C97.4305 43.9733 97.9532 43.7173 98.6145 43.696C99.1478 43.6747 99.5638 43.7813 99.8625 44.016C100.161 44.2293 100.375 44.496 100.503 44.816C100.631 45.136 100.695 45.4453 100.695 45.744C100.695 45.9147 100.663 46.128 100.599 46.384C100.556 46.6187 100.471 46.8427 100.343 47.056C100.449 47.2907 100.641 47.504 100.919 47.696C101.196 47.8667 101.505 48.0053 101.847 48.112C102.209 48.1973 102.54 48.24 102.839 48.24C103.692 48.24 104.375 48.016 104.887 47.568C105.42 47.12 105.804 46.544 106.039 45.84C106.273 45.136 106.391 44.4213 106.391 43.696C106.391 43.2053 106.359 42.6507 106.295 42.032C106.231 41.4133 106.071 40.8053 105.815 40.208C105.58 39.6107 105.196 39.12 104.663 38.736C104.151 38.352 103.447 38.16 102.551 38.16C102.252 38.16 101.9 38.2027 101.495 38.288C101.089 38.352 100.641 38.4693 100.151 38.64C99.6812 38.8107 99.2012 39.0453 98.7105 39.344L97.3345 38.288L97.2065 27.6H105.495C106.241 27.6 106.828 27.4827 107.255 27.248C107.703 26.992 107.927 26.416 107.927 25.52H109.943L109.719 30.704L99.6705 30.896V36.592C100.161 36.3787 100.769 36.1973 101.495 36.048C102.22 35.8987 102.903 35.824 103.543 35.824C104.865 35.824 106.017 36.016 106.999 36.4C107.98 36.784 108.791 37.3173 109.431 38C110.071 38.6613 110.54 39.4293 110.839 40.304C111.159 41.1573 111.319 42.064 111.319 43.024C111.319 44.6667 110.913 46.0533 110.103 47.184C109.313 48.2933 108.289 49.1253 107.031 49.68C105.772 50.2347 104.449 50.512 103.062 50.512Z" fill="#54080E"/>
</g>
<path d="M124.5 36L140.5 38L124.5 40V36Z" fill="#54080E"/>
</g>
<rect x="4.5" y="2.5" width="163" height="71" rx="4.5" stroke="#E7E5E4" shape-rendering="crispEdges"/>
</g>
<defs>
<filter id="filter0_d_9779_92512" x="0" y="0" width="172" height="80" filterUnits="userSpaceOnUse" color-interpolation-filters="sRGB">
<feFlood flood-opacity="0" result="BackgroundImageFix"/>
<feColorMatrix in="SourceAlpha" type="matrix" values="0 0 0 0 0 0 0 0 0 0 0 0 0 0 0 0 0 0 127 0" result="hardAlpha"/>
<feOffset dy="2"/>
<feGaussianBlur stdDeviation="2"/>
<feComposite in2="hardAlpha" operator="out"/>
<feColorMatrix type="matrix" values="0 0 0 0 0.109804 0 0 0 0 0.0980392 0 0 0 0 0.0901961 0 0 0 0.08 0"/>
<feBlend mode="normal" in2="BackgroundImageFix" result="effect1_dropShadow_9779_92512"/>
<feBlend mode="normal" in="SourceGraphic" in2="effect1_dropShadow_9779_92512" result="shape"/>
</filter>
<filter id="filter1_d_9779_92512" x="60.0391" y="25.52" width="53.2812" height="26.9922" filterUnits="userSpaceOnUse" color-interpolation-filters="sRGB">
<feFlood flood-opacity="0" result="BackgroundImageFix"/>
<feColorMatrix in="SourceAlpha" type="matrix" values="0 0 0 0 0 0 0 0 0 0 0 0 0 0 0 0 0 0 127 0" result="hardAlpha"/>
<feOffset dx="2" dy="2"/>
<feComposite in2="hardAlpha" operator="out"/>
<feColorMatrix type="matrix" values="0 0 0 0 1 0 0 0 0 1 0 0 0 0 1 0 0 0 1 0"/>
<feBlend mode="normal" in2="BackgroundImageFix" result="effect1_dropShadow_9779_92512"/>
<feBlend mode="normal" in="SourceGraphic" in2="effect1_dropShadow_9779_92512" result="shape"/>
</filter>
<clipPath id="clip0_9779_92512">
<rect x="4" y="2" width="164" height="72" rx="5" fill="white"/>
</clipPath>
</defs>
</svg>
