<svg width="172" height="80" viewBox="0 0 172 80" fill="none" xmlns="http://www.w3.org/2000/svg">
<g filter="url(#filter0_d_9779_92515)">
<g clip-path="url(#clip0_9779_92515)">
<mask id="mask0_9779_92515" style="mask-type:luminance" maskUnits="userSpaceOnUse" x="4" y="2" width="164" height="72">
<path d="M163 2H9C6.23858 2 4 4.23858 4 7V69C4 71.7614 6.23858 74 9 74H163C165.761 74 168 71.7614 168 69V7C168 4.23858 165.761 2 163 2Z" fill="white"/>
</mask>
<g mask="url(#mask0_9779_92515)">
<path d="M168 2H4V74H168V2Z" fill="white"/>
<path d="M10 32H4V38L10 32Z" fill="#E3C5C8"/>
<path d="M10 38H4V44L10 38Z" fill="#E3C5C8"/>
<path d="M10 14H4V20L10 14Z" fill="#E3C5C8"/>
<path d="M10 26H4V32L10 26Z" fill="#E3C5C8"/>
<path d="M10 20H4V26L10 20Z" fill="#E3C5C8"/>
<path d="M10 44H4V50L10 44Z" fill="#E3C5C8"/>
<path d="M4 2V8L10 2H4Z" fill="#E3C5C8"/>
<path d="M10 68H4V74L10 68Z" fill="#E3C5C8"/>
<path d="M4 8V14L10 8H4Z" fill="#E3C5C8"/>
<path d="M10 56H4V62L10 56Z" fill="#E3C5C8"/>
<path d="M10 62H4V68L10 62Z" fill="#E3C5C8"/>
<path d="M10 50H4V56L10 50Z" fill="#E3C5C8"/>
<path d="M162 44H168V38L162 44Z" fill="#E3C5C8"/>
<path d="M162 38H168V32L162 38Z" fill="#E3C5C8"/>
<path d="M162 62H168V56L162 62Z" fill="#E3C5C8"/>
<path d="M162 50H168V44L162 50Z" fill="#E3C5C8"/>
<path d="M162 56H168V50L162 56Z" fill="#E3C5C8"/>
<path d="M162 32H168V26L162 32Z" fill="#E3C5C8"/>
<path d="M168 74V68L162 74H168Z" fill="#E3C5C8"/>
<path d="M162 8H168V2L162 8Z" fill="#E3C5C8"/>
<path d="M168 68V62L162 68H168Z" fill="#E3C5C8"/>
<path d="M162 20H168V14L162 20Z" fill="#E3C5C8"/>
<path d="M162 14H168V8L162 14Z" fill="#E3C5C8"/>
<path d="M162 26H168V20L162 26Z" fill="#E3C5C8"/>
<path fill-rule="evenodd" clip-rule="evenodd" d="M72.01 23.54L85.55 10V37.08L72.01 23.54ZM86.36 16.68H106.74L86.36 37.06V16.68ZM114 37.64H86.93L100.47 24.11L114.01 37.64H114ZM58 38.43H84.98L71.49 51.92L58 38.43ZM65.27 59.29H85.55V39.01L65.27 59.29ZM64.65 37.64V17.31L84.98 37.64H64.65ZM86.36 66L99.85 52.51L86.36 39.02V66ZM107.25 38.46V58.78L86.93 38.46H107.25Z" fill="#F6ECED"/>
</g>
<path d="M46 40L30 38L46 36L46 40Z" fill="#54080E"/>
<g filter="url(#filter1_d_9779_92515)">
<path d="M67.5434 50.512C65.6447 50.512 64.13 50.0747 62.9994 49.2C61.8687 48.304 61.058 47.0453 60.5674 45.424C60.0767 43.8027 59.8314 41.8933 59.8314 39.696C59.8314 38.9493 59.906 38.0427 60.0554 36.976C60.2047 35.9093 60.4607 34.8107 60.8234 33.68C61.186 32.528 61.698 31.4507 62.3594 30.448C63.0207 29.4453 63.8634 28.6347 64.8874 28.016C65.9114 27.3973 67.1487 27.088 68.5994 27.088C69.9434 27.088 71.042 27.312 71.8954 27.76C72.77 28.208 73.41 28.7627 73.8154 29.424C74.2207 30.064 74.4234 30.7147 74.4234 31.376C74.4234 31.952 74.2527 32.4747 73.9114 32.944C73.57 33.4133 73.0687 33.648 72.4074 33.648C71.618 33.648 71.0634 33.424 70.7434 32.976C70.4447 32.5067 70.2954 32.0587 70.2954 31.632C70.2954 31.4613 70.3274 31.2373 70.3914 30.96C70.4554 30.6827 70.5727 30.4373 70.7434 30.224C70.5727 29.968 70.2954 29.744 69.9114 29.552C69.5487 29.36 69.1007 29.2853 68.5674 29.328C67.9487 29.3707 67.4047 29.5733 66.9354 29.936C66.4874 30.2773 66.1034 30.736 65.7834 31.312C65.4847 31.8667 65.2394 32.496 65.0474 33.2C64.8767 33.904 64.738 34.6293 64.6314 35.376C64.546 36.1227 64.4927 36.8373 64.4714 37.52C64.706 37.2427 65.0367 36.976 65.4634 36.72C65.9114 36.4427 66.4127 36.2187 66.9674 36.048C67.522 35.856 68.0554 35.7493 68.5674 35.728C69.762 35.6853 70.786 35.8453 71.6394 36.208C72.4927 36.5493 73.1967 37.0613 73.7514 37.744C74.306 38.4053 74.7114 39.1947 74.9674 40.112C75.2447 41.0293 75.3834 42.032 75.3834 43.12C75.3834 44.464 75.042 45.7013 74.3594 46.832C73.698 47.9413 72.77 48.8373 71.5754 49.52C70.402 50.1813 69.058 50.512 67.5434 50.512ZM67.7034 48.272C68.45 48.272 69.026 48.0693 69.4314 47.664C69.858 47.2373 70.146 46.6933 70.2954 46.032C70.466 45.3493 70.5514 44.6453 70.5514 43.92C70.5514 43.4293 70.5194 42.8747 70.4554 42.256C70.4127 41.616 70.2954 40.9973 70.1034 40.4C69.9114 39.7813 69.6234 39.28 69.2394 38.896C68.8554 38.4907 68.3327 38.288 67.6714 38.288C67.2234 38.288 66.786 38.384 66.3594 38.576C65.954 38.768 65.5807 39.024 65.2394 39.344C64.9194 39.664 64.6634 40.016 64.4714 40.4C64.4714 41.1467 64.5247 41.968 64.6314 42.864C64.738 43.76 64.9087 44.624 65.1434 45.456C65.3994 46.2667 65.73 46.9387 66.1354 47.472C66.562 48.0053 67.0847 48.272 67.7034 48.272ZM84.9256 50.512C83.5176 50.512 82.387 50.3093 81.5336 49.904C80.6803 49.4987 80.051 48.976 79.6456 48.336C79.2616 47.696 79.0696 47.024 79.0696 46.32C79.0696 45.744 79.251 45.2107 79.6136 44.72C79.9976 44.208 80.5203 43.952 81.1816 43.952C81.9923 43.952 82.5363 44.1867 82.8136 44.656C83.091 45.104 83.2296 45.5413 83.2296 45.968C83.2296 46.1387 83.187 46.3733 83.1016 46.672C83.0376 46.9493 82.931 47.1733 82.7816 47.344C82.9523 47.6 83.219 47.824 83.5816 48.016C83.9656 48.1867 84.4243 48.2613 84.9576 48.24C85.5763 48.1973 86.1203 48.0267 86.5896 47.728C87.059 47.408 87.4536 46.9813 87.7736 46.448C88.115 45.9147 88.3816 45.3067 88.5736 44.624C88.787 43.9413 88.9256 43.216 88.9896 42.448C89.075 41.6587 89.0963 40.8587 89.0536 40.048C88.7123 40.4533 88.1576 40.848 87.3896 41.232C86.6216 41.616 85.8323 41.8293 85.0216 41.872C83.8483 41.8933 82.8243 41.7333 81.9496 41.392C81.0963 41.0293 80.3816 40.5067 79.8056 39.824C79.251 39.1413 78.835 38.3413 78.5576 37.424C78.2803 36.5067 78.1416 35.504 78.1416 34.416C78.1416 32.9867 78.4616 31.728 79.1016 30.64C79.763 29.5307 80.6696 28.6667 81.8216 28.048C82.995 27.408 84.339 27.088 85.8536 27.088C87.283 27.088 88.4883 27.3547 89.4696 27.888C90.4723 28.4213 91.283 29.1787 91.9016 30.16C92.5203 31.12 92.9683 32.2613 93.2456 33.584C93.5443 34.9067 93.6936 36.3467 93.6936 37.904C93.6936 38.864 93.619 39.9093 93.4696 41.04C93.3416 42.1707 93.0963 43.2907 92.7336 44.4C92.3923 45.5093 91.891 46.5333 91.2296 47.472C90.5896 48.3893 89.747 49.1253 88.7016 49.68C87.6776 50.2347 86.419 50.512 84.9256 50.512ZM85.9176 39.312C86.3656 39.312 86.7923 39.216 87.1976 39.024C87.603 38.832 87.9656 38.576 88.2856 38.256C88.6056 37.936 88.8616 37.584 89.0536 37.2C89.0536 36.176 89.0003 35.1947 88.8936 34.256C88.787 33.3173 88.6056 32.4747 88.3496 31.728C88.115 30.9813 87.7843 30.3947 87.3576 29.968C86.9523 29.5413 86.4403 29.328 85.8216 29.328C85.1816 29.328 84.6483 29.5413 84.2216 29.968C83.795 30.3733 83.475 30.9067 83.2616 31.568C83.0696 32.2293 82.9736 32.9333 82.9736 33.68C82.9736 34.1493 83.0056 34.704 83.0696 35.344C83.1336 35.984 83.2616 36.6133 83.4536 37.232C83.6456 37.8293 83.9336 38.3307 84.3176 38.736C84.723 39.12 85.2563 39.312 85.9176 39.312ZM103.363 50.512C101.955 50.512 100.824 50.3093 99.9711 49.904C99.1178 49.4987 98.4885 48.976 98.0831 48.336C97.6991 47.696 97.5071 47.024 97.5071 46.32C97.5071 45.744 97.6885 45.2107 98.0511 44.72C98.4351 44.208 98.9578 43.952 99.6191 43.952C100.43 43.952 100.974 44.1867 101.251 44.656C101.528 45.104 101.667 45.5413 101.667 45.968C101.667 46.1387 101.624 46.3733 101.539 46.672C101.475 46.9493 101.368 47.1733 101.219 47.344C101.39 47.6 101.656 47.824 102.019 48.016C102.403 48.1867 102.862 48.2613 103.395 48.24C104.014 48.1973 104.558 48.0267 105.027 47.728C105.496 47.408 105.891 46.9813 106.211 46.448C106.552 45.9147 106.819 45.3067 107.011 44.624C107.224 43.9413 107.363 43.216 107.427 42.448C107.512 41.6587 107.534 40.8587 107.491 40.048C107.15 40.4533 106.595 40.848 105.827 41.232C105.059 41.616 104.27 41.8293 103.459 41.872C102.286 41.8933 101.262 41.7333 100.387 41.392C99.5338 41.0293 98.8191 40.5067 98.2431 39.824C97.6885 39.1413 97.2725 38.3413 96.9951 37.424C96.7178 36.5067 96.5791 35.504 96.5791 34.416C96.5791 32.9867 96.8991 31.728 97.5391 30.64C98.2005 29.5307 99.1071 28.6667 100.259 28.048C101.432 27.408 102.776 27.088 104.291 27.088C105.72 27.088 106.926 27.3547 107.907 27.888C108.91 28.4213 109.72 29.1787 110.339 30.16C110.958 31.12 111.406 32.2613 111.683 33.584C111.982 34.9067 112.131 36.3467 112.131 37.904C112.131 38.864 112.056 39.9093 111.907 41.04C111.779 42.1707 111.534 43.2907 111.171 44.4C110.83 45.5093 110.328 46.5333 109.667 47.472C109.027 48.3893 108.184 49.1253 107.139 49.68C106.115 50.2347 104.856 50.512 103.363 50.512ZM104.355 39.312C104.803 39.312 105.23 39.216 105.635 39.024C106.04 38.832 106.403 38.576 106.723 38.256C107.043 37.936 107.299 37.584 107.491 37.2C107.491 36.176 107.438 35.1947 107.331 34.256C107.224 33.3173 107.043 32.4747 106.787 31.728C106.552 30.9813 106.222 30.3947 105.795 29.968C105.39 29.5413 104.878 29.328 104.259 29.328C103.619 29.328 103.086 29.5413 102.659 29.968C102.232 30.3733 101.912 30.9067 101.699 31.568C101.507 32.2293 101.411 32.9333 101.411 33.68C101.411 34.1493 101.443 34.704 101.507 35.344C101.571 35.984 101.699 36.6133 101.891 37.232C102.083 37.8293 102.371 38.3307 102.755 38.736C103.16 39.12 103.694 39.312 104.355 39.312Z" fill="#54080E"/>
</g>
<path d="M126 36L142 38L126 40V36Z" fill="#54080E"/>
</g>
<rect x="4.5" y="2.5" width="163" height="71" rx="4.5" stroke="#E7E5E4" shape-rendering="crispEdges"/>
</g>
<defs>
<filter id="filter0_d_9779_92515" x="0" y="0" width="172" height="80" filterUnits="userSpaceOnUse" color-interpolation-filters="sRGB">
<feFlood flood-opacity="0" result="BackgroundImageFix"/>
<feColorMatrix in="SourceAlpha" type="matrix" values="0 0 0 0 0 0 0 0 0 0 0 0 0 0 0 0 0 0 127 0" result="hardAlpha"/>
<feOffset dy="2"/>
<feGaussianBlur stdDeviation="2"/>
<feComposite in2="hardAlpha" operator="out"/>
<feColorMatrix type="matrix" values="0 0 0 0 0.109804 0 0 0 0 0.0980392 0 0 0 0 0.0901961 0 0 0 0.08 0"/>
<feBlend mode="normal" in2="BackgroundImageFix" result="effect1_dropShadow_9779_92515"/>
<feBlend mode="normal" in="SourceGraphic" in2="effect1_dropShadow_9779_92515" result="shape"/>
</filter>
<filter id="filter1_d_9779_92515" x="59.832" y="27.0879" width="54.3008" height="25.4243" filterUnits="userSpaceOnUse" color-interpolation-filters="sRGB">
<feFlood flood-opacity="0" result="BackgroundImageFix"/>
<feColorMatrix in="SourceAlpha" type="matrix" values="0 0 0 0 0 0 0 0 0 0 0 0 0 0 0 0 0 0 127 0" result="hardAlpha"/>
<feOffset dx="2" dy="2"/>
<feComposite in2="hardAlpha" operator="out"/>
<feColorMatrix type="matrix" values="0 0 0 0 1 0 0 0 0 1 0 0 0 0 1 0 0 0 1 0"/>
<feBlend mode="normal" in2="BackgroundImageFix" result="effect1_dropShadow_9779_92515"/>
<feBlend mode="normal" in="SourceGraphic" in2="effect1_dropShadow_9779_92515" result="shape"/>
</filter>
<clipPath id="clip0_9779_92515">
<rect x="4" y="2" width="164" height="72" rx="5" fill="white"/>
</clipPath>
</defs>
</svg>
