<svg width="172" height="80" viewBox="0 0 172 80" fill="none" xmlns="http://www.w3.org/2000/svg">
<g filter="url(#filter0_d_9779_92518)">
<g clip-path="url(#clip0_9779_92518)">
<mask id="mask0_9779_92518" style="mask-type:luminance" maskUnits="userSpaceOnUse" x="4" y="2" width="164" height="72">
<path d="M163 2H9C6.23858 2 4 4.23858 4 7V69C4 71.7614 6.23858 74 9 74H163C165.761 74 168 71.7614 168 69V7C168 4.23858 165.761 2 163 2Z" fill="white"/>
</mask>
<g mask="url(#mask0_9779_92518)">
<path d="M168 2H4V74H168V2Z" fill="white"/>
<path d="M10 32H4V38L10 32Z" fill="#E3C5C8"/>
<path d="M10 38H4V44L10 38Z" fill="#E3C5C8"/>
<path d="M10 14H4V20L10 14Z" fill="#E3C5C8"/>
<path d="M10 26H4V32L10 26Z" fill="#E3C5C8"/>
<path d="M10 20H4V26L10 20Z" fill="#E3C5C8"/>
<path d="M10 44H4V50L10 44Z" fill="#E3C5C8"/>
<path d="M4 2V8L10 2H4Z" fill="#E3C5C8"/>
<path d="M10 68H4V74L10 68Z" fill="#E3C5C8"/>
<path d="M4 8V14L10 8H4Z" fill="#E3C5C8"/>
<path d="M10 56H4V62L10 56Z" fill="#E3C5C8"/>
<path d="M10 62H4V68L10 62Z" fill="#E3C5C8"/>
<path d="M10 50H4V56L10 50Z" fill="#E3C5C8"/>
<path d="M162 44H168V38L162 44Z" fill="#E3C5C8"/>
<path d="M162 38H168V32L162 38Z" fill="#E3C5C8"/>
<path d="M162 62H168V56L162 62Z" fill="#E3C5C8"/>
<path d="M162 50H168V44L162 50Z" fill="#E3C5C8"/>
<path d="M162 56H168V50L162 56Z" fill="#E3C5C8"/>
<path d="M162 32H168V26L162 32Z" fill="#E3C5C8"/>
<path d="M168 74V68L162 74H168Z" fill="#E3C5C8"/>
<path d="M162 8H168V2L162 8Z" fill="#E3C5C8"/>
<path d="M168 68V62L162 68H168Z" fill="#E3C5C8"/>
<path d="M162 20H168V14L162 20Z" fill="#E3C5C8"/>
<path d="M162 14H168V8L162 14Z" fill="#E3C5C8"/>
<path d="M162 26H168V20L162 26Z" fill="#E3C5C8"/>
<path fill-rule="evenodd" clip-rule="evenodd" d="M72.01 23.54L85.55 10V37.08L72.01 23.54ZM86.36 16.68H106.74L86.36 37.06V16.68ZM114 37.64H86.93L100.47 24.11L114.01 37.64H114ZM58 38.43H84.98L71.49 51.92L58 38.43ZM65.27 59.29H85.55V39.01L65.27 59.29ZM64.65 37.64V17.31L84.98 37.64H64.65ZM86.36 66L99.85 52.51L86.36 39.02V66ZM107.25 38.46V58.78L86.93 38.46H107.25Z" fill="#F6ECED"/>
</g>
<path d="M46 40L30 38L46 36L46 40Z" fill="#54080E"/>
<g filter="url(#filter1_d_9779_92518)">
<path d="M66.535 50.512C65.127 50.512 63.9963 50.3093 63.143 49.904C62.2897 49.4987 61.6603 48.976 61.255 48.336C60.871 47.696 60.679 47.024 60.679 46.32C60.679 45.744 60.8603 45.2107 61.223 44.72C61.607 44.208 62.1297 43.952 62.791 43.952C63.6017 43.952 64.1457 44.1867 64.423 44.656C64.7003 45.104 64.839 45.5413 64.839 45.968C64.839 46.1387 64.7963 46.3733 64.711 46.672C64.647 46.9493 64.5403 47.1733 64.391 47.344C64.5617 47.6 64.8283 47.824 65.191 48.016C65.575 48.1867 66.0337 48.2613 66.567 48.24C67.1857 48.1973 67.7297 48.0267 68.199 47.728C68.6683 47.408 69.063 46.9813 69.383 46.448C69.7243 45.9147 69.991 45.3067 70.183 44.624C70.3963 43.9413 70.535 43.216 70.599 42.448C70.6843 41.6587 70.7057 40.8587 70.663 40.048C70.3217 40.4533 69.767 40.848 68.999 41.232C68.231 41.616 67.4417 41.8293 66.631 41.872C65.4577 41.8933 64.4337 41.7333 63.559 41.392C62.7057 41.0293 61.991 40.5067 61.415 39.824C60.8603 39.1413 60.4443 38.3413 60.167 37.424C59.8897 36.5067 59.751 35.504 59.751 34.416C59.751 32.9867 60.071 31.728 60.711 30.64C61.3723 29.5307 62.279 28.6667 63.431 28.048C64.6043 27.408 65.9483 27.088 67.463 27.088C68.8923 27.088 70.0977 27.3547 71.079 27.888C72.0817 28.4213 72.8923 29.1787 73.511 30.16C74.1297 31.12 74.5777 32.2613 74.855 33.584C75.1537 34.9067 75.303 36.3467 75.303 37.904C75.303 38.864 75.2283 39.9093 75.079 41.04C74.951 42.1707 74.7057 43.2907 74.343 44.4C74.0017 45.5093 73.5003 46.5333 72.839 47.472C72.199 48.3893 71.3563 49.1253 70.311 49.68C69.287 50.2347 68.0283 50.512 66.535 50.512ZM67.527 39.312C67.975 39.312 68.4017 39.216 68.807 39.024C69.2123 38.832 69.575 38.576 69.895 38.256C70.215 37.936 70.471 37.584 70.663 37.2C70.663 36.176 70.6097 35.1947 70.503 34.256C70.3963 33.3173 70.215 32.4747 69.959 31.728C69.7243 30.9813 69.3937 30.3947 68.967 29.968C68.5617 29.5413 68.0497 29.328 67.431 29.328C66.791 29.328 66.2577 29.5413 65.831 29.968C65.4043 30.3733 65.0843 30.9067 64.871 31.568C64.679 32.2293 64.583 32.9333 64.583 33.68C64.583 34.1493 64.615 34.704 64.679 35.344C64.743 35.984 64.871 36.6133 65.063 37.232C65.255 37.8293 65.543 38.3307 65.927 38.736C66.3323 39.12 66.8657 39.312 67.527 39.312ZM85.9965 50.512C84.0978 50.512 82.5832 50.0747 81.4525 49.2C80.3218 48.304 79.5112 47.0453 79.0205 45.424C78.5298 43.8027 78.2845 41.8933 78.2845 39.696C78.2845 38.9493 78.3592 38.0427 78.5085 36.976C78.6578 35.9093 78.9138 34.8107 79.2765 33.68C79.6392 32.528 80.1512 31.4507 80.8125 30.448C81.4738 29.4453 82.3165 28.6347 83.3405 28.016C84.3645 27.3973 85.6018 27.088 87.0525 27.088C88.3965 27.088 89.4952 27.312 90.3485 27.76C91.2232 28.208 91.8632 28.7627 92.2685 29.424C92.6738 30.064 92.8765 30.7147 92.8765 31.376C92.8765 31.952 92.7058 32.4747 92.3645 32.944C92.0232 33.4133 91.5218 33.648 90.8605 33.648C90.0712 33.648 89.5165 33.424 89.1965 32.976C88.8978 32.5067 88.7485 32.0587 88.7485 31.632C88.7485 31.4613 88.7805 31.2373 88.8445 30.96C88.9085 30.6827 89.0258 30.4373 89.1965 30.224C89.0258 29.968 88.7485 29.744 88.3645 29.552C88.0018 29.36 87.5538 29.2853 87.0205 29.328C86.4018 29.3707 85.8578 29.5733 85.3885 29.936C84.9405 30.2773 84.5565 30.736 84.2365 31.312C83.9378 31.8667 83.6925 32.496 83.5005 33.2C83.3298 33.904 83.1912 34.6293 83.0845 35.376C82.9992 36.1227 82.9458 36.8373 82.9245 37.52C83.1592 37.2427 83.4898 36.976 83.9165 36.72C84.3645 36.4427 84.8658 36.2187 85.4205 36.048C85.9752 35.856 86.5085 35.7493 87.0205 35.728C88.2152 35.6853 89.2392 35.8453 90.0925 36.208C90.9458 36.5493 91.6498 37.0613 92.2045 37.744C92.7592 38.4053 93.1645 39.1947 93.4205 40.112C93.6978 41.0293 93.8365 42.032 93.8365 43.12C93.8365 44.464 93.4952 45.7013 92.8125 46.832C92.1512 47.9413 91.2232 48.8373 90.0285 49.52C88.8552 50.1813 87.5112 50.512 85.9965 50.512ZM86.1565 48.272C86.9032 48.272 87.4792 48.0693 87.8845 47.664C88.3112 47.2373 88.5992 46.6933 88.7485 46.032C88.9192 45.3493 89.0045 44.6453 89.0045 43.92C89.0045 43.4293 88.9725 42.8747 88.9085 42.256C88.8658 41.616 88.7485 40.9973 88.5565 40.4C88.3645 39.7813 88.0765 39.28 87.6925 38.896C87.3085 38.4907 86.7858 38.288 86.1245 38.288C85.6765 38.288 85.2392 38.384 84.8125 38.576C84.4072 38.768 84.0338 39.024 83.6925 39.344C83.3725 39.664 83.1165 40.016 82.9245 40.4C82.9245 41.1467 82.9778 41.968 83.0845 42.864C83.1912 43.76 83.3618 44.624 83.5965 45.456C83.8525 46.2667 84.1832 46.9387 84.5885 47.472C85.0152 48.0053 85.5378 48.272 86.1565 48.272ZM104.403 50.512C102.504 50.512 100.989 50.0747 99.8588 49.2C98.7281 48.304 97.9174 47.0453 97.4268 45.424C96.9361 43.8027 96.6908 41.8933 96.6908 39.696C96.6908 38.9493 96.7654 38.0427 96.9148 36.976C97.0641 35.9093 97.3201 34.8107 97.6828 33.68C98.0454 32.528 98.5574 31.4507 99.2188 30.448C99.8801 29.4453 100.723 28.6347 101.747 28.016C102.771 27.3973 104.008 27.088 105.459 27.088C106.803 27.088 107.901 27.312 108.755 27.76C109.629 28.208 110.269 28.7627 110.675 29.424C111.08 30.064 111.283 30.7147 111.283 31.376C111.283 31.952 111.112 32.4747 110.771 32.944C110.429 33.4133 109.928 33.648 109.267 33.648C108.477 33.648 107.923 33.424 107.603 32.976C107.304 32.5067 107.155 32.0587 107.155 31.632C107.155 31.4613 107.187 31.2373 107.251 30.96C107.315 30.6827 107.432 30.4373 107.603 30.224C107.432 29.968 107.155 29.744 106.771 29.552C106.408 29.36 105.96 29.2853 105.427 29.328C104.808 29.3707 104.264 29.5733 103.795 29.936C103.347 30.2773 102.963 30.736 102.643 31.312C102.344 31.8667 102.099 32.496 101.907 33.2C101.736 33.904 101.597 34.6293 101.491 35.376C101.405 36.1227 101.352 36.8373 101.331 37.52C101.565 37.2427 101.896 36.976 102.323 36.72C102.771 36.4427 103.272 36.2187 103.827 36.048C104.381 35.856 104.915 35.7493 105.427 35.728C106.621 35.6853 107.645 35.8453 108.499 36.208C109.352 36.5493 110.056 37.0613 110.611 37.744C111.165 38.4053 111.571 39.1947 111.827 40.112C112.104 41.0293 112.243 42.032 112.243 43.12C112.243 44.464 111.901 45.7013 111.219 46.832C110.557 47.9413 109.629 48.8373 108.435 49.52C107.261 50.1813 105.917 50.512 104.403 50.512ZM104.563 48.272C105.309 48.272 105.885 48.0693 106.291 47.664C106.717 47.2373 107.005 46.6933 107.155 46.032C107.325 45.3493 107.411 44.6453 107.411 43.92C107.411 43.4293 107.379 42.8747 107.315 42.256C107.272 41.616 107.155 40.9973 106.963 40.4C106.771 39.7813 106.483 39.28 106.099 38.896C105.715 38.4907 105.192 38.288 104.531 38.288C104.083 38.288 103.645 38.384 103.219 38.576C102.813 38.768 102.44 39.024 102.099 39.344C101.779 39.664 101.523 40.016 101.331 40.4C101.331 41.1467 101.384 41.968 101.491 42.864C101.597 43.76 101.768 44.624 102.003 45.456C102.259 46.2667 102.589 46.9387 102.995 47.472C103.421 48.0053 103.944 48.272 104.563 48.272Z" fill="#54080E"/>
</g>
<path d="M126 36L142 38L126 40V36Z" fill="#54080E"/>
</g>
<rect x="4.5" y="2.5" width="163" height="71" rx="4.5" stroke="#E7E5E4" shape-rendering="crispEdges"/>
</g>
<defs>
<filter id="filter0_d_9779_92518" x="0" y="0" width="172" height="80" filterUnits="userSpaceOnUse" color-interpolation-filters="sRGB">
<feFlood flood-opacity="0" result="BackgroundImageFix"/>
<feColorMatrix in="SourceAlpha" type="matrix" values="0 0 0 0 0 0 0 0 0 0 0 0 0 0 0 0 0 0 127 0" result="hardAlpha"/>
<feOffset dy="2"/>
<feGaussianBlur stdDeviation="2"/>
<feComposite in2="hardAlpha" operator="out"/>
<feColorMatrix type="matrix" values="0 0 0 0 0.109804 0 0 0 0 0.0980392 0 0 0 0 0.0901961 0 0 0 0.08 0"/>
<feBlend mode="normal" in2="BackgroundImageFix" result="effect1_dropShadow_9779_92518"/>
<feBlend mode="normal" in="SourceGraphic" in2="effect1_dropShadow_9779_92518" result="shape"/>
</filter>
<filter id="filter1_d_9779_92518" x="59.75" y="27.0879" width="54.4922" height="25.4243" filterUnits="userSpaceOnUse" color-interpolation-filters="sRGB">
<feFlood flood-opacity="0" result="BackgroundImageFix"/>
<feColorMatrix in="SourceAlpha" type="matrix" values="0 0 0 0 0 0 0 0 0 0 0 0 0 0 0 0 0 0 127 0" result="hardAlpha"/>
<feOffset dx="2" dy="2"/>
<feComposite in2="hardAlpha" operator="out"/>
<feColorMatrix type="matrix" values="0 0 0 0 1 0 0 0 0 1 0 0 0 0 1 0 0 0 1 0"/>
<feBlend mode="normal" in2="BackgroundImageFix" result="effect1_dropShadow_9779_92518"/>
<feBlend mode="normal" in="SourceGraphic" in2="effect1_dropShadow_9779_92518" result="shape"/>
</filter>
<clipPath id="clip0_9779_92518">
<rect x="4" y="2" width="164" height="72" rx="5" fill="white"/>
</clipPath>
</defs>
</svg>
