<svg width="172" height="80" viewBox="0 0 172 80" fill="none" xmlns="http://www.w3.org/2000/svg">
<g filter="url(#filter0_d_9779_92513)">
<g clip-path="url(#clip0_9779_92513)">
<mask id="mask0_9779_92513" style="mask-type:luminance" maskUnits="userSpaceOnUse" x="4" y="2" width="164" height="72">
<path d="M163 2H9C6.23858 2 4 4.23858 4 7V69C4 71.7614 6.23858 74 9 74H163C165.761 74 168 71.7614 168 69V7C168 4.23858 165.761 2 163 2Z" fill="white"/>
</mask>
<g mask="url(#mask0_9779_92513)">
<path d="M168 2H4V74H168V2Z" fill="white"/>
<path d="M10 32H4V38L10 32Z" fill="#E3C5C8"/>
<path d="M10 38H4V44L10 38Z" fill="#E3C5C8"/>
<path d="M10 14H4V20L10 14Z" fill="#E3C5C8"/>
<path d="M10 26H4V32L10 26Z" fill="#E3C5C8"/>
<path d="M10 20H4V26L10 20Z" fill="#E3C5C8"/>
<path d="M10 44H4V50L10 44Z" fill="#E3C5C8"/>
<path d="M4 2V8L10 2H4Z" fill="#E3C5C8"/>
<path d="M10 68H4V74L10 68Z" fill="#E3C5C8"/>
<path d="M4 8V14L10 8H4Z" fill="#E3C5C8"/>
<path d="M10 56H4V62L10 56Z" fill="#E3C5C8"/>
<path d="M10 62H4V68L10 62Z" fill="#E3C5C8"/>
<path d="M10 50H4V56L10 50Z" fill="#E3C5C8"/>
<path d="M162 44H168V38L162 44Z" fill="#E3C5C8"/>
<path d="M162 38H168V32L162 38Z" fill="#E3C5C8"/>
<path d="M162 62H168V56L162 62Z" fill="#E3C5C8"/>
<path d="M162 50H168V44L162 50Z" fill="#E3C5C8"/>
<path d="M162 56H168V50L162 56Z" fill="#E3C5C8"/>
<path d="M162 32H168V26L162 32Z" fill="#E3C5C8"/>
<path d="M168 74V68L162 74H168Z" fill="#E3C5C8"/>
<path d="M162 8H168V2L162 8Z" fill="#E3C5C8"/>
<path d="M168 68V62L162 68H168Z" fill="#E3C5C8"/>
<path d="M162 20H168V14L162 20Z" fill="#E3C5C8"/>
<path d="M162 14H168V8L162 14Z" fill="#E3C5C8"/>
<path d="M162 26H168V20L162 26Z" fill="#E3C5C8"/>
<path fill-rule="evenodd" clip-rule="evenodd" d="M72.01 23.54L85.55 10V37.08L72.01 23.54ZM86.36 16.68H106.74L86.36 37.06V16.68ZM114 37.64H86.93L100.47 24.11L114.01 37.64H114ZM58 38.43H84.98L71.49 51.92L58 38.43ZM65.27 59.29H85.55V39.01L65.27 59.29ZM64.65 37.64V17.31L84.98 37.64H64.65ZM86.36 66L99.85 52.51L86.36 39.02V66ZM107.25 38.46V58.78L86.93 38.46H107.25Z" fill="#F6ECED"/>
</g>
<path d="M47.5 40L31.5 38L47.5 36L47.5 40Z" fill="#54080E"/>
<g filter="url(#filter1_d_9779_92513)">
<path d="M68.809 50.512C66.9103 50.512 65.3957 50.0747 64.265 49.2C63.1343 48.304 62.3237 47.0453 61.833 45.424C61.3423 43.8027 61.097 41.8933 61.097 39.696C61.097 38.9493 61.1717 38.0427 61.321 36.976C61.4703 35.9093 61.7263 34.8107 62.089 33.68C62.4517 32.528 62.9637 31.4507 63.625 30.448C64.2863 29.4453 65.129 28.6347 66.153 28.016C67.177 27.3973 68.4143 27.088 69.865 27.088C71.209 27.088 72.3077 27.312 73.161 27.76C74.0357 28.208 74.6757 28.7627 75.081 29.424C75.4863 30.064 75.689 30.7147 75.689 31.376C75.689 31.952 75.5183 32.4747 75.177 32.944C74.8357 33.4133 74.3343 33.648 73.673 33.648C72.8837 33.648 72.329 33.424 72.009 32.976C71.7103 32.5067 71.561 32.0587 71.561 31.632C71.561 31.4613 71.593 31.2373 71.657 30.96C71.721 30.6827 71.8383 30.4373 72.009 30.224C71.8383 29.968 71.561 29.744 71.177 29.552C70.8143 29.36 70.3663 29.2853 69.833 29.328C69.2143 29.3707 68.6703 29.5733 68.201 29.936C67.753 30.2773 67.369 30.736 67.049 31.312C66.7503 31.8667 66.505 32.496 66.313 33.2C66.1423 33.904 66.0037 34.6293 65.897 35.376C65.8117 36.1227 65.7583 36.8373 65.737 37.52C65.9717 37.2427 66.3023 36.976 66.729 36.72C67.177 36.4427 67.6783 36.2187 68.233 36.048C68.7877 35.856 69.321 35.7493 69.833 35.728C71.0277 35.6853 72.0517 35.8453 72.905 36.208C73.7583 36.5493 74.4623 37.0613 75.017 37.744C75.5717 38.4053 75.977 39.1947 76.233 40.112C76.5103 41.0293 76.649 42.032 76.649 43.12C76.649 44.464 76.3077 45.7013 75.625 46.832C74.9637 47.9413 74.0357 48.8373 72.841 49.52C71.6677 50.1813 70.3237 50.512 68.809 50.512ZM68.969 48.272C69.7157 48.272 70.2917 48.0693 70.697 47.664C71.1237 47.2373 71.4117 46.6933 71.561 46.032C71.7317 45.3493 71.817 44.6453 71.817 43.92C71.817 43.4293 71.785 42.8747 71.721 42.256C71.6783 41.616 71.561 40.9973 71.369 40.4C71.177 39.7813 70.889 39.28 70.505 38.896C70.121 38.4907 69.5983 38.288 68.937 38.288C68.489 38.288 68.0517 38.384 67.625 38.576C67.2197 38.768 66.8463 39.024 66.505 39.344C66.185 39.664 65.929 40.016 65.737 40.4C65.737 41.1467 65.7903 41.968 65.897 42.864C66.0037 43.76 66.1743 44.624 66.409 45.456C66.665 46.2667 66.9957 46.9387 67.401 47.472C67.8277 48.0053 68.3503 48.272 68.969 48.272ZM79.2793 50C79.2793 48.8907 79.4179 47.8987 79.6953 47.024C79.9939 46.1493 80.3779 45.36 80.8473 44.656C81.3379 43.952 81.8713 43.3013 82.4473 42.704C83.0446 42.1067 83.6526 41.52 84.2713 40.944C85.8286 39.4933 86.9273 38.1813 87.5673 37.008C88.2286 35.8347 88.5593 34.672 88.5593 33.52C88.5593 32.8373 88.4739 32.176 88.3033 31.536C88.1326 30.896 87.8233 30.3733 87.3753 29.968C86.9273 29.5413 86.2979 29.3387 85.4873 29.36C84.9113 29.36 84.3886 29.4987 83.9193 29.776C83.4713 30.032 83.1299 30.3413 82.8953 30.704C83.1299 30.9387 83.2899 31.216 83.3753 31.536C83.4819 31.856 83.5353 32.1333 83.5353 32.368C83.5353 32.6027 83.4606 32.8907 83.3113 33.232C83.1619 33.552 82.9273 33.8293 82.6073 34.064C82.3086 34.2987 81.8926 34.416 81.3593 34.416C80.6979 34.3733 80.1859 34.128 79.8233 33.68C79.4819 33.232 79.3113 32.6987 79.3113 32.08C79.3113 31.5893 79.4606 31.0667 79.7593 30.512C80.0579 29.936 80.5059 29.392 81.1033 28.88C81.7006 28.3467 82.4259 27.92 83.2793 27.6C84.1539 27.2587 85.1566 27.088 86.2873 27.088C87.1406 27.088 87.9833 27.1947 88.8153 27.408C89.6686 27.6213 90.4473 27.9627 91.1513 28.432C91.8553 28.9013 92.4099 29.52 92.8153 30.288C93.2419 31.056 93.4553 32.0053 93.4553 33.136C93.4553 33.6693 93.3593 34.2347 93.1673 34.832C92.9753 35.408 92.6233 36.048 92.1113 36.752C91.5993 37.4347 90.8846 38.224 89.9673 39.12C89.0499 40.016 87.8659 41.0613 86.4153 42.256C85.2419 43.216 84.3779 44.0907 83.8233 44.88C83.2686 45.6693 82.9379 46.2773 82.8313 46.704L89.1033 46.864C89.5939 46.8853 90.0099 46.8533 90.3513 46.768C90.7139 46.6613 90.9913 46.4587 91.1833 46.16C91.3966 45.84 91.5033 45.3813 91.5033 44.784H93.5513L93.2953 50H79.2793ZM103.094 50.512C101.707 50.512 100.523 50.288 99.5418 49.84C98.5604 49.392 97.8031 48.8373 97.2698 48.176C96.7578 47.4933 96.5018 46.8107 96.5018 46.128C96.5018 45.5093 96.6938 44.9547 97.0778 44.464C97.4618 43.9733 97.9844 43.7173 98.6458 43.696C99.1791 43.6747 99.5951 43.7813 99.8938 44.016C100.192 44.2293 100.406 44.496 100.534 44.816C100.662 45.136 100.726 45.4453 100.726 45.744C100.726 45.9147 100.694 46.128 100.63 46.384C100.587 46.6187 100.502 46.8427 100.374 47.056C100.48 47.2907 100.672 47.504 100.95 47.696C101.227 47.8667 101.536 48.0053 101.878 48.112C102.24 48.1973 102.571 48.24 102.87 48.24C103.723 48.24 104.406 48.016 104.918 47.568C105.451 47.12 105.835 46.544 106.07 45.84C106.304 45.136 106.422 44.4213 106.422 43.696C106.422 43.2053 106.39 42.6507 106.326 42.032C106.262 41.4133 106.102 40.8053 105.846 40.208C105.611 39.6107 105.227 39.12 104.694 38.736C104.182 38.352 103.478 38.16 102.582 38.16C102.283 38.16 101.931 38.2027 101.526 38.288C101.12 38.352 100.672 38.4693 100.182 38.64C99.7124 38.8107 99.2324 39.0453 98.7418 39.344L97.3658 38.288L97.2378 27.6H105.526C106.272 27.6 106.859 27.4827 107.286 27.248C107.734 26.992 107.958 26.416 107.958 25.52H109.974L109.75 30.704L99.7018 30.896V36.592C100.192 36.3787 100.8 36.1973 101.526 36.048C102.251 35.8987 102.934 35.824 103.574 35.824C104.896 35.824 106.048 36.016 107.03 36.4C108.011 36.784 108.822 37.3173 109.462 38C110.102 38.6613 110.571 39.4293 110.87 40.304C111.19 41.1573 111.35 42.064 111.35 43.024C111.35 44.6667 110.944 46.0533 110.134 47.184C109.344 48.2933 108.32 49.1253 107.062 49.68C105.803 50.2347 104.48 50.512 103.094 50.512Z" fill="#54080E"/>
</g>
<path d="M124.5 36L140.5 38L124.5 40V36Z" fill="#54080E"/>
</g>
<rect x="4.5" y="2.5" width="163" height="71" rx="4.5" stroke="#E7E5E4" shape-rendering="crispEdges"/>
</g>
<defs>
<filter id="filter0_d_9779_92513" x="0" y="0" width="172" height="80" filterUnits="userSpaceOnUse" color-interpolation-filters="sRGB">
<feFlood flood-opacity="0" result="BackgroundImageFix"/>
<feColorMatrix in="SourceAlpha" type="matrix" values="0 0 0 0 0 0 0 0 0 0 0 0 0 0 0 0 0 0 127 0" result="hardAlpha"/>
<feOffset dy="2"/>
<feGaussianBlur stdDeviation="2"/>
<feComposite in2="hardAlpha" operator="out"/>
<feColorMatrix type="matrix" values="0 0 0 0 0.109804 0 0 0 0 0.0980392 0 0 0 0 0.0901961 0 0 0 0.08 0"/>
<feBlend mode="normal" in2="BackgroundImageFix" result="effect1_dropShadow_9779_92513"/>
<feBlend mode="normal" in="SourceGraphic" in2="effect1_dropShadow_9779_92513" result="shape"/>
</filter>
<filter id="filter1_d_9779_92513" x="61.0977" y="25.52" width="52.2539" height="26.9922" filterUnits="userSpaceOnUse" color-interpolation-filters="sRGB">
<feFlood flood-opacity="0" result="BackgroundImageFix"/>
<feColorMatrix in="SourceAlpha" type="matrix" values="0 0 0 0 0 0 0 0 0 0 0 0 0 0 0 0 0 0 127 0" result="hardAlpha"/>
<feOffset dx="2" dy="2"/>
<feComposite in2="hardAlpha" operator="out"/>
<feColorMatrix type="matrix" values="0 0 0 0 1 0 0 0 0 1 0 0 0 0 1 0 0 0 1 0"/>
<feBlend mode="normal" in2="BackgroundImageFix" result="effect1_dropShadow_9779_92513"/>
<feBlend mode="normal" in="SourceGraphic" in2="effect1_dropShadow_9779_92513" result="shape"/>
</filter>
<clipPath id="clip0_9779_92513">
<rect x="4" y="2" width="164" height="72" rx="5" fill="white"/>
</clipPath>
</defs>
</svg>
