<svg width="172" height="80" viewBox="0 0 172 80" fill="none" xmlns="http://www.w3.org/2000/svg">
<g filter="url(#filter0_d_9779_92514)">
<g clip-path="url(#clip0_9779_92514)">
<mask id="mask0_9779_92514" style="mask-type:luminance" maskUnits="userSpaceOnUse" x="4" y="2" width="164" height="72">
<path d="M163 2H9C6.23858 2 4 4.23858 4 7V69C4 71.7614 6.23858 74 9 74H163C165.761 74 168 71.7614 168 69V7C168 4.23858 165.761 2 163 2Z" fill="white"/>
</mask>
<g mask="url(#mask0_9779_92514)">
<path d="M168 2H4V74H168V2Z" fill="white"/>
<path d="M10 32H4V38L10 32Z" fill="#E3C5C8"/>
<path d="M10 38H4V44L10 38Z" fill="#E3C5C8"/>
<path d="M10 14H4V20L10 14Z" fill="#E3C5C8"/>
<path d="M10 26H4V32L10 26Z" fill="#E3C5C8"/>
<path d="M10 20H4V26L10 20Z" fill="#E3C5C8"/>
<path d="M10 44H4V50L10 44Z" fill="#E3C5C8"/>
<path d="M4 2V8L10 2H4Z" fill="#E3C5C8"/>
<path d="M10 68H4V74L10 68Z" fill="#E3C5C8"/>
<path d="M4 8V14L10 8H4Z" fill="#E3C5C8"/>
<path d="M10 56H4V62L10 56Z" fill="#E3C5C8"/>
<path d="M10 62H4V68L10 62Z" fill="#E3C5C8"/>
<path d="M10 50H4V56L10 50Z" fill="#E3C5C8"/>
<path d="M162 44H168V38L162 44Z" fill="#E3C5C8"/>
<path d="M162 38H168V32L162 38Z" fill="#E3C5C8"/>
<path d="M162 62H168V56L162 62Z" fill="#E3C5C8"/>
<path d="M162 50H168V44L162 50Z" fill="#E3C5C8"/>
<path d="M162 56H168V50L162 56Z" fill="#E3C5C8"/>
<path d="M162 32H168V26L162 32Z" fill="#E3C5C8"/>
<path d="M168 74V68L162 74H168Z" fill="#E3C5C8"/>
<path d="M162 8H168V2L162 8Z" fill="#E3C5C8"/>
<path d="M168 68V62L162 68H168Z" fill="#E3C5C8"/>
<path d="M162 20H168V14L162 20Z" fill="#E3C5C8"/>
<path d="M162 14H168V8L162 14Z" fill="#E3C5C8"/>
<path d="M162 26H168V20L162 26Z" fill="#E3C5C8"/>
<path fill-rule="evenodd" clip-rule="evenodd" d="M72.01 23.54L85.55 10V37.08L72.01 23.54ZM86.36 16.68H106.74L86.36 37.06V16.68ZM114 37.64H86.93L100.47 24.11L114.01 37.64H114ZM58 38.43H84.98L71.49 51.92L58 38.43ZM65.27 59.29H85.55V39.01L65.27 59.29ZM64.65 37.64V17.31L84.98 37.64H64.65ZM86.36 66L99.85 52.51L86.36 39.02V66ZM107.25 38.46V58.78L86.93 38.46H107.25Z" fill="#F6ECED"/>
</g>
<path d="M47 40L31 38L47 36L47 40Z" fill="#54080E"/>
<g filter="url(#filter1_d_9779_92514)">
<path d="M68.2309 50.512C66.3322 50.512 64.8175 50.0747 63.6869 49.2C62.5562 48.304 61.7455 47.0453 61.2549 45.424C60.7642 43.8027 60.5189 41.8933 60.5189 39.696C60.5189 38.9493 60.5935 38.0427 60.7429 36.976C60.8922 35.9093 61.1482 34.8107 61.5109 33.68C61.8735 32.528 62.3855 31.4507 63.0469 30.448C63.7082 29.4453 64.5509 28.6347 65.5749 28.016C66.5989 27.3973 67.8362 27.088 69.2869 27.088C70.6309 27.088 71.7295 27.312 72.5829 27.76C73.4575 28.208 74.0975 28.7627 74.5029 29.424C74.9082 30.064 75.1109 30.7147 75.1109 31.376C75.1109 31.952 74.9402 32.4747 74.5989 32.944C74.2575 33.4133 73.7562 33.648 73.0949 33.648C72.3055 33.648 71.7509 33.424 71.4309 32.976C71.1322 32.5067 70.9829 32.0587 70.9829 31.632C70.9829 31.4613 71.0149 31.2373 71.0789 30.96C71.1429 30.6827 71.2602 30.4373 71.4309 30.224C71.2602 29.968 70.9829 29.744 70.5989 29.552C70.2362 29.36 69.7882 29.2853 69.2549 29.328C68.6362 29.3707 68.0922 29.5733 67.6229 29.936C67.1749 30.2773 66.7909 30.736 66.4709 31.312C66.1722 31.8667 65.9269 32.496 65.7349 33.2C65.5642 33.904 65.4255 34.6293 65.3189 35.376C65.2335 36.1227 65.1802 36.8373 65.1589 37.52C65.3935 37.2427 65.7242 36.976 66.1509 36.72C66.5989 36.4427 67.1002 36.2187 67.6549 36.048C68.2095 35.856 68.7429 35.7493 69.2549 35.728C70.4495 35.6853 71.4735 35.8453 72.3269 36.208C73.1802 36.5493 73.8842 37.0613 74.4389 37.744C74.9935 38.4053 75.3989 39.1947 75.6549 40.112C75.9322 41.0293 76.0709 42.032 76.0709 43.12C76.0709 44.464 75.7295 45.7013 75.0469 46.832C74.3855 47.9413 73.4575 48.8373 72.2629 49.52C71.0895 50.1813 69.7455 50.512 68.2309 50.512ZM68.3909 48.272C69.1375 48.272 69.7135 48.0693 70.1189 47.664C70.5455 47.2373 70.8335 46.6933 70.9829 46.032C71.1535 45.3493 71.2389 44.6453 71.2389 43.92C71.2389 43.4293 71.2069 42.8747 71.1429 42.256C71.1002 41.616 70.9829 40.9973 70.7909 40.4C70.5989 39.7813 70.3109 39.28 69.9269 38.896C69.5429 38.4907 69.0202 38.288 68.3589 38.288C67.9109 38.288 67.4735 38.384 67.0469 38.576C66.6415 38.768 66.2682 39.024 65.9269 39.344C65.6069 39.664 65.3509 40.016 65.1589 40.4C65.1589 41.1467 65.2122 41.968 65.3189 42.864C65.4255 43.76 65.5962 44.624 65.8309 45.456C66.0869 46.2667 66.4175 46.9387 66.8229 47.472C67.2495 48.0053 67.7722 48.272 68.3909 48.272ZM78.7011 50C78.7011 48.8907 78.8398 47.8987 79.1171 47.024C79.4158 46.1493 79.7998 45.36 80.2691 44.656C80.7598 43.952 81.2931 43.3013 81.8691 42.704C82.4665 42.1067 83.0745 41.52 83.6931 40.944C85.2505 39.4933 86.3491 38.1813 86.9891 37.008C87.6505 35.8347 87.9811 34.672 87.9811 33.52C87.9811 32.8373 87.8958 32.176 87.7251 31.536C87.5545 30.896 87.2451 30.3733 86.7971 29.968C86.3491 29.5413 85.7198 29.3387 84.9091 29.36C84.3331 29.36 83.8105 29.4987 83.3411 29.776C82.8931 30.032 82.5518 30.3413 82.3171 30.704C82.5518 30.9387 82.7118 31.216 82.7971 31.536C82.9038 31.856 82.9571 32.1333 82.9571 32.368C82.9571 32.6027 82.8825 32.8907 82.7331 33.232C82.5838 33.552 82.3491 33.8293 82.0291 34.064C81.7305 34.2987 81.3145 34.416 80.7811 34.416C80.1198 34.3733 79.6078 34.128 79.2451 33.68C78.9038 33.232 78.7331 32.6987 78.7331 32.08C78.7331 31.5893 78.8825 31.0667 79.1811 30.512C79.4798 29.936 79.9278 29.392 80.5251 28.88C81.1225 28.3467 81.8478 27.92 82.7011 27.6C83.5758 27.2587 84.5785 27.088 85.7091 27.088C86.5625 27.088 87.4051 27.1947 88.2371 27.408C89.0905 27.6213 89.8691 27.9627 90.5731 28.432C91.2771 28.9013 91.8318 29.52 92.2371 30.288C92.6638 31.056 92.8771 32.0053 92.8771 33.136C92.8771 33.6693 92.7811 34.2347 92.5891 34.832C92.3971 35.408 92.0451 36.048 91.5331 36.752C91.0211 37.4347 90.3065 38.224 89.3891 39.12C88.4718 40.016 87.2878 41.0613 85.8371 42.256C84.6638 43.216 83.7998 44.0907 83.2451 44.88C82.6905 45.6693 82.3598 46.2773 82.2531 46.704L88.5251 46.864C89.0158 46.8853 89.4318 46.8533 89.7731 46.768C90.1358 46.6613 90.4131 46.4587 90.6051 46.16C90.8185 45.84 90.9251 45.3813 90.9251 44.784H92.9731L92.7171 50H78.7011ZM102.676 50.512C101.268 50.512 100.137 50.3093 99.2836 49.904C98.4303 49.4987 97.801 48.976 97.3956 48.336C97.0116 47.696 96.8196 47.024 96.8196 46.32C96.8196 45.744 97.001 45.2107 97.3636 44.72C97.7476 44.208 98.2703 43.952 98.9316 43.952C99.7423 43.952 100.286 44.1867 100.564 44.656C100.841 45.104 100.98 45.5413 100.98 45.968C100.98 46.1387 100.937 46.3733 100.852 46.672C100.788 46.9493 100.681 47.1733 100.532 47.344C100.702 47.6 100.969 47.824 101.332 48.016C101.716 48.1867 102.174 48.2613 102.708 48.24C103.326 48.1973 103.87 48.0267 104.34 47.728C104.809 47.408 105.204 46.9813 105.524 46.448C105.865 45.9147 106.132 45.3067 106.324 44.624C106.537 43.9413 106.676 43.216 106.74 42.448C106.825 41.6587 106.846 40.8587 106.804 40.048C106.462 40.4533 105.908 40.848 105.14 41.232C104.372 41.616 103.582 41.8293 102.772 41.872C101.598 41.8933 100.574 41.7333 99.6996 41.392C98.8463 41.0293 98.1316 40.5067 97.5556 39.824C97.001 39.1413 96.585 38.3413 96.3076 37.424C96.0303 36.5067 95.8916 35.504 95.8916 34.416C95.8916 32.9867 96.2116 31.728 96.8516 30.64C97.513 29.5307 98.4196 28.6667 99.5716 28.048C100.745 27.408 102.089 27.088 103.604 27.088C105.033 27.088 106.238 27.3547 107.22 27.888C108.222 28.4213 109.033 29.1787 109.652 30.16C110.27 31.12 110.718 32.2613 110.996 33.584C111.294 34.9067 111.444 36.3467 111.444 37.904C111.444 38.864 111.369 39.9093 111.22 41.04C111.092 42.1707 110.846 43.2907 110.484 44.4C110.142 45.5093 109.641 46.5333 108.98 47.472C108.34 48.3893 107.497 49.1253 106.452 49.68C105.428 50.2347 104.169 50.512 102.676 50.512ZM103.668 39.312C104.116 39.312 104.542 39.216 104.948 39.024C105.353 38.832 105.716 38.576 106.036 38.256C106.356 37.936 106.612 37.584 106.804 37.2C106.804 36.176 106.75 35.1947 106.644 34.256C106.537 33.3173 106.356 32.4747 106.1 31.728C105.865 30.9813 105.534 30.3947 105.108 29.968C104.702 29.5413 104.19 29.328 103.572 29.328C102.932 29.328 102.398 29.5413 101.972 29.968C101.545 30.3733 101.225 30.9067 101.012 31.568C100.82 32.2293 100.724 32.9333 100.724 33.68C100.724 34.1493 100.756 34.704 100.82 35.344C100.884 35.984 101.012 36.6133 101.204 37.232C101.396 37.8293 101.684 38.3307 102.068 38.736C102.473 39.12 103.006 39.312 103.668 39.312Z" fill="#54080E"/>
</g>
<path d="M125 36L141 38L125 40V36Z" fill="#54080E"/>
</g>
<rect x="4.5" y="2.5" width="163" height="71" rx="4.5" stroke="#E7E5E4" shape-rendering="crispEdges"/>
</g>
<defs>
<filter id="filter0_d_9779_92514" x="0" y="0" width="172" height="80" filterUnits="userSpaceOnUse" color-interpolation-filters="sRGB">
<feFlood flood-opacity="0" result="BackgroundImageFix"/>
<feColorMatrix in="SourceAlpha" type="matrix" values="0 0 0 0 0 0 0 0 0 0 0 0 0 0 0 0 0 0 127 0" result="hardAlpha"/>
<feOffset dy="2"/>
<feGaussianBlur stdDeviation="2"/>
<feComposite in2="hardAlpha" operator="out"/>
<feColorMatrix type="matrix" values="0 0 0 0 0.109804 0 0 0 0 0.0980392 0 0 0 0 0.0901961 0 0 0 0.08 0"/>
<feBlend mode="normal" in2="BackgroundImageFix" result="effect1_dropShadow_9779_92514"/>
<feBlend mode="normal" in="SourceGraphic" in2="effect1_dropShadow_9779_92514" result="shape"/>
</filter>
<filter id="filter1_d_9779_92514" x="60.5195" y="27.0879" width="52.9258" height="25.4243" filterUnits="userSpaceOnUse" color-interpolation-filters="sRGB">
<feFlood flood-opacity="0" result="BackgroundImageFix"/>
<feColorMatrix in="SourceAlpha" type="matrix" values="0 0 0 0 0 0 0 0 0 0 0 0 0 0 0 0 0 0 127 0" result="hardAlpha"/>
<feOffset dx="2" dy="2"/>
<feComposite in2="hardAlpha" operator="out"/>
<feColorMatrix type="matrix" values="0 0 0 0 1 0 0 0 0 1 0 0 0 0 1 0 0 0 1 0"/>
<feBlend mode="normal" in2="BackgroundImageFix" result="effect1_dropShadow_9779_92514"/>
<feBlend mode="normal" in="SourceGraphic" in2="effect1_dropShadow_9779_92514" result="shape"/>
</filter>
<clipPath id="clip0_9779_92514">
<rect x="4" y="2" width="164" height="72" rx="5" fill="white"/>
</clipPath>
</defs>
</svg>
