<svg width="172" height="80" viewBox="0 0 172 80" fill="none" xmlns="http://www.w3.org/2000/svg">
<g filter="url(#filter0_d_9779_92517)">
<g clip-path="url(#clip0_9779_92517)">
<mask id="mask0_9779_92517" style="mask-type:luminance" maskUnits="userSpaceOnUse" x="4" y="2" width="164" height="72">
<path d="M163 2H9C6.23858 2 4 4.23858 4 7V69C4 71.7614 6.23858 74 9 74H163C165.761 74 168 71.7614 168 69V7C168 4.23858 165.761 2 163 2Z" fill="white"/>
</mask>
<g mask="url(#mask0_9779_92517)">
<path d="M168 2H4V74H168V2Z" fill="white"/>
<path d="M10 32H4V38L10 32Z" fill="#E3C5C8"/>
<path d="M10 38H4V44L10 38Z" fill="#E3C5C8"/>
<path d="M10 14H4V20L10 14Z" fill="#E3C5C8"/>
<path d="M10 26H4V32L10 26Z" fill="#E3C5C8"/>
<path d="M10 20H4V26L10 20Z" fill="#E3C5C8"/>
<path d="M10 44H4V50L10 44Z" fill="#E3C5C8"/>
<path d="M4 2V8L10 2H4Z" fill="#E3C5C8"/>
<path d="M10 68H4V74L10 68Z" fill="#E3C5C8"/>
<path d="M4 8V14L10 8H4Z" fill="#E3C5C8"/>
<path d="M10 56H4V62L10 56Z" fill="#E3C5C8"/>
<path d="M10 62H4V68L10 62Z" fill="#E3C5C8"/>
<path d="M10 50H4V56L10 50Z" fill="#E3C5C8"/>
<path d="M162 44H168V38L162 44Z" fill="#E3C5C8"/>
<path d="M162 38H168V32L162 38Z" fill="#E3C5C8"/>
<path d="M162 62H168V56L162 62Z" fill="#E3C5C8"/>
<path d="M162 50H168V44L162 50Z" fill="#E3C5C8"/>
<path d="M162 56H168V50L162 56Z" fill="#E3C5C8"/>
<path d="M162 32H168V26L162 32Z" fill="#E3C5C8"/>
<path d="M168 74V68L162 74H168Z" fill="#E3C5C8"/>
<path d="M162 8H168V2L162 8Z" fill="#E3C5C8"/>
<path d="M168 68V62L162 68H168Z" fill="#E3C5C8"/>
<path d="M162 20H168V14L162 20Z" fill="#E3C5C8"/>
<path d="M162 14H168V8L162 14Z" fill="#E3C5C8"/>
<path d="M162 26H168V20L162 26Z" fill="#E3C5C8"/>
<path fill-rule="evenodd" clip-rule="evenodd" d="M72.01 23.54L85.55 10V37.08L72.01 23.54ZM86.36 16.68H106.74L86.36 37.06V16.68ZM114 37.64H86.93L100.47 24.11L114.01 37.64H114ZM58 38.43H84.98L71.49 51.92L58 38.43ZM65.27 59.29H85.55V39.01L65.27 59.29ZM64.65 37.64V17.31L84.98 37.64H64.65ZM86.36 66L99.85 52.51L86.36 39.02V66ZM107.25 38.46V58.78L86.93 38.46H107.25Z" fill="#F6ECED"/>
</g>
<path d="M47 40L31 38L47 36L47 40Z" fill="#54080E"/>
<g filter="url(#filter1_d_9779_92517)">
<path d="M68.1498 50.512C67.3818 50.512 66.5711 50.416 65.7178 50.224C64.8858 50.032 64.0964 49.7227 63.3498 49.296C62.6244 48.8693 62.0271 48.304 61.5578 47.6C61.1098 46.8747 60.8858 45.9893 60.8858 44.944C60.8858 44.1333 61.0884 43.3547 61.4938 42.608C61.9204 41.8613 62.4538 41.1787 63.0938 40.56C63.7338 39.92 64.4058 39.3973 65.1098 38.992C63.7018 38.1173 62.6991 37.1467 62.1018 36.08C61.5258 35.0133 61.2378 34.0533 61.2378 33.2C61.2378 32.1547 61.4511 31.248 61.8778 30.48C62.3258 29.712 62.9124 29.0827 63.6378 28.592C64.3631 28.08 65.1418 27.7067 65.9738 27.472C66.8271 27.216 67.6698 27.088 68.5017 27.088C69.6111 27.088 70.6671 27.3013 71.6698 27.728C72.6724 28.1333 73.4938 28.7413 74.1338 29.552C74.7738 30.3627 75.0938 31.3547 75.0938 32.528C75.0938 33.2533 74.9018 33.9467 74.5178 34.608C74.1338 35.2693 73.6431 35.8667 73.0458 36.4C72.4698 36.9333 71.8831 37.392 71.2858 37.776C72.3738 38.4373 73.2698 39.1307 73.9738 39.856C74.6778 40.5813 75.2004 41.3387 75.5417 42.128C75.8831 42.896 76.0538 43.6853 76.0538 44.496C76.0538 45.8827 75.6804 47.024 74.9338 47.92C74.2084 48.7947 73.2378 49.4453 72.0218 49.872C70.8271 50.2987 69.5364 50.512 68.1498 50.512ZM68.1818 48.272C69.2058 48.2933 70.0058 48.0053 70.5818 47.408C71.1791 46.7893 71.4778 46.0427 71.4778 45.168C71.4778 44.3573 71.1791 43.5253 70.5818 42.672C69.9844 41.7973 68.8964 40.9653 67.3177 40.176C66.4644 40.8373 65.8351 41.5947 65.4298 42.448C65.0458 43.28 64.8324 44.0053 64.7898 44.624C64.7471 45.6267 65.0458 46.48 65.6858 47.184C66.3258 47.888 67.1578 48.2507 68.1818 48.272ZM69.2058 36.464C69.8884 35.952 70.4538 35.344 70.9018 34.64C71.3711 33.9147 71.6164 33.2533 71.6378 32.656C71.6804 31.5893 71.4138 30.768 70.8378 30.192C70.2618 29.616 69.5684 29.328 68.7578 29.328C68.1391 29.328 67.5951 29.4667 67.1258 29.744C66.6778 30 66.3258 30.352 66.0698 30.8C65.8351 31.248 65.7178 31.7493 65.7178 32.304C65.7178 33.136 66.0591 33.9467 66.7418 34.736C67.4458 35.504 68.2671 36.08 69.2058 36.464ZM78.6543 50C78.6543 48.8907 78.7929 47.8987 79.0703 47.024C79.3689 46.1493 79.7529 45.36 80.2223 44.656C80.7129 43.952 81.2463 43.3013 81.8223 42.704C82.4196 42.1067 83.0276 41.52 83.6463 40.944C85.2036 39.4933 86.3023 38.1813 86.9423 37.008C87.6036 35.8347 87.9343 34.672 87.9343 33.52C87.9343 32.8373 87.8489 32.176 87.6783 31.536C87.5076 30.896 87.1983 30.3733 86.7503 29.968C86.3023 29.5413 85.6729 29.3387 84.8623 29.36C84.2863 29.36 83.7636 29.4987 83.2943 29.776C82.8463 30.032 82.5049 30.3413 82.2703 30.704C82.5049 30.9387 82.6649 31.216 82.7503 31.536C82.8569 31.856 82.9103 32.1333 82.9103 32.368C82.9103 32.6027 82.8356 32.8907 82.6863 33.232C82.5369 33.552 82.3023 33.8293 81.9823 34.064C81.6836 34.2987 81.2676 34.416 80.7343 34.416C80.0729 34.3733 79.5609 34.128 79.1983 33.68C78.8569 33.232 78.6863 32.6987 78.6863 32.08C78.6863 31.5893 78.8356 31.0667 79.1343 30.512C79.4329 29.936 79.8809 29.392 80.4783 28.88C81.0756 28.3467 81.8009 27.92 82.6543 27.6C83.5289 27.2587 84.5316 27.088 85.6623 27.088C86.5156 27.088 87.3583 27.1947 88.1903 27.408C89.0436 27.6213 89.8223 27.9627 90.5263 28.432C91.2303 28.9013 91.7849 29.52 92.1903 30.288C92.6169 31.056 92.8303 32.0053 92.8303 33.136C92.8303 33.6693 92.7343 34.2347 92.5423 34.832C92.3503 35.408 91.9983 36.048 91.4863 36.752C90.9743 37.4347 90.2596 38.224 89.3423 39.12C88.4249 40.016 87.2409 41.0613 85.7903 42.256C84.6169 43.216 83.7529 44.0907 83.1983 44.88C82.6436 45.6693 82.3129 46.2773 82.2063 46.704L88.4783 46.864C88.9689 46.8853 89.3849 46.8533 89.7263 46.768C90.0889 46.6613 90.3663 46.4587 90.5583 46.16C90.7716 45.84 90.8783 45.3813 90.8783 44.784H92.9263L92.6703 50H78.6543ZM102.629 50.512C101.221 50.512 100.09 50.3093 99.2368 49.904C98.3834 49.4987 97.7541 48.976 97.3488 48.336C96.9648 47.696 96.7728 47.024 96.7728 46.32C96.7728 45.744 96.9541 45.2107 97.3168 44.72C97.7008 44.208 98.2234 43.952 98.8848 43.952C99.6954 43.952 100.239 44.1867 100.517 44.656C100.794 45.104 100.933 45.5413 100.933 45.968C100.933 46.1387 100.89 46.3733 100.805 46.672C100.741 46.9493 100.634 47.1733 100.485 47.344C100.655 47.6 100.922 47.824 101.285 48.016C101.669 48.1867 102.127 48.2613 102.661 48.24C103.279 48.1973 103.823 48.0267 104.293 47.728C104.762 47.408 105.157 46.9813 105.477 46.448C105.818 45.9147 106.085 45.3067 106.277 44.624C106.49 43.9413 106.629 43.216 106.693 42.448C106.778 41.6587 106.799 40.8587 106.757 40.048C106.415 40.4533 105.861 40.848 105.093 41.232C104.325 41.616 103.535 41.8293 102.725 41.872C101.551 41.8933 100.527 41.7333 99.6528 41.392C98.7994 41.0293 98.0848 40.5067 97.5088 39.824C96.9541 39.1413 96.5381 38.3413 96.2608 37.424C95.9834 36.5067 95.8448 35.504 95.8448 34.416C95.8448 32.9867 96.1648 31.728 96.8048 30.64C97.4661 29.5307 98.3728 28.6667 99.5248 28.048C100.698 27.408 102.042 27.088 103.557 27.088C104.986 27.088 106.191 27.3547 107.173 27.888C108.175 28.4213 108.986 29.1787 109.605 30.16C110.223 31.12 110.671 32.2613 110.949 33.584C111.247 34.9067 111.397 36.3467 111.397 37.904C111.397 38.864 111.322 39.9093 111.173 41.04C111.045 42.1707 110.799 43.2907 110.437 44.4C110.095 45.5093 109.594 46.5333 108.933 47.472C108.293 48.3893 107.45 49.1253 106.405 49.68C105.381 50.2347 104.122 50.512 102.629 50.512ZM103.621 39.312C104.069 39.312 104.495 39.216 104.901 39.024C105.306 38.832 105.669 38.576 105.989 38.256C106.309 37.936 106.565 37.584 106.757 37.2C106.757 36.176 106.703 35.1947 106.597 34.256C106.49 33.3173 106.309 32.4747 106.053 31.728C105.818 30.9813 105.487 30.3947 105.061 29.968C104.655 29.5413 104.143 29.328 103.525 29.328C102.885 29.328 102.351 29.5413 101.925 29.968C101.498 30.3733 101.178 30.9067 100.965 31.568C100.773 32.2293 100.677 32.9333 100.677 33.68C100.677 34.1493 100.709 34.704 100.773 35.344C100.837 35.984 100.965 36.6133 101.157 37.232C101.349 37.8293 101.637 38.3307 102.021 38.736C102.426 39.12 102.959 39.312 103.621 39.312Z" fill="#54080E"/>
</g>
<path d="M125 36L141 38L125 40V36Z" fill="#54080E"/>
</g>
<rect x="4.5" y="2.5" width="163" height="71" rx="4.5" stroke="#E7E5E4" shape-rendering="crispEdges"/>
</g>
<defs>
<filter id="filter0_d_9779_92517" x="0" y="0" width="172" height="80" filterUnits="userSpaceOnUse" color-interpolation-filters="sRGB">
<feFlood flood-opacity="0" result="BackgroundImageFix"/>
<feColorMatrix in="SourceAlpha" type="matrix" values="0 0 0 0 0 0 0 0 0 0 0 0 0 0 0 0 0 0 127 0" result="hardAlpha"/>
<feOffset dy="2"/>
<feGaussianBlur stdDeviation="2"/>
<feComposite in2="hardAlpha" operator="out"/>
<feColorMatrix type="matrix" values="0 0 0 0 0.109804 0 0 0 0 0.0980392 0 0 0 0 0.0901961 0 0 0 0.08 0"/>
<feBlend mode="normal" in2="BackgroundImageFix" result="effect1_dropShadow_9779_92517"/>
<feBlend mode="normal" in="SourceGraphic" in2="effect1_dropShadow_9779_92517" result="shape"/>
</filter>
<filter id="filter1_d_9779_92517" x="60.8867" y="27.0879" width="52.5117" height="25.4243" filterUnits="userSpaceOnUse" color-interpolation-filters="sRGB">
<feFlood flood-opacity="0" result="BackgroundImageFix"/>
<feColorMatrix in="SourceAlpha" type="matrix" values="0 0 0 0 0 0 0 0 0 0 0 0 0 0 0 0 0 0 127 0" result="hardAlpha"/>
<feOffset dx="2" dy="2"/>
<feComposite in2="hardAlpha" operator="out"/>
<feColorMatrix type="matrix" values="0 0 0 0 1 0 0 0 0 1 0 0 0 0 1 0 0 0 1 0"/>
<feBlend mode="normal" in2="BackgroundImageFix" result="effect1_dropShadow_9779_92517"/>
<feBlend mode="normal" in="SourceGraphic" in2="effect1_dropShadow_9779_92517" result="shape"/>
</filter>
<clipPath id="clip0_9779_92517">
<rect x="4" y="2" width="164" height="72" rx="5" fill="white"/>
</clipPath>
</defs>
</svg>
