<svg width="172" height="80" viewBox="0 0 172 80" fill="none" xmlns="http://www.w3.org/2000/svg">
<g filter="url(#filter0_d_9779_92516)">
<g clip-path="url(#clip0_9779_92516)">
<mask id="mask0_9779_92516" style="mask-type:luminance" maskUnits="userSpaceOnUse" x="4" y="2" width="164" height="72">
<path d="M163 2H9C6.23858 2 4 4.23858 4 7V69C4 71.7614 6.23858 74 9 74H163C165.761 74 168 71.7614 168 69V7C168 4.23858 165.761 2 163 2Z" fill="white"/>
</mask>
<g mask="url(#mask0_9779_92516)">
<path d="M168 2H4V74H168V2Z" fill="white"/>
<path d="M10 32H4V38L10 32Z" fill="#E3C5C8"/>
<path d="M10 38H4V44L10 38Z" fill="#E3C5C8"/>
<path d="M10 14H4V20L10 14Z" fill="#E3C5C8"/>
<path d="M10 26H4V32L10 26Z" fill="#E3C5C8"/>
<path d="M10 20H4V26L10 20Z" fill="#E3C5C8"/>
<path d="M10 44H4V50L10 44Z" fill="#E3C5C8"/>
<path d="M4 2V8L10 2H4Z" fill="#E3C5C8"/>
<path d="M10 68H4V74L10 68Z" fill="#E3C5C8"/>
<path d="M4 8V14L10 8H4Z" fill="#E3C5C8"/>
<path d="M10 56H4V62L10 56Z" fill="#E3C5C8"/>
<path d="M10 62H4V68L10 62Z" fill="#E3C5C8"/>
<path d="M10 50H4V56L10 50Z" fill="#E3C5C8"/>
<path d="M162 44H168V38L162 44Z" fill="#E3C5C8"/>
<path d="M162 38H168V32L162 38Z" fill="#E3C5C8"/>
<path d="M162 62H168V56L162 62Z" fill="#E3C5C8"/>
<path d="M162 50H168V44L162 50Z" fill="#E3C5C8"/>
<path d="M162 56H168V50L162 56Z" fill="#E3C5C8"/>
<path d="M162 32H168V26L162 32Z" fill="#E3C5C8"/>
<path d="M168 74V68L162 74H168Z" fill="#E3C5C8"/>
<path d="M162 8H168V2L162 8Z" fill="#E3C5C8"/>
<path d="M168 68V62L162 68H168Z" fill="#E3C5C8"/>
<path d="M162 20H168V14L162 20Z" fill="#E3C5C8"/>
<path d="M162 14H168V8L162 14Z" fill="#E3C5C8"/>
<path d="M162 26H168V20L162 26Z" fill="#E3C5C8"/>
<path fill-rule="evenodd" clip-rule="evenodd" d="M72.01 23.54L85.55 10V37.08L72.01 23.54ZM86.36 16.68H106.74L86.36 37.06V16.68ZM114 37.64H86.93L100.47 24.11L114.01 37.64H114ZM58 38.43H84.98L71.49 51.92L58 38.43ZM65.27 59.29H85.55V39.01L65.27 59.29ZM64.65 37.64V17.31L84.98 37.64H64.65ZM86.36 66L99.85 52.51L86.36 39.02V66ZM107.25 38.46V58.78L86.93 38.46H107.25Z" fill="#F6ECED"/>
</g>
<path d="M45.5 40L29.5 38L45.5 36L45.5 40Z" fill="#54080E"/>
<g filter="url(#filter1_d_9779_92516)">
<path d="M66.5716 50.512C65.8036 50.512 64.993 50.416 64.1396 50.224C63.3076 50.032 62.5183 49.7227 61.7716 49.296C61.0463 48.8693 60.449 48.304 59.9796 47.6C59.5316 46.8747 59.3076 45.9893 59.3076 44.944C59.3076 44.1333 59.5103 43.3547 59.9156 42.608C60.3423 41.8613 60.8756 41.1787 61.5156 40.56C62.1556 39.92 62.8276 39.3973 63.5316 38.992C62.1236 38.1173 61.121 37.1467 60.5236 36.08C59.9476 35.0133 59.6596 34.0533 59.6596 33.2C59.6596 32.1547 59.873 31.248 60.2996 30.48C60.7476 29.712 61.3343 29.0827 62.0596 28.592C62.785 28.08 63.5636 27.7067 64.3956 27.472C65.249 27.216 66.0916 27.088 66.9236 27.088C68.033 27.088 69.089 27.3013 70.0916 27.728C71.0943 28.1333 71.9156 28.7413 72.5556 29.552C73.1956 30.3627 73.5156 31.3547 73.5156 32.528C73.5156 33.2533 73.3236 33.9467 72.9396 34.608C72.5556 35.2693 72.065 35.8667 71.4676 36.4C70.8916 36.9333 70.305 37.392 69.7076 37.776C70.7956 38.4373 71.6916 39.1307 72.3956 39.856C73.0996 40.5813 73.6223 41.3387 73.9636 42.128C74.305 42.896 74.4756 43.6853 74.4756 44.496C74.4756 45.8827 74.1023 47.024 73.3556 47.92C72.6303 48.7947 71.6596 49.4453 70.4436 49.872C69.249 50.2987 67.9583 50.512 66.5716 50.512ZM66.6036 48.272C67.6276 48.2933 68.4276 48.0053 69.0036 47.408C69.601 46.7893 69.8996 46.0427 69.8996 45.168C69.8996 44.3573 69.601 43.5253 69.0036 42.672C68.4063 41.7973 67.3183 40.9653 65.7396 40.176C64.8863 40.8373 64.257 41.5947 63.8516 42.448C63.4676 43.28 63.2543 44.0053 63.2116 44.624C63.169 45.6267 63.4676 46.48 64.1076 47.184C64.7476 47.888 65.5796 48.2507 66.6036 48.272ZM67.6276 36.464C68.3103 35.952 68.8756 35.344 69.3236 34.64C69.793 33.9147 70.0383 33.2533 70.0596 32.656C70.1023 31.5893 69.8356 30.768 69.2596 30.192C68.6836 29.616 67.9903 29.328 67.1796 29.328C66.561 29.328 66.017 29.4667 65.5476 29.744C65.0996 30 64.7476 30.352 64.4916 30.8C64.257 31.248 64.1396 31.7493 64.1396 32.304C64.1396 33.136 64.481 33.9467 65.1636 34.736C65.8676 35.504 66.689 36.08 67.6276 36.464ZM86.0041 50.512C84.3828 50.512 83.0068 50.1707 81.8761 49.488C80.7455 48.784 79.8388 47.8667 79.1561 46.736C78.4735 45.584 77.9721 44.3253 77.6521 42.96C77.3535 41.5947 77.2041 40.24 77.2041 38.896C77.2041 37.552 77.3855 36.1867 77.7481 34.8C78.1321 33.4133 78.6975 32.144 79.4441 30.992C80.1908 29.8187 81.1188 28.88 82.2281 28.176C83.3375 27.4507 84.6388 27.088 86.1321 27.088C87.6895 27.088 89.0121 27.44 90.1001 28.144C91.2095 28.848 92.1055 29.776 92.7881 30.928C93.4708 32.0587 93.9721 33.3067 94.2921 34.672C94.6121 36.0373 94.7721 37.392 94.7721 38.736C94.7721 40.0587 94.5908 41.4133 94.2281 42.8C93.8868 44.1867 93.3535 45.4667 92.6281 46.64C91.9028 47.792 90.9855 48.7307 89.8761 49.456C88.7881 50.16 87.4975 50.512 86.0041 50.512ZM86.1961 48.24C86.9428 48.24 87.5615 48.0053 88.0521 47.536C88.5428 47.0667 88.9161 46.4267 89.1721 45.616C89.4495 44.784 89.6415 43.8347 89.7481 42.768C89.8548 41.7013 89.9081 40.5813 89.9081 39.408C89.9081 38.1067 89.8548 36.8587 89.7481 35.664C89.6628 34.448 89.4815 33.3707 89.2041 32.432C88.9481 31.472 88.5641 30.7147 88.0521 30.16C87.5615 29.6053 86.9001 29.328 86.0681 29.328C85.3001 29.328 84.6601 29.5627 84.1481 30.032C83.6361 30.5013 83.2201 31.152 82.9001 31.984C82.6015 32.816 82.3881 33.7653 82.2601 34.832C82.1321 35.8987 82.0681 37.0293 82.0681 38.224C82.0681 39.12 82.0895 40.0373 82.1321 40.976C82.1961 41.9147 82.3028 42.8213 82.4521 43.696C82.6228 44.5493 82.8575 45.3173 83.1561 46C83.4548 46.6827 83.8495 47.2267 84.3401 47.632C84.8521 48.0373 85.4708 48.24 86.1961 48.24ZM105.228 50.512C104.46 50.512 103.649 50.416 102.796 50.224C101.964 50.032 101.175 49.7227 100.428 49.296C99.7025 48.8693 99.1052 48.304 98.6359 47.6C98.1879 46.8747 97.9639 45.9893 97.9639 44.944C97.9639 44.1333 98.1665 43.3547 98.5719 42.608C98.9985 41.8613 99.5319 41.1787 100.172 40.56C100.812 39.92 101.484 39.3973 102.188 38.992C100.78 38.1173 99.7772 37.1467 99.1799 36.08C98.6039 35.0133 98.3159 34.0533 98.3159 33.2C98.3159 32.1547 98.5292 31.248 98.9559 30.48C99.4039 29.712 99.9905 29.0827 100.716 28.592C101.441 28.08 102.22 27.7067 103.052 27.472C103.905 27.216 104.748 27.088 105.58 27.088C106.689 27.088 107.745 27.3013 108.748 27.728C109.751 28.1333 110.572 28.7413 111.212 29.552C111.852 30.3627 112.172 31.3547 112.172 32.528C112.172 33.2533 111.98 33.9467 111.596 34.608C111.212 35.2693 110.721 35.8667 110.124 36.4C109.548 36.9333 108.961 37.392 108.364 37.776C109.452 38.4373 110.348 39.1307 111.052 39.856C111.756 40.5813 112.279 41.3387 112.62 42.128C112.961 42.896 113.132 43.6853 113.132 44.496C113.132 45.8827 112.759 47.024 112.012 47.92C111.287 48.7947 110.316 49.4453 109.1 49.872C107.905 50.2987 106.615 50.512 105.228 50.512ZM105.26 48.272C106.284 48.2933 107.084 48.0053 107.66 47.408C108.257 46.7893 108.556 46.0427 108.556 45.168C108.556 44.3573 108.257 43.5253 107.66 42.672C107.063 41.7973 105.975 40.9653 104.396 40.176C103.543 40.8373 102.913 41.5947 102.508 42.448C102.124 43.28 101.911 44.0053 101.868 44.624C101.825 45.6267 102.124 46.48 102.764 47.184C103.404 47.888 104.236 48.2507 105.26 48.272ZM106.284 36.464C106.967 35.952 107.532 35.344 107.98 34.64C108.449 33.9147 108.695 33.2533 108.716 32.656C108.759 31.5893 108.492 30.768 107.916 30.192C107.34 29.616 106.647 29.328 105.836 29.328C105.217 29.328 104.673 29.4667 104.204 29.744C103.756 30 103.404 30.352 103.148 30.8C102.913 31.248 102.796 31.7493 102.796 32.304C102.796 33.136 103.137 33.9467 103.82 34.736C104.524 35.504 105.345 36.08 106.284 36.464Z" fill="#54080E"/>
</g>
<path d="M126.5 36L142.5 38L126.5 40V36Z" fill="#54080E"/>
</g>
<rect x="4.5" y="2.5" width="163" height="71" rx="4.5" stroke="#E7E5E4" shape-rendering="crispEdges"/>
</g>
<defs>
<filter id="filter0_d_9779_92516" x="0" y="0" width="172" height="80" filterUnits="userSpaceOnUse" color-interpolation-filters="sRGB">
<feFlood flood-opacity="0" result="BackgroundImageFix"/>
<feColorMatrix in="SourceAlpha" type="matrix" values="0 0 0 0 0 0 0 0 0 0 0 0 0 0 0 0 0 0 127 0" result="hardAlpha"/>
<feOffset dy="2"/>
<feGaussianBlur stdDeviation="2"/>
<feComposite in2="hardAlpha" operator="out"/>
<feColorMatrix type="matrix" values="0 0 0 0 0.109804 0 0 0 0 0.0980392 0 0 0 0 0.0901961 0 0 0 0.08 0"/>
<feBlend mode="normal" in2="BackgroundImageFix" result="effect1_dropShadow_9779_92516"/>
<feBlend mode="normal" in="SourceGraphic" in2="effect1_dropShadow_9779_92516" result="shape"/>
</filter>
<filter id="filter1_d_9779_92516" x="59.3086" y="27.0879" width="55.8242" height="25.4243" filterUnits="userSpaceOnUse" color-interpolation-filters="sRGB">
<feFlood flood-opacity="0" result="BackgroundImageFix"/>
<feColorMatrix in="SourceAlpha" type="matrix" values="0 0 0 0 0 0 0 0 0 0 0 0 0 0 0 0 0 0 127 0" result="hardAlpha"/>
<feOffset dx="2" dy="2"/>
<feComposite in2="hardAlpha" operator="out"/>
<feColorMatrix type="matrix" values="0 0 0 0 1 0 0 0 0 1 0 0 0 0 1 0 0 0 1 0"/>
<feBlend mode="normal" in2="BackgroundImageFix" result="effect1_dropShadow_9779_92516"/>
<feBlend mode="normal" in="SourceGraphic" in2="effect1_dropShadow_9779_92516" result="shape"/>
</filter>
<clipPath id="clip0_9779_92516">
<rect x="4" y="2" width="164" height="72" rx="5" fill="white"/>
</clipPath>
</defs>
</svg>
