<svg width="172" height="80" viewBox="0 0 172 80" fill="none" xmlns="http://www.w3.org/2000/svg">
<g filter="url(#filter0_d_9779_92510)">
<g clip-path="url(#clip0_9779_92510)">
<mask id="mask0_9779_92510" style="mask-type:luminance" maskUnits="userSpaceOnUse" x="4" y="2" width="164" height="72">
<path d="M163 2H9C6.23858 2 4 4.23858 4 7V69C4 71.7614 6.23858 74 9 74H163C165.761 74 168 71.7614 168 69V7C168 4.23858 165.761 2 163 2Z" fill="white"/>
</mask>
<g mask="url(#mask0_9779_92510)">
<path d="M168 2H4V74H168V2Z" fill="white"/>
<path d="M10 32H4V38L10 32Z" fill="#E3C5C8"/>
<path d="M10 38H4V44L10 38Z" fill="#E3C5C8"/>
<path d="M10 14H4V20L10 14Z" fill="#E3C5C8"/>
<path d="M10 26H4V32L10 26Z" fill="#E3C5C8"/>
<path d="M10 20H4V26L10 20Z" fill="#E3C5C8"/>
<path d="M10 44H4V50L10 44Z" fill="#E3C5C8"/>
<path d="M4 2V8L10 2H4Z" fill="#E3C5C8"/>
<path d="M10 68H4V74L10 68Z" fill="#E3C5C8"/>
<path d="M4 8V14L10 8H4Z" fill="#E3C5C8"/>
<path d="M10 56H4V62L10 56Z" fill="#E3C5C8"/>
<path d="M10 62H4V68L10 62Z" fill="#E3C5C8"/>
<path d="M10 50H4V56L10 50Z" fill="#E3C5C8"/>
<path d="M162 44H168V38L162 44Z" fill="#E3C5C8"/>
<path d="M162 38H168V32L162 38Z" fill="#E3C5C8"/>
<path d="M162 62H168V56L162 62Z" fill="#E3C5C8"/>
<path d="M162 50H168V44L162 50Z" fill="#E3C5C8"/>
<path d="M162 56H168V50L162 56Z" fill="#E3C5C8"/>
<path d="M162 32H168V26L162 32Z" fill="#E3C5C8"/>
<path d="M168 74V68L162 74H168Z" fill="#E3C5C8"/>
<path d="M162 8H168V2L162 8Z" fill="#E3C5C8"/>
<path d="M168 68V62L162 68H168Z" fill="#E3C5C8"/>
<path d="M162 20H168V14L162 20Z" fill="#E3C5C8"/>
<path d="M162 14H168V8L162 14Z" fill="#E3C5C8"/>
<path d="M162 26H168V20L162 26Z" fill="#E3C5C8"/>
<path fill-rule="evenodd" clip-rule="evenodd" d="M72.01 23.54L85.55 10V37.08L72.01 23.54ZM86.36 16.68H106.74L86.36 37.06V16.68ZM114 37.64H86.93L100.47 24.11L114.01 37.64H114ZM58 38.43H84.98L71.49 51.92L58 38.43ZM65.27 59.29H85.55V39.01L65.27 59.29ZM64.65 37.64V17.31L84.98 37.64H64.65ZM86.36 66L99.85 52.51L86.36 39.02V66ZM107.25 38.46V58.78L86.93 38.46H107.25Z" fill="#F6ECED"/>
</g>
<path d="M44.5 40L28.5 38L44.5 36L44.5 40Z" fill="#54080E"/>
<g filter="url(#filter1_d_9779_92510)">
<path d="M70.2183 44.752C70.2183 45.328 70.2076 45.8827 70.1863 46.416C70.1649 46.9493 70.1329 47.3547 70.0903 47.632C70.4529 47.5893 70.8903 47.568 71.4023 47.568C71.9143 47.5467 72.2769 47.536 72.4903 47.536V50H63.3703V47.888H63.5623C64.0529 47.888 64.4689 47.8347 64.8103 47.728C65.1729 47.6213 65.4502 47.376 65.6423 46.992C65.8556 46.5867 65.9623 45.9573 65.9623 45.104V44.208H57.2903V41.2L68.2663 27.088H70.2183V41.328H73.3542V44.208H70.2183V44.752ZM65.9303 33.808L60.2663 41.232L65.9623 41.264L65.9943 33.808H65.9303ZM84.5823 50.512C82.9609 50.512 81.5849 50.1707 80.4543 49.488C79.3236 48.784 78.4169 47.8667 77.7343 46.736C77.0516 45.584 76.5503 44.3253 76.2303 42.96C75.9316 41.5947 75.7823 40.24 75.7823 38.896C75.7823 37.552 75.9636 36.1867 76.3263 34.8C76.7103 33.4133 77.2756 32.144 78.0223 30.992C78.7689 29.8187 79.6969 28.88 80.8063 28.176C81.9156 27.4507 83.2169 27.088 84.7103 27.088C86.2676 27.088 87.5903 27.44 88.6783 28.144C89.7876 28.848 90.6836 29.776 91.3663 30.928C92.0489 32.0587 92.5503 33.3067 92.8703 34.672C93.1903 36.0373 93.3503 37.392 93.3503 38.736C93.3503 40.0587 93.1689 41.4133 92.8063 42.8C92.4649 44.1867 91.9316 45.4667 91.2063 46.64C90.4809 47.792 89.5636 48.7307 88.4543 49.456C87.3663 50.16 86.0756 50.512 84.5823 50.512ZM84.7743 48.24C85.5209 48.24 86.1396 48.0053 86.6303 47.536C87.1209 47.0667 87.4943 46.4267 87.7503 45.616C88.0276 44.784 88.2196 43.8347 88.3263 42.768C88.4329 41.7013 88.4863 40.5813 88.4863 39.408C88.4863 38.1067 88.4329 36.8587 88.3263 35.664C88.2409 34.448 88.0596 33.3707 87.7823 32.432C87.5263 31.472 87.1423 30.7147 86.6303 30.16C86.1396 29.6053 85.4783 29.328 84.6463 29.328C83.8783 29.328 83.2383 29.5627 82.7263 30.032C82.2143 30.5013 81.7983 31.152 81.4783 31.984C81.1796 32.816 80.9663 33.7653 80.8383 34.832C80.7103 35.8987 80.6463 37.0293 80.6463 38.224C80.6463 39.12 80.6676 40.0373 80.7103 40.976C80.7743 41.9147 80.8809 42.8213 81.0303 43.696C81.2009 44.5493 81.4356 45.3173 81.7343 46C82.0329 46.6827 82.4276 47.2267 82.9183 47.632C83.4303 48.0373 84.0489 48.24 84.7743 48.24ZM104.926 50.512C103.305 50.512 101.929 50.1707 100.798 49.488C99.6673 48.784 98.7607 47.8667 98.078 46.736C97.3953 45.584 96.894 44.3253 96.574 42.96C96.2753 41.5947 96.126 40.24 96.126 38.896C96.126 37.552 96.3073 36.1867 96.67 34.8C97.054 33.4133 97.6193 32.144 98.366 30.992C99.1127 29.8187 100.041 28.88 101.15 28.176C102.259 27.4507 103.561 27.088 105.054 27.088C106.611 27.088 107.934 27.44 109.022 28.144C110.131 28.848 111.027 29.776 111.71 30.928C112.393 32.0587 112.894 33.3067 113.214 34.672C113.534 36.0373 113.694 37.392 113.694 38.736C113.694 40.0587 113.513 41.4133 113.15 42.8C112.809 44.1867 112.275 45.4667 111.55 46.64C110.825 47.792 109.907 48.7307 108.798 49.456C107.71 50.16 106.419 50.512 104.926 50.512ZM105.118 48.24C105.865 48.24 106.483 48.0053 106.974 47.536C107.465 47.0667 107.838 46.4267 108.094 45.616C108.371 44.784 108.563 43.8347 108.67 42.768C108.777 41.7013 108.83 40.5813 108.83 39.408C108.83 38.1067 108.777 36.8587 108.67 35.664C108.585 34.448 108.403 33.3707 108.126 32.432C107.87 31.472 107.486 30.7147 106.974 30.16C106.483 29.6053 105.822 29.328 104.99 29.328C104.222 29.328 103.582 29.5627 103.07 30.032C102.558 30.5013 102.142 31.152 101.822 31.984C101.523 32.816 101.31 33.7653 101.182 34.832C101.054 35.8987 100.99 37.0293 100.99 38.224C100.99 39.12 101.011 40.0373 101.054 40.976C101.118 41.9147 101.225 42.8213 101.374 43.696C101.545 44.5493 101.779 45.3173 102.078 46C102.377 46.6827 102.771 47.2267 103.262 47.632C103.774 48.0373 104.393 48.24 105.118 48.24Z" fill="#54080E"/>
</g>
<path d="M127.5 36L143.5 38L127.5 40V36Z" fill="#54080E"/>
</g>
<rect x="4.5" y="2.5" width="163" height="71" rx="4.5" stroke="#E7E5E4" shape-rendering="crispEdges"/>
</g>
<defs>
<filter id="filter0_d_9779_92510" x="0" y="0" width="172" height="80" filterUnits="userSpaceOnUse" color-interpolation-filters="sRGB">
<feFlood flood-opacity="0" result="BackgroundImageFix"/>
<feColorMatrix in="SourceAlpha" type="matrix" values="0 0 0 0 0 0 0 0 0 0 0 0 0 0 0 0 0 0 127 0" result="hardAlpha"/>
<feOffset dy="2"/>
<feGaussianBlur stdDeviation="2"/>
<feComposite in2="hardAlpha" operator="out"/>
<feColorMatrix type="matrix" values="0 0 0 0 0.109804 0 0 0 0 0.0980392 0 0 0 0 0.0901961 0 0 0 0.08 0"/>
<feBlend mode="normal" in2="BackgroundImageFix" result="effect1_dropShadow_9779_92510"/>
<feBlend mode="normal" in="SourceGraphic" in2="effect1_dropShadow_9779_92510" result="shape"/>
</filter>
<filter id="filter1_d_9779_92510" x="57.2891" y="27.0879" width="58.4062" height="25.4243" filterUnits="userSpaceOnUse" color-interpolation-filters="sRGB">
<feFlood flood-opacity="0" result="BackgroundImageFix"/>
<feColorMatrix in="SourceAlpha" type="matrix" values="0 0 0 0 0 0 0 0 0 0 0 0 0 0 0 0 0 0 127 0" result="hardAlpha"/>
<feOffset dx="2" dy="2"/>
<feComposite in2="hardAlpha" operator="out"/>
<feColorMatrix type="matrix" values="0 0 0 0 1 0 0 0 0 1 0 0 0 0 1 0 0 0 1 0"/>
<feBlend mode="normal" in2="BackgroundImageFix" result="effect1_dropShadow_9779_92510"/>
<feBlend mode="normal" in="SourceGraphic" in2="effect1_dropShadow_9779_92510" result="shape"/>
</filter>
<clipPath id="clip0_9779_92510">
<rect x="4" y="2" width="164" height="72" rx="5" fill="white"/>
</clipPath>
</defs>
</svg>
