<svg width="173" height="80" viewBox="0 0 173 80" fill="none" xmlns="http://www.w3.org/2000/svg">
<g filter="url(#filter0_d_9779_92608)">
<g clip-path="url(#clip0_9779_92608)">
<mask id="mask0_9779_92608" style="mask-type:luminance" maskUnits="userSpaceOnUse" x="4" y="2" width="165" height="72">
<path d="M163.801 2H9.80078C7.03936 2 4.80078 4.23858 4.80078 7V69C4.80078 71.7614 7.03936 74 9.80078 74H163.801C166.562 74 168.801 71.7614 168.801 69V7C168.801 4.23858 166.562 2 163.801 2Z" fill="white"/>
</mask>
<g mask="url(#mask0_9779_92608)">
<path d="M168.801 2H4.80078V74H168.801V2Z" fill="white"/>
<path d="M10.8008 32H4.80078V38L10.8008 32Z" fill="#E3C5C8"/>
<path d="M10.8008 38H4.80078V44L10.8008 38Z" fill="#E3C5C8"/>
<path d="M10.8008 14H4.80078V20L10.8008 14Z" fill="#E3C5C8"/>
<path d="M10.8008 26H4.80078V32L10.8008 26Z" fill="#E3C5C8"/>
<path d="M10.8008 20H4.80078V26L10.8008 20Z" fill="#E3C5C8"/>
<path d="M10.8008 44H4.80078V50L10.8008 44Z" fill="#E3C5C8"/>
<path d="M4.80078 2V8L10.8008 2H4.80078Z" fill="#E3C5C8"/>
<path d="M10.8008 68H4.80078V74L10.8008 68Z" fill="#E3C5C8"/>
<path d="M4.80078 8V14L10.8008 8H4.80078Z" fill="#E3C5C8"/>
<path d="M10.8008 56H4.80078V62L10.8008 56Z" fill="#E3C5C8"/>
<path d="M10.8008 62H4.80078V68L10.8008 62Z" fill="#E3C5C8"/>
<path d="M10.8008 50H4.80078V56L10.8008 50Z" fill="#E3C5C8"/>
<path d="M162.801 44H168.801V38L162.801 44Z" fill="#E3C5C8"/>
<path d="M162.801 38H168.801V32L162.801 38Z" fill="#E3C5C8"/>
<path d="M162.801 62H168.801V56L162.801 62Z" fill="#E3C5C8"/>
<path d="M162.801 50H168.801V44L162.801 50Z" fill="#E3C5C8"/>
<path d="M162.801 56H168.801V50L162.801 56Z" fill="#E3C5C8"/>
<path d="M162.801 32H168.801V26L162.801 32Z" fill="#E3C5C8"/>
<path d="M168.801 74V68L162.801 74H168.801Z" fill="#E3C5C8"/>
<path d="M162.801 8H168.801V2L162.801 8Z" fill="#E3C5C8"/>
<path d="M168.801 68V62L162.801 68H168.801Z" fill="#E3C5C8"/>
<path d="M162.801 20H168.801V14L162.801 20Z" fill="#E3C5C8"/>
<path d="M162.801 14H168.801V8L162.801 14Z" fill="#E3C5C8"/>
<path d="M162.801 26H168.801V20L162.801 26Z" fill="#E3C5C8"/>
<path fill-rule="evenodd" clip-rule="evenodd" d="M72.8108 23.54L86.3508 10V37.08L72.8108 23.54ZM87.1608 16.68H107.541L87.1608 37.06V16.68ZM114.801 37.64H87.7308L101.271 24.11L114.811 37.64H114.801ZM58.8008 38.43H85.7808L72.2908 51.92L58.8008 38.43ZM66.0708 59.29H86.3508V39.01L66.0708 59.29ZM65.4508 37.64V17.31L85.7808 37.64H65.4508ZM87.1608 66L100.651 52.51L87.1608 39.02V66ZM108.051 38.46V58.78L87.7308 38.46H108.051Z" fill="#F6ECED"/>
</g>
<path d="M48.3008 40L32.3008 38L48.3008 36L48.3008 40Z" fill="#54080E"/>
<g filter="url(#filter1_d_9779_92608)">
<path d="M61.7675 50C61.7675 48.8907 61.9062 47.8987 62.1835 47.024C62.4822 46.1493 62.8662 45.36 63.3355 44.656C63.8262 43.952 64.3595 43.3013 64.9355 42.704C65.5329 42.1067 66.1409 41.52 66.7595 40.944C68.3169 39.4933 69.4155 38.1813 70.0555 37.008C70.7169 35.8347 71.0475 34.672 71.0475 33.52C71.0475 32.8373 70.9622 32.176 70.7915 31.536C70.6209 30.896 70.3115 30.3733 69.8635 29.968C69.4155 29.5413 68.7862 29.3387 67.9755 29.36C67.3995 29.36 66.8769 29.4987 66.4075 29.776C65.9595 30.032 65.6182 30.3413 65.3835 30.704C65.6182 30.9387 65.7782 31.216 65.8635 31.536C65.9702 31.856 66.0235 32.1333 66.0235 32.368C66.0235 32.6027 65.9489 32.8907 65.7995 33.232C65.6502 33.552 65.4155 33.8293 65.0955 34.064C64.7969 34.2987 64.3809 34.416 63.8475 34.416C63.1862 34.3733 62.6742 34.128 62.3115 33.68C61.9702 33.232 61.7995 32.6987 61.7995 32.08C61.7995 31.5893 61.9489 31.0667 62.2475 30.512C62.5462 29.936 62.9942 29.392 63.5915 28.88C64.1889 28.3467 64.9142 27.92 65.7675 27.6C66.6422 27.2587 67.6449 27.088 68.7755 27.088C69.6289 27.088 70.4715 27.1947 71.3035 27.408C72.1569 27.6213 72.9355 27.9627 73.6395 28.432C74.3435 28.9013 74.8982 29.52 75.3035 30.288C75.7302 31.056 75.9435 32.0053 75.9435 33.136C75.9435 33.6693 75.8475 34.2347 75.6555 34.832C75.4635 35.408 75.1115 36.048 74.5995 36.752C74.0875 37.4347 73.3729 38.224 72.4555 39.12C71.5382 40.016 70.3542 41.0613 68.9035 42.256C67.7302 43.216 66.8662 44.0907 66.3115 44.88C65.7569 45.6693 65.4262 46.2773 65.3195 46.704L71.5915 46.864C72.0822 46.8853 72.4982 46.8533 72.8395 46.768C73.2022 46.6613 73.4795 46.4587 73.6715 46.16C73.8849 45.84 73.9915 45.3813 73.9915 44.784H76.0395L75.7835 50H61.7675ZM78.83 50C78.83 48.8907 78.9687 47.8987 79.246 47.024C79.5447 46.1493 79.9287 45.36 80.398 44.656C80.8887 43.952 81.422 43.3013 81.998 42.704C82.5954 42.1067 83.2034 41.52 83.822 40.944C85.3794 39.4933 86.478 38.1813 87.118 37.008C87.7794 35.8347 88.11 34.672 88.11 33.52C88.11 32.8373 88.0247 32.176 87.854 31.536C87.6834 30.896 87.374 30.3733 86.926 29.968C86.478 29.5413 85.8487 29.3387 85.038 29.36C84.462 29.36 83.9394 29.4987 83.47 29.776C83.022 30.032 82.6807 30.3413 82.446 30.704C82.6807 30.9387 82.8407 31.216 82.926 31.536C83.0327 31.856 83.086 32.1333 83.086 32.368C83.086 32.6027 83.0114 32.8907 82.862 33.232C82.7127 33.552 82.478 33.8293 82.158 34.064C81.8594 34.2987 81.4434 34.416 80.91 34.416C80.2487 34.3733 79.7367 34.128 79.374 33.68C79.0327 33.232 78.862 32.6987 78.862 32.08C78.862 31.5893 79.0114 31.0667 79.31 30.512C79.6087 29.936 80.0567 29.392 80.654 28.88C81.2514 28.3467 81.9767 27.92 82.83 27.6C83.7047 27.2587 84.7074 27.088 85.838 27.088C86.6914 27.088 87.534 27.1947 88.366 27.408C89.2194 27.6213 89.998 27.9627 90.702 28.432C91.406 28.9013 91.9607 29.52 92.366 30.288C92.7927 31.056 93.006 32.0053 93.006 33.136C93.006 33.6693 92.91 34.2347 92.718 34.832C92.526 35.408 92.174 36.048 91.662 36.752C91.15 37.4347 90.4354 38.224 89.518 39.12C88.6007 40.016 87.4167 41.0613 85.966 42.256C84.7927 43.216 83.9287 44.0907 83.374 44.88C82.8194 45.6693 82.4887 46.2773 82.382 46.704L88.654 46.864C89.1447 46.8853 89.5607 46.8533 89.902 46.768C90.2647 46.6613 90.542 46.4587 90.734 46.16C90.9474 45.84 91.054 45.3813 91.054 44.784H93.102L92.846 50H78.83ZM102.805 50.512C101.397 50.512 100.266 50.3093 99.4125 49.904C98.5592 49.4987 97.9299 48.976 97.5245 48.336C97.1405 47.696 96.9485 47.024 96.9485 46.32C96.9485 45.744 97.1299 45.2107 97.4925 44.72C97.8765 44.208 98.3992 43.952 99.0605 43.952C99.8712 43.952 100.415 44.1867 100.693 44.656C100.97 45.104 101.109 45.5413 101.109 45.968C101.109 46.1387 101.066 46.3733 100.981 46.672C100.917 46.9493 100.81 47.1733 100.661 47.344C100.831 47.6 101.098 47.824 101.461 48.016C101.845 48.1867 102.303 48.2613 102.837 48.24C103.455 48.1973 103.999 48.0267 104.469 47.728C104.938 47.408 105.333 46.9813 105.653 46.448C105.994 45.9147 106.261 45.3067 106.453 44.624C106.666 43.9413 106.805 43.216 106.869 42.448C106.954 41.6587 106.975 40.8587 106.933 40.048C106.591 40.4533 106.037 40.848 105.269 41.232C104.501 41.616 103.711 41.8293 102.901 41.872C101.727 41.8933 100.703 41.7333 99.8285 41.392C98.9752 41.0293 98.2605 40.5067 97.6845 39.824C97.1299 39.1413 96.7139 38.3413 96.4365 37.424C96.1592 36.5067 96.0205 35.504 96.0205 34.416C96.0205 32.9867 96.3405 31.728 96.9805 30.64C97.6419 29.5307 98.5485 28.6667 99.7005 28.048C100.874 27.408 102.218 27.088 103.733 27.088C105.162 27.088 106.367 27.3547 107.349 27.888C108.351 28.4213 109.162 29.1787 109.781 30.16C110.399 31.12 110.847 32.2613 111.125 33.584C111.423 34.9067 111.573 36.3467 111.573 37.904C111.573 38.864 111.498 39.9093 111.349 41.04C111.221 42.1707 110.975 43.2907 110.613 44.4C110.271 45.5093 109.77 46.5333 109.109 47.472C108.469 48.3893 107.626 49.1253 106.581 49.68C105.557 50.2347 104.298 50.512 102.805 50.512ZM103.797 39.312C104.245 39.312 104.671 39.216 105.077 39.024C105.482 38.832 105.845 38.576 106.165 38.256C106.485 37.936 106.741 37.584 106.933 37.2C106.933 36.176 106.879 35.1947 106.773 34.256C106.666 33.3173 106.485 32.4747 106.229 31.728C105.994 30.9813 105.663 30.3947 105.237 29.968C104.831 29.5413 104.319 29.328 103.701 29.328C103.061 29.328 102.527 29.5413 102.101 29.968C101.674 30.3733 101.354 30.9067 101.141 31.568C100.949 32.2293 100.853 32.9333 100.853 33.68C100.853 34.1493 100.885 34.704 100.949 35.344C101.013 35.984 101.141 36.6133 101.333 37.232C101.525 37.8293 101.813 38.3307 102.197 38.736C102.602 39.12 103.135 39.312 103.797 39.312Z" fill="#54080E"/>
</g>
<path d="M125.301 36L141.301 38L125.301 40V36Z" fill="#54080E"/>
</g>
<rect x="5.30078" y="2.5" width="163" height="71" rx="4.5" stroke="#E7E5E4" shape-rendering="crispEdges"/>
</g>
<defs>
<filter id="filter0_d_9779_92608" x="0.800781" y="0" width="172" height="80" filterUnits="userSpaceOnUse" color-interpolation-filters="sRGB">
<feFlood flood-opacity="0" result="BackgroundImageFix"/>
<feColorMatrix in="SourceAlpha" type="matrix" values="0 0 0 0 0 0 0 0 0 0 0 0 0 0 0 0 0 0 127 0" result="hardAlpha"/>
<feOffset dy="2"/>
<feGaussianBlur stdDeviation="2"/>
<feComposite in2="hardAlpha" operator="out"/>
<feColorMatrix type="matrix" values="0 0 0 0 0.109804 0 0 0 0 0.0980392 0 0 0 0 0.0901961 0 0 0 0.08 0"/>
<feBlend mode="normal" in2="BackgroundImageFix" result="effect1_dropShadow_9779_92608"/>
<feBlend mode="normal" in="SourceGraphic" in2="effect1_dropShadow_9779_92608" result="shape"/>
</filter>
<filter id="filter1_d_9779_92608" x="61.7656" y="27.0879" width="51.8086" height="25.4243" filterUnits="userSpaceOnUse" color-interpolation-filters="sRGB">
<feFlood flood-opacity="0" result="BackgroundImageFix"/>
<feColorMatrix in="SourceAlpha" type="matrix" values="0 0 0 0 0 0 0 0 0 0 0 0 0 0 0 0 0 0 127 0" result="hardAlpha"/>
<feOffset dx="2" dy="2"/>
<feComposite in2="hardAlpha" operator="out"/>
<feColorMatrix type="matrix" values="0 0 0 0 1 0 0 0 0 1 0 0 0 0 1 0 0 0 1 0"/>
<feBlend mode="normal" in2="BackgroundImageFix" result="effect1_dropShadow_9779_92608"/>
<feBlend mode="normal" in="SourceGraphic" in2="effect1_dropShadow_9779_92608" result="shape"/>
</filter>
<clipPath id="clip0_9779_92608">
<rect x="4.80078" y="2" width="164" height="72" rx="5" fill="white"/>
</clipPath>
</defs>
</svg>
