<svg width="172" height="80" viewBox="0 0 172 80" fill="none" xmlns="http://www.w3.org/2000/svg">
<g filter="url(#filter0_d_9779_92506)">
<g clip-path="url(#clip0_9779_92506)">
<mask id="mask0_9779_92506" style="mask-type:luminance" maskUnits="userSpaceOnUse" x="4" y="2" width="164" height="72">
<path d="M163 2H9C6.23858 2 4 4.23858 4 7V69C4 71.7614 6.23858 74 9 74H163C165.761 74 168 71.7614 168 69V7C168 4.23858 165.761 2 163 2Z" fill="white"/>
</mask>
<g mask="url(#mask0_9779_92506)">
<path d="M168 2H4V74H168V2Z" fill="white"/>
<path d="M10 32H4V38L10 32Z" fill="#E3C5C8"/>
<path d="M10 38H4V44L10 38Z" fill="#E3C5C8"/>
<path d="M10 14H4V20L10 14Z" fill="#E3C5C8"/>
<path d="M10 26H4V32L10 26Z" fill="#E3C5C8"/>
<path d="M10 20H4V26L10 20Z" fill="#E3C5C8"/>
<path d="M10 44H4V50L10 44Z" fill="#E3C5C8"/>
<path d="M4 2V8L10 2H4Z" fill="#E3C5C8"/>
<path d="M10 68H4V74L10 68Z" fill="#E3C5C8"/>
<path d="M4 8V14L10 8H4Z" fill="#E3C5C8"/>
<path d="M10 56H4V62L10 56Z" fill="#E3C5C8"/>
<path d="M10 62H4V68L10 62Z" fill="#E3C5C8"/>
<path d="M10 50H4V56L10 50Z" fill="#E3C5C8"/>
<path d="M162 44H168V38L162 44Z" fill="#E3C5C8"/>
<path d="M162 38H168V32L162 38Z" fill="#E3C5C8"/>
<path d="M162 62H168V56L162 62Z" fill="#E3C5C8"/>
<path d="M162 50H168V44L162 50Z" fill="#E3C5C8"/>
<path d="M162 56H168V50L162 56Z" fill="#E3C5C8"/>
<path d="M162 32H168V26L162 32Z" fill="#E3C5C8"/>
<path d="M168 74V68L162 74H168Z" fill="#E3C5C8"/>
<path d="M162 8H168V2L162 8Z" fill="#E3C5C8"/>
<path d="M168 68V62L162 68H168Z" fill="#E3C5C8"/>
<path d="M162 20H168V14L162 20Z" fill="#E3C5C8"/>
<path d="M162 14H168V8L162 14Z" fill="#E3C5C8"/>
<path d="M162 26H168V20L162 26Z" fill="#E3C5C8"/>
<path fill-rule="evenodd" clip-rule="evenodd" d="M72.01 23.54L85.55 10V37.08L72.01 23.54ZM86.36 16.68H106.74L86.36 37.06V16.68ZM114 37.64H86.93L100.47 24.11L114.01 37.64H114ZM58 38.43H84.98L71.49 51.92L58 38.43ZM65.27 59.29H85.55V39.01L65.27 59.29ZM64.65 37.64V17.31L84.98 37.64H64.65ZM86.36 66L99.85 52.51L86.36 39.02V66ZM107.25 38.46V58.78L86.93 38.46H107.25Z" fill="#F6ECED"/>
</g>
<path d="M48.5 40L32.5 38L48.5 36L48.5 40Z" fill="#54080E"/>
<g filter="url(#filter1_d_9779_92506)">
<path d="M63.3569 50V47.888C63.8475 47.8667 64.2529 47.8027 64.5729 47.696C64.9142 47.5893 65.1702 47.344 65.3409 46.96C65.5329 46.576 65.6289 45.9573 65.6289 45.104V32.272L62.1409 34.352L60.9889 32.432L68.3169 27.088H70.2369V44.752C70.2369 45.328 70.2262 45.8827 70.2049 46.416C70.2049 46.9493 70.1835 47.3547 70.1409 47.632C70.4822 47.5893 70.9089 47.568 71.4209 47.568C71.9542 47.5467 72.3275 47.536 72.5409 47.536V50H63.3569ZM75.0449 50C75.0449 48.8907 75.1835 47.8987 75.4609 47.024C75.7595 46.1493 76.1435 45.36 76.6129 44.656C77.1035 43.952 77.6369 43.3013 78.2129 42.704C78.8102 42.1067 79.4182 41.52 80.0369 40.944C81.5942 39.4933 82.6929 38.1813 83.3329 37.008C83.9942 35.8347 84.3249 34.672 84.3249 33.52C84.3249 32.8373 84.2395 32.176 84.0689 31.536C83.8982 30.896 83.5889 30.3733 83.1409 29.968C82.6929 29.5413 82.0635 29.3387 81.2529 29.36C80.6769 29.36 80.1542 29.4987 79.6849 29.776C79.2369 30.032 78.8955 30.3413 78.6609 30.704C78.8955 30.9387 79.0555 31.216 79.1409 31.536C79.2475 31.856 79.3009 32.1333 79.3009 32.368C79.3009 32.6027 79.2262 32.8907 79.0769 33.232C78.9275 33.552 78.6929 33.8293 78.3729 34.064C78.0742 34.2987 77.6582 34.416 77.1249 34.416C76.4635 34.3733 75.9515 34.128 75.5889 33.68C75.2475 33.232 75.0769 32.6987 75.0769 32.08C75.0769 31.5893 75.2262 31.0667 75.5249 30.512C75.8235 29.936 76.2715 29.392 76.8689 28.88C77.4662 28.3467 78.1915 27.92 79.0449 27.6C79.9195 27.2587 80.9222 27.088 82.0529 27.088C82.9062 27.088 83.7489 27.1947 84.5809 27.408C85.4342 27.6213 86.2129 27.9627 86.9169 28.432C87.6209 28.9013 88.1755 29.52 88.5809 30.288C89.0075 31.056 89.2209 32.0053 89.2209 33.136C89.2209 33.6693 89.1249 34.2347 88.9329 34.832C88.7409 35.408 88.3889 36.048 87.8769 36.752C87.3649 37.4347 86.6502 38.224 85.7329 39.12C84.8155 40.016 83.6315 41.0613 82.1809 42.256C81.0075 43.216 80.1435 44.0907 79.5889 44.88C79.0342 45.6693 78.7035 46.2773 78.5969 46.704L84.8689 46.864C85.3595 46.8853 85.7755 46.8533 86.1169 46.768C86.4795 46.6613 86.7569 46.4587 86.9489 46.16C87.1622 45.84 87.2689 45.3813 87.2689 44.784H89.3169L89.0609 50H75.0449ZM101.035 50.512C99.414 50.512 98.038 50.1707 96.9074 49.488C95.7767 48.784 94.87 47.8667 94.1874 46.736C93.5047 45.584 93.0034 44.3253 92.6834 42.96C92.3847 41.5947 92.2354 40.24 92.2354 38.896C92.2354 37.552 92.4167 36.1867 92.7794 34.8C93.1634 33.4133 93.7287 32.144 94.4754 30.992C95.222 29.8187 96.15 28.88 97.2594 28.176C98.3687 27.4507 99.67 27.088 101.163 27.088C102.721 27.088 104.043 27.44 105.131 28.144C106.241 28.848 107.137 29.776 107.819 30.928C108.502 32.0587 109.003 33.3067 109.323 34.672C109.643 36.0373 109.803 37.392 109.803 38.736C109.803 40.0587 109.622 41.4133 109.259 42.8C108.918 44.1867 108.385 45.4667 107.659 46.64C106.934 47.792 106.017 48.7307 104.907 49.456C103.819 50.16 102.529 50.512 101.035 50.512ZM101.227 48.24C101.974 48.24 102.593 48.0053 103.083 47.536C103.574 47.0667 103.947 46.4267 104.203 45.616C104.481 44.784 104.673 43.8347 104.779 42.768C104.886 41.7013 104.939 40.5813 104.939 39.408C104.939 38.1067 104.886 36.8587 104.779 35.664C104.694 34.448 104.513 33.3707 104.235 32.432C103.979 31.472 103.595 30.7147 103.083 30.16C102.593 29.6053 101.931 29.328 101.099 29.328C100.331 29.328 99.6914 29.5627 99.1794 30.032C98.6674 30.5013 98.2514 31.152 97.9314 31.984C97.6327 32.816 97.4194 33.7653 97.2914 34.832C97.1634 35.8987 97.0994 37.0293 97.0994 38.224C97.0994 39.12 97.1207 40.0373 97.1634 40.976C97.2274 41.9147 97.334 42.8213 97.4834 43.696C97.654 44.5493 97.8887 45.3173 98.1874 46C98.486 46.6827 98.8807 47.2267 99.3714 47.632C99.8834 48.0373 100.502 48.24 101.227 48.24Z" fill="#54080E"/>
</g>
<path d="M123.5 36L139.5 38L123.5 40V36Z" fill="#54080E"/>
</g>
<rect x="4.5" y="2.5" width="163" height="71" rx="4.5" stroke="#E7E5E4" shape-rendering="crispEdges"/>
</g>
<defs>
<filter id="filter0_d_9779_92506" x="0" y="0" width="172" height="80" filterUnits="userSpaceOnUse" color-interpolation-filters="sRGB">
<feFlood flood-opacity="0" result="BackgroundImageFix"/>
<feColorMatrix in="SourceAlpha" type="matrix" values="0 0 0 0 0 0 0 0 0 0 0 0 0 0 0 0 0 0 127 0" result="hardAlpha"/>
<feOffset dy="2"/>
<feGaussianBlur stdDeviation="2"/>
<feComposite in2="hardAlpha" operator="out"/>
<feColorMatrix type="matrix" values="0 0 0 0 0.109804 0 0 0 0 0.0980392 0 0 0 0 0.0901961 0 0 0 0.08 0"/>
<feBlend mode="normal" in2="BackgroundImageFix" result="effect1_dropShadow_9779_92506"/>
<feBlend mode="normal" in="SourceGraphic" in2="effect1_dropShadow_9779_92506" result="shape"/>
</filter>
<filter id="filter1_d_9779_92506" x="60.9883" y="27.0879" width="50.8164" height="25.4243" filterUnits="userSpaceOnUse" color-interpolation-filters="sRGB">
<feFlood flood-opacity="0" result="BackgroundImageFix"/>
<feColorMatrix in="SourceAlpha" type="matrix" values="0 0 0 0 0 0 0 0 0 0 0 0 0 0 0 0 0 0 127 0" result="hardAlpha"/>
<feOffset dx="2" dy="2"/>
<feComposite in2="hardAlpha" operator="out"/>
<feColorMatrix type="matrix" values="0 0 0 0 1 0 0 0 0 1 0 0 0 0 1 0 0 0 1 0"/>
<feBlend mode="normal" in2="BackgroundImageFix" result="effect1_dropShadow_9779_92506"/>
<feBlend mode="normal" in="SourceGraphic" in2="effect1_dropShadow_9779_92506" result="shape"/>
</filter>
<clipPath id="clip0_9779_92506">
<rect x="4" y="2" width="164" height="72" rx="5" fill="white"/>
</clipPath>
</defs>
</svg>
