<svg width="172" height="80" viewBox="0 0 172 80" fill="none" xmlns="http://www.w3.org/2000/svg">
<g filter="url(#filter0_d_9779_92508)">
<g clip-path="url(#clip0_9779_92508)">
<mask id="mask0_9779_92508" style="mask-type:luminance" maskUnits="userSpaceOnUse" x="4" y="2" width="164" height="72">
<path d="M163 2H9C6.23858 2 4 4.23858 4 7V69C4 71.7614 6.23858 74 9 74H163C165.761 74 168 71.7614 168 69V7C168 4.23858 165.761 2 163 2Z" fill="white"/>
</mask>
<g mask="url(#mask0_9779_92508)">
<path d="M168 2H4V74H168V2Z" fill="white"/>
<path d="M10 32H4V38L10 32Z" fill="#E3C5C8"/>
<path d="M10 38H4V44L10 38Z" fill="#E3C5C8"/>
<path d="M10 14H4V20L10 14Z" fill="#E3C5C8"/>
<path d="M10 26H4V32L10 26Z" fill="#E3C5C8"/>
<path d="M10 20H4V26L10 20Z" fill="#E3C5C8"/>
<path d="M10 44H4V50L10 44Z" fill="#E3C5C8"/>
<path d="M4 2V8L10 2H4Z" fill="#E3C5C8"/>
<path d="M10 68H4V74L10 68Z" fill="#E3C5C8"/>
<path d="M4 8V14L10 8H4Z" fill="#E3C5C8"/>
<path d="M10 56H4V62L10 56Z" fill="#E3C5C8"/>
<path d="M10 62H4V68L10 62Z" fill="#E3C5C8"/>
<path d="M10 50H4V56L10 50Z" fill="#E3C5C8"/>
<path d="M162 44H168V38L162 44Z" fill="#E3C5C8"/>
<path d="M162 38H168V32L162 38Z" fill="#E3C5C8"/>
<path d="M162 62H168V56L162 62Z" fill="#E3C5C8"/>
<path d="M162 50H168V44L162 50Z" fill="#E3C5C8"/>
<path d="M162 56H168V50L162 56Z" fill="#E3C5C8"/>
<path d="M162 32H168V26L162 32Z" fill="#E3C5C8"/>
<path d="M168 74V68L162 74H168Z" fill="#E3C5C8"/>
<path d="M162 8H168V2L162 8Z" fill="#E3C5C8"/>
<path d="M168 68V62L162 68H168Z" fill="#E3C5C8"/>
<path d="M162 20H168V14L162 20Z" fill="#E3C5C8"/>
<path d="M162 14H168V8L162 14Z" fill="#E3C5C8"/>
<path d="M162 26H168V20L162 26Z" fill="#E3C5C8"/>
<path fill-rule="evenodd" clip-rule="evenodd" d="M72.01 23.54L85.55 10V37.08L72.01 23.54ZM86.36 16.68H106.74L86.36 37.06V16.68ZM114 37.64H86.93L100.47 24.11L114.01 37.64H114ZM58 38.43H84.98L71.49 51.92L58 38.43ZM65.27 59.29H85.55V39.01L65.27 59.29ZM64.65 37.64V17.31L84.98 37.64H64.65ZM86.36 66L99.85 52.51L86.36 39.02V66ZM107.25 38.46V58.78L86.93 38.46H107.25Z" fill="#F6ECED"/>
</g>
<path d="M47.5 40L31.5 38L47.5 36L47.5 40Z" fill="#54080E"/>
<g filter="url(#filter1_d_9779_92508)">
<path d="M60.7636 50C60.7636 48.8907 60.9023 47.8987 61.1796 47.024C61.4783 46.1493 61.8623 45.36 62.3316 44.656C62.8223 43.952 63.3556 43.3013 63.9316 42.704C64.529 42.1067 65.137 41.52 65.7556 40.944C67.313 39.4933 68.4116 38.1813 69.0516 37.008C69.713 35.8347 70.0436 34.672 70.0436 33.52C70.0436 32.8373 69.9583 32.176 69.7876 31.536C69.617 30.896 69.3076 30.3733 68.8596 29.968C68.4116 29.5413 67.7823 29.3387 66.9716 29.36C66.3956 29.36 65.873 29.4987 65.4036 29.776C64.9556 30.032 64.6143 30.3413 64.3796 30.704C64.6143 30.9387 64.7743 31.216 64.8596 31.536C64.9663 31.856 65.0196 32.1333 65.0196 32.368C65.0196 32.6027 64.945 32.8907 64.7956 33.232C64.6463 33.552 64.4116 33.8293 64.0916 34.064C63.793 34.2987 63.377 34.416 62.8436 34.416C62.1823 34.3733 61.6703 34.128 61.3076 33.68C60.9663 33.232 60.7956 32.6987 60.7956 32.08C60.7956 31.5893 60.945 31.0667 61.2436 30.512C61.5423 29.936 61.9903 29.392 62.5876 28.88C63.185 28.3467 63.9103 27.92 64.7636 27.6C65.6383 27.2587 66.641 27.088 67.7716 27.088C68.625 27.088 69.4676 27.1947 70.2996 27.408C71.153 27.6213 71.9316 27.9627 72.6356 28.432C73.3396 28.9013 73.8943 29.52 74.2996 30.288C74.7263 31.056 74.9396 32.0053 74.9396 33.136C74.9396 33.6693 74.8436 34.2347 74.6516 34.832C74.4596 35.408 74.1076 36.048 73.5956 36.752C73.0836 37.4347 72.369 38.224 71.4516 39.12C70.5343 40.016 69.3503 41.0613 67.8996 42.256C66.7263 43.216 65.8623 44.0907 65.3076 44.88C64.753 45.6693 64.4223 46.2773 64.3156 46.704L70.5876 46.864C71.0783 46.8853 71.4943 46.8533 71.8356 46.768C72.1983 46.6613 72.4756 46.4587 72.6676 46.16C72.881 45.84 72.9876 45.3813 72.9876 44.784H75.0356L74.7796 50H60.7636ZM85.7621 50.512C83.8635 50.512 82.3488 50.0747 81.2181 49.2C80.0875 48.304 79.2768 47.0453 78.7861 45.424C78.2955 43.8027 78.0501 41.8933 78.0501 39.696C78.0501 38.9493 78.1248 38.0427 78.2741 36.976C78.4235 35.9093 78.6795 34.8107 79.0421 33.68C79.4048 32.528 79.9168 31.4507 80.5781 30.448C81.2395 29.4453 82.0821 28.6347 83.1061 28.016C84.1301 27.3973 85.3675 27.088 86.8181 27.088C88.1621 27.088 89.2608 27.312 90.1141 27.76C90.9888 28.208 91.6288 28.7627 92.0341 29.424C92.4395 30.064 92.6421 30.7147 92.6421 31.376C92.6421 31.952 92.4715 32.4747 92.1301 32.944C91.7888 33.4133 91.2875 33.648 90.6261 33.648C89.8368 33.648 89.2821 33.424 88.9621 32.976C88.6635 32.5067 88.5141 32.0587 88.5141 31.632C88.5141 31.4613 88.5461 31.2373 88.6101 30.96C88.6741 30.6827 88.7915 30.4373 88.9621 30.224C88.7915 29.968 88.5141 29.744 88.1301 29.552C87.7675 29.36 87.3195 29.2853 86.7861 29.328C86.1675 29.3707 85.6235 29.5733 85.1541 29.936C84.7061 30.2773 84.3221 30.736 84.0021 31.312C83.7035 31.8667 83.4581 32.496 83.2661 33.2C83.0955 33.904 82.9568 34.6293 82.8501 35.376C82.7648 36.1227 82.7115 36.8373 82.6901 37.52C82.9248 37.2427 83.2555 36.976 83.6821 36.72C84.1301 36.4427 84.6315 36.2187 85.1861 36.048C85.7408 35.856 86.2741 35.7493 86.7861 35.728C87.9808 35.6853 89.0048 35.8453 89.8581 36.208C90.7115 36.5493 91.4155 37.0613 91.9701 37.744C92.5248 38.4053 92.9301 39.1947 93.1861 40.112C93.4635 41.0293 93.6021 42.032 93.6021 43.12C93.6021 44.464 93.2608 45.7013 92.5781 46.832C91.9168 47.9413 90.9888 48.8373 89.7941 49.52C88.6208 50.1813 87.2768 50.512 85.7621 50.512ZM85.9221 48.272C86.6688 48.272 87.2448 48.0693 87.6501 47.664C88.0768 47.2373 88.3648 46.6933 88.5141 46.032C88.6848 45.3493 88.7701 44.6453 88.7701 43.92C88.7701 43.4293 88.7381 42.8747 88.6741 42.256C88.6315 41.616 88.5141 40.9973 88.3221 40.4C88.1301 39.7813 87.8421 39.28 87.4581 38.896C87.0741 38.4907 86.5515 38.288 85.8901 38.288C85.4421 38.288 85.0048 38.384 84.5781 38.576C84.1728 38.768 83.7995 39.024 83.4581 39.344C83.1381 39.664 82.8821 40.016 82.6901 40.4C82.6901 41.1467 82.7435 41.968 82.8501 42.864C82.9568 43.76 83.1275 44.624 83.3621 45.456C83.6181 46.2667 83.9488 46.9387 84.3541 47.472C84.7808 48.0053 85.3035 48.272 85.9221 48.272ZM108.296 44.752C108.296 45.328 108.286 45.8827 108.264 46.416C108.243 46.9493 108.211 47.3547 108.168 47.632C108.531 47.5893 108.968 47.568 109.48 47.568C109.992 47.5467 110.355 47.536 110.568 47.536V50H101.448V47.888H101.64C102.131 47.888 102.547 47.8347 102.888 47.728C103.251 47.6213 103.528 47.376 103.72 46.992C103.934 46.5867 104.04 45.9573 104.04 45.104V44.208H95.3684V41.2L106.344 27.088H108.296V41.328H111.432V44.208H108.296V44.752ZM104.008 33.808L98.3444 41.232L104.04 41.264L104.072 33.808H104.008Z" fill="#54080E"/>
</g>
<path d="M124.5 36L140.5 38L124.5 40V36Z" fill="#54080E"/>
</g>
<rect x="4.5" y="2.5" width="163" height="71" rx="4.5" stroke="#E7E5E4" shape-rendering="crispEdges"/>
</g>
<defs>
<filter id="filter0_d_9779_92508" x="0" y="0" width="172" height="80" filterUnits="userSpaceOnUse" color-interpolation-filters="sRGB">
<feFlood flood-opacity="0" result="BackgroundImageFix"/>
<feColorMatrix in="SourceAlpha" type="matrix" values="0 0 0 0 0 0 0 0 0 0 0 0 0 0 0 0 0 0 127 0" result="hardAlpha"/>
<feOffset dy="2"/>
<feGaussianBlur stdDeviation="2"/>
<feComposite in2="hardAlpha" operator="out"/>
<feColorMatrix type="matrix" values="0 0 0 0 0.109804 0 0 0 0 0.0980392 0 0 0 0 0.0901961 0 0 0 0.08 0"/>
<feBlend mode="normal" in2="BackgroundImageFix" result="effect1_dropShadow_9779_92508"/>
<feBlend mode="normal" in="SourceGraphic" in2="effect1_dropShadow_9779_92508" result="shape"/>
</filter>
<filter id="filter1_d_9779_92508" x="60.7617" y="27.0879" width="52.6719" height="25.4243" filterUnits="userSpaceOnUse" color-interpolation-filters="sRGB">
<feFlood flood-opacity="0" result="BackgroundImageFix"/>
<feColorMatrix in="SourceAlpha" type="matrix" values="0 0 0 0 0 0 0 0 0 0 0 0 0 0 0 0 0 0 127 0" result="hardAlpha"/>
<feOffset dx="2" dy="2"/>
<feComposite in2="hardAlpha" operator="out"/>
<feColorMatrix type="matrix" values="0 0 0 0 1 0 0 0 0 1 0 0 0 0 1 0 0 0 1 0"/>
<feBlend mode="normal" in2="BackgroundImageFix" result="effect1_dropShadow_9779_92508"/>
<feBlend mode="normal" in="SourceGraphic" in2="effect1_dropShadow_9779_92508" result="shape"/>
</filter>
<clipPath id="clip0_9779_92508">
<rect x="4" y="2" width="164" height="72" rx="5" fill="white"/>
</clipPath>
</defs>
</svg>
