<svg width="172" height="80" viewBox="0 0 172 80" fill="none" xmlns="http://www.w3.org/2000/svg">
<g filter="url(#filter0_d_9779_92505)">
<g clip-path="url(#clip0_9779_92505)">
<mask id="mask0_9779_92505" style="mask-type:luminance" maskUnits="userSpaceOnUse" x="4" y="2" width="164" height="72">
<path d="M163 2H9C6.23858 2 4 4.23858 4 7V69C4 71.7614 6.23858 74 9 74H163C165.761 74 168 71.7614 168 69V7C168 4.23858 165.761 2 163 2Z" fill="white"/>
</mask>
<g mask="url(#mask0_9779_92505)">
<path d="M168 2H4V74H168V2Z" fill="white"/>
<path d="M10 32H4V38L10 32Z" fill="#E3C5C8"/>
<path d="M10 38H4V44L10 38Z" fill="#E3C5C8"/>
<path d="M10 14H4V20L10 14Z" fill="#E3C5C8"/>
<path d="M10 26H4V32L10 26Z" fill="#E3C5C8"/>
<path d="M10 20H4V26L10 20Z" fill="#E3C5C8"/>
<path d="M10 44H4V50L10 44Z" fill="#E3C5C8"/>
<path d="M4 2V8L10 2H4Z" fill="#E3C5C8"/>
<path d="M10 68H4V74L10 68Z" fill="#E3C5C8"/>
<path d="M4 8V14L10 8H4Z" fill="#E3C5C8"/>
<path d="M10 56H4V62L10 56Z" fill="#E3C5C8"/>
<path d="M10 62H4V68L10 62Z" fill="#E3C5C8"/>
<path d="M10 50H4V56L10 50Z" fill="#E3C5C8"/>
<path d="M162 44H168V38L162 44Z" fill="#E3C5C8"/>
<path d="M162 38H168V32L162 38Z" fill="#E3C5C8"/>
<path d="M162 62H168V56L162 62Z" fill="#E3C5C8"/>
<path d="M162 50H168V44L162 50Z" fill="#E3C5C8"/>
<path d="M162 56H168V50L162 56Z" fill="#E3C5C8"/>
<path d="M162 32H168V26L162 32Z" fill="#E3C5C8"/>
<path d="M168 74V68L162 74H168Z" fill="#E3C5C8"/>
<path d="M162 8H168V2L162 8Z" fill="#E3C5C8"/>
<path d="M168 68V62L162 68H168Z" fill="#E3C5C8"/>
<path d="M162 20H168V14L162 20Z" fill="#E3C5C8"/>
<path d="M162 14H168V8L162 14Z" fill="#E3C5C8"/>
<path d="M162 26H168V20L162 26Z" fill="#E3C5C8"/>
<path fill-rule="evenodd" clip-rule="evenodd" d="M72.01 23.54L85.55 10V37.08L72.01 23.54ZM86.36 16.68H106.74L86.36 37.06V16.68ZM114 37.64H86.93L100.47 24.11L114.01 37.64H114ZM58 38.43H84.98L71.49 51.92L58 38.43ZM65.27 59.29H85.55V39.01L65.27 59.29ZM64.65 37.64V17.31L84.98 37.64H64.65ZM86.36 66L99.85 52.51L86.36 39.02V66ZM107.25 38.46V58.78L86.93 38.46H107.25Z" fill="#F6ECED"/>
</g>
<path d="M48.5 40L32.5 38L48.5 36L48.5 40Z" fill="#54080E"/>
<g filter="url(#filter1_d_9779_92505)">
<path d="M63.1381 50V47.888C63.6288 47.8667 64.0341 47.8027 64.3541 47.696C64.6955 47.5893 64.9515 47.344 65.1221 46.96C65.3141 46.576 65.4101 45.9573 65.4101 45.104V32.272L61.9221 34.352L60.7701 32.432L68.0981 27.088H70.0181V44.752C70.0181 45.328 70.0075 45.8827 69.9861 46.416C69.9861 46.9493 69.9648 47.3547 69.9221 47.632C70.2635 47.5893 70.6901 47.568 71.2021 47.568C71.7355 47.5467 72.1088 47.536 72.3221 47.536V50H63.1381ZM83.7541 50.512C82.1328 50.512 80.7568 50.1707 79.6261 49.488C78.4955 48.784 77.5888 47.8667 76.9061 46.736C76.2235 45.584 75.7221 44.3253 75.4021 42.96C75.1035 41.5947 74.9541 40.24 74.9541 38.896C74.9541 37.552 75.1355 36.1867 75.4981 34.8C75.8821 33.4133 76.4475 32.144 77.1941 30.992C77.9408 29.8187 78.8688 28.88 79.9781 28.176C81.0875 27.4507 82.3888 27.088 83.8821 27.088C85.4395 27.088 86.7621 27.44 87.8501 28.144C88.9595 28.848 89.8555 29.776 90.5381 30.928C91.2208 32.0587 91.7221 33.3067 92.0421 34.672C92.3621 36.0373 92.5221 37.392 92.5221 38.736C92.5221 40.0587 92.3408 41.4133 91.9781 42.8C91.6368 44.1867 91.1035 45.4667 90.3781 46.64C89.6528 47.792 88.7355 48.7307 87.6261 49.456C86.5381 50.16 85.2475 50.512 83.7541 50.512ZM83.9461 48.24C84.6928 48.24 85.3115 48.0053 85.8021 47.536C86.2928 47.0667 86.6661 46.4267 86.9221 45.616C87.1995 44.784 87.3915 43.8347 87.4981 42.768C87.6048 41.7013 87.6581 40.5813 87.6581 39.408C87.6581 38.1067 87.6048 36.8587 87.4981 35.664C87.4128 34.448 87.2315 33.3707 86.9541 32.432C86.6981 31.472 86.3141 30.7147 85.8021 30.16C85.3115 29.6053 84.6501 29.328 83.8181 29.328C83.0501 29.328 82.4101 29.5627 81.8981 30.032C81.3861 30.5013 80.9701 31.152 80.6501 31.984C80.3515 32.816 80.1381 33.7653 80.0101 34.832C79.8821 35.8987 79.8181 37.0293 79.8181 38.224C79.8181 39.12 79.8395 40.0373 79.8821 40.976C79.9461 41.9147 80.0528 42.8213 80.2021 43.696C80.3728 44.5493 80.6075 45.3173 80.9061 46C81.2048 46.6827 81.5995 47.2267 82.0901 47.632C82.6021 48.0373 83.2208 48.24 83.9461 48.24ZM107.234 44.752C107.234 45.328 107.223 45.8827 107.202 46.416C107.181 46.9493 107.149 47.3547 107.106 47.632C107.469 47.5893 107.906 47.568 108.418 47.568C108.93 47.5467 109.293 47.536 109.506 47.536V50H100.386V47.888H100.578C101.069 47.888 101.485 47.8347 101.826 47.728C102.189 47.6213 102.466 47.376 102.658 46.992C102.871 46.5867 102.978 45.9573 102.978 45.104V44.208H94.3059V41.2L105.282 27.088H107.234V41.328H110.37V44.208H107.234V44.752ZM102.946 33.808L97.2819 41.232L102.978 41.264L103.01 33.808H102.946Z" fill="#54080E"/>
</g>
<path d="M123.5 36L139.5 38L123.5 40V36Z" fill="#54080E"/>
</g>
<rect x="4.5" y="2.5" width="163" height="71" rx="4.5" stroke="#E7E5E4" shape-rendering="crispEdges"/>
</g>
<defs>
<filter id="filter0_d_9779_92505" x="0" y="0" width="172" height="80" filterUnits="userSpaceOnUse" color-interpolation-filters="sRGB">
<feFlood flood-opacity="0" result="BackgroundImageFix"/>
<feColorMatrix in="SourceAlpha" type="matrix" values="0 0 0 0 0 0 0 0 0 0 0 0 0 0 0 0 0 0 127 0" result="hardAlpha"/>
<feOffset dy="2"/>
<feGaussianBlur stdDeviation="2"/>
<feComposite in2="hardAlpha" operator="out"/>
<feColorMatrix type="matrix" values="0 0 0 0 0.109804 0 0 0 0 0.0980392 0 0 0 0 0.0901961 0 0 0 0.08 0"/>
<feBlend mode="normal" in2="BackgroundImageFix" result="effect1_dropShadow_9779_92505"/>
<feBlend mode="normal" in="SourceGraphic" in2="effect1_dropShadow_9779_92505" result="shape"/>
</filter>
<filter id="filter1_d_9779_92505" x="60.7695" y="27.0879" width="51.6016" height="25.4243" filterUnits="userSpaceOnUse" color-interpolation-filters="sRGB">
<feFlood flood-opacity="0" result="BackgroundImageFix"/>
<feColorMatrix in="SourceAlpha" type="matrix" values="0 0 0 0 0 0 0 0 0 0 0 0 0 0 0 0 0 0 127 0" result="hardAlpha"/>
<feOffset dx="2" dy="2"/>
<feComposite in2="hardAlpha" operator="out"/>
<feColorMatrix type="matrix" values="0 0 0 0 1 0 0 0 0 1 0 0 0 0 1 0 0 0 1 0"/>
<feBlend mode="normal" in2="BackgroundImageFix" result="effect1_dropShadow_9779_92505"/>
<feBlend mode="normal" in="SourceGraphic" in2="effect1_dropShadow_9779_92505" result="shape"/>
</filter>
<clipPath id="clip0_9779_92505">
<rect x="4" y="2" width="164" height="72" rx="5" fill="white"/>
</clipPath>
</defs>
</svg>
