<svg width="172" height="80" viewBox="0 0 172 80" fill="none" xmlns="http://www.w3.org/2000/svg">
<g filter="url(#filter0_d_9779_92509)">
<g clip-path="url(#clip0_9779_92509)">
<mask id="mask0_9779_92509" style="mask-type:luminance" maskUnits="userSpaceOnUse" x="4" y="2" width="164" height="72">
<path d="M163 2H9C6.23858 2 4 4.23858 4 7V69C4 71.7614 6.23858 74 9 74H163C165.761 74 168 71.7614 168 69V7C168 4.23858 165.761 2 163 2Z" fill="white"/>
</mask>
<g mask="url(#mask0_9779_92509)">
<path d="M168 2H4V74H168V2Z" fill="white"/>
<path d="M10 32H4V38L10 32Z" fill="#E3C5C8"/>
<path d="M10 38H4V44L10 38Z" fill="#E3C5C8"/>
<path d="M10 14H4V20L10 14Z" fill="#E3C5C8"/>
<path d="M10 26H4V32L10 26Z" fill="#E3C5C8"/>
<path d="M10 20H4V26L10 20Z" fill="#E3C5C8"/>
<path d="M10 44H4V50L10 44Z" fill="#E3C5C8"/>
<path d="M4 2V8L10 2H4Z" fill="#E3C5C8"/>
<path d="M10 68H4V74L10 68Z" fill="#E3C5C8"/>
<path d="M4 8V14L10 8H4Z" fill="#E3C5C8"/>
<path d="M10 56H4V62L10 56Z" fill="#E3C5C8"/>
<path d="M10 62H4V68L10 62Z" fill="#E3C5C8"/>
<path d="M10 50H4V56L10 50Z" fill="#E3C5C8"/>
<path d="M162 44H168V38L162 44Z" fill="#E3C5C8"/>
<path d="M162 38H168V32L162 38Z" fill="#E3C5C8"/>
<path d="M162 62H168V56L162 62Z" fill="#E3C5C8"/>
<path d="M162 50H168V44L162 50Z" fill="#E3C5C8"/>
<path d="M162 56H168V50L162 56Z" fill="#E3C5C8"/>
<path d="M162 32H168V26L162 32Z" fill="#E3C5C8"/>
<path d="M168 74V68L162 74H168Z" fill="#E3C5C8"/>
<path d="M162 8H168V2L162 8Z" fill="#E3C5C8"/>
<path d="M168 68V62L162 68H168Z" fill="#E3C5C8"/>
<path d="M162 20H168V14L162 20Z" fill="#E3C5C8"/>
<path d="M162 14H168V8L162 14Z" fill="#E3C5C8"/>
<path d="M162 26H168V20L162 26Z" fill="#E3C5C8"/>
<path fill-rule="evenodd" clip-rule="evenodd" d="M72.01 23.54L85.55 10V37.08L72.01 23.54ZM86.36 16.68H106.74L86.36 37.06V16.68ZM114 37.64H86.93L100.47 24.11L114.01 37.64H114ZM58 38.43H84.98L71.49 51.92L58 38.43ZM65.27 59.29H85.55V39.01L65.27 59.29ZM64.65 37.64V17.31L84.98 37.64H64.65ZM86.36 66L99.85 52.51L86.36 39.02V66ZM107.25 38.46V58.78L86.93 38.46H107.25Z" fill="#F6ECED"/>
</g>
<path d="M47 40L31 38L47 36L47 40Z" fill="#54080E"/>
<g filter="url(#filter1_d_9779_92509)">
<path d="M67.4234 50.512C65.8234 50.512 64.5114 50.2773 63.4874 49.808C62.4634 49.3173 61.706 48.7093 61.2154 47.984C60.7247 47.2587 60.4794 46.5333 60.4794 45.808C60.4794 45.168 60.6714 44.6133 61.0554 44.144C61.4607 43.6533 61.994 43.3973 62.6554 43.376C63.1887 43.3547 63.6047 43.4613 63.9034 43.696C64.202 43.9307 64.4154 44.208 64.5434 44.528C64.6714 44.848 64.7354 45.1467 64.7354 45.424C64.7354 45.6373 64.6927 45.8827 64.6074 46.16C64.522 46.416 64.394 46.6613 64.2234 46.896C64.458 47.3013 64.842 47.6213 65.3754 47.856C65.93 48.0693 66.506 48.176 67.1034 48.176C68.4474 48.176 69.4607 47.7707 70.1434 46.96C70.826 46.1493 71.1674 45.1467 71.1674 43.952C71.1674 43.2267 71.0287 42.5013 70.7514 41.776C70.474 41.0507 69.994 40.4533 69.3114 39.984C68.6287 39.4933 67.6687 39.2587 66.4314 39.28C66.282 39.28 66.0154 39.2907 65.6314 39.312C65.2474 39.3333 64.9594 39.3547 64.7674 39.376V37.072C64.938 37.0933 65.098 37.104 65.2474 37.104C65.3967 37.104 65.546 37.104 65.6954 37.104C66.634 37.104 67.434 36.9333 68.0954 36.592C68.7567 36.2507 69.258 35.7813 69.5994 35.184C69.962 34.5867 70.154 33.8933 70.1754 33.104C70.1967 32.3573 70.1007 31.7067 69.8874 31.152C69.6954 30.576 69.3754 30.128 68.9274 29.808C68.5007 29.488 67.9247 29.328 67.1994 29.328C66.6234 29.328 66.1007 29.4667 65.6314 29.744C65.162 30.0213 64.842 30.3307 64.6714 30.672C64.8634 30.9067 64.9914 31.184 65.0554 31.504C65.1407 31.8027 65.1834 32.048 65.1834 32.24C65.1834 32.496 65.1087 32.7947 64.9594 33.136C64.8314 33.456 64.6074 33.7333 64.2874 33.968C63.9674 34.2027 63.5407 34.3093 63.0074 34.288C62.346 34.2667 61.8447 34.032 61.5034 33.584C61.162 33.136 60.9914 32.6027 60.9914 31.984C60.9914 31.344 61.2367 30.64 61.7274 29.872C62.218 29.104 62.9647 28.4533 63.9674 27.92C64.97 27.3653 66.218 27.088 67.7114 27.088C69.034 27.088 70.2287 27.2693 71.2954 27.632C72.3834 27.9947 73.2367 28.592 73.8554 29.424C74.4954 30.256 74.8154 31.3653 74.8154 32.752C74.8154 33.3067 74.6554 33.936 74.3354 34.64C74.0367 35.3227 73.5354 35.952 72.8314 36.528C72.1274 37.104 71.1887 37.5307 70.0154 37.808C72.0634 38.1707 73.5674 38.9067 74.5274 40.016C75.5087 41.1253 75.9994 42.3627 75.9994 43.728C75.9994 45.1787 75.626 46.416 74.8794 47.44C74.154 48.4427 73.1407 49.2107 71.8394 49.744C70.5594 50.256 69.0874 50.512 67.4234 50.512ZM86.3216 50.512C85.5536 50.512 84.743 50.416 83.8896 50.224C83.0576 50.032 82.2683 49.7227 81.5216 49.296C80.7963 48.8693 80.199 48.304 79.7296 47.6C79.2816 46.8747 79.0576 45.9893 79.0576 44.944C79.0576 44.1333 79.2603 43.3547 79.6656 42.608C80.0923 41.8613 80.6256 41.1787 81.2656 40.56C81.9056 39.92 82.5776 39.3973 83.2816 38.992C81.8736 38.1173 80.871 37.1467 80.2736 36.08C79.6976 35.0133 79.4096 34.0533 79.4096 33.2C79.4096 32.1547 79.623 31.248 80.0496 30.48C80.4976 29.712 81.0843 29.0827 81.8096 28.592C82.535 28.08 83.3136 27.7067 84.1456 27.472C84.999 27.216 85.8416 27.088 86.6736 27.088C87.783 27.088 88.839 27.3013 89.8416 27.728C90.8443 28.1333 91.6656 28.7413 92.3056 29.552C92.9456 30.3627 93.2656 31.3547 93.2656 32.528C93.2656 33.2533 93.0736 33.9467 92.6896 34.608C92.3056 35.2693 91.815 35.8667 91.2176 36.4C90.6416 36.9333 90.055 37.392 89.4576 37.776C90.5456 38.4373 91.4416 39.1307 92.1456 39.856C92.8496 40.5813 93.3723 41.3387 93.7136 42.128C94.055 42.896 94.2256 43.6853 94.2256 44.496C94.2256 45.8827 93.8523 47.024 93.1056 47.92C92.3803 48.7947 91.4096 49.4453 90.1936 49.872C88.999 50.2987 87.7083 50.512 86.3216 50.512ZM86.3536 48.272C87.3776 48.2933 88.1776 48.0053 88.7536 47.408C89.351 46.7893 89.6496 46.0427 89.6496 45.168C89.6496 44.3573 89.351 43.5253 88.7536 42.672C88.1563 41.7973 87.0683 40.9653 85.4896 40.176C84.6363 40.8373 84.007 41.5947 83.6016 42.448C83.2176 43.28 83.0043 44.0053 82.9616 44.624C82.919 45.6267 83.2176 46.48 83.8576 47.184C84.4976 47.888 85.3296 48.2507 86.3536 48.272ZM87.3776 36.464C88.0603 35.952 88.6256 35.344 89.0736 34.64C89.543 33.9147 89.7883 33.2533 89.8096 32.656C89.8523 31.5893 89.5856 30.768 89.0096 30.192C88.4336 29.616 87.7403 29.328 86.9296 29.328C86.311 29.328 85.767 29.4667 85.2976 29.744C84.8496 30 84.4976 30.352 84.2416 30.8C84.007 31.248 83.8896 31.7493 83.8896 32.304C83.8896 33.136 84.231 33.9467 84.9136 34.736C85.6176 35.504 86.439 36.08 87.3776 36.464ZM96.8261 50C96.8261 48.8907 96.9648 47.8987 97.2421 47.024C97.5408 46.1493 97.9248 45.36 98.3941 44.656C98.8848 43.952 99.4181 43.3013 99.9941 42.704C100.591 42.1067 101.199 41.52 101.818 40.944C103.375 39.4933 104.474 38.1813 105.114 37.008C105.775 35.8347 106.106 34.672 106.106 33.52C106.106 32.8373 106.021 32.176 105.85 31.536C105.679 30.896 105.37 30.3733 104.922 29.968C104.474 29.5413 103.845 29.3387 103.034 29.36C102.458 29.36 101.935 29.4987 101.466 29.776C101.018 30.032 100.677 30.3413 100.442 30.704C100.677 30.9387 100.837 31.216 100.922 31.536C101.029 31.856 101.082 32.1333 101.082 32.368C101.082 32.6027 101.007 32.8907 100.858 33.232C100.709 33.552 100.474 33.8293 100.154 34.064C99.8555 34.2987 99.4395 34.416 98.9061 34.416C98.2448 34.3733 97.7328 34.128 97.3701 33.68C97.0288 33.232 96.8581 32.6987 96.8581 32.08C96.8581 31.5893 97.0075 31.0667 97.3061 30.512C97.6048 29.936 98.0528 29.392 98.6501 28.88C99.2475 28.3467 99.9728 27.92 100.826 27.6C101.701 27.2587 102.703 27.088 103.834 27.088C104.687 27.088 105.53 27.1947 106.362 27.408C107.215 27.6213 107.994 27.9627 108.698 28.432C109.402 28.9013 109.957 29.52 110.362 30.288C110.789 31.056 111.002 32.0053 111.002 33.136C111.002 33.6693 110.906 34.2347 110.714 34.832C110.522 35.408 110.17 36.048 109.658 36.752C109.146 37.4347 108.431 38.224 107.514 39.12C106.597 40.016 105.413 41.0613 103.962 42.256C102.789 43.216 101.925 44.0907 101.37 44.88C100.815 45.6693 100.485 46.2773 100.378 46.704L106.65 46.864C107.141 46.8853 107.557 46.8533 107.898 46.768C108.261 46.6613 108.538 46.4587 108.73 46.16C108.943 45.84 109.05 45.3813 109.05 44.784H111.098L110.842 50H96.8261Z" fill="#54080E"/>
</g>
<path d="M125 36L141 38L125 40V36Z" fill="#54080E"/>
</g>
<rect x="4.5" y="2.5" width="163" height="71" rx="4.5" stroke="#E7E5E4" shape-rendering="crispEdges"/>
</g>
<defs>
<filter id="filter0_d_9779_92509" x="0" y="0" width="172" height="80" filterUnits="userSpaceOnUse" color-interpolation-filters="sRGB">
<feFlood flood-opacity="0" result="BackgroundImageFix"/>
<feColorMatrix in="SourceAlpha" type="matrix" values="0 0 0 0 0 0 0 0 0 0 0 0 0 0 0 0 0 0 127 0" result="hardAlpha"/>
<feOffset dy="2"/>
<feGaussianBlur stdDeviation="2"/>
<feComposite in2="hardAlpha" operator="out"/>
<feColorMatrix type="matrix" values="0 0 0 0 0.109804 0 0 0 0 0.0980392 0 0 0 0 0.0901961 0 0 0 0.08 0"/>
<feBlend mode="normal" in2="BackgroundImageFix" result="effect1_dropShadow_9779_92509"/>
<feBlend mode="normal" in="SourceGraphic" in2="effect1_dropShadow_9779_92509" result="shape"/>
</filter>
<filter id="filter1_d_9779_92509" x="60.4805" y="27.0879" width="52.6172" height="25.4243" filterUnits="userSpaceOnUse" color-interpolation-filters="sRGB">
<feFlood flood-opacity="0" result="BackgroundImageFix"/>
<feColorMatrix in="SourceAlpha" type="matrix" values="0 0 0 0 0 0 0 0 0 0 0 0 0 0 0 0 0 0 127 0" result="hardAlpha"/>
<feOffset dx="2" dy="2"/>
<feComposite in2="hardAlpha" operator="out"/>
<feColorMatrix type="matrix" values="0 0 0 0 1 0 0 0 0 1 0 0 0 0 1 0 0 0 1 0"/>
<feBlend mode="normal" in2="BackgroundImageFix" result="effect1_dropShadow_9779_92509"/>
<feBlend mode="normal" in="SourceGraphic" in2="effect1_dropShadow_9779_92509" result="shape"/>
</filter>
<clipPath id="clip0_9779_92509">
<rect x="4" y="2" width="164" height="72" rx="5" fill="white"/>
</clipPath>
</defs>
</svg>
