<svg width="72" height="72" viewBox="0 0 72 72" fill="none" xmlns="http://www.w3.org/2000/svg">
<path d="M21.2522 48.8689C18.8602 48.5277 18.4554 47.3459 18.4554 43.9284V38.336H22.8285V44.5193C22.8285 45.2381 23.0187 45.6097 23.5461 45.6097C24.0123 45.6097 24.1717 45.232 24.1717 44.5193V39.1462C24.1717 38.336 24.1104 38.0862 23.2027 37.5562L21.3136 36.4536H0L16.7258 53.3952L21.2522 48.8689Z" fill="white"/>
<path d="M18.4528 31.9702V28.3455C18.4528 24.5198 18.9741 23.5025 22.1512 23.3197L9.76172 10.9775V35.2354H19.4954C18.6613 34.3947 18.4528 33.3408 18.4528 31.9702Z" fill="white"/>
<path d="M39.2999 36.9961C39.1773 36.9961 39.0484 37.0266 38.9258 37.0266V45.4577C39.0791 45.4882 39.2079 45.4882 39.3306 45.4882C40.0482 45.4882 40.2997 45.1775 40.2997 44.3673V38.0926C40.2997 37.2824 40.0175 36.9961 39.2999 36.9961Z" fill="white"/>
<path d="M39.3919 26.7563H38.9258V33.3173C39.0484 33.3173 39.1773 33.3478 39.2999 33.3478C40.0482 33.3478 40.2997 33.0371 40.2997 32.2208V27.8163C40.2997 27.0366 40.0543 26.7563 39.3919 26.7563Z" fill="white"/>
<path d="M54.1412 17.9219L48.6641 23.3376C49.1241 23.301 49.6454 23.2888 50.2404 23.2888C54.7423 23.2888 55.2391 24.099 55.2391 28.3451V32.3779H50.9273V27.7176C50.9273 26.9683 50.7372 26.6576 50.2097 26.6576C49.7129 26.6576 49.5841 27.0292 49.5841 27.7176V31.653C49.5841 32.4632 49.6822 32.78 50.5532 33.2795L53.2089 34.8086C53.4481 34.9426 53.6505 35.0827 53.8345 35.2228H72.0017L54.1412 17.9219Z" fill="white"/>
<path d="M44.3611 31.2818C44.3611 33.3409 43.8949 34.4983 42.4536 35.0893C44.0483 35.8081 44.3611 36.9656 44.3611 39.0246V43.6788C44.3611 47.7056 43.7968 48.796 39.2642 48.796H35.1794V23.4355H39.669C43.4227 23.4355 44.3549 24.465 44.3549 27.9313V31.2757L44.3611 31.2818ZM45.2013 43.9286V38.3362H49.5745V44.5195C49.5745 45.2383 49.7646 45.6099 50.2921 45.6099C50.7582 45.6099 50.9177 45.2323 50.9177 44.5195V39.1465C50.9177 38.3362 50.8563 38.0865 49.9486 37.5565L47.1702 35.936C45.5448 34.9979 45.2013 33.749 45.2013 31.9702V28.3455C45.2013 26.0367 45.3976 24.7574 46.244 24.0629L60.3202 10.2709H35.1794V23.4416H33.9588V27.5231L29.874 23.4416H33.9588V0L17.8586 17.3436L23.8878 23.2893C28.0033 23.3441 28.4878 24.2274 28.4878 28.3455V32.3784H24.176V27.7181C24.176 26.9688 23.992 26.6581 23.4584 26.6581C22.9555 26.6581 22.8328 27.0297 22.8328 27.7181V31.6534C22.8328 32.4637 22.9248 32.7804 23.8019 33.28L26.4577 34.809C28.175 35.7776 28.4878 36.996 28.4878 38.6469V43.9225C28.4878 48.2599 27.9849 48.9788 23.4584 48.9788C23.2499 48.9788 23.0598 48.9788 22.8696 48.9727L10.793 61.4976H33.9588V48.796H29.6164V24.727L33.9588 29.0644V48.7899H35.1794V72L53.831 54.6198L47.992 48.8569C45.6062 48.5158 45.2013 47.334 45.2013 43.9225" fill="white"/>
<path d="M54.8559 36.4597C55.1564 37.0933 55.2362 37.8182 55.2362 38.6528V43.9284C55.2362 48.2658 54.7332 48.9846 50.2068 48.9846C50.1025 48.9846 50.0044 48.9846 49.9062 48.9846L63.1299 61.9299V36.4536H54.862L54.8559 36.4597Z" fill="white"/>
</svg>
