<svg width="32" height="76" viewBox="0 0 32 76" fill="none" xmlns="http://www.w3.org/2000/svg">
<path fill-rule="evenodd" clip-rule="evenodd" d="M5.33464 36.6665C5.33464 31.5118 9.51331 27.3332 14.668 27.3332C19.8226 27.3332 24.0013 31.5118 24.0013 36.6665C24.0013 39.1811 23.0069 41.4634 21.3898 43.1417C21.3442 43.1768 21.3003 43.2152 21.2585 43.257C21.2167 43.2988 21.1782 43.3427 21.1432 43.3884C19.4649 45.0054 17.1826 45.9998 14.668 45.9998C9.51331 45.9998 5.33464 41.8212 5.33464 36.6665ZM22.1582 46.0424L21.2585 45.1426C20.7796 44.6637 20.7411 43.9112 21.1432 43.3884C21.2269 43.3077 21.3091 43.2254 21.3898 43.1417C21.9127 42.7397 22.6652 42.7781 23.1441 43.257L24.0438 44.1568C23.487 44.8528 22.8543 45.4856 22.1582 46.0424ZM22.1582 46.0424L27.0585 50.9426C27.5792 51.4633 28.4234 51.4633 28.9441 50.9426C29.4648 50.4219 29.4648 49.5777 28.9441 49.057L24.0438 44.1568C25.686 42.1039 26.668 39.4999 26.668 36.6665C26.668 30.0391 21.2954 24.6665 14.668 24.6665C8.04055 24.6665 2.66797 30.0391 2.66797 36.6665C2.66797 43.2939 8.04055 48.6665 14.668 48.6665C17.5013 48.6665 20.1053 47.6845 22.1582 46.0424Z" fill="#292524"/>
<path d="M21.2585 45.1426L22.1582 46.0424C22.8543 45.4856 23.487 44.8528 24.0438 44.1568L23.1441 43.257C22.6652 42.7781 21.9127 42.7397 21.3898 43.1417C21.3091 43.2254 21.2269 43.3077 21.1432 43.3884C20.7411 43.9112 20.7796 44.6637 21.2585 45.1426Z" fill="#292524"/>
</svg>
