<svg width="52" height="52" viewBox="0 0 52 52" fill="none" xmlns="http://www.w3.org/2000/svg">
<path d="M15.3489 35.2942C13.6214 35.0478 13.329 34.1943 13.329 31.7261V27.6871H16.4874V32.1528C16.4874 32.672 16.6247 32.9404 17.0057 32.9404C17.3423 32.9404 17.4575 32.6676 17.4575 32.1528V28.2723C17.4575 27.6871 17.4132 27.5068 16.7576 27.124L15.3932 26.3276H0L12.0798 38.5632L15.3489 35.2942Z" fill="#8C0E18"/>
<path d="M13.3277 23.0896V20.4718C13.3277 17.7087 13.7042 16.974 15.9988 16.842L7.05078 7.92822V25.4478H14.0807C13.4783 24.8407 13.3277 24.0795 13.3277 23.0896Z" fill="#8C0E18"/>
<path d="M28.3835 26.7192C28.2949 26.7192 28.2019 26.7412 28.1133 26.7412V32.8304C28.224 32.8524 28.317 32.8524 28.4056 32.8524C28.9239 32.8524 29.1055 32.628 29.1055 32.0429V27.5112C29.1055 26.926 28.9018 26.7192 28.3835 26.7192Z" fill="#8C0E18"/>
<path d="M28.4499 19.3232H28.1133V24.0617C28.2019 24.0617 28.2949 24.0837 28.3835 24.0837C28.9239 24.0837 29.1055 23.8593 29.1055 23.2698V20.0888C29.1055 19.5256 28.9283 19.3232 28.4499 19.3232Z" fill="#8C0E18"/>
<path d="M39.1003 12.9438L35.1445 16.8552C35.4768 16.8288 35.8533 16.82 36.283 16.82C39.5344 16.82 39.8932 17.4051 39.8932 20.4717V23.3843H36.7791V20.0186C36.7791 19.4774 36.6418 19.253 36.2608 19.253C35.902 19.253 35.809 19.5214 35.809 20.0186V22.8608C35.809 23.4459 35.8799 23.6747 36.5089 24.0355L38.4269 25.1398C38.5997 25.2366 38.7459 25.3378 38.8788 25.439H51.9996L39.1003 12.9438Z" fill="#8C0E18"/>
<path d="M32.0407 22.5924C32.0407 24.0795 31.704 24.9155 30.663 25.3422C31.8148 25.8614 32.0407 26.6973 32.0407 28.1844V31.5458C32.0407 34.454 31.6331 35.2416 28.3596 35.2416H25.4094V16.9256H28.652C31.3629 16.9256 32.0362 17.6692 32.0362 20.1726V22.588L32.0407 22.5924ZM32.6475 31.7262V27.6873H35.8059V32.153C35.8059 32.6721 35.9433 32.9405 36.3242 32.9405C36.6609 32.9405 36.776 32.6677 36.776 32.153V28.2724C36.776 27.6873 36.7317 27.5069 36.0761 27.1241L34.0695 25.9538C32.8956 25.2763 32.6475 24.3743 32.6475 23.0896V20.4718C32.6475 18.8043 32.7893 17.8804 33.4006 17.3788L43.5668 7.41789H25.4094V16.93H24.5279V19.8778L21.5777 16.93H24.5279V0L12.8999 12.5259L17.2543 16.82C20.2266 16.8596 20.5766 17.4976 20.5766 20.4718V23.3844H17.4625V20.0186C17.4625 19.4775 17.3296 19.2531 16.9442 19.2531C16.581 19.2531 16.4924 19.5214 16.4924 20.0186V22.8608C16.4924 23.446 16.5588 23.6748 17.1923 24.0355L19.1104 25.1399C20.3507 25.8394 20.5766 26.7193 20.5766 27.9117V31.7218C20.5766 34.8544 20.2134 35.3736 16.9442 35.3736C16.7936 35.3736 16.6563 35.3736 16.519 35.3692L7.79688 44.4149H24.5279V35.2416H21.3917V17.8584L24.5279 20.9909V35.2372H25.4094V52L38.8801 39.4477L34.6631 35.2856C32.9399 35.0392 32.6475 34.1856 32.6475 31.7218" fill="#8C0E18"/>
<path d="M39.6217 26.332C39.8387 26.7896 39.8963 27.3132 39.8963 27.9159V31.7261C39.8963 34.8586 39.5331 35.3778 36.2639 35.3778C36.1886 35.3778 36.1178 35.3778 36.0469 35.3778L45.5973 44.7272V26.3276H39.6261L39.6217 26.332Z" fill="#8C0E18"/>
</svg>
