<svg width="25" height="24" viewBox="0 0 25 24" fill="none" xmlns="http://www.w3.org/2000/svg">
<path fill-rule="evenodd" clip-rule="evenodd" d="M4.5 11C4.5 7.13401 7.63401 4 11.5 4C15.366 4 18.5 7.13401 18.5 11C18.5 12.8859 17.7542 14.5977 16.5414 15.8564C16.5072 15.8827 16.4742 15.9115 16.4429 15.9429C16.4115 15.9742 16.3827 16.0072 16.3564 16.0414C15.0977 17.2542 13.3859 18 11.5 18C7.63401 18 4.5 14.866 4.5 11ZM17.1177 18.0319L16.4429 17.3571C16.0837 16.9979 16.0549 16.4335 16.3564 16.0414C16.4192 15.9809 16.4809 15.9192 16.5414 15.8564C16.9335 15.5549 17.4979 15.5837 17.8571 15.9429L18.5319 16.6177C18.1143 17.1397 17.6397 17.6143 17.1177 18.0319ZM17.1177 18.0319L20.7929 21.7071C21.1834 22.0976 21.8166 22.0976 22.2071 21.7071C22.5976 21.3166 22.5976 20.6834 22.2071 20.2929L18.5319 16.6177C19.7635 15.078 20.5 13.125 20.5 11C20.5 6.02944 16.4706 2 11.5 2C6.52944 2 2.5 6.02944 2.5 11C2.5 15.9706 6.52944 20 11.5 20C13.625 20 15.578 19.2635 17.1177 18.0319Z" fill="white"/>
<path d="M16.4429 17.3571L17.1177 18.0319C17.6397 17.6143 18.1143 17.1397 18.5319 16.6177L17.8571 15.9429C17.4979 15.5837 16.9335 15.5549 16.5414 15.8564C16.4809 15.9192 16.4192 15.9809 16.3564 16.0414C16.0549 16.4335 16.0837 16.9979 16.4429 17.3571Z" fill="white"/>
</svg>
