<svg width="32" height="76" viewBox="0 0 32 76" fill="none" xmlns="http://www.w3.org/2000/svg">
<path fill-rule="evenodd" clip-rule="evenodd" d="M5.95262 42.6191C7.20286 41.3689 8.89856 40.6665 10.6667 40.6665H21.3333C23.1014 40.6665 24.7971 41.3689 26.0474 42.6191C27.2976 43.8694 28 45.5651 28 47.3332V49.9998C28 50.7362 27.403 51.3332 26.6667 51.3332C25.9303 51.3332 25.3333 50.7362 25.3333 49.9998V47.3332C25.3333 46.2723 24.9119 45.2549 24.1618 44.5047C23.4116 43.7546 22.3942 43.3332 21.3333 43.3332H10.6667C9.6058 43.3332 8.58839 43.7546 7.83824 44.5047C7.08809 45.2549 6.66667 46.2723 6.66667 47.3332V49.9998C6.66667 50.7362 6.06971 51.3332 5.33333 51.3332C4.59695 51.3332 4 50.7362 4 49.9998V47.3332C4 45.5651 4.70238 43.8694 5.95262 42.6191Z" fill="#292524"/>
<path fill-rule="evenodd" clip-rule="evenodd" d="M16 27.3332C13.7909 27.3332 12 29.124 12 31.3332C12 33.5423 13.7909 35.3332 16 35.3332C18.2091 35.3332 20 33.5423 20 31.3332C20 29.124 18.2091 27.3332 16 27.3332ZM9.33333 31.3332C9.33333 27.6513 12.3181 24.6665 16 24.6665C19.6819 24.6665 22.6667 27.6513 22.6667 31.3332C22.6667 35.0151 19.6819 37.9998 16 37.9998C12.3181 37.9998 9.33333 35.0151 9.33333 31.3332Z" fill="#292524"/>
</svg>
