<svg width="172" height="80" viewBox="0 0 172 80" fill="none" xmlns="http://www.w3.org/2000/svg">
<g filter="url(#filter0_d_9779_92504)">
<g clip-path="url(#clip0_9779_92504)">
<mask id="mask0_9779_92504" style="mask-type:luminance" maskUnits="userSpaceOnUse" x="4" y="2" width="164" height="72">
<path d="M163 2H9C6.23858 2 4 4.23858 4 7V69C4 71.7614 6.23858 74 9 74H163C165.761 74 168 71.7614 168 69V7C168 4.23858 165.761 2 163 2Z" fill="white"/>
</mask>
<g mask="url(#mask0_9779_92504)">
<path d="M168 2H4V74H168V2Z" fill="white"/>
<path d="M10 32H4V38L10 32Z" fill="#E3C5C8"/>
<path d="M10 38H4V44L10 38Z" fill="#E3C5C8"/>
<path d="M10 14H4V20L10 14Z" fill="#E3C5C8"/>
<path d="M10 26H4V32L10 26Z" fill="#E3C5C8"/>
<path d="M10 20H4V26L10 20Z" fill="#E3C5C8"/>
<path d="M10 44H4V50L10 44Z" fill="#E3C5C8"/>
<path d="M4 2V8L10 2H4Z" fill="#E3C5C8"/>
<path d="M10 68H4V74L10 68Z" fill="#E3C5C8"/>
<path d="M4 8V14L10 8H4Z" fill="#E3C5C8"/>
<path d="M10 56H4V62L10 56Z" fill="#E3C5C8"/>
<path d="M10 62H4V68L10 62Z" fill="#E3C5C8"/>
<path d="M10 50H4V56L10 50Z" fill="#E3C5C8"/>
<path d="M162 44H168V38L162 44Z" fill="#E3C5C8"/>
<path d="M162 38H168V32L162 38Z" fill="#E3C5C8"/>
<path d="M162 62H168V56L162 62Z" fill="#E3C5C8"/>
<path d="M162 50H168V44L162 50Z" fill="#E3C5C8"/>
<path d="M162 56H168V50L162 56Z" fill="#E3C5C8"/>
<path d="M162 32H168V26L162 32Z" fill="#E3C5C8"/>
<path d="M168 74V68L162 74H168Z" fill="#E3C5C8"/>
<path d="M162 8H168V2L162 8Z" fill="#E3C5C8"/>
<path d="M168 68V62L162 68H168Z" fill="#E3C5C8"/>
<path d="M162 20H168V14L162 20Z" fill="#E3C5C8"/>
<path d="M162 14H168V8L162 14Z" fill="#E3C5C8"/>
<path d="M162 26H168V20L162 26Z" fill="#E3C5C8"/>
<path fill-rule="evenodd" clip-rule="evenodd" d="M72.01 23.54L85.55 10V37.08L72.01 23.54ZM86.36 16.68H106.74L86.36 37.06V16.68ZM114 37.64H86.93L100.47 24.11L114.01 37.64H114ZM58 38.43H84.98L71.49 51.92L58 38.43ZM65.27 59.29H85.55V39.01L65.27 59.29ZM64.65 37.64V17.31L84.98 37.64H64.65ZM86.36 66L99.85 52.51L86.36 39.02V66ZM107.25 38.46V58.78L86.93 38.46H107.25Z" fill="#F6ECED"/>
</g>
<path d="M57 40L41 38L57 36L57 40Z" fill="#54080E"/>
<g filter="url(#filter1_d_9779_92504)">
<path d="M75.7438 50.512C75.0824 50.512 74.6131 50.32 74.3358 49.936C74.0798 49.552 73.9518 49.1253 73.9518 48.656C73.9518 48.2293 74.0478 47.6853 74.2398 47.024C74.4531 46.3627 74.7198 45.6373 75.0398 44.848C75.3598 44.0373 75.6904 43.2373 76.0318 42.448C76.3944 41.5947 76.8104 40.6133 77.2798 39.504C77.7491 38.3947 78.2931 37.1253 78.9118 35.696C79.5304 34.2667 80.2238 32.6453 80.9918 30.832L74.2718 30.768C73.5464 30.7467 72.9598 30.9067 72.5118 31.248C72.0638 31.568 71.8398 32.1653 71.8398 33.04H69.8238L70.0478 27.6H83.6798V30.512C82.9544 31.984 82.3251 33.4133 81.7918 34.8C81.2798 36.1867 80.8104 37.5733 80.3838 38.96C79.9784 40.3467 79.5838 41.7867 79.1998 43.28C78.8371 44.7733 78.4424 46.3733 78.0158 48.08C77.8664 48.6773 77.5998 49.2427 77.2158 49.776C76.8531 50.288 76.3624 50.5333 75.7438 50.512ZM93.3998 50.512C92.6318 50.512 91.8211 50.416 90.9678 50.224C90.1358 50.032 89.3464 49.7227 88.5998 49.296C87.8744 48.8693 87.2771 48.304 86.8078 47.6C86.3598 46.8747 86.1358 45.9893 86.1358 44.944C86.1358 44.1333 86.3384 43.3547 86.7438 42.608C87.1704 41.8613 87.7038 41.1787 88.3438 40.56C88.9838 39.92 89.6558 39.3973 90.3598 38.992C88.9518 38.1173 87.9491 37.1467 87.3518 36.08C86.7758 35.0133 86.4878 34.0533 86.4878 33.2C86.4878 32.1547 86.7011 31.248 87.1278 30.48C87.5758 29.712 88.1624 29.0827 88.8878 28.592C89.6131 28.08 90.3918 27.7067 91.2238 27.472C92.0771 27.216 92.9198 27.088 93.7517 27.088C94.8611 27.088 95.9171 27.3013 96.9198 27.728C97.9224 28.1333 98.7438 28.7413 99.3838 29.552C100.024 30.3627 100.344 31.3547 100.344 32.528C100.344 33.2533 100.152 33.9467 99.7678 34.608C99.3838 35.2693 98.8931 35.8667 98.2958 36.4C97.7198 36.9333 97.1331 37.392 96.5358 37.776C97.6238 38.4373 98.5198 39.1307 99.2238 39.856C99.9278 40.5813 100.45 41.3387 100.792 42.128C101.133 42.896 101.304 43.6853 101.304 44.496C101.304 45.8827 100.93 47.024 100.184 47.92C99.4584 48.7947 98.4878 49.4453 97.2718 49.872C96.0771 50.2987 94.7864 50.512 93.3998 50.512ZM93.4318 48.272C94.4558 48.2933 95.2558 48.0053 95.8318 47.408C96.4291 46.7893 96.7278 46.0427 96.7278 45.168C96.7278 44.3573 96.4291 43.5253 95.8318 42.672C95.2344 41.7973 94.1464 40.9653 92.5677 40.176C91.7144 40.8373 91.0851 41.5947 90.6798 42.448C90.2958 43.28 90.0824 44.0053 90.0398 44.624C89.9971 45.6267 90.2958 46.48 90.9358 47.184C91.5758 47.888 92.4078 48.2507 93.4318 48.272ZM94.4558 36.464C95.1384 35.952 95.7038 35.344 96.1518 34.64C96.6211 33.9147 96.8664 33.2533 96.8878 32.656C96.9304 31.5893 96.6638 30.768 96.0878 30.192C95.5118 29.616 94.8184 29.328 94.0078 29.328C93.3891 29.328 92.8451 29.4667 92.3758 29.744C91.9278 30 91.5758 30.352 91.3198 30.8C91.0851 31.248 90.9678 31.7493 90.9678 32.304C90.9678 33.136 91.3091 33.9467 91.9918 34.736C92.6958 35.504 93.5171 36.08 94.4558 36.464Z" fill="#54080E"/>
</g>
<path d="M115 36L131 38L115 40V36Z" fill="#54080E"/>
</g>
<rect x="4.5" y="2.5" width="163" height="71" rx="4.5" stroke="#E7E5E4" shape-rendering="crispEdges"/>
</g>
<defs>
<filter id="filter0_d_9779_92504" x="0" y="0" width="172" height="80" filterUnits="userSpaceOnUse" color-interpolation-filters="sRGB">
<feFlood flood-opacity="0" result="BackgroundImageFix"/>
<feColorMatrix in="SourceAlpha" type="matrix" values="0 0 0 0 0 0 0 0 0 0 0 0 0 0 0 0 0 0 127 0" result="hardAlpha"/>
<feOffset dy="2"/>
<feGaussianBlur stdDeviation="2"/>
<feComposite in2="hardAlpha" operator="out"/>
<feColorMatrix type="matrix" values="0 0 0 0 0.109804 0 0 0 0 0.0980392 0 0 0 0 0.0901961 0 0 0 0.08 0"/>
<feBlend mode="normal" in2="BackgroundImageFix" result="effect1_dropShadow_9779_92504"/>
<feBlend mode="normal" in="SourceGraphic" in2="effect1_dropShadow_9779_92504" result="shape"/>
</filter>
<filter id="filter1_d_9779_92504" x="69.8242" y="27.0879" width="33.4805" height="25.4561" filterUnits="userSpaceOnUse" color-interpolation-filters="sRGB">
<feFlood flood-opacity="0" result="BackgroundImageFix"/>
<feColorMatrix in="SourceAlpha" type="matrix" values="0 0 0 0 0 0 0 0 0 0 0 0 0 0 0 0 0 0 127 0" result="hardAlpha"/>
<feOffset dx="2" dy="2"/>
<feComposite in2="hardAlpha" operator="out"/>
<feColorMatrix type="matrix" values="0 0 0 0 1 0 0 0 0 1 0 0 0 0 1 0 0 0 1 0"/>
<feBlend mode="normal" in2="BackgroundImageFix" result="effect1_dropShadow_9779_92504"/>
<feBlend mode="normal" in="SourceGraphic" in2="effect1_dropShadow_9779_92504" result="shape"/>
</filter>
<clipPath id="clip0_9779_92504">
<rect x="4" y="2" width="164" height="72" rx="5" fill="white"/>
</clipPath>
</defs>
</svg>
