<svg width="16" height="16" viewBox="0 0 16 16" fill="none" xmlns="http://www.w3.org/2000/svg">
<g clip-path="url(#clip0_10374_203237)">
<path fill-rule="evenodd" clip-rule="evenodd" d="M8.0013 1.99984C4.68759 1.99984 2.0013 4.68613 2.0013 7.99984C2.0013 11.3135 4.68759 13.9998 8.0013 13.9998C11.315 13.9998 14.0013 11.3135 14.0013 7.99984C14.0013 4.68613 11.315 1.99984 8.0013 1.99984ZM0.667969 7.99984C0.667969 3.94975 3.95121 0.666504 8.0013 0.666504C12.0514 0.666504 15.3346 3.94975 15.3346 7.99984C15.3346 12.0499 12.0514 15.3332 8.0013 15.3332C3.95121 15.3332 0.667969 12.0499 0.667969 7.99984Z" fill="#1C1917"/>
<path fill-rule="evenodd" clip-rule="evenodd" d="M8.0013 7.33317C8.36949 7.33317 8.66797 7.63165 8.66797 7.99984V10.6665C8.66797 11.0347 8.36949 11.3332 8.0013 11.3332C7.63311 11.3332 7.33463 11.0347 7.33463 10.6665V7.99984C7.33463 7.63165 7.63311 7.33317 8.0013 7.33317Z" fill="#1C1917"/>
<path fill-rule="evenodd" clip-rule="evenodd" d="M7.33463 5.33317C7.33463 4.96498 7.63311 4.6665 8.0013 4.6665H8.00797C8.37616 4.6665 8.67463 4.96498 8.67463 5.33317C8.67463 5.70136 8.37616 5.99984 8.00797 5.99984H8.0013C7.63311 5.99984 7.33463 5.70136 7.33463 5.33317Z" fill="#1C1917"/>
</g>
<defs>
<clipPath id="clip0_10374_203237">
<rect width="16" height="16" fill="white"/>
</clipPath>
</defs>
</svg>
