<svg width="172" height="80" viewBox="0 0 172 80" fill="none" xmlns="http://www.w3.org/2000/svg">
<g filter="url(#filter0_d_9779_92528)">
<g clip-path="url(#clip0_9779_92528)">
<mask id="mask0_9779_92528" style="mask-type:luminance" maskUnits="userSpaceOnUse" x="4" y="2" width="164" height="72">
<path d="M163 2H9C6.23858 2 4 4.23858 4 7V69C4 71.7614 6.23858 74 9 74H163C165.761 74 168 71.7614 168 69V7C168 4.23858 165.761 2 163 2Z" fill="white"/>
</mask>
<g mask="url(#mask0_9779_92528)">
<path d="M168 2H4V74H168V2Z" fill="white"/>
<path d="M10 32H4V38L10 32Z" fill="#E3C5C8"/>
<path d="M10 38H4V44L10 38Z" fill="#E3C5C8"/>
<path d="M10 14H4V20L10 14Z" fill="#E3C5C8"/>
<path d="M10 26H4V32L10 26Z" fill="#E3C5C8"/>
<path d="M10 20H4V26L10 20Z" fill="#E3C5C8"/>
<path d="M10 44H4V50L10 44Z" fill="#E3C5C8"/>
<path d="M4 2V8L10 2H4Z" fill="#E3C5C8"/>
<path d="M10 68H4V74L10 68Z" fill="#E3C5C8"/>
<path d="M4 8V14L10 8H4Z" fill="#E3C5C8"/>
<path d="M10 56H4V62L10 56Z" fill="#E3C5C8"/>
<path d="M10 62H4V68L10 62Z" fill="#E3C5C8"/>
<path d="M10 50H4V56L10 50Z" fill="#E3C5C8"/>
<path d="M162 44H168V38L162 44Z" fill="#E3C5C8"/>
<path d="M162 38H168V32L162 38Z" fill="#E3C5C8"/>
<path d="M162 62H168V56L162 62Z" fill="#E3C5C8"/>
<path d="M162 50H168V44L162 50Z" fill="#E3C5C8"/>
<path d="M162 56H168V50L162 56Z" fill="#E3C5C8"/>
<path d="M162 32H168V26L162 32Z" fill="#E3C5C8"/>
<path d="M168 74V68L162 74H168Z" fill="#E3C5C8"/>
<path d="M162 8H168V2L162 8Z" fill="#E3C5C8"/>
<path d="M168 68V62L162 68H168Z" fill="#E3C5C8"/>
<path d="M162 20H168V14L162 20Z" fill="#E3C5C8"/>
<path d="M162 14H168V8L162 14Z" fill="#E3C5C8"/>
<path d="M162 26H168V20L162 26Z" fill="#E3C5C8"/>
<path fill-rule="evenodd" clip-rule="evenodd" d="M72.01 23.54L85.55 10V37.08L72.01 23.54ZM86.36 16.68H106.74L86.36 37.06V16.68ZM114 37.64H86.93L100.47 24.11L114.01 37.64H114ZM58 38.43H84.98L71.49 51.92L58 38.43ZM65.27 59.29H85.55V39.01L65.27 59.29ZM64.65 37.64V17.31L84.98 37.64H64.65ZM86.36 66L99.85 52.51L86.36 39.02V66ZM107.25 38.46V58.78L86.93 38.46H107.25Z" fill="#F6ECED"/>
</g>
<path d="M40.5 40L24.5 38L40.5 36L40.5 40Z" fill="#54080E"/>
<g filter="url(#filter1_d_9779_92528)">
<path d="M55.2006 50V47.888C55.6913 47.8667 56.0966 47.8027 56.4166 47.696C56.758 47.5893 57.014 47.344 57.1846 46.96C57.3766 46.576 57.4726 45.9573 57.4726 45.104V32.272L53.9846 34.352L52.8326 32.432L60.1606 27.088H62.0806V44.752C62.0806 45.328 62.07 45.8827 62.0486 46.416C62.0486 46.9493 62.0273 47.3547 61.9846 47.632C62.326 47.5893 62.7526 47.568 63.2646 47.568C63.798 47.5467 64.1713 47.536 64.3846 47.536V50H55.2006ZM74.6966 50.512C73.9286 50.512 73.118 50.416 72.2646 50.224C71.4326 50.032 70.6433 49.7227 69.8966 49.296C69.1713 48.8693 68.574 48.304 68.1046 47.6C67.6566 46.8747 67.4326 45.9893 67.4326 44.944C67.4326 44.1333 67.6353 43.3547 68.0406 42.608C68.4673 41.8613 69.0006 41.1787 69.6406 40.56C70.2806 39.92 70.9526 39.3973 71.6566 38.992C70.2486 38.1173 69.246 37.1467 68.6486 36.08C68.0726 35.0133 67.7846 34.0533 67.7846 33.2C67.7846 32.1547 67.998 31.248 68.4246 30.48C68.8726 29.712 69.4593 29.0827 70.1846 28.592C70.91 28.08 71.6886 27.7067 72.5206 27.472C73.374 27.216 74.2166 27.088 75.0486 27.088C76.158 27.088 77.214 27.3013 78.2166 27.728C79.2193 28.1333 80.0406 28.7413 80.6806 29.552C81.3206 30.3627 81.6406 31.3547 81.6406 32.528C81.6406 33.2533 81.4486 33.9467 81.0646 34.608C80.6806 35.2693 80.19 35.8667 79.5926 36.4C79.0166 36.9333 78.43 37.392 77.8326 37.776C78.9206 38.4373 79.8166 39.1307 80.5206 39.856C81.2246 40.5813 81.7473 41.3387 82.0886 42.128C82.43 42.896 82.6006 43.6853 82.6006 44.496C82.6006 45.8827 82.2273 47.024 81.4806 47.92C80.7553 48.7947 79.7846 49.4453 78.5686 49.872C77.374 50.2987 76.0833 50.512 74.6966 50.512ZM74.7286 48.272C75.7526 48.2933 76.5526 48.0053 77.1286 47.408C77.726 46.7893 78.0246 46.0427 78.0246 45.168C78.0246 44.3573 77.726 43.5253 77.1286 42.672C76.5313 41.7973 75.4433 40.9653 73.8646 40.176C73.0113 40.8373 72.382 41.5947 71.9766 42.448C71.5926 43.28 71.3793 44.0053 71.3366 44.624C71.294 45.6267 71.5926 46.48 72.2326 47.184C72.8726 47.888 73.7046 48.2507 74.7286 48.272ZM75.7526 36.464C76.4353 35.952 77.0006 35.344 77.4486 34.64C77.918 33.9147 78.1633 33.2533 78.1846 32.656C78.2273 31.5893 77.9606 30.768 77.3846 30.192C76.8086 29.616 76.1153 29.328 75.3046 29.328C74.686 29.328 74.142 29.4667 73.6726 29.744C73.2246 30 72.8726 30.352 72.6166 30.8C72.382 31.248 72.2646 31.7493 72.2646 32.304C72.2646 33.136 72.606 33.9467 73.2886 34.736C73.9926 35.504 74.814 36.08 75.7526 36.464ZM97.2651 44.752C97.2651 45.328 97.2545 45.8827 97.2331 46.416C97.2118 46.9493 97.1798 47.3547 97.1371 47.632C97.4998 47.5893 97.9371 47.568 98.4491 47.568C98.9611 47.5467 99.3238 47.536 99.5371 47.536V50H90.4171V47.888H90.6091C91.0998 47.888 91.5158 47.8347 91.8571 47.728C92.2198 47.6213 92.4971 47.376 92.6891 46.992C92.9025 46.5867 93.0091 45.9573 93.0091 45.104V44.208H84.3371V41.2L95.3131 27.088H97.2651V41.328H100.401V44.208H97.2651V44.752ZM92.9771 33.808L87.3131 41.232L93.0091 41.264L93.0411 33.808H92.9771ZM109.517 50.512C107.917 50.512 106.605 50.2773 105.581 49.808C104.557 49.3173 103.8 48.7093 103.309 47.984C102.818 47.2587 102.573 46.5333 102.573 45.808C102.573 45.168 102.765 44.6133 103.149 44.144C103.554 43.6533 104.088 43.3973 104.749 43.376C105.282 43.3547 105.698 43.4613 105.997 43.696C106.296 43.9307 106.509 44.208 106.637 44.528C106.765 44.848 106.829 45.1467 106.829 45.424C106.829 45.6373 106.786 45.8827 106.701 46.16C106.616 46.416 106.488 46.6613 106.317 46.896C106.552 47.3013 106.936 47.6213 107.469 47.856C108.024 48.0693 108.6 48.176 109.197 48.176C110.541 48.176 111.554 47.7707 112.237 46.96C112.92 46.1493 113.261 45.1467 113.261 43.952C113.261 43.2267 113.122 42.5013 112.845 41.776C112.568 41.0507 112.088 40.4533 111.405 39.984C110.722 39.4933 109.762 39.2587 108.525 39.28C108.376 39.28 108.109 39.2907 107.725 39.312C107.341 39.3333 107.053 39.3547 106.861 39.376V37.072C107.032 37.0933 107.192 37.104 107.341 37.104C107.49 37.104 107.64 37.104 107.789 37.104C108.728 37.104 109.528 36.9333 110.189 36.592C110.85 36.2507 111.352 35.7813 111.693 35.184C112.056 34.5867 112.248 33.8933 112.269 33.104C112.29 32.3573 112.194 31.7067 111.981 31.152C111.789 30.576 111.469 30.128 111.021 29.808C110.594 29.488 110.018 29.328 109.293 29.328C108.717 29.328 108.194 29.4667 107.725 29.744C107.256 30.0213 106.936 30.3307 106.765 30.672C106.957 30.9067 107.085 31.184 107.149 31.504C107.234 31.8027 107.277 32.048 107.277 32.24C107.277 32.496 107.202 32.7947 107.053 33.136C106.925 33.456 106.701 33.7333 106.381 33.968C106.061 34.2027 105.634 34.3093 105.101 34.288C104.44 34.2667 103.938 34.032 103.597 33.584C103.256 33.136 103.085 32.6027 103.085 31.984C103.085 31.344 103.33 30.64 103.821 29.872C104.312 29.104 105.058 28.4533 106.061 27.92C107.064 27.3653 108.312 27.088 109.805 27.088C111.128 27.088 112.322 27.2693 113.389 27.632C114.477 27.9947 115.33 28.592 115.949 29.424C116.589 30.256 116.909 31.3653 116.909 32.752C116.909 33.3067 116.749 33.936 116.429 34.64C116.13 35.3227 115.629 35.952 114.925 36.528C114.221 37.104 113.282 37.5307 112.109 37.808C114.157 38.1707 115.661 38.9067 116.621 40.016C117.602 41.1253 118.093 42.3627 118.093 43.728C118.093 45.1787 117.72 46.416 116.973 47.44C116.248 48.4427 115.234 49.2107 113.933 49.744C112.653 50.256 111.181 50.512 109.517 50.512Z" fill="#54080E"/>
</g>
<path d="M131.5 36L147.5 38L131.5 40V36Z" fill="#54080E"/>
</g>
<rect x="4.5" y="2.5" width="163" height="71" rx="4.5" stroke="#E7E5E4" shape-rendering="crispEdges"/>
</g>
<defs>
<filter id="filter0_d_9779_92528" x="0" y="0" width="172" height="80" filterUnits="userSpaceOnUse" color-interpolation-filters="sRGB">
<feFlood flood-opacity="0" result="BackgroundImageFix"/>
<feColorMatrix in="SourceAlpha" type="matrix" values="0 0 0 0 0 0 0 0 0 0 0 0 0 0 0 0 0 0 127 0" result="hardAlpha"/>
<feOffset dy="2"/>
<feGaussianBlur stdDeviation="2"/>
<feComposite in2="hardAlpha" operator="out"/>
<feColorMatrix type="matrix" values="0 0 0 0 0.109804 0 0 0 0 0.0980392 0 0 0 0 0.0901961 0 0 0 0.08 0"/>
<feBlend mode="normal" in2="BackgroundImageFix" result="effect1_dropShadow_9779_92528"/>
<feBlend mode="normal" in="SourceGraphic" in2="effect1_dropShadow_9779_92528" result="shape"/>
</filter>
<filter id="filter1_d_9779_92528" x="52.832" y="27.0879" width="67.2617" height="25.4243" filterUnits="userSpaceOnUse" color-interpolation-filters="sRGB">
<feFlood flood-opacity="0" result="BackgroundImageFix"/>
<feColorMatrix in="SourceAlpha" type="matrix" values="0 0 0 0 0 0 0 0 0 0 0 0 0 0 0 0 0 0 127 0" result="hardAlpha"/>
<feOffset dx="2" dy="2"/>
<feComposite in2="hardAlpha" operator="out"/>
<feColorMatrix type="matrix" values="0 0 0 0 1 0 0 0 0 1 0 0 0 0 1 0 0 0 1 0"/>
<feBlend mode="normal" in2="BackgroundImageFix" result="effect1_dropShadow_9779_92528"/>
<feBlend mode="normal" in="SourceGraphic" in2="effect1_dropShadow_9779_92528" result="shape"/>
</filter>
<clipPath id="clip0_9779_92528">
<rect x="4" y="2" width="164" height="72" rx="5" fill="white"/>
</clipPath>
</defs>
</svg>
