<svg width="172" height="80" viewBox="0 0 172 80" fill="none" xmlns="http://www.w3.org/2000/svg">
<g filter="url(#filter0_d_9779_92533)">
<g clip-path="url(#clip0_9779_92533)">
<mask id="mask0_9779_92533" style="mask-type:luminance" maskUnits="userSpaceOnUse" x="4" y="2" width="164" height="72">
<path d="M163 2H9C6.23858 2 4 4.23858 4 7V69C4 71.7614 6.23858 74 9 74H163C165.761 74 168 71.7614 168 69V7C168 4.23858 165.761 2 163 2Z" fill="white"/>
</mask>
<g mask="url(#mask0_9779_92533)">
<path d="M168 2H4V74H168V2Z" fill="white"/>
<path d="M10 32H4V38L10 32Z" fill="#E3C5C8"/>
<path d="M10 38H4V44L10 38Z" fill="#E3C5C8"/>
<path d="M10 14H4V20L10 14Z" fill="#E3C5C8"/>
<path d="M10 26H4V32L10 26Z" fill="#E3C5C8"/>
<path d="M10 20H4V26L10 20Z" fill="#E3C5C8"/>
<path d="M10 44H4V50L10 44Z" fill="#E3C5C8"/>
<path d="M4 2V8L10 2H4Z" fill="#E3C5C8"/>
<path d="M10 68H4V74L10 68Z" fill="#E3C5C8"/>
<path d="M4 8V14L10 8H4Z" fill="#E3C5C8"/>
<path d="M10 56H4V62L10 56Z" fill="#E3C5C8"/>
<path d="M10 62H4V68L10 62Z" fill="#E3C5C8"/>
<path d="M10 50H4V56L10 50Z" fill="#E3C5C8"/>
<path d="M162 44H168V38L162 44Z" fill="#E3C5C8"/>
<path d="M162 38H168V32L162 38Z" fill="#E3C5C8"/>
<path d="M162 62H168V56L162 62Z" fill="#E3C5C8"/>
<path d="M162 50H168V44L162 50Z" fill="#E3C5C8"/>
<path d="M162 56H168V50L162 56Z" fill="#E3C5C8"/>
<path d="M162 32H168V26L162 32Z" fill="#E3C5C8"/>
<path d="M168 74V68L162 74H168Z" fill="#E3C5C8"/>
<path d="M162 8H168V2L162 8Z" fill="#E3C5C8"/>
<path d="M168 68V62L162 68H168Z" fill="#E3C5C8"/>
<path d="M162 20H168V14L162 20Z" fill="#E3C5C8"/>
<path d="M162 14H168V8L162 14Z" fill="#E3C5C8"/>
<path d="M162 26H168V20L162 26Z" fill="#E3C5C8"/>
<path fill-rule="evenodd" clip-rule="evenodd" d="M72.01 23.54L85.55 10V37.08L72.01 23.54ZM86.36 16.68H106.74L86.36 37.06V16.68ZM114 37.64H86.93L100.47 24.11L114.01 37.64H114ZM58 38.43H84.98L71.49 51.92L58 38.43ZM65.27 59.29H85.55V39.01L65.27 59.29ZM64.65 37.64V17.31L84.98 37.64H64.65ZM86.36 66L99.85 52.51L86.36 39.02V66ZM107.25 38.46V58.78L86.93 38.46H107.25Z" fill="#F6ECED"/>
</g>
<path d="M44 40L28 38L44 36L44 40Z" fill="#54080E"/>
<g filter="url(#filter1_d_9779_92533)">
<path d="M58.8413 50V47.888C59.3319 47.8667 59.7373 47.8027 60.0573 47.696C60.3986 47.5893 60.6546 47.344 60.8253 46.96C61.0173 46.576 61.1133 45.9573 61.1133 45.104V32.272L57.6253 34.352L56.4733 32.432L63.8013 27.088H65.7213V44.752C65.7213 45.328 65.7106 45.8827 65.6892 46.416C65.6892 46.9493 65.6679 47.3547 65.6253 47.632C65.9666 47.5893 66.3933 47.568 66.9053 47.568C67.4386 47.5467 67.8119 47.536 68.0253 47.536V50H58.8413ZM77.4413 50.512C76.0333 50.512 74.9026 50.3093 74.0493 49.904C73.1959 49.4987 72.5666 48.976 72.1613 48.336C71.7773 47.696 71.5853 47.024 71.5853 46.32C71.5853 45.744 71.7666 45.2107 72.1293 44.72C72.5133 44.208 73.0359 43.952 73.6973 43.952C74.5079 43.952 75.0519 44.1867 75.3293 44.656C75.6066 45.104 75.7453 45.5413 75.7453 45.968C75.7453 46.1387 75.7026 46.3733 75.6173 46.672C75.5533 46.9493 75.4466 47.1733 75.2973 47.344C75.4679 47.6 75.7346 47.824 76.0973 48.016C76.4813 48.1867 76.9399 48.2613 77.4733 48.24C78.0919 48.1973 78.6359 48.0267 79.1053 47.728C79.5746 47.408 79.9693 46.9813 80.2893 46.448C80.6306 45.9147 80.8973 45.3067 81.0893 44.624C81.3026 43.9413 81.4413 43.216 81.5053 42.448C81.5906 41.6587 81.6119 40.8587 81.5693 40.048C81.2279 40.4533 80.6733 40.848 79.9053 41.232C79.1373 41.616 78.3479 41.8293 77.5373 41.872C76.3639 41.8933 75.3399 41.7333 74.4653 41.392C73.6119 41.0293 72.8973 40.5067 72.3213 39.824C71.7666 39.1413 71.3506 38.3413 71.0733 37.424C70.7959 36.5067 70.6573 35.504 70.6573 34.416C70.6573 32.9867 70.9773 31.728 71.6173 30.64C72.2786 29.5307 73.1853 28.6667 74.3373 28.048C75.5106 27.408 76.8546 27.088 78.3693 27.088C79.7986 27.088 81.0039 27.3547 81.9853 27.888C82.9879 28.4213 83.7986 29.1787 84.4173 30.16C85.0359 31.12 85.4839 32.2613 85.7613 33.584C86.0599 34.9067 86.2093 36.3467 86.2093 37.904C86.2093 38.864 86.1346 39.9093 85.9853 41.04C85.8573 42.1707 85.6119 43.2907 85.2493 44.4C84.9079 45.5093 84.4066 46.5333 83.7453 47.472C83.1053 48.3893 82.2626 49.1253 81.2173 49.68C80.1933 50.2347 78.9346 50.512 77.4413 50.512ZM78.4333 39.312C78.8813 39.312 79.3079 39.216 79.7133 39.024C80.1186 38.832 80.4813 38.576 80.8013 38.256C81.1213 37.936 81.3773 37.584 81.5693 37.2C81.5693 36.176 81.5159 35.1947 81.4093 34.256C81.3026 33.3173 81.1213 32.4747 80.8653 31.728C80.6306 30.9813 80.2999 30.3947 79.8733 29.968C79.4679 29.5413 78.9559 29.328 78.3373 29.328C77.6973 29.328 77.1639 29.5413 76.7373 29.968C76.3106 30.3733 75.9906 30.9067 75.7773 31.568C75.5853 32.2293 75.4893 32.9333 75.4893 33.68C75.4893 34.1493 75.5213 34.704 75.5853 35.344C75.6493 35.984 75.7773 36.6133 75.9693 37.232C76.1613 37.8293 76.4493 38.3307 76.8333 38.736C77.2386 39.12 77.7719 39.312 78.4333 39.312ZM94.1188 50.512C93.4574 50.512 92.9881 50.32 92.7108 49.936C92.4548 49.552 92.3268 49.1253 92.3268 48.656C92.3268 48.2293 92.4228 47.6853 92.6148 47.024C92.8281 46.3627 93.0948 45.6373 93.4148 44.848C93.7348 44.0373 94.0654 43.2373 94.4068 42.448C94.7694 41.5947 95.1854 40.6133 95.6548 39.504C96.1241 38.3947 96.6681 37.1253 97.2868 35.696C97.9054 34.2667 98.5988 32.6453 99.3668 30.832L92.6468 30.768C91.9214 30.7467 91.3348 30.9067 90.8868 31.248C90.4388 31.568 90.2148 32.1653 90.2148 33.04H88.1988L88.4228 27.6H102.055V30.512C101.329 31.984 100.7 33.4133 100.167 34.8C99.6548 36.1867 99.1854 37.5733 98.7588 38.96C98.3534 40.3467 97.9588 41.7867 97.5748 43.28C97.2121 44.7733 96.8174 46.3733 96.3908 48.08C96.2414 48.6773 95.9748 49.2427 95.5908 49.776C95.2281 50.288 94.7374 50.5333 94.1188 50.512ZM105.279 50V47.888C105.769 47.8667 106.175 47.8027 106.495 47.696C106.836 47.5893 107.092 47.344 107.263 46.96C107.455 46.576 107.551 45.9573 107.551 45.104V32.272L104.063 34.352L102.911 32.432L110.239 27.088H112.159V44.752C112.159 45.328 112.148 45.8827 112.127 46.416C112.127 46.9493 112.105 47.3547 112.063 47.632C112.404 47.5893 112.831 47.568 113.343 47.568C113.876 47.5467 114.249 47.536 114.463 47.536V50H105.279Z" fill="#54080E"/>
</g>
<path d="M128 36L144 38L128 40V36Z" fill="#54080E"/>
</g>
<rect x="4.5" y="2.5" width="163" height="71" rx="4.5" stroke="#E7E5E4" shape-rendering="crispEdges"/>
</g>
<defs>
<filter id="filter0_d_9779_92533" x="0" y="0" width="172" height="80" filterUnits="userSpaceOnUse" color-interpolation-filters="sRGB">
<feFlood flood-opacity="0" result="BackgroundImageFix"/>
<feColorMatrix in="SourceAlpha" type="matrix" values="0 0 0 0 0 0 0 0 0 0 0 0 0 0 0 0 0 0 127 0" result="hardAlpha"/>
<feOffset dy="2"/>
<feGaussianBlur stdDeviation="2"/>
<feComposite in2="hardAlpha" operator="out"/>
<feColorMatrix type="matrix" values="0 0 0 0 0.109804 0 0 0 0 0.0980392 0 0 0 0 0.0901961 0 0 0 0.08 0"/>
<feBlend mode="normal" in2="BackgroundImageFix" result="effect1_dropShadow_9779_92533"/>
<feBlend mode="normal" in="SourceGraphic" in2="effect1_dropShadow_9779_92533" result="shape"/>
</filter>
<filter id="filter1_d_9779_92533" x="56.4727" y="27.0879" width="59.9883" height="25.4561" filterUnits="userSpaceOnUse" color-interpolation-filters="sRGB">
<feFlood flood-opacity="0" result="BackgroundImageFix"/>
<feColorMatrix in="SourceAlpha" type="matrix" values="0 0 0 0 0 0 0 0 0 0 0 0 0 0 0 0 0 0 127 0" result="hardAlpha"/>
<feOffset dx="2" dy="2"/>
<feComposite in2="hardAlpha" operator="out"/>
<feColorMatrix type="matrix" values="0 0 0 0 1 0 0 0 0 1 0 0 0 0 1 0 0 0 1 0"/>
<feBlend mode="normal" in2="BackgroundImageFix" result="effect1_dropShadow_9779_92533"/>
<feBlend mode="normal" in="SourceGraphic" in2="effect1_dropShadow_9779_92533" result="shape"/>
</filter>
<clipPath id="clip0_9779_92533">
<rect x="4" y="2" width="164" height="72" rx="5" fill="white"/>
</clipPath>
</defs>
</svg>
