<svg width="172" height="80" viewBox="0 0 172 80" fill="none" xmlns="http://www.w3.org/2000/svg">
<g filter="url(#filter0_d_9779_92525)">
<g clip-path="url(#clip0_9779_92525)">
<mask id="mask0_9779_92525" style="mask-type:luminance" maskUnits="userSpaceOnUse" x="4" y="2" width="164" height="72">
<path d="M163 2H9C6.23858 2 4 4.23858 4 7V69C4 71.7614 6.23858 74 9 74H163C165.761 74 168 71.7614 168 69V7C168 4.23858 165.761 2 163 2Z" fill="white"/>
</mask>
<g mask="url(#mask0_9779_92525)">
<path d="M168 2H4V74H168V2Z" fill="white"/>
<path d="M10 32H4V38L10 32Z" fill="#E3C5C8"/>
<path d="M10 38H4V44L10 38Z" fill="#E3C5C8"/>
<path d="M10 14H4V20L10 14Z" fill="#E3C5C8"/>
<path d="M10 26H4V32L10 26Z" fill="#E3C5C8"/>
<path d="M10 20H4V26L10 20Z" fill="#E3C5C8"/>
<path d="M10 44H4V50L10 44Z" fill="#E3C5C8"/>
<path d="M4 2V8L10 2H4Z" fill="#E3C5C8"/>
<path d="M10 68H4V74L10 68Z" fill="#E3C5C8"/>
<path d="M4 8V14L10 8H4Z" fill="#E3C5C8"/>
<path d="M10 56H4V62L10 56Z" fill="#E3C5C8"/>
<path d="M10 62H4V68L10 62Z" fill="#E3C5C8"/>
<path d="M10 50H4V56L10 50Z" fill="#E3C5C8"/>
<path d="M162 44H168V38L162 44Z" fill="#E3C5C8"/>
<path d="M162 38H168V32L162 38Z" fill="#E3C5C8"/>
<path d="M162 62H168V56L162 62Z" fill="#E3C5C8"/>
<path d="M162 50H168V44L162 50Z" fill="#E3C5C8"/>
<path d="M162 56H168V50L162 56Z" fill="#E3C5C8"/>
<path d="M162 32H168V26L162 32Z" fill="#E3C5C8"/>
<path d="M168 74V68L162 74H168Z" fill="#E3C5C8"/>
<path d="M162 8H168V2L162 8Z" fill="#E3C5C8"/>
<path d="M168 68V62L162 68H168Z" fill="#E3C5C8"/>
<path d="M162 20H168V14L162 20Z" fill="#E3C5C8"/>
<path d="M162 14H168V8L162 14Z" fill="#E3C5C8"/>
<path d="M162 26H168V20L162 26Z" fill="#E3C5C8"/>
<path fill-rule="evenodd" clip-rule="evenodd" d="M72.01 23.54L85.55 10V37.08L72.01 23.54ZM86.36 16.68H106.74L86.36 37.06V16.68ZM114 37.64H86.93L100.47 24.11L114.01 37.64H114ZM58 38.43H84.98L71.49 51.92L58 38.43ZM65.27 59.29H85.55V39.01L65.27 59.29ZM64.65 37.64V17.31L84.98 37.64H64.65ZM86.36 66L99.85 52.51L86.36 39.02V66ZM107.25 38.46V58.78L86.93 38.46H107.25Z" fill="#F6ECED"/>
</g>
<path d="M40.5 40L24.5 38L40.5 36L40.5 40Z" fill="#54080E"/>
<g filter="url(#filter1_d_9779_92525)">
<path d="M55.4506 50V47.888C55.9413 47.8667 56.3466 47.8027 56.6666 47.696C57.008 47.5893 57.264 47.344 57.4346 46.96C57.6266 46.576 57.7226 45.9573 57.7226 45.104V32.272L54.2346 34.352L53.0826 32.432L60.4106 27.088H62.3306V44.752C62.3306 45.328 62.32 45.8827 62.2986 46.416C62.2986 46.9493 62.2773 47.3547 62.2346 47.632C62.576 47.5893 63.0026 47.568 63.5146 47.568C64.048 47.5467 64.4213 47.536 64.6346 47.536V50H55.4506ZM73.8906 50.512C72.504 50.512 71.32 50.288 70.3386 49.84C69.3573 49.392 68.6 48.8373 68.0666 48.176C67.5546 47.4933 67.2986 46.8107 67.2986 46.128C67.2986 45.5093 67.4906 44.9547 67.8746 44.464C68.2586 43.9733 68.7813 43.7173 69.4426 43.696C69.976 43.6747 70.392 43.7813 70.6906 44.016C70.9893 44.2293 71.2026 44.496 71.3306 44.816C71.4586 45.136 71.5226 45.4453 71.5226 45.744C71.5226 45.9147 71.4906 46.128 71.4266 46.384C71.384 46.6187 71.2986 46.8427 71.1706 47.056C71.2773 47.2907 71.4693 47.504 71.7466 47.696C72.024 47.8667 72.3333 48.0053 72.6746 48.112C73.0373 48.1973 73.368 48.24 73.6666 48.24C74.52 48.24 75.2026 48.016 75.7146 47.568C76.248 47.12 76.632 46.544 76.8666 45.84C77.1013 45.136 77.2186 44.4213 77.2186 43.696C77.2186 43.2053 77.1866 42.6507 77.1226 42.032C77.0586 41.4133 76.8986 40.8053 76.6426 40.208C76.408 39.6107 76.024 39.12 75.4906 38.736C74.9786 38.352 74.2746 38.16 73.3786 38.16C73.08 38.16 72.728 38.2027 72.3226 38.288C71.9173 38.352 71.4693 38.4693 70.9786 38.64C70.5093 38.8107 70.0293 39.0453 69.5386 39.344L68.1626 38.288L68.0346 27.6H76.3226C77.0693 27.6 77.656 27.4827 78.0826 27.248C78.5306 26.992 78.7546 26.416 78.7546 25.52H80.7706L80.5466 30.704L70.4986 30.896V36.592C70.9893 36.3787 71.5973 36.1973 72.3226 36.048C73.048 35.8987 73.7306 35.824 74.3706 35.824C75.6933 35.824 76.8453 36.016 77.8266 36.4C78.808 36.784 79.6186 37.3173 80.2586 38C80.8986 38.6613 81.368 39.4293 81.6666 40.304C81.9866 41.1573 82.1466 42.064 82.1466 43.024C82.1466 44.6667 81.7413 46.0533 80.9306 47.184C80.1413 48.2933 79.1173 49.1253 77.8586 49.68C76.6 50.2347 75.2773 50.512 73.8906 50.512ZM91.3319 50.512C89.9239 50.512 88.7932 50.3093 87.9399 49.904C87.0865 49.4987 86.4572 48.976 86.0519 48.336C85.6679 47.696 85.4759 47.024 85.4759 46.32C85.4759 45.744 85.6572 45.2107 86.0199 44.72C86.4039 44.208 86.9265 43.952 87.5879 43.952C88.3985 43.952 88.9425 44.1867 89.2199 44.656C89.4972 45.104 89.6359 45.5413 89.6359 45.968C89.6359 46.1387 89.5932 46.3733 89.5079 46.672C89.4439 46.9493 89.3372 47.1733 89.1879 47.344C89.3585 47.6 89.6252 47.824 89.9879 48.016C90.3719 48.1867 90.8305 48.2613 91.3639 48.24C91.9825 48.1973 92.5265 48.0267 92.9959 47.728C93.4652 47.408 93.8599 46.9813 94.1799 46.448C94.5212 45.9147 94.7879 45.3067 94.9799 44.624C95.1932 43.9413 95.3319 43.216 95.3959 42.448C95.4812 41.6587 95.5025 40.8587 95.4599 40.048C95.1185 40.4533 94.5639 40.848 93.7959 41.232C93.0279 41.616 92.2385 41.8293 91.4279 41.872C90.2545 41.8933 89.2305 41.7333 88.3559 41.392C87.5025 41.0293 86.7879 40.5067 86.2119 39.824C85.6572 39.1413 85.2412 38.3413 84.9639 37.424C84.6865 36.5067 84.5479 35.504 84.5479 34.416C84.5479 32.9867 84.8679 31.728 85.5079 30.64C86.1692 29.5307 87.0759 28.6667 88.2279 28.048C89.4012 27.408 90.7452 27.088 92.2599 27.088C93.6892 27.088 94.8945 27.3547 95.8759 27.888C96.8785 28.4213 97.6892 29.1787 98.3079 30.16C98.9265 31.12 99.3745 32.2613 99.6519 33.584C99.9505 34.9067 100.1 36.3467 100.1 37.904C100.1 38.864 100.025 39.9093 99.8759 41.04C99.7479 42.1707 99.5025 43.2907 99.1399 44.4C98.7985 45.5093 98.2972 46.5333 97.6359 47.472C96.9959 48.3893 96.1532 49.1253 95.1079 49.68C94.0839 50.2347 92.8252 50.512 91.3319 50.512ZM92.3239 39.312C92.7719 39.312 93.1985 39.216 93.6039 39.024C94.0092 38.832 94.3719 38.576 94.6919 38.256C95.0119 37.936 95.2679 37.584 95.4599 37.2C95.4599 36.176 95.4065 35.1947 95.2999 34.256C95.1932 33.3173 95.0119 32.4747 94.7559 31.728C94.5212 30.9813 94.1905 30.3947 93.7639 29.968C93.3585 29.5413 92.8465 29.328 92.2279 29.328C91.5879 29.328 91.0545 29.5413 90.6279 29.968C90.2012 30.3733 89.8812 30.9067 89.6679 31.568C89.4759 32.2293 89.3799 32.9333 89.3799 33.68C89.3799 34.1493 89.4119 34.704 89.4759 35.344C89.5399 35.984 89.6679 36.6133 89.8599 37.232C90.0519 37.8293 90.3399 38.3307 90.7239 38.736C91.1292 39.12 91.6625 39.312 92.3239 39.312ZM114.921 44.752C114.921 45.328 114.911 45.8827 114.889 46.416C114.868 46.9493 114.836 47.3547 114.793 47.632C115.156 47.5893 115.593 47.568 116.105 47.568C116.617 47.5467 116.98 47.536 117.193 47.536V50H108.073V47.888H108.265C108.756 47.888 109.172 47.8347 109.513 47.728C109.876 47.6213 110.153 47.376 110.345 46.992C110.559 46.5867 110.665 45.9573 110.665 45.104V44.208H101.993V41.2L112.969 27.088H114.921V41.328H118.057V44.208H114.921V44.752ZM110.633 33.808L104.969 41.232L110.665 41.264L110.697 33.808H110.633Z" fill="#54080E"/>
</g>
<path d="M131.5 36L147.5 38L131.5 40V36Z" fill="#54080E"/>
</g>
<rect x="4.5" y="2.5" width="163" height="71" rx="4.5" stroke="#E7E5E4" shape-rendering="crispEdges"/>
</g>
<defs>
<filter id="filter0_d_9779_92525" x="0" y="0" width="172" height="80" filterUnits="userSpaceOnUse" color-interpolation-filters="sRGB">
<feFlood flood-opacity="0" result="BackgroundImageFix"/>
<feColorMatrix in="SourceAlpha" type="matrix" values="0 0 0 0 0 0 0 0 0 0 0 0 0 0 0 0 0 0 127 0" result="hardAlpha"/>
<feOffset dy="2"/>
<feGaussianBlur stdDeviation="2"/>
<feComposite in2="hardAlpha" operator="out"/>
<feColorMatrix type="matrix" values="0 0 0 0 0.109804 0 0 0 0 0.0980392 0 0 0 0 0.0901961 0 0 0 0.08 0"/>
<feBlend mode="normal" in2="BackgroundImageFix" result="effect1_dropShadow_9779_92525"/>
<feBlend mode="normal" in="SourceGraphic" in2="effect1_dropShadow_9779_92525" result="shape"/>
</filter>
<filter id="filter1_d_9779_92525" x="53.082" y="25.52" width="66.9766" height="26.9922" filterUnits="userSpaceOnUse" color-interpolation-filters="sRGB">
<feFlood flood-opacity="0" result="BackgroundImageFix"/>
<feColorMatrix in="SourceAlpha" type="matrix" values="0 0 0 0 0 0 0 0 0 0 0 0 0 0 0 0 0 0 127 0" result="hardAlpha"/>
<feOffset dx="2" dy="2"/>
<feComposite in2="hardAlpha" operator="out"/>
<feColorMatrix type="matrix" values="0 0 0 0 1 0 0 0 0 1 0 0 0 0 1 0 0 0 1 0"/>
<feBlend mode="normal" in2="BackgroundImageFix" result="effect1_dropShadow_9779_92525"/>
<feBlend mode="normal" in="SourceGraphic" in2="effect1_dropShadow_9779_92525" result="shape"/>
</filter>
<clipPath id="clip0_9779_92525">
<rect x="4" y="2" width="164" height="72" rx="5" fill="white"/>
</clipPath>
</defs>
</svg>
