<svg width="172" height="80" viewBox="0 0 172 80" fill="none" xmlns="http://www.w3.org/2000/svg">
<g filter="url(#filter0_d_9779_92534)">
<g clip-path="url(#clip0_9779_92534)">
<mask id="mask0_9779_92534" style="mask-type:luminance" maskUnits="userSpaceOnUse" x="4" y="2" width="164" height="72">
<path d="M163 2H9C6.23858 2 4 4.23858 4 7V69C4 71.7614 6.23858 74 9 74H163C165.761 74 168 71.7614 168 69V7C168 4.23858 165.761 2 163 2Z" fill="white"/>
</mask>
<g mask="url(#mask0_9779_92534)">
<path d="M168 2H4V74H168V2Z" fill="white"/>
<path d="M10 32H4V38L10 32Z" fill="#E3C5C8"/>
<path d="M10 38H4V44L10 38Z" fill="#E3C5C8"/>
<path d="M10 14H4V20L10 14Z" fill="#E3C5C8"/>
<path d="M10 26H4V32L10 26Z" fill="#E3C5C8"/>
<path d="M10 20H4V26L10 20Z" fill="#E3C5C8"/>
<path d="M10 44H4V50L10 44Z" fill="#E3C5C8"/>
<path d="M4 2V8L10 2H4Z" fill="#E3C5C8"/>
<path d="M10 68H4V74L10 68Z" fill="#E3C5C8"/>
<path d="M4 8V14L10 8H4Z" fill="#E3C5C8"/>
<path d="M10 56H4V62L10 56Z" fill="#E3C5C8"/>
<path d="M10 62H4V68L10 62Z" fill="#E3C5C8"/>
<path d="M10 50H4V56L10 50Z" fill="#E3C5C8"/>
<path d="M162 44H168V38L162 44Z" fill="#E3C5C8"/>
<path d="M162 38H168V32L162 38Z" fill="#E3C5C8"/>
<path d="M162 62H168V56L162 62Z" fill="#E3C5C8"/>
<path d="M162 50H168V44L162 50Z" fill="#E3C5C8"/>
<path d="M162 56H168V50L162 56Z" fill="#E3C5C8"/>
<path d="M162 32H168V26L162 32Z" fill="#E3C5C8"/>
<path d="M168 74V68L162 74H168Z" fill="#E3C5C8"/>
<path d="M162 8H168V2L162 8Z" fill="#E3C5C8"/>
<path d="M168 68V62L162 68H168Z" fill="#E3C5C8"/>
<path d="M162 20H168V14L162 20Z" fill="#E3C5C8"/>
<path d="M162 14H168V8L162 14Z" fill="#E3C5C8"/>
<path d="M162 26H168V20L162 26Z" fill="#E3C5C8"/>
<path fill-rule="evenodd" clip-rule="evenodd" d="M72.01 23.54L85.55 10V37.08L72.01 23.54ZM86.36 16.68H106.74L86.36 37.06V16.68ZM114 37.64H86.93L100.47 24.11L114.01 37.64H114ZM58 38.43H84.98L71.49 51.92L58 38.43ZM65.27 59.29H85.55V39.01L65.27 59.29ZM64.65 37.64V17.31L84.98 37.64H64.65ZM86.36 66L99.85 52.51L86.36 39.02V66ZM107.25 38.46V58.78L86.93 38.46H107.25Z" fill="#F6ECED"/>
</g>
<path d="M40 40L24 38L40 36L40 40Z" fill="#54080E"/>
<g filter="url(#filter1_d_9779_92534)">
<path d="M53.2949 50C53.2949 48.8907 53.4335 47.8987 53.7109 47.024C54.0095 46.1493 54.3935 45.36 54.8629 44.656C55.3535 43.952 55.8869 43.3013 56.4629 42.704C57.0602 42.1067 57.6682 41.52 58.2869 40.944C59.8442 39.4933 60.9429 38.1813 61.5829 37.008C62.2442 35.8347 62.5749 34.672 62.5749 33.52C62.5749 32.8373 62.4895 32.176 62.3189 31.536C62.1482 30.896 61.8389 30.3733 61.3909 29.968C60.9429 29.5413 60.3135 29.3387 59.5029 29.36C58.9269 29.36 58.4042 29.4987 57.9349 29.776C57.4869 30.032 57.1455 30.3413 56.9109 30.704C57.1455 30.9387 57.3055 31.216 57.3909 31.536C57.4975 31.856 57.5509 32.1333 57.5509 32.368C57.5509 32.6027 57.4762 32.8907 57.3269 33.232C57.1775 33.552 56.9429 33.8293 56.6229 34.064C56.3242 34.2987 55.9082 34.416 55.3749 34.416C54.7135 34.3733 54.2015 34.128 53.8389 33.68C53.4975 33.232 53.3269 32.6987 53.3269 32.08C53.3269 31.5893 53.4762 31.0667 53.7749 30.512C54.0735 29.936 54.5215 29.392 55.1189 28.88C55.7162 28.3467 56.4415 27.92 57.2949 27.6C58.1695 27.2587 59.1722 27.088 60.3029 27.088C61.1562 27.088 61.9989 27.1947 62.8309 27.408C63.6842 27.6213 64.4629 27.9627 65.1669 28.432C65.8709 28.9013 66.4255 29.52 66.8309 30.288C67.2575 31.056 67.4709 32.0053 67.4709 33.136C67.4709 33.6693 67.3749 34.2347 67.1829 34.832C66.9909 35.408 66.6389 36.048 66.1269 36.752C65.6149 37.4347 64.9002 38.224 63.9829 39.12C63.0655 40.016 61.8815 41.0613 60.4309 42.256C59.2575 43.216 58.3935 44.0907 57.8389 44.88C57.2842 45.6693 56.9535 46.2773 56.8469 46.704L63.1189 46.864C63.6095 46.8853 64.0255 46.8533 64.3669 46.768C64.7295 46.6613 65.0069 46.4587 65.1989 46.16C65.4122 45.84 65.5189 45.3813 65.5189 44.784H67.5669L67.3109 50H53.2949ZM79.2854 50.512C77.664 50.512 76.288 50.1707 75.1574 49.488C74.0267 48.784 73.12 47.8667 72.4374 46.736C71.7547 45.584 71.2534 44.3253 70.9334 42.96C70.6347 41.5947 70.4854 40.24 70.4854 38.896C70.4854 37.552 70.6667 36.1867 71.0294 34.8C71.4134 33.4133 71.9787 32.144 72.7254 30.992C73.472 29.8187 74.4 28.88 75.5094 28.176C76.6187 27.4507 77.92 27.088 79.4134 27.088C80.9707 27.088 82.2934 27.44 83.3814 28.144C84.4907 28.848 85.3867 29.776 86.0694 30.928C86.752 32.0587 87.2534 33.3067 87.5734 34.672C87.8934 36.0373 88.0534 37.392 88.0534 38.736C88.0534 40.0587 87.872 41.4133 87.5094 42.8C87.168 44.1867 86.6347 45.4667 85.9094 46.64C85.184 47.792 84.2667 48.7307 83.1574 49.456C82.0694 50.16 80.7787 50.512 79.2854 50.512ZM79.4774 48.24C80.224 48.24 80.8427 48.0053 81.3334 47.536C81.824 47.0667 82.1974 46.4267 82.4534 45.616C82.7307 44.784 82.9227 43.8347 83.0294 42.768C83.136 41.7013 83.1894 40.5813 83.1894 39.408C83.1894 38.1067 83.136 36.8587 83.0294 35.664C82.944 34.448 82.7627 33.3707 82.4854 32.432C82.2294 31.472 81.8454 30.7147 81.3334 30.16C80.8427 29.6053 80.1814 29.328 79.3494 29.328C78.5814 29.328 77.9414 29.5627 77.4294 30.032C76.9174 30.5013 76.5014 31.152 76.1814 31.984C75.8827 32.816 75.6694 33.7653 75.5414 34.832C75.4134 35.8987 75.3494 37.0293 75.3494 38.224C75.3494 39.12 75.3707 40.0373 75.4134 40.976C75.4774 41.9147 75.584 42.8213 75.7334 43.696C75.904 44.5493 76.1387 45.3173 76.4374 46C76.736 46.6827 77.1307 47.2267 77.6214 47.632C78.1334 48.0373 78.752 48.24 79.4774 48.24ZM102.765 44.752C102.765 45.328 102.754 45.8827 102.733 46.416C102.712 46.9493 102.68 47.3547 102.637 47.632C103 47.5893 103.437 47.568 103.949 47.568C104.461 47.5467 104.824 47.536 105.037 47.536V50H95.9171V47.888H96.1091C96.5998 47.888 97.0158 47.8347 97.3571 47.728C97.7198 47.6213 97.9971 47.376 98.1891 46.992C98.4025 46.5867 98.5091 45.9573 98.5091 45.104V44.208H89.8371V41.2L100.813 27.088H102.765V41.328H105.901V44.208H102.765V44.752ZM98.4771 33.808L92.8131 41.232L98.5091 41.264L98.5411 33.808H98.4771ZM109.513 50V47.888C110.004 47.8667 110.409 47.8027 110.729 47.696C111.07 47.5893 111.326 47.344 111.497 46.96C111.689 46.576 111.785 45.9573 111.785 45.104V32.272L108.297 34.352L107.145 32.432L114.473 27.088H116.393V44.752C116.393 45.328 116.382 45.8827 116.361 46.416C116.361 46.9493 116.34 47.3547 116.297 47.632C116.638 47.5893 117.065 47.568 117.577 47.568C118.11 47.5467 118.484 47.536 118.697 47.536V50H109.513Z" fill="#54080E"/>
</g>
<path d="M132 36L148 38L132 40V36Z" fill="#54080E"/>
</g>
<rect x="4.5" y="2.5" width="163" height="71" rx="4.5" stroke="#E7E5E4" shape-rendering="crispEdges"/>
</g>
<defs>
<filter id="filter0_d_9779_92534" x="0" y="0" width="172" height="80" filterUnits="userSpaceOnUse" color-interpolation-filters="sRGB">
<feFlood flood-opacity="0" result="BackgroundImageFix"/>
<feColorMatrix in="SourceAlpha" type="matrix" values="0 0 0 0 0 0 0 0 0 0 0 0 0 0 0 0 0 0 127 0" result="hardAlpha"/>
<feOffset dy="2"/>
<feGaussianBlur stdDeviation="2"/>
<feComposite in2="hardAlpha" operator="out"/>
<feColorMatrix type="matrix" values="0 0 0 0 0.109804 0 0 0 0 0.0980392 0 0 0 0 0.0901961 0 0 0 0.08 0"/>
<feBlend mode="normal" in2="BackgroundImageFix" result="effect1_dropShadow_9779_92534"/>
<feBlend mode="normal" in="SourceGraphic" in2="effect1_dropShadow_9779_92534" result="shape"/>
</filter>
<filter id="filter1_d_9779_92534" x="53.293" y="27.0879" width="67.4023" height="25.4243" filterUnits="userSpaceOnUse" color-interpolation-filters="sRGB">
<feFlood flood-opacity="0" result="BackgroundImageFix"/>
<feColorMatrix in="SourceAlpha" type="matrix" values="0 0 0 0 0 0 0 0 0 0 0 0 0 0 0 0 0 0 127 0" result="hardAlpha"/>
<feOffset dx="2" dy="2"/>
<feComposite in2="hardAlpha" operator="out"/>
<feColorMatrix type="matrix" values="0 0 0 0 1 0 0 0 0 1 0 0 0 0 1 0 0 0 1 0"/>
<feBlend mode="normal" in2="BackgroundImageFix" result="effect1_dropShadow_9779_92534"/>
<feBlend mode="normal" in="SourceGraphic" in2="effect1_dropShadow_9779_92534" result="shape"/>
</filter>
<clipPath id="clip0_9779_92534">
<rect x="4" y="2" width="164" height="72" rx="5" fill="white"/>
</clipPath>
</defs>
</svg>
