<svg width="172" height="80" viewBox="0 0 172 80" fill="none" xmlns="http://www.w3.org/2000/svg">
<g filter="url(#filter0_d_9779_92530)">
<g clip-path="url(#clip0_9779_92530)">
<mask id="mask0_9779_92530" style="mask-type:luminance" maskUnits="userSpaceOnUse" x="4" y="2" width="164" height="72">
<path d="M163 2H9C6.23858 2 4 4.23858 4 7V69C4 71.7614 6.23858 74 9 74H163C165.761 74 168 71.7614 168 69V7C168 4.23858 165.761 2 163 2Z" fill="white"/>
</mask>
<g mask="url(#mask0_9779_92530)">
<path d="M168 2H4V74H168V2Z" fill="white"/>
<path d="M10 32H4V38L10 32Z" fill="#E3C5C8"/>
<path d="M10 38H4V44L10 38Z" fill="#E3C5C8"/>
<path d="M10 14H4V20L10 14Z" fill="#E3C5C8"/>
<path d="M10 26H4V32L10 26Z" fill="#E3C5C8"/>
<path d="M10 20H4V26L10 20Z" fill="#E3C5C8"/>
<path d="M10 44H4V50L10 44Z" fill="#E3C5C8"/>
<path d="M4 2V8L10 2H4Z" fill="#E3C5C8"/>
<path d="M10 68H4V74L10 68Z" fill="#E3C5C8"/>
<path d="M4 8V14L10 8H4Z" fill="#E3C5C8"/>
<path d="M10 56H4V62L10 56Z" fill="#E3C5C8"/>
<path d="M10 62H4V68L10 62Z" fill="#E3C5C8"/>
<path d="M10 50H4V56L10 50Z" fill="#E3C5C8"/>
<path d="M162 44H168V38L162 44Z" fill="#E3C5C8"/>
<path d="M162 38H168V32L162 38Z" fill="#E3C5C8"/>
<path d="M162 62H168V56L162 62Z" fill="#E3C5C8"/>
<path d="M162 50H168V44L162 50Z" fill="#E3C5C8"/>
<path d="M162 56H168V50L162 56Z" fill="#E3C5C8"/>
<path d="M162 32H168V26L162 32Z" fill="#E3C5C8"/>
<path d="M168 74V68L162 74H168Z" fill="#E3C5C8"/>
<path d="M162 8H168V2L162 8Z" fill="#E3C5C8"/>
<path d="M168 68V62L162 68H168Z" fill="#E3C5C8"/>
<path d="M162 20H168V14L162 20Z" fill="#E3C5C8"/>
<path d="M162 14H168V8L162 14Z" fill="#E3C5C8"/>
<path d="M162 26H168V20L162 26Z" fill="#E3C5C8"/>
<path fill-rule="evenodd" clip-rule="evenodd" d="M72.01 23.54L85.55 10V37.08L72.01 23.54ZM86.36 16.68H106.74L86.36 37.06V16.68ZM114 37.64H86.93L100.47 24.11L114.01 37.64H114ZM58 38.43H84.98L71.49 51.92L58 38.43ZM65.27 59.29H85.55V39.01L65.27 59.29ZM64.65 37.64V17.31L84.98 37.64H64.65ZM86.36 66L99.85 52.51L86.36 39.02V66ZM107.25 38.46V58.78L86.93 38.46H107.25Z" fill="#F6ECED"/>
</g>
<path d="M42 40L26 38L42 36L42 40Z" fill="#54080E"/>
<g filter="url(#filter1_d_9779_92530)">
<path d="M56.8725 50V47.888C57.3632 47.8667 57.7685 47.8027 58.0885 47.696C58.4298 47.5893 58.6858 47.344 58.8565 46.96C59.0485 46.576 59.1445 45.9573 59.1445 45.104V32.272L55.6565 34.352L54.5045 32.432L61.8325 27.088H63.7525V44.752C63.7525 45.328 63.7418 45.8827 63.7205 46.416C63.7205 46.9493 63.6992 47.3547 63.6565 47.632C63.9978 47.5893 64.4245 47.568 64.9365 47.568C65.4698 47.5467 65.8432 47.536 66.0565 47.536V50H56.8725ZM76.3685 50.512C75.6005 50.512 74.7898 50.416 73.9365 50.224C73.1045 50.032 72.3152 49.7227 71.5685 49.296C70.8432 48.8693 70.2458 48.304 69.7765 47.6C69.3285 46.8747 69.1045 45.9893 69.1045 44.944C69.1045 44.1333 69.3072 43.3547 69.7125 42.608C70.1392 41.8613 70.6725 41.1787 71.3125 40.56C71.9525 39.92 72.6245 39.3973 73.3285 38.992C71.9205 38.1173 70.9178 37.1467 70.3205 36.08C69.7445 35.0133 69.4565 34.0533 69.4565 33.2C69.4565 32.1547 69.6698 31.248 70.0965 30.48C70.5445 29.712 71.1312 29.0827 71.8565 28.592C72.5818 28.08 73.3605 27.7067 74.1925 27.472C75.0458 27.216 75.8885 27.088 76.7205 27.088C77.8298 27.088 78.8858 27.3013 79.8885 27.728C80.8912 28.1333 81.7125 28.7413 82.3525 29.552C82.9925 30.3627 83.3125 31.3547 83.3125 32.528C83.3125 33.2533 83.1205 33.9467 82.7365 34.608C82.3525 35.2693 81.8618 35.8667 81.2645 36.4C80.6885 36.9333 80.1018 37.392 79.5045 37.776C80.5925 38.4373 81.4885 39.1307 82.1925 39.856C82.8965 40.5813 83.4192 41.3387 83.7605 42.128C84.1018 42.896 84.2725 43.6853 84.2725 44.496C84.2725 45.8827 83.8992 47.024 83.1525 47.92C82.4272 48.7947 81.4565 49.4453 80.2405 49.872C79.0458 50.2987 77.7552 50.512 76.3685 50.512ZM76.4005 48.272C77.4245 48.2933 78.2245 48.0053 78.8005 47.408C79.3978 46.7893 79.6965 46.0427 79.6965 45.168C79.6965 44.3573 79.3978 43.5253 78.8005 42.672C78.2032 41.7973 77.1152 40.9653 75.5365 40.176C74.6832 40.8373 74.0538 41.5947 73.6485 42.448C73.2645 43.28 73.0512 44.0053 73.0085 44.624C72.9658 45.6267 73.2645 46.48 73.9045 47.184C74.5445 47.888 75.3765 48.2507 76.4005 48.272ZM77.4245 36.464C78.1072 35.952 78.6725 35.344 79.1205 34.64C79.5898 33.9147 79.8352 33.2533 79.8565 32.656C79.8992 31.5893 79.6325 30.768 79.0565 30.192C78.4805 29.616 77.7872 29.328 76.9765 29.328C76.3578 29.328 75.8138 29.4667 75.3445 29.744C74.8965 30 74.5445 30.352 74.2885 30.8C74.0538 31.248 73.9365 31.7493 73.9365 32.304C73.9365 33.136 74.2778 33.9467 74.9605 34.736C75.6645 35.504 76.4858 36.08 77.4245 36.464ZM92.025 50.512C91.3637 50.512 90.8943 50.32 90.617 49.936C90.361 49.552 90.233 49.1253 90.233 48.656C90.233 48.2293 90.329 47.6853 90.521 47.024C90.7343 46.3627 91.001 45.6373 91.321 44.848C91.641 44.0373 91.9717 43.2373 92.313 42.448C92.6757 41.5947 93.0917 40.6133 93.561 39.504C94.0303 38.3947 94.5743 37.1253 95.193 35.696C95.8117 34.2667 96.505 32.6453 97.273 30.832L90.553 30.768C89.8277 30.7467 89.241 30.9067 88.793 31.248C88.345 31.568 88.121 32.1653 88.121 33.04H86.105L86.329 27.6H99.961V30.512C99.2357 31.984 98.6063 33.4133 98.073 34.8C97.561 36.1867 97.0917 37.5733 96.665 38.96C96.2597 40.3467 95.865 41.7867 95.481 43.28C95.1183 44.7733 94.7237 46.3733 94.297 48.08C94.1477 48.6773 93.881 49.2427 93.497 49.776C93.1343 50.288 92.6437 50.5333 92.025 50.512ZM101.873 50C101.873 48.8907 102.012 47.8987 102.289 47.024C102.588 46.1493 102.972 45.36 103.441 44.656C103.932 43.952 104.465 43.3013 105.041 42.704C105.638 42.1067 106.246 41.52 106.865 40.944C108.422 39.4933 109.521 38.1813 110.161 37.008C110.822 35.8347 111.153 34.672 111.153 33.52C111.153 32.8373 111.068 32.176 110.897 31.536C110.726 30.896 110.417 30.3733 109.969 29.968C109.521 29.5413 108.892 29.3387 108.081 29.36C107.505 29.36 106.982 29.4987 106.513 29.776C106.065 30.032 105.724 30.3413 105.489 30.704C105.724 30.9387 105.884 31.216 105.969 31.536C106.076 31.856 106.129 32.1333 106.129 32.368C106.129 32.6027 106.054 32.8907 105.905 33.232C105.756 33.552 105.521 33.8293 105.201 34.064C104.902 34.2987 104.486 34.416 103.953 34.416C103.292 34.3733 102.78 34.128 102.417 33.68C102.076 33.232 101.905 32.6987 101.905 32.08C101.905 31.5893 102.054 31.0667 102.353 30.512C102.652 29.936 103.1 29.392 103.697 28.88C104.294 28.3467 105.02 27.92 105.873 27.6C106.748 27.2587 107.75 27.088 108.881 27.088C109.734 27.088 110.577 27.1947 111.409 27.408C112.262 27.6213 113.041 27.9627 113.745 28.432C114.449 28.9013 115.004 29.52 115.409 30.288C115.836 31.056 116.049 32.0053 116.049 33.136C116.049 33.6693 115.953 34.2347 115.761 34.832C115.569 35.408 115.217 36.048 114.705 36.752C114.193 37.4347 113.478 38.224 112.561 39.12C111.644 40.016 110.46 41.0613 109.009 42.256C107.836 43.216 106.972 44.0907 106.417 44.88C105.862 45.6693 105.532 46.2773 105.425 46.704L111.697 46.864C112.188 46.8853 112.604 46.8533 112.945 46.768C113.308 46.6613 113.585 46.4587 113.777 46.16C113.99 45.84 114.097 45.3813 114.097 44.784H116.145L115.889 50H101.873Z" fill="#54080E"/>
</g>
<path d="M130 36L146 38L130 40V36Z" fill="#54080E"/>
</g>
<rect x="4.5" y="2.5" width="163" height="71" rx="4.5" stroke="#E7E5E4" shape-rendering="crispEdges"/>
</g>
<defs>
<filter id="filter0_d_9779_92530" x="0" y="0" width="172" height="80" filterUnits="userSpaceOnUse" color-interpolation-filters="sRGB">
<feFlood flood-opacity="0" result="BackgroundImageFix"/>
<feColorMatrix in="SourceAlpha" type="matrix" values="0 0 0 0 0 0 0 0 0 0 0 0 0 0 0 0 0 0 127 0" result="hardAlpha"/>
<feOffset dy="2"/>
<feGaussianBlur stdDeviation="2"/>
<feComposite in2="hardAlpha" operator="out"/>
<feColorMatrix type="matrix" values="0 0 0 0 0.109804 0 0 0 0 0.0980392 0 0 0 0 0.0901961 0 0 0 0.08 0"/>
<feBlend mode="normal" in2="BackgroundImageFix" result="effect1_dropShadow_9779_92530"/>
<feBlend mode="normal" in="SourceGraphic" in2="effect1_dropShadow_9779_92530" result="shape"/>
</filter>
<filter id="filter1_d_9779_92530" x="54.5039" y="27.0879" width="63.6406" height="25.4561" filterUnits="userSpaceOnUse" color-interpolation-filters="sRGB">
<feFlood flood-opacity="0" result="BackgroundImageFix"/>
<feColorMatrix in="SourceAlpha" type="matrix" values="0 0 0 0 0 0 0 0 0 0 0 0 0 0 0 0 0 0 127 0" result="hardAlpha"/>
<feOffset dx="2" dy="2"/>
<feComposite in2="hardAlpha" operator="out"/>
<feColorMatrix type="matrix" values="0 0 0 0 1 0 0 0 0 1 0 0 0 0 1 0 0 0 1 0"/>
<feBlend mode="normal" in2="BackgroundImageFix" result="effect1_dropShadow_9779_92530"/>
<feBlend mode="normal" in="SourceGraphic" in2="effect1_dropShadow_9779_92530" result="shape"/>
</filter>
<clipPath id="clip0_9779_92530">
<rect x="4" y="2" width="164" height="72" rx="5" fill="white"/>
</clipPath>
</defs>
</svg>
