<svg width="172" height="80" viewBox="0 0 172 80" fill="none" xmlns="http://www.w3.org/2000/svg">
<g filter="url(#filter0_d_9779_92521)">
<g clip-path="url(#clip0_9779_92521)">
<mask id="mask0_9779_92521" style="mask-type:luminance" maskUnits="userSpaceOnUse" x="4" y="2" width="164" height="72">
<path d="M163 2H9C6.23858 2 4 4.23858 4 7V69C4 71.7614 6.23858 74 9 74H163C165.761 74 168 71.7614 168 69V7C168 4.23858 165.761 2 163 2Z" fill="white"/>
</mask>
<g mask="url(#mask0_9779_92521)">
<path d="M168 2H4V74H168V2Z" fill="white"/>
<path d="M10 32H4V38L10 32Z" fill="#E3C5C8"/>
<path d="M10 38H4V44L10 38Z" fill="#E3C5C8"/>
<path d="M10 14H4V20L10 14Z" fill="#E3C5C8"/>
<path d="M10 26H4V32L10 26Z" fill="#E3C5C8"/>
<path d="M10 20H4V26L10 20Z" fill="#E3C5C8"/>
<path d="M10 44H4V50L10 44Z" fill="#E3C5C8"/>
<path d="M4 2V8L10 2H4Z" fill="#E3C5C8"/>
<path d="M10 68H4V74L10 68Z" fill="#E3C5C8"/>
<path d="M4 8V14L10 8H4Z" fill="#E3C5C8"/>
<path d="M10 56H4V62L10 56Z" fill="#E3C5C8"/>
<path d="M10 62H4V68L10 62Z" fill="#E3C5C8"/>
<path d="M10 50H4V56L10 50Z" fill="#E3C5C8"/>
<path d="M162 44H168V38L162 44Z" fill="#E3C5C8"/>
<path d="M162 38H168V32L162 38Z" fill="#E3C5C8"/>
<path d="M162 62H168V56L162 62Z" fill="#E3C5C8"/>
<path d="M162 50H168V44L162 50Z" fill="#E3C5C8"/>
<path d="M162 56H168V50L162 56Z" fill="#E3C5C8"/>
<path d="M162 32H168V26L162 32Z" fill="#E3C5C8"/>
<path d="M168 74V68L162 74H168Z" fill="#E3C5C8"/>
<path d="M162 8H168V2L162 8Z" fill="#E3C5C8"/>
<path d="M168 68V62L162 68H168Z" fill="#E3C5C8"/>
<path d="M162 20H168V14L162 20Z" fill="#E3C5C8"/>
<path d="M162 14H168V8L162 14Z" fill="#E3C5C8"/>
<path d="M162 26H168V20L162 26Z" fill="#E3C5C8"/>
<path fill-rule="evenodd" clip-rule="evenodd" d="M72.01 23.54L85.55 10V37.08L72.01 23.54ZM86.36 16.68H106.74L86.36 37.06V16.68ZM114 37.64H86.93L100.47 24.11L114.01 37.64H114ZM58 38.43H84.98L71.49 51.92L58 38.43ZM65.27 59.29H85.55V39.01L65.27 59.29ZM64.65 37.64V17.31L84.98 37.64H64.65ZM86.36 66L99.85 52.51L86.36 39.02V66ZM107.25 38.46V58.78L86.93 38.46H107.25Z" fill="#F6ECED"/>
</g>
<path d="M43 40L27 38L43 36L43 40Z" fill="#54080E"/>
<g filter="url(#filter1_d_9779_92521)">
<path d="M57.6069 50V47.888C58.0975 47.8667 58.5029 47.8027 58.8229 47.696C59.1642 47.5893 59.4202 47.344 59.5909 46.96C59.7829 46.576 59.8789 45.9573 59.8789 45.104V32.272L56.3909 34.352L55.2389 32.432L62.5669 27.088H64.4869V44.752C64.4869 45.328 64.4762 45.8827 64.4549 46.416C64.4549 46.9493 64.4335 47.3547 64.3909 47.632C64.7322 47.5893 65.1589 47.568 65.6709 47.568C66.2042 47.5467 66.5775 47.536 66.7909 47.536V50H57.6069ZM81.3589 44.752C81.3589 45.328 81.3482 45.8827 81.3269 46.416C81.3055 46.9493 81.2735 47.3547 81.2309 47.632C81.5935 47.5893 82.0309 47.568 82.5429 47.568C83.0549 47.5467 83.4175 47.536 83.6309 47.536V50H74.5109V47.888H74.7029C75.1935 47.888 75.6095 47.8347 75.9509 47.728C76.3135 47.6213 76.5909 47.376 76.7829 46.992C76.9962 46.5867 77.1029 45.9573 77.1029 45.104V44.208H68.4309V41.2L79.4069 27.088H81.3589V41.328H84.4949V44.208H81.3589V44.752ZM77.0709 33.808L71.4069 41.232L77.1029 41.264L77.1349 33.808H77.0709ZM88.1069 50V47.888C88.5975 47.8667 89.0029 47.8027 89.3229 47.696C89.6642 47.5893 89.9202 47.344 90.0909 46.96C90.2829 46.576 90.3789 45.9573 90.3789 45.104V32.272L86.8909 34.352L85.7389 32.432L93.0669 27.088H94.9869V44.752C94.9869 45.328 94.9762 45.8827 94.9549 46.416C94.9549 46.9493 94.9335 47.3547 94.8909 47.632C95.2322 47.5893 95.6589 47.568 96.1709 47.568C96.7042 47.5467 97.0775 47.536 97.2909 47.536V50H88.1069ZM107.731 50.512C105.832 50.512 104.318 50.0747 103.187 49.2C102.056 48.304 101.246 47.0453 100.755 45.424C100.264 43.8027 100.019 41.8933 100.019 39.696C100.019 38.9493 100.094 38.0427 100.243 36.976C100.392 35.9093 100.648 34.8107 101.011 33.68C101.374 32.528 101.886 31.4507 102.547 30.448C103.208 29.4453 104.051 28.6347 105.075 28.016C106.099 27.3973 107.336 27.088 108.787 27.088C110.131 27.088 111.23 27.312 112.083 27.76C112.958 28.208 113.598 28.7627 114.003 29.424C114.408 30.064 114.611 30.7147 114.611 31.376C114.611 31.952 114.44 32.4747 114.099 32.944C113.758 33.4133 113.256 33.648 112.595 33.648C111.806 33.648 111.251 33.424 110.931 32.976C110.632 32.5067 110.483 32.0587 110.483 31.632C110.483 31.4613 110.515 31.2373 110.579 30.96C110.643 30.6827 110.76 30.4373 110.931 30.224C110.76 29.968 110.483 29.744 110.099 29.552C109.736 29.36 109.288 29.2853 108.755 29.328C108.136 29.3707 107.592 29.5733 107.123 29.936C106.675 30.2773 106.291 30.736 105.971 31.312C105.672 31.8667 105.427 32.496 105.235 33.2C105.064 33.904 104.926 34.6293 104.819 35.376C104.734 36.1227 104.68 36.8373 104.659 37.52C104.894 37.2427 105.224 36.976 105.651 36.72C106.099 36.4427 106.6 36.2187 107.155 36.048C107.71 35.856 108.243 35.7493 108.755 35.728C109.95 35.6853 110.974 35.8453 111.827 36.208C112.68 36.5493 113.384 37.0613 113.939 37.744C114.494 38.4053 114.899 39.1947 115.155 40.112C115.432 41.0293 115.571 42.032 115.571 43.12C115.571 44.464 115.23 45.7013 114.547 46.832C113.886 47.9413 112.958 48.8373 111.763 49.52C110.59 50.1813 109.246 50.512 107.731 50.512ZM107.891 48.272C108.638 48.272 109.214 48.0693 109.619 47.664C110.046 47.2373 110.334 46.6933 110.483 46.032C110.654 45.3493 110.739 44.6453 110.739 43.92C110.739 43.4293 110.707 42.8747 110.643 42.256C110.6 41.616 110.483 40.9973 110.291 40.4C110.099 39.7813 109.811 39.28 109.427 38.896C109.043 38.4907 108.52 38.288 107.859 38.288C107.411 38.288 106.974 38.384 106.547 38.576C106.142 38.768 105.768 39.024 105.427 39.344C105.107 39.664 104.851 40.016 104.659 40.4C104.659 41.1467 104.712 41.968 104.819 42.864C104.926 43.76 105.096 44.624 105.331 45.456C105.587 46.2667 105.918 46.9387 106.323 47.472C106.75 48.0053 107.272 48.272 107.891 48.272Z" fill="#54080E"/>
</g>
<path d="M129 36L145 38L129 40V36Z" fill="#54080E"/>
</g>
<rect x="4.5" y="2.5" width="163" height="71" rx="4.5" stroke="#E7E5E4" shape-rendering="crispEdges"/>
</g>
<defs>
<filter id="filter0_d_9779_92521" x="0" y="0" width="172" height="80" filterUnits="userSpaceOnUse" color-interpolation-filters="sRGB">
<feFlood flood-opacity="0" result="BackgroundImageFix"/>
<feColorMatrix in="SourceAlpha" type="matrix" values="0 0 0 0 0 0 0 0 0 0 0 0 0 0 0 0 0 0 127 0" result="hardAlpha"/>
<feOffset dy="2"/>
<feGaussianBlur stdDeviation="2"/>
<feComposite in2="hardAlpha" operator="out"/>
<feColorMatrix type="matrix" values="0 0 0 0 0.109804 0 0 0 0 0.0980392 0 0 0 0 0.0901961 0 0 0 0.08 0"/>
<feBlend mode="normal" in2="BackgroundImageFix" result="effect1_dropShadow_9779_92521"/>
<feBlend mode="normal" in="SourceGraphic" in2="effect1_dropShadow_9779_92521" result="shape"/>
</filter>
<filter id="filter1_d_9779_92521" x="55.2383" y="27.0879" width="62.332" height="25.4243" filterUnits="userSpaceOnUse" color-interpolation-filters="sRGB">
<feFlood flood-opacity="0" result="BackgroundImageFix"/>
<feColorMatrix in="SourceAlpha" type="matrix" values="0 0 0 0 0 0 0 0 0 0 0 0 0 0 0 0 0 0 127 0" result="hardAlpha"/>
<feOffset dx="2" dy="2"/>
<feComposite in2="hardAlpha" operator="out"/>
<feColorMatrix type="matrix" values="0 0 0 0 1 0 0 0 0 1 0 0 0 0 1 0 0 0 1 0"/>
<feBlend mode="normal" in2="BackgroundImageFix" result="effect1_dropShadow_9779_92521"/>
<feBlend mode="normal" in="SourceGraphic" in2="effect1_dropShadow_9779_92521" result="shape"/>
</filter>
<clipPath id="clip0_9779_92521">
<rect x="4" y="2" width="164" height="72" rx="5" fill="white"/>
</clipPath>
</defs>
</svg>
