<svg width="172" height="80" viewBox="0 0 172 80" fill="none" xmlns="http://www.w3.org/2000/svg">
<g filter="url(#filter0_d_9779_92535)">
<g clip-path="url(#clip0_9779_92535)">
<mask id="mask0_9779_92535" style="mask-type:luminance" maskUnits="userSpaceOnUse" x="4" y="2" width="164" height="72">
<path d="M163 2H9C6.23858 2 4 4.23858 4 7V69C4 71.7614 6.23858 74 9 74H163C165.761 74 168 71.7614 168 69V7C168 4.23858 165.761 2 163 2Z" fill="white"/>
</mask>
<g mask="url(#mask0_9779_92535)">
<path d="M168 2H4V74H168V2Z" fill="white"/>
<path d="M10 32H4V38L10 32Z" fill="#E3C5C8"/>
<path d="M10 38H4V44L10 38Z" fill="#E3C5C8"/>
<path d="M10 14H4V20L10 14Z" fill="#E3C5C8"/>
<path d="M10 26H4V32L10 26Z" fill="#E3C5C8"/>
<path d="M10 20H4V26L10 20Z" fill="#E3C5C8"/>
<path d="M10 44H4V50L10 44Z" fill="#E3C5C8"/>
<path d="M4 2V8L10 2H4Z" fill="#E3C5C8"/>
<path d="M10 68H4V74L10 68Z" fill="#E3C5C8"/>
<path d="M4 8V14L10 8H4Z" fill="#E3C5C8"/>
<path d="M10 56H4V62L10 56Z" fill="#E3C5C8"/>
<path d="M10 62H4V68L10 62Z" fill="#E3C5C8"/>
<path d="M10 50H4V56L10 50Z" fill="#E3C5C8"/>
<path d="M162 44H168V38L162 44Z" fill="#E3C5C8"/>
<path d="M162 38H168V32L162 38Z" fill="#E3C5C8"/>
<path d="M162 62H168V56L162 62Z" fill="#E3C5C8"/>
<path d="M162 50H168V44L162 50Z" fill="#E3C5C8"/>
<path d="M162 56H168V50L162 56Z" fill="#E3C5C8"/>
<path d="M162 32H168V26L162 32Z" fill="#E3C5C8"/>
<path d="M168 74V68L162 74H168Z" fill="#E3C5C8"/>
<path d="M162 8H168V2L162 8Z" fill="#E3C5C8"/>
<path d="M168 68V62L162 68H168Z" fill="#E3C5C8"/>
<path d="M162 20H168V14L162 20Z" fill="#E3C5C8"/>
<path d="M162 14H168V8L162 14Z" fill="#E3C5C8"/>
<path d="M162 26H168V20L162 26Z" fill="#E3C5C8"/>
<path fill-rule="evenodd" clip-rule="evenodd" d="M72.01 23.54L85.55 10V37.08L72.01 23.54ZM86.36 16.68H106.74L86.36 37.06V16.68ZM114 37.64H86.93L100.47 24.11L114.01 37.64H114ZM58 38.43H84.98L71.49 51.92L58 38.43ZM65.27 59.29H85.55V39.01L65.27 59.29ZM64.65 37.64V17.31L84.98 37.64H64.65ZM86.36 66L99.85 52.51L86.36 39.02V66ZM107.25 38.46V58.78L86.93 38.46H107.25Z" fill="#F6ECED"/>
</g>
<path d="M37.5 40L21.5 38L37.5 36L37.5 40Z" fill="#54080E"/>
<g filter="url(#filter1_d_9779_92535)">
<path d="M50.9511 50C50.9511 48.8907 51.0898 47.8987 51.3671 47.024C51.6658 46.1493 52.0498 45.36 52.5191 44.656C53.0098 43.952 53.5431 43.3013 54.1191 42.704C54.7165 42.1067 55.3245 41.52 55.9431 40.944C57.5005 39.4933 58.5991 38.1813 59.2391 37.008C59.9005 35.8347 60.2311 34.672 60.2311 33.52C60.2311 32.8373 60.1458 32.176 59.9751 31.536C59.8045 30.896 59.4951 30.3733 59.0471 29.968C58.5991 29.5413 57.9698 29.3387 57.1591 29.36C56.5831 29.36 56.0605 29.4987 55.5911 29.776C55.1431 30.032 54.8018 30.3413 54.5671 30.704C54.8018 30.9387 54.9618 31.216 55.0471 31.536C55.1538 31.856 55.2071 32.1333 55.2071 32.368C55.2071 32.6027 55.1325 32.8907 54.9831 33.232C54.8338 33.552 54.5991 33.8293 54.2791 34.064C53.9805 34.2987 53.5645 34.416 53.0311 34.416C52.3698 34.3733 51.8578 34.128 51.4951 33.68C51.1538 33.232 50.9831 32.6987 50.9831 32.08C50.9831 31.5893 51.1325 31.0667 51.4311 30.512C51.7298 29.936 52.1778 29.392 52.7751 28.88C53.3725 28.3467 54.0978 27.92 54.9511 27.6C55.8258 27.2587 56.8285 27.088 57.9591 27.088C58.8125 27.088 59.6551 27.1947 60.4871 27.408C61.3405 27.6213 62.1191 27.9627 62.8231 28.432C63.5271 28.9013 64.0818 29.52 64.4871 30.288C64.9138 31.056 65.1271 32.0053 65.1271 33.136C65.1271 33.6693 65.0311 34.2347 64.8391 34.832C64.6471 35.408 64.2951 36.048 63.7831 36.752C63.2711 37.4347 62.5565 38.224 61.6391 39.12C60.7218 40.016 59.5378 41.0613 58.0871 42.256C56.9138 43.216 56.0498 44.0907 55.4951 44.88C54.9405 45.6693 54.6098 46.2773 54.5031 46.704L60.7751 46.864C61.2658 46.8853 61.6818 46.8533 62.0231 46.768C62.3858 46.6613 62.6631 46.4587 62.8551 46.16C63.0685 45.84 63.1751 45.3813 63.1751 44.784H65.2231L64.9671 50H50.9511ZM76.9416 50.512C75.3203 50.512 73.9443 50.1707 72.8136 49.488C71.683 48.784 70.7763 47.8667 70.0936 46.736C69.411 45.584 68.9096 44.3253 68.5896 42.96C68.291 41.5947 68.1416 40.24 68.1416 38.896C68.1416 37.552 68.323 36.1867 68.6856 34.8C69.0696 33.4133 69.635 32.144 70.3816 30.992C71.1283 29.8187 72.0563 28.88 73.1656 28.176C74.275 27.4507 75.5763 27.088 77.0696 27.088C78.627 27.088 79.9496 27.44 81.0376 28.144C82.147 28.848 83.043 29.776 83.7256 30.928C84.4083 32.0587 84.9096 33.3067 85.2296 34.672C85.5496 36.0373 85.7096 37.392 85.7096 38.736C85.7096 40.0587 85.5283 41.4133 85.1656 42.8C84.8243 44.1867 84.291 45.4667 83.5656 46.64C82.8403 47.792 81.923 48.7307 80.8136 49.456C79.7256 50.16 78.435 50.512 76.9416 50.512ZM77.1336 48.24C77.8803 48.24 78.499 48.0053 78.9896 47.536C79.4803 47.0667 79.8536 46.4267 80.1096 45.616C80.387 44.784 80.579 43.8347 80.6856 42.768C80.7923 41.7013 80.8456 40.5813 80.8456 39.408C80.8456 38.1067 80.7923 36.8587 80.6856 35.664C80.6003 34.448 80.419 33.3707 80.1416 32.432C79.8856 31.472 79.5016 30.7147 78.9896 30.16C78.499 29.6053 77.8376 29.328 77.0056 29.328C76.2376 29.328 75.5976 29.5627 75.0856 30.032C74.5736 30.5013 74.1576 31.152 73.8376 31.984C73.539 32.816 73.3256 33.7653 73.1976 34.832C73.0696 35.8987 73.0056 37.0293 73.0056 38.224C73.0056 39.12 73.027 40.0373 73.0696 40.976C73.1336 41.9147 73.2403 42.8213 73.3896 43.696C73.5603 44.5493 73.795 45.3173 74.0936 46C74.3923 46.6827 74.787 47.2267 75.2776 47.632C75.7896 48.0373 76.4083 48.24 77.1336 48.24ZM95.1094 50.512C93.7227 50.512 92.5387 50.288 91.5574 49.84C90.576 49.392 89.8187 48.8373 89.2854 48.176C88.7734 47.4933 88.5174 46.8107 88.5174 46.128C88.5174 45.5093 88.7094 44.9547 89.0934 44.464C89.4774 43.9733 90 43.7173 90.6614 43.696C91.1947 43.6747 91.6107 43.7813 91.9094 44.016C92.208 44.2293 92.4214 44.496 92.5494 44.816C92.6774 45.136 92.7414 45.4453 92.7414 45.744C92.7414 45.9147 92.7094 46.128 92.6454 46.384C92.6027 46.6187 92.5174 46.8427 92.3894 47.056C92.496 47.2907 92.688 47.504 92.9654 47.696C93.2427 47.8667 93.552 48.0053 93.8934 48.112C94.256 48.1973 94.5867 48.24 94.8854 48.24C95.7387 48.24 96.4214 48.016 96.9334 47.568C97.4667 47.12 97.8507 46.544 98.0854 45.84C98.32 45.136 98.4374 44.4213 98.4374 43.696C98.4374 43.2053 98.4054 42.6507 98.3414 42.032C98.2774 41.4133 98.1174 40.8053 97.8614 40.208C97.6267 39.6107 97.2427 39.12 96.7094 38.736C96.1974 38.352 95.4934 38.16 94.5974 38.16C94.2987 38.16 93.9467 38.2027 93.5414 38.288C93.136 38.352 92.688 38.4693 92.1974 38.64C91.728 38.8107 91.248 39.0453 90.7574 39.344L89.3814 38.288L89.2534 27.6H97.5414C98.288 27.6 98.8747 27.4827 99.3014 27.248C99.7494 26.992 99.9734 26.416 99.9734 25.52H101.989L101.765 30.704L91.7174 30.896V36.592C92.208 36.3787 92.816 36.1973 93.5414 36.048C94.2667 35.8987 94.9494 35.824 95.5894 35.824C96.912 35.824 98.064 36.016 99.0454 36.4C100.027 36.784 100.837 37.3173 101.477 38C102.117 38.6613 102.587 39.4293 102.885 40.304C103.205 41.1573 103.365 42.064 103.365 43.024C103.365 44.6667 102.96 46.0533 102.149 47.184C101.36 48.2933 100.336 49.1253 99.0774 49.68C97.8187 50.2347 96.496 50.512 95.1094 50.512ZM112.455 50.512C110.855 50.512 109.543 50.2773 108.519 49.808C107.495 49.3173 106.737 48.7093 106.247 47.984C105.756 47.2587 105.511 46.5333 105.511 45.808C105.511 45.168 105.703 44.6133 106.087 44.144C106.492 43.6533 107.025 43.3973 107.687 43.376C108.22 43.3547 108.636 43.4613 108.935 43.696C109.233 43.9307 109.447 44.208 109.575 44.528C109.703 44.848 109.767 45.1467 109.767 45.424C109.767 45.6373 109.724 45.8827 109.639 46.16C109.553 46.416 109.425 46.6613 109.255 46.896C109.489 47.3013 109.873 47.6213 110.407 47.856C110.961 48.0693 111.537 48.176 112.135 48.176C113.479 48.176 114.492 47.7707 115.175 46.96C115.857 46.1493 116.199 45.1467 116.199 43.952C116.199 43.2267 116.06 42.5013 115.783 41.776C115.505 41.0507 115.025 40.4533 114.343 39.984C113.66 39.4933 112.7 39.2587 111.463 39.28C111.313 39.28 111.047 39.2907 110.663 39.312C110.279 39.3333 109.991 39.3547 109.799 39.376V37.072C109.969 37.0933 110.129 37.104 110.279 37.104C110.428 37.104 110.577 37.104 110.727 37.104C111.665 37.104 112.465 36.9333 113.127 36.592C113.788 36.2507 114.289 35.7813 114.631 35.184C114.993 34.5867 115.185 33.8933 115.207 33.104C115.228 32.3573 115.132 31.7067 114.919 31.152C114.727 30.576 114.407 30.128 113.959 29.808C113.532 29.488 112.956 29.328 112.231 29.328C111.655 29.328 111.132 29.4667 110.663 29.744C110.193 30.0213 109.873 30.3307 109.703 30.672C109.895 30.9067 110.023 31.184 110.087 31.504C110.172 31.8027 110.215 32.048 110.215 32.24C110.215 32.496 110.14 32.7947 109.991 33.136C109.863 33.456 109.639 33.7333 109.319 33.968C108.999 34.2027 108.572 34.3093 108.039 34.288C107.377 34.2667 106.876 34.032 106.535 33.584C106.193 33.136 106.023 32.6027 106.023 31.984C106.023 31.344 106.268 30.64 106.759 29.872C107.249 29.104 107.996 28.4533 108.999 27.92C110.001 27.3653 111.249 27.088 112.743 27.088C114.065 27.088 115.26 27.2693 116.327 27.632C117.415 27.9947 118.268 28.592 118.887 29.424C119.527 30.256 119.847 31.3653 119.847 32.752C119.847 33.3067 119.687 33.936 119.367 34.64C119.068 35.3227 118.567 35.952 117.863 36.528C117.159 37.104 116.22 37.5307 115.047 37.808C117.095 38.1707 118.599 38.9067 119.559 40.016C120.54 41.1253 121.031 42.3627 121.031 43.728C121.031 45.1787 120.657 46.416 119.911 47.44C119.185 48.4427 118.172 49.2107 116.871 49.744C115.591 50.256 114.119 50.512 112.455 50.512Z" fill="#54080E"/>
</g>
<path d="M134.5 36L150.5 38L134.5 40V36Z" fill="#54080E"/>
</g>
<rect x="4.5" y="2.5" width="163" height="71" rx="4.5" stroke="#E7E5E4" shape-rendering="crispEdges"/>
</g>
<defs>
<filter id="filter0_d_9779_92535" x="0" y="0" width="172" height="80" filterUnits="userSpaceOnUse" color-interpolation-filters="sRGB">
<feFlood flood-opacity="0" result="BackgroundImageFix"/>
<feColorMatrix in="SourceAlpha" type="matrix" values="0 0 0 0 0 0 0 0 0 0 0 0 0 0 0 0 0 0 127 0" result="hardAlpha"/>
<feOffset dy="2"/>
<feGaussianBlur stdDeviation="2"/>
<feComposite in2="hardAlpha" operator="out"/>
<feColorMatrix type="matrix" values="0 0 0 0 0.109804 0 0 0 0 0.0980392 0 0 0 0 0.0901961 0 0 0 0.08 0"/>
<feBlend mode="normal" in2="BackgroundImageFix" result="effect1_dropShadow_9779_92535"/>
<feBlend mode="normal" in="SourceGraphic" in2="effect1_dropShadow_9779_92535" result="shape"/>
</filter>
<filter id="filter1_d_9779_92535" x="50.9492" y="25.52" width="72.082" height="26.9922" filterUnits="userSpaceOnUse" color-interpolation-filters="sRGB">
<feFlood flood-opacity="0" result="BackgroundImageFix"/>
<feColorMatrix in="SourceAlpha" type="matrix" values="0 0 0 0 0 0 0 0 0 0 0 0 0 0 0 0 0 0 127 0" result="hardAlpha"/>
<feOffset dx="2" dy="2"/>
<feComposite in2="hardAlpha" operator="out"/>
<feColorMatrix type="matrix" values="0 0 0 0 1 0 0 0 0 1 0 0 0 0 1 0 0 0 1 0"/>
<feBlend mode="normal" in2="BackgroundImageFix" result="effect1_dropShadow_9779_92535"/>
<feBlend mode="normal" in="SourceGraphic" in2="effect1_dropShadow_9779_92535" result="shape"/>
</filter>
<clipPath id="clip0_9779_92535">
<rect x="4" y="2" width="164" height="72" rx="5" fill="white"/>
</clipPath>
</defs>
</svg>
