<svg width="172" height="80" viewBox="0 0 172 80" fill="none" xmlns="http://www.w3.org/2000/svg">
<g filter="url(#filter0_d_9779_92544)">
<g clip-path="url(#clip0_9779_92544)">
<mask id="mask0_9779_92544" style="mask-type:luminance" maskUnits="userSpaceOnUse" x="4" y="2" width="164" height="72">
<path d="M163 2H9C6.23858 2 4 4.23858 4 7V69C4 71.7614 6.23858 74 9 74H163C165.761 74 168 71.7614 168 69V7C168 4.23858 165.761 2 163 2Z" fill="white"/>
</mask>
<g mask="url(#mask0_9779_92544)">
<path d="M168 2H4V74H168V2Z" fill="white"/>
<path d="M10 32H4V38L10 32Z" fill="#E3C5C8"/>
<path d="M10 38H4V44L10 38Z" fill="#E3C5C8"/>
<path d="M10 14H4V20L10 14Z" fill="#E3C5C8"/>
<path d="M10 26H4V32L10 26Z" fill="#E3C5C8"/>
<path d="M10 20H4V26L10 20Z" fill="#E3C5C8"/>
<path d="M10 44H4V50L10 44Z" fill="#E3C5C8"/>
<path d="M4 2V8L10 2H4Z" fill="#E3C5C8"/>
<path d="M10 68H4V74L10 68Z" fill="#E3C5C8"/>
<path d="M4 8V14L10 8H4Z" fill="#E3C5C8"/>
<path d="M10 56H4V62L10 56Z" fill="#E3C5C8"/>
<path d="M10 62H4V68L10 62Z" fill="#E3C5C8"/>
<path d="M10 50H4V56L10 50Z" fill="#E3C5C8"/>
<path d="M162 44H168V38L162 44Z" fill="#E3C5C8"/>
<path d="M162 38H168V32L162 38Z" fill="#E3C5C8"/>
<path d="M162 62H168V56L162 62Z" fill="#E3C5C8"/>
<path d="M162 50H168V44L162 50Z" fill="#E3C5C8"/>
<path d="M162 56H168V50L162 56Z" fill="#E3C5C8"/>
<path d="M162 32H168V26L162 32Z" fill="#E3C5C8"/>
<path d="M168 74V68L162 74H168Z" fill="#E3C5C8"/>
<path d="M162 8H168V2L162 8Z" fill="#E3C5C8"/>
<path d="M168 68V62L162 68H168Z" fill="#E3C5C8"/>
<path d="M162 20H168V14L162 20Z" fill="#E3C5C8"/>
<path d="M162 14H168V8L162 14Z" fill="#E3C5C8"/>
<path d="M162 26H168V20L162 26Z" fill="#E3C5C8"/>
<path fill-rule="evenodd" clip-rule="evenodd" d="M72.01 23.54L85.55 10V37.08L72.01 23.54ZM86.36 16.68H106.74L86.36 37.06V16.68ZM114 37.64H86.93L100.47 24.11L114.01 37.64H114ZM58 38.43H84.98L71.49 51.92L58 38.43ZM65.27 59.29H85.55V39.01L65.27 59.29ZM64.65 37.64V17.31L84.98 37.64H64.65ZM86.36 66L99.85 52.51L86.36 39.02V66ZM107.25 38.46V58.78L86.93 38.46H107.25Z" fill="#F6ECED"/>
</g>
<path d="M40 40L24 38L40 36L40 40Z" fill="#54080E"/>
<g filter="url(#filter1_d_9779_92544)">
<path d="M54.7319 50V47.888C55.2225 47.8667 55.6279 47.8027 55.9479 47.696C56.2892 47.5893 56.5452 47.344 56.7159 46.96C56.9079 46.576 57.0039 45.9573 57.0039 45.104V32.272L53.5159 34.352L52.3639 32.432L59.6919 27.088H61.6119V44.752C61.6119 45.328 61.6012 45.8827 61.5799 46.416C61.5799 46.9493 61.5585 47.3547 61.5159 47.632C61.8572 47.5893 62.2839 47.568 62.7959 47.568C63.3292 47.5467 63.7025 47.536 63.9159 47.536V50H54.7319ZM74.2279 50.512C73.4599 50.512 72.6492 50.416 71.7959 50.224C70.9639 50.032 70.1745 49.7227 69.4279 49.296C68.7025 48.8693 68.1052 48.304 67.6359 47.6C67.1879 46.8747 66.9639 45.9893 66.9639 44.944C66.9639 44.1333 67.1665 43.3547 67.5719 42.608C67.9985 41.8613 68.5319 41.1787 69.1719 40.56C69.8119 39.92 70.4839 39.3973 71.1879 38.992C69.7799 38.1173 68.7772 37.1467 68.1799 36.08C67.6039 35.0133 67.3159 34.0533 67.3159 33.2C67.3159 32.1547 67.5292 31.248 67.9559 30.48C68.4039 29.712 68.9905 29.0827 69.7159 28.592C70.4412 28.08 71.2199 27.7067 72.0519 27.472C72.9052 27.216 73.7479 27.088 74.5799 27.088C75.6892 27.088 76.7452 27.3013 77.7479 27.728C78.7505 28.1333 79.5719 28.7413 80.2119 29.552C80.8519 30.3627 81.1719 31.3547 81.1719 32.528C81.1719 33.2533 80.9799 33.9467 80.5959 34.608C80.2119 35.2693 79.7212 35.8667 79.1239 36.4C78.5479 36.9333 77.9612 37.392 77.3639 37.776C78.4519 38.4373 79.3479 39.1307 80.0519 39.856C80.7559 40.5813 81.2785 41.3387 81.6199 42.128C81.9612 42.896 82.1319 43.6853 82.1319 44.496C82.1319 45.8827 81.7585 47.024 81.0119 47.92C80.2865 48.7947 79.3159 49.4453 78.0999 49.872C76.9052 50.2987 75.6145 50.512 74.2279 50.512ZM74.2599 48.272C75.2839 48.2933 76.0839 48.0053 76.6599 47.408C77.2572 46.7893 77.5559 46.0427 77.5559 45.168C77.5559 44.3573 77.2572 43.5253 76.6599 42.672C76.0625 41.7973 74.9745 40.9653 73.3959 40.176C72.5425 40.8373 71.9132 41.5947 71.5079 42.448C71.1239 43.28 70.9105 44.0053 70.8679 44.624C70.8252 45.6267 71.1239 46.48 71.7639 47.184C72.4039 47.888 73.2359 48.2507 74.2599 48.272ZM75.2839 36.464C75.9665 35.952 76.5319 35.344 76.9799 34.64C77.4492 33.9147 77.6945 33.2533 77.7159 32.656C77.7585 31.5893 77.4919 30.768 76.9159 30.192C76.3399 29.616 75.6465 29.328 74.8359 29.328C74.2172 29.328 73.6732 29.4667 73.2039 29.744C72.7559 30 72.4039 30.352 72.1479 30.8C71.9132 31.248 71.7959 31.7493 71.7959 32.304C71.7959 33.136 72.1372 33.9467 72.8199 34.736C73.5239 35.504 74.3452 36.08 75.2839 36.464ZM91.5484 50.512C89.9484 50.512 88.6364 50.2773 87.6124 49.808C86.5884 49.3173 85.831 48.7093 85.3404 47.984C84.8497 47.2587 84.6044 46.5333 84.6044 45.808C84.6044 45.168 84.7964 44.6133 85.1804 44.144C85.5857 43.6533 86.119 43.3973 86.7804 43.376C87.3137 43.3547 87.7297 43.4613 88.0284 43.696C88.327 43.9307 88.5404 44.208 88.6684 44.528C88.7964 44.848 88.8604 45.1467 88.8604 45.424C88.8604 45.6373 88.8177 45.8827 88.7324 46.16C88.647 46.416 88.519 46.6613 88.3484 46.896C88.583 47.3013 88.967 47.6213 89.5004 47.856C90.055 48.0693 90.631 48.176 91.2284 48.176C92.5724 48.176 93.5857 47.7707 94.2684 46.96C94.951 46.1493 95.2924 45.1467 95.2924 43.952C95.2924 43.2267 95.1537 42.5013 94.8764 41.776C94.599 41.0507 94.119 40.4533 93.4364 39.984C92.7537 39.4933 91.7937 39.2587 90.5564 39.28C90.407 39.28 90.1404 39.2907 89.7564 39.312C89.3724 39.3333 89.0844 39.3547 88.8924 39.376V37.072C89.063 37.0933 89.223 37.104 89.3724 37.104C89.5217 37.104 89.671 37.104 89.8204 37.104C90.759 37.104 91.559 36.9333 92.2204 36.592C92.8817 36.2507 93.383 35.7813 93.7244 35.184C94.087 34.5867 94.279 33.8933 94.3004 33.104C94.3217 32.3573 94.2257 31.7067 94.0124 31.152C93.8204 30.576 93.5004 30.128 93.0524 29.808C92.6257 29.488 92.0497 29.328 91.3244 29.328C90.7484 29.328 90.2257 29.4667 89.7564 29.744C89.287 30.0213 88.967 30.3307 88.7964 30.672C88.9884 30.9067 89.1164 31.184 89.1804 31.504C89.2657 31.8027 89.3084 32.048 89.3084 32.24C89.3084 32.496 89.2337 32.7947 89.0844 33.136C88.9564 33.456 88.7324 33.7333 88.4124 33.968C88.0924 34.2027 87.6657 34.3093 87.1324 34.288C86.471 34.2667 85.9697 34.032 85.6284 33.584C85.287 33.136 85.1164 32.6027 85.1164 31.984C85.1164 31.344 85.3617 30.64 85.8524 29.872C86.343 29.104 87.0897 28.4533 88.0924 27.92C89.095 27.3653 90.343 27.088 91.8364 27.088C93.159 27.088 94.3537 27.2693 95.4204 27.632C96.5084 27.9947 97.3617 28.592 97.9804 29.424C98.6204 30.256 98.9404 31.3653 98.9404 32.752C98.9404 33.3067 98.7804 33.936 98.4604 34.64C98.1617 35.3227 97.6604 35.952 96.9564 36.528C96.2524 37.104 95.3137 37.5307 94.1404 37.808C96.1884 38.1707 97.6924 38.9067 98.6524 40.016C99.6337 41.1253 100.124 42.3627 100.124 43.728C100.124 45.1787 99.751 46.416 99.0044 47.44C98.279 48.4427 97.2657 49.2107 95.9644 49.744C94.6844 50.256 93.2124 50.512 91.5484 50.512ZM109.551 50.512C108.143 50.512 107.012 50.3093 106.159 49.904C105.305 49.4987 104.676 48.976 104.271 48.336C103.887 47.696 103.695 47.024 103.695 46.32C103.695 45.744 103.876 45.2107 104.239 44.72C104.623 44.208 105.145 43.952 105.807 43.952C106.617 43.952 107.161 44.1867 107.439 44.656C107.716 45.104 107.855 45.5413 107.855 45.968C107.855 46.1387 107.812 46.3733 107.727 46.672C107.663 46.9493 107.556 47.1733 107.407 47.344C107.577 47.6 107.844 47.824 108.207 48.016C108.591 48.1867 109.049 48.2613 109.583 48.24C110.201 48.1973 110.745 48.0267 111.215 47.728C111.684 47.408 112.079 46.9813 112.399 46.448C112.74 45.9147 113.007 45.3067 113.199 44.624C113.412 43.9413 113.551 43.216 113.615 42.448C113.7 41.6587 113.721 40.8587 113.679 40.048C113.337 40.4533 112.783 40.848 112.015 41.232C111.247 41.616 110.457 41.8293 109.647 41.872C108.473 41.8933 107.449 41.7333 106.575 41.392C105.721 41.0293 105.007 40.5067 104.431 39.824C103.876 39.1413 103.46 38.3413 103.183 37.424C102.905 36.5067 102.767 35.504 102.767 34.416C102.767 32.9867 103.087 31.728 103.727 30.64C104.388 29.5307 105.295 28.6667 106.447 28.048C107.62 27.408 108.964 27.088 110.479 27.088C111.908 27.088 113.113 27.3547 114.095 27.888C115.097 28.4213 115.908 29.1787 116.527 30.16C117.145 31.12 117.593 32.2613 117.871 33.584C118.169 34.9067 118.319 36.3467 118.319 37.904C118.319 38.864 118.244 39.9093 118.095 41.04C117.967 42.1707 117.721 43.2907 117.359 44.4C117.017 45.5093 116.516 46.5333 115.855 47.472C115.215 48.3893 114.372 49.1253 113.327 49.68C112.303 50.2347 111.044 50.512 109.551 50.512ZM110.543 39.312C110.991 39.312 111.417 39.216 111.823 39.024C112.228 38.832 112.591 38.576 112.911 38.256C113.231 37.936 113.487 37.584 113.679 37.2C113.679 36.176 113.625 35.1947 113.519 34.256C113.412 33.3173 113.231 32.4747 112.975 31.728C112.74 30.9813 112.409 30.3947 111.983 29.968C111.577 29.5413 111.065 29.328 110.447 29.328C109.807 29.328 109.273 29.5413 108.847 29.968C108.42 30.3733 108.1 30.9067 107.887 31.568C107.695 32.2293 107.599 32.9333 107.599 33.68C107.599 34.1493 107.631 34.704 107.695 35.344C107.759 35.984 107.887 36.6133 108.079 37.232C108.271 37.8293 108.559 38.3307 108.943 38.736C109.348 39.12 109.881 39.312 110.543 39.312Z" fill="#54080E"/>
</g>
<path d="M132 36L148 38L132 40V36Z" fill="#54080E"/>
</g>
<rect x="4.5" y="2.5" width="163" height="71" rx="4.5" stroke="#E7E5E4" shape-rendering="crispEdges"/>
</g>
<defs>
<filter id="filter0_d_9779_92544" x="0" y="0" width="172" height="80" filterUnits="userSpaceOnUse" color-interpolation-filters="sRGB">
<feFlood flood-opacity="0" result="BackgroundImageFix"/>
<feColorMatrix in="SourceAlpha" type="matrix" values="0 0 0 0 0 0 0 0 0 0 0 0 0 0 0 0 0 0 127 0" result="hardAlpha"/>
<feOffset dy="2"/>
<feGaussianBlur stdDeviation="2"/>
<feComposite in2="hardAlpha" operator="out"/>
<feColorMatrix type="matrix" values="0 0 0 0 0.109804 0 0 0 0 0.0980392 0 0 0 0 0.0901961 0 0 0 0.08 0"/>
<feBlend mode="normal" in2="BackgroundImageFix" result="effect1_dropShadow_9779_92544"/>
<feBlend mode="normal" in="SourceGraphic" in2="effect1_dropShadow_9779_92544" result="shape"/>
</filter>
<filter id="filter1_d_9779_92544" x="52.3633" y="27.0879" width="67.957" height="25.4243" filterUnits="userSpaceOnUse" color-interpolation-filters="sRGB">
<feFlood flood-opacity="0" result="BackgroundImageFix"/>
<feColorMatrix in="SourceAlpha" type="matrix" values="0 0 0 0 0 0 0 0 0 0 0 0 0 0 0 0 0 0 127 0" result="hardAlpha"/>
<feOffset dx="2" dy="2"/>
<feComposite in2="hardAlpha" operator="out"/>
<feColorMatrix type="matrix" values="0 0 0 0 1 0 0 0 0 1 0 0 0 0 1 0 0 0 1 0"/>
<feBlend mode="normal" in2="BackgroundImageFix" result="effect1_dropShadow_9779_92544"/>
<feBlend mode="normal" in="SourceGraphic" in2="effect1_dropShadow_9779_92544" result="shape"/>
</filter>
<clipPath id="clip0_9779_92544">
<rect x="4" y="2" width="164" height="72" rx="5" fill="white"/>
</clipPath>
</defs>
</svg>
