<svg width="172" height="80" viewBox="0 0 172 80" fill="none" xmlns="http://www.w3.org/2000/svg">
<g filter="url(#filter0_d_9779_92542)">
<g clip-path="url(#clip0_9779_92542)">
<mask id="mask0_9779_92542" style="mask-type:luminance" maskUnits="userSpaceOnUse" x="4" y="2" width="164" height="72">
<path d="M163 2H9C6.23858 2 4 4.23858 4 7V69C4 71.7614 6.23858 74 9 74H163C165.761 74 168 71.7614 168 69V7C168 4.23858 165.761 2 163 2Z" fill="white"/>
</mask>
<g mask="url(#mask0_9779_92542)">
<path d="M168 2H4V74H168V2Z" fill="white"/>
<path d="M10 32H4V38L10 32Z" fill="#E3C5C8"/>
<path d="M10 38H4V44L10 38Z" fill="#E3C5C8"/>
<path d="M10 14H4V20L10 14Z" fill="#E3C5C8"/>
<path d="M10 26H4V32L10 26Z" fill="#E3C5C8"/>
<path d="M10 20H4V26L10 20Z" fill="#E3C5C8"/>
<path d="M10 44H4V50L10 44Z" fill="#E3C5C8"/>
<path d="M4 2V8L10 2H4Z" fill="#E3C5C8"/>
<path d="M10 68H4V74L10 68Z" fill="#E3C5C8"/>
<path d="M4 8V14L10 8H4Z" fill="#E3C5C8"/>
<path d="M10 56H4V62L10 56Z" fill="#E3C5C8"/>
<path d="M10 62H4V68L10 62Z" fill="#E3C5C8"/>
<path d="M10 50H4V56L10 50Z" fill="#E3C5C8"/>
<path d="M162 44H168V38L162 44Z" fill="#E3C5C8"/>
<path d="M162 38H168V32L162 38Z" fill="#E3C5C8"/>
<path d="M162 62H168V56L162 62Z" fill="#E3C5C8"/>
<path d="M162 50H168V44L162 50Z" fill="#E3C5C8"/>
<path d="M162 56H168V50L162 56Z" fill="#E3C5C8"/>
<path d="M162 32H168V26L162 32Z" fill="#E3C5C8"/>
<path d="M168 74V68L162 74H168Z" fill="#E3C5C8"/>
<path d="M162 8H168V2L162 8Z" fill="#E3C5C8"/>
<path d="M168 68V62L162 68H168Z" fill="#E3C5C8"/>
<path d="M162 20H168V14L162 20Z" fill="#E3C5C8"/>
<path d="M162 14H168V8L162 14Z" fill="#E3C5C8"/>
<path d="M162 26H168V20L162 26Z" fill="#E3C5C8"/>
<path fill-rule="evenodd" clip-rule="evenodd" d="M72.01 23.54L85.55 10V37.08L72.01 23.54ZM86.36 16.68H106.74L86.36 37.06V16.68ZM114 37.64H86.93L100.47 24.11L114.01 37.64H114ZM58 38.43H84.98L71.49 51.92L58 38.43ZM65.27 59.29H85.55V39.01L65.27 59.29ZM64.65 37.64V17.31L84.98 37.64H64.65ZM86.36 66L99.85 52.51L86.36 39.02V66ZM107.25 38.46V58.78L86.93 38.46H107.25Z" fill="#F6ECED"/>
</g>
<path d="M39.5 40L23.5 38L39.5 36L39.5 40Z" fill="#54080E"/>
<g filter="url(#filter1_d_9779_92542)">
<path d="M52.8418 50C52.8418 48.8907 52.9804 47.8987 53.2578 47.024C53.5564 46.1493 53.9404 45.36 54.4098 44.656C54.9004 43.952 55.4338 43.3013 56.0098 42.704C56.6071 42.1067 57.2151 41.52 57.8338 40.944C59.3911 39.4933 60.4898 38.1813 61.1298 37.008C61.7911 35.8347 62.1218 34.672 62.1218 33.52C62.1218 32.8373 62.0364 32.176 61.8658 31.536C61.6951 30.896 61.3858 30.3733 60.9378 29.968C60.4898 29.5413 59.8604 29.3387 59.0498 29.36C58.4738 29.36 57.9511 29.4987 57.4818 29.776C57.0338 30.032 56.6924 30.3413 56.4578 30.704C56.6924 30.9387 56.8524 31.216 56.9378 31.536C57.0444 31.856 57.0978 32.1333 57.0978 32.368C57.0978 32.6027 57.0231 32.8907 56.8738 33.232C56.7244 33.552 56.4898 33.8293 56.1698 34.064C55.8711 34.2987 55.4551 34.416 54.9218 34.416C54.2604 34.3733 53.7484 34.128 53.3858 33.68C53.0444 33.232 52.8738 32.6987 52.8738 32.08C52.8738 31.5893 53.0231 31.0667 53.3218 30.512C53.6204 29.936 54.0684 29.392 54.6658 28.88C55.2631 28.3467 55.9884 27.92 56.8418 27.6C57.7164 27.2587 58.7191 27.088 59.8498 27.088C60.7031 27.088 61.5458 27.1947 62.3778 27.408C63.2311 27.6213 64.0098 27.9627 64.7138 28.432C65.4178 28.9013 65.9724 29.52 66.3778 30.288C66.8044 31.056 67.0178 32.0053 67.0178 33.136C67.0178 33.6693 66.9218 34.2347 66.7298 34.832C66.5378 35.408 66.1858 36.048 65.6738 36.752C65.1618 37.4347 64.4471 38.224 63.5298 39.12C62.6124 40.016 61.4284 41.0613 59.9778 42.256C58.8044 43.216 57.9404 44.0907 57.3858 44.88C56.8311 45.6693 56.5004 46.2773 56.3938 46.704L62.6658 46.864C63.1564 46.8853 63.5724 46.8533 63.9138 46.768C64.2764 46.6613 64.5538 46.4587 64.7458 46.16C64.9591 45.84 65.0658 45.3813 65.0658 44.784H67.1138L66.8578 50H52.8418ZM78.8323 50.512C77.2109 50.512 75.8349 50.1707 74.7043 49.488C73.5736 48.784 72.6669 47.8667 71.9843 46.736C71.3016 45.584 70.8003 44.3253 70.4803 42.96C70.1816 41.5947 70.0323 40.24 70.0323 38.896C70.0323 37.552 70.2136 36.1867 70.5763 34.8C70.9603 33.4133 71.5256 32.144 72.2723 30.992C73.0189 29.8187 73.9469 28.88 75.0563 28.176C76.1656 27.4507 77.4669 27.088 78.9603 27.088C80.5176 27.088 81.8403 27.44 82.9283 28.144C84.0376 28.848 84.9336 29.776 85.6163 30.928C86.2989 32.0587 86.8003 33.3067 87.1203 34.672C87.4403 36.0373 87.6003 37.392 87.6003 38.736C87.6003 40.0587 87.4189 41.4133 87.0563 42.8C86.7149 44.1867 86.1816 45.4667 85.4563 46.64C84.7309 47.792 83.8136 48.7307 82.7043 49.456C81.6163 50.16 80.3256 50.512 78.8323 50.512ZM79.0243 48.24C79.7709 48.24 80.3896 48.0053 80.8803 47.536C81.3709 47.0667 81.7443 46.4267 82.0003 45.616C82.2776 44.784 82.4696 43.8347 82.5763 42.768C82.6829 41.7013 82.7363 40.5813 82.7363 39.408C82.7363 38.1067 82.6829 36.8587 82.5763 35.664C82.4909 34.448 82.3096 33.3707 82.0323 32.432C81.7763 31.472 81.3923 30.7147 80.8803 30.16C80.3896 29.6053 79.7283 29.328 78.8963 29.328C78.1283 29.328 77.4883 29.5627 76.9763 30.032C76.4643 30.5013 76.0483 31.152 75.7283 31.984C75.4296 32.816 75.2163 33.7653 75.0883 34.832C74.9603 35.8987 74.8963 37.0293 74.8963 38.224C74.8963 39.12 74.9176 40.0373 74.9603 40.976C75.0243 41.9147 75.1309 42.8213 75.2803 43.696C75.4509 44.5493 75.6856 45.3173 75.9843 46C76.2829 46.6827 76.6776 47.2267 77.1683 47.632C77.6803 48.0373 78.2989 48.24 79.0243 48.24ZM98.184 50.512C96.2853 50.512 94.7707 50.0747 93.64 49.2C92.5093 48.304 91.6987 47.0453 91.208 45.424C90.7173 43.8027 90.472 41.8933 90.472 39.696C90.472 38.9493 90.5467 38.0427 90.696 36.976C90.8453 35.9093 91.1013 34.8107 91.464 33.68C91.8267 32.528 92.3387 31.4507 93 30.448C93.6613 29.4453 94.504 28.6347 95.528 28.016C96.552 27.3973 97.7893 27.088 99.24 27.088C100.584 27.088 101.683 27.312 102.536 27.76C103.411 28.208 104.051 28.7627 104.456 29.424C104.861 30.064 105.064 30.7147 105.064 31.376C105.064 31.952 104.893 32.4747 104.552 32.944C104.211 33.4133 103.709 33.648 103.048 33.648C102.259 33.648 101.704 33.424 101.384 32.976C101.085 32.5067 100.936 32.0587 100.936 31.632C100.936 31.4613 100.968 31.2373 101.032 30.96C101.096 30.6827 101.213 30.4373 101.384 30.224C101.213 29.968 100.936 29.744 100.552 29.552C100.189 29.36 99.7413 29.2853 99.208 29.328C98.5893 29.3707 98.0453 29.5733 97.576 29.936C97.128 30.2773 96.744 30.736 96.424 31.312C96.1253 31.8667 95.88 32.496 95.688 33.2C95.5173 33.904 95.3787 34.6293 95.272 35.376C95.1867 36.1227 95.1333 36.8373 95.112 37.52C95.3467 37.2427 95.6773 36.976 96.104 36.72C96.552 36.4427 97.0533 36.2187 97.608 36.048C98.1627 35.856 98.696 35.7493 99.208 35.728C100.403 35.6853 101.427 35.8453 102.28 36.208C103.133 36.5493 103.837 37.0613 104.392 37.744C104.947 38.4053 105.352 39.1947 105.608 40.112C105.885 41.0293 106.024 42.032 106.024 43.12C106.024 44.464 105.683 45.7013 105 46.832C104.339 47.9413 103.411 48.8373 102.216 49.52C101.043 50.1813 99.6987 50.512 98.184 50.512ZM98.344 48.272C99.0907 48.272 99.6667 48.0693 100.072 47.664C100.499 47.2373 100.787 46.6933 100.936 46.032C101.107 45.3493 101.192 44.6453 101.192 43.92C101.192 43.4293 101.16 42.8747 101.096 42.256C101.053 41.616 100.936 40.9973 100.744 40.4C100.552 39.7813 100.264 39.28 99.88 38.896C99.496 38.4907 98.9733 38.288 98.312 38.288C97.864 38.288 97.4267 38.384 97 38.576C96.5947 38.768 96.2213 39.024 95.88 39.344C95.56 39.664 95.304 40.016 95.112 40.4C95.112 41.1467 95.1653 41.968 95.272 42.864C95.3787 43.76 95.5493 44.624 95.784 45.456C96.04 46.2667 96.3707 46.9387 96.776 47.472C97.2027 48.0053 97.7253 48.272 98.344 48.272ZM109.966 50V47.888C110.457 47.8667 110.862 47.8027 111.182 47.696C111.524 47.5893 111.78 47.344 111.95 46.96C112.142 46.576 112.238 45.9573 112.238 45.104V32.272L108.75 34.352L107.598 32.432L114.926 27.088H116.846V44.752C116.846 45.328 116.836 45.8827 116.814 46.416C116.814 46.9493 116.793 47.3547 116.75 47.632C117.092 47.5893 117.518 47.568 118.03 47.568C118.564 47.5467 118.937 47.536 119.15 47.536V50H109.966Z" fill="#54080E"/>
</g>
<path d="M132.5 36L148.5 38L132.5 40V36Z" fill="#54080E"/>
</g>
<rect x="4.5" y="2.5" width="163" height="71" rx="4.5" stroke="#E7E5E4" shape-rendering="crispEdges"/>
</g>
<defs>
<filter id="filter0_d_9779_92542" x="0" y="0" width="172" height="80" filterUnits="userSpaceOnUse" color-interpolation-filters="sRGB">
<feFlood flood-opacity="0" result="BackgroundImageFix"/>
<feColorMatrix in="SourceAlpha" type="matrix" values="0 0 0 0 0 0 0 0 0 0 0 0 0 0 0 0 0 0 127 0" result="hardAlpha"/>
<feOffset dy="2"/>
<feGaussianBlur stdDeviation="2"/>
<feComposite in2="hardAlpha" operator="out"/>
<feColorMatrix type="matrix" values="0 0 0 0 0.109804 0 0 0 0 0.0980392 0 0 0 0 0.0901961 0 0 0 0.08 0"/>
<feBlend mode="normal" in2="BackgroundImageFix" result="effect1_dropShadow_9779_92542"/>
<feBlend mode="normal" in="SourceGraphic" in2="effect1_dropShadow_9779_92542" result="shape"/>
</filter>
<filter id="filter1_d_9779_92542" x="52.8398" y="27.0879" width="68.3086" height="25.4243" filterUnits="userSpaceOnUse" color-interpolation-filters="sRGB">
<feFlood flood-opacity="0" result="BackgroundImageFix"/>
<feColorMatrix in="SourceAlpha" type="matrix" values="0 0 0 0 0 0 0 0 0 0 0 0 0 0 0 0 0 0 127 0" result="hardAlpha"/>
<feOffset dx="2" dy="2"/>
<feComposite in2="hardAlpha" operator="out"/>
<feColorMatrix type="matrix" values="0 0 0 0 1 0 0 0 0 1 0 0 0 0 1 0 0 0 1 0"/>
<feBlend mode="normal" in2="BackgroundImageFix" result="effect1_dropShadow_9779_92542"/>
<feBlend mode="normal" in="SourceGraphic" in2="effect1_dropShadow_9779_92542" result="shape"/>
</filter>
<clipPath id="clip0_9779_92542">
<rect x="4" y="2" width="164" height="72" rx="5" fill="white"/>
</clipPath>
</defs>
</svg>
