<svg width="172" height="80" viewBox="0 0 172 80" fill="none" xmlns="http://www.w3.org/2000/svg">
<g filter="url(#filter0_d_9779_92522)">
<g clip-path="url(#clip0_9779_92522)">
<mask id="mask0_9779_92522" style="mask-type:luminance" maskUnits="userSpaceOnUse" x="4" y="2" width="164" height="72">
<path d="M163 2H9C6.23858 2 4 4.23858 4 7V69C4 71.7614 6.23858 74 9 74H163C165.761 74 168 71.7614 168 69V7C168 4.23858 165.761 2 163 2Z" fill="white"/>
</mask>
<g mask="url(#mask0_9779_92522)">
<path d="M168 2H4V74H168V2Z" fill="white"/>
<path d="M10 32H4V38L10 32Z" fill="#E3C5C8"/>
<path d="M10 38H4V44L10 38Z" fill="#E3C5C8"/>
<path d="M10 14H4V20L10 14Z" fill="#E3C5C8"/>
<path d="M10 26H4V32L10 26Z" fill="#E3C5C8"/>
<path d="M10 20H4V26L10 20Z" fill="#E3C5C8"/>
<path d="M10 44H4V50L10 44Z" fill="#E3C5C8"/>
<path d="M4 2V8L10 2H4Z" fill="#E3C5C8"/>
<path d="M10 68H4V74L10 68Z" fill="#E3C5C8"/>
<path d="M4 8V14L10 8H4Z" fill="#E3C5C8"/>
<path d="M10 56H4V62L10 56Z" fill="#E3C5C8"/>
<path d="M10 62H4V68L10 62Z" fill="#E3C5C8"/>
<path d="M10 50H4V56L10 50Z" fill="#E3C5C8"/>
<path d="M162 44H168V38L162 44Z" fill="#E3C5C8"/>
<path d="M162 38H168V32L162 38Z" fill="#E3C5C8"/>
<path d="M162 62H168V56L162 62Z" fill="#E3C5C8"/>
<path d="M162 50H168V44L162 50Z" fill="#E3C5C8"/>
<path d="M162 56H168V50L162 56Z" fill="#E3C5C8"/>
<path d="M162 32H168V26L162 32Z" fill="#E3C5C8"/>
<path d="M168 74V68L162 74H168Z" fill="#E3C5C8"/>
<path d="M162 8H168V2L162 8Z" fill="#E3C5C8"/>
<path d="M168 68V62L162 68H168Z" fill="#E3C5C8"/>
<path d="M162 20H168V14L162 20Z" fill="#E3C5C8"/>
<path d="M162 14H168V8L162 14Z" fill="#E3C5C8"/>
<path d="M162 26H168V20L162 26Z" fill="#E3C5C8"/>
<path fill-rule="evenodd" clip-rule="evenodd" d="M72.01 23.54L85.55 10V37.08L72.01 23.54ZM86.36 16.68H106.74L86.36 37.06V16.68ZM114 37.64H86.93L100.47 24.11L114.01 37.64H114ZM58 38.43H84.98L71.49 51.92L58 38.43ZM65.27 59.29H85.55V39.01L65.27 59.29ZM64.65 37.64V17.31L84.98 37.64H64.65ZM86.36 66L99.85 52.51L86.36 39.02V66ZM107.25 38.46V58.78L86.93 38.46H107.25Z" fill="#F6ECED"/>
</g>
<path d="M40.5 40L24.5 38L40.5 36L40.5 40Z" fill="#54080E"/>
<g filter="url(#filter1_d_9779_92522)">
<path d="M55.2475 50V47.888C55.7382 47.8667 56.1435 47.8027 56.4635 47.696C56.8048 47.5893 57.0608 47.344 57.2315 46.96C57.4235 46.576 57.5195 45.9573 57.5195 45.104V32.272L54.0315 34.352L52.8795 32.432L60.2075 27.088H62.1275V44.752C62.1275 45.328 62.1168 45.8827 62.0955 46.416C62.0955 46.9493 62.0742 47.3547 62.0315 47.632C62.3728 47.5893 62.7995 47.568 63.3115 47.568C63.8448 47.5467 64.2182 47.536 64.4315 47.536V50H55.2475ZM78.9995 44.752C78.9995 45.328 78.9888 45.8827 78.9675 46.416C78.9462 46.9493 78.9142 47.3547 78.8715 47.632C79.2342 47.5893 79.6715 47.568 80.1835 47.568C80.6955 47.5467 81.0582 47.536 81.2715 47.536V50H72.1515V47.888H72.3435C72.8342 47.888 73.2502 47.8347 73.5915 47.728C73.9542 47.6213 74.2315 47.376 74.4235 46.992C74.6368 46.5867 74.7435 45.9573 74.7435 45.104V44.208H66.0715V41.2L77.0475 27.088H78.9995V41.328H82.1355V44.208H78.9995V44.752ZM74.7115 33.808L69.0475 41.232L74.7435 41.264L74.7755 33.808H74.7115ZM96.812 44.752C96.812 45.328 96.8013 45.8827 96.78 46.416C96.7587 46.9493 96.7267 47.3547 96.684 47.632C97.0467 47.5893 97.484 47.568 97.996 47.568C98.508 47.5467 98.8707 47.536 99.084 47.536V50H89.964V47.888H90.156C90.6467 47.888 91.0627 47.8347 91.404 47.728C91.7667 47.6213 92.044 47.376 92.236 46.992C92.4493 46.5867 92.556 45.9573 92.556 45.104V44.208H83.884V41.2L94.86 27.088H96.812V41.328H99.948V44.208H96.812V44.752ZM92.524 33.808L86.86 41.232L92.556 41.264L92.588 33.808H92.524ZM110.056 50.512C109.288 50.512 108.477 50.416 107.624 50.224C106.792 50.032 106.003 49.7227 105.256 49.296C104.531 48.8693 103.933 48.304 103.464 47.6C103.016 46.8747 102.792 45.9893 102.792 44.944C102.792 44.1333 102.995 43.3547 103.4 42.608C103.827 41.8613 104.36 41.1787 105 40.56C105.64 39.92 106.312 39.3973 107.016 38.992C105.608 38.1173 104.605 37.1467 104.008 36.08C103.432 35.0133 103.144 34.0533 103.144 33.2C103.144 32.1547 103.357 31.248 103.784 30.48C104.232 29.712 104.819 29.0827 105.544 28.592C106.269 28.08 107.048 27.7067 107.88 27.472C108.733 27.216 109.576 27.088 110.408 27.088C111.517 27.088 112.573 27.3013 113.576 27.728C114.579 28.1333 115.4 28.7413 116.04 29.552C116.68 30.3627 117 31.3547 117 32.528C117 33.2533 116.808 33.9467 116.424 34.608C116.04 35.2693 115.549 35.8667 114.952 36.4C114.376 36.9333 113.789 37.392 113.192 37.776C114.28 38.4373 115.176 39.1307 115.88 39.856C116.584 40.5813 117.107 41.3387 117.448 42.128C117.789 42.896 117.96 43.6853 117.96 44.496C117.96 45.8827 117.587 47.024 116.84 47.92C116.115 48.7947 115.144 49.4453 113.928 49.872C112.733 50.2987 111.443 50.512 110.056 50.512ZM110.088 48.272C111.112 48.2933 111.912 48.0053 112.488 47.408C113.085 46.7893 113.384 46.0427 113.384 45.168C113.384 44.3573 113.085 43.5253 112.488 42.672C111.891 41.7973 110.803 40.9653 109.224 40.176C108.371 40.8373 107.741 41.5947 107.336 42.448C106.952 43.28 106.739 44.0053 106.696 44.624C106.653 45.6267 106.952 46.48 107.592 47.184C108.232 47.888 109.064 48.2507 110.088 48.272ZM111.112 36.464C111.795 35.952 112.36 35.344 112.808 34.64C113.277 33.9147 113.523 33.2533 113.544 32.656C113.587 31.5893 113.32 30.768 112.744 30.192C112.168 29.616 111.475 29.328 110.664 29.328C110.045 29.328 109.501 29.4667 109.032 29.744C108.584 30 108.232 30.352 107.976 30.8C107.741 31.248 107.624 31.7493 107.624 32.304C107.624 33.136 107.965 33.9467 108.648 34.736C109.352 35.504 110.173 36.08 111.112 36.464Z" fill="#54080E"/>
</g>
<path d="M131.5 36L147.5 38L131.5 40V36Z" fill="#54080E"/>
</g>
<rect x="4.5" y="2.5" width="163" height="71" rx="4.5" stroke="#E7E5E4" shape-rendering="crispEdges"/>
</g>
<defs>
<filter id="filter0_d_9779_92522" x="0" y="0" width="172" height="80" filterUnits="userSpaceOnUse" color-interpolation-filters="sRGB">
<feFlood flood-opacity="0" result="BackgroundImageFix"/>
<feColorMatrix in="SourceAlpha" type="matrix" values="0 0 0 0 0 0 0 0 0 0 0 0 0 0 0 0 0 0 127 0" result="hardAlpha"/>
<feOffset dy="2"/>
<feGaussianBlur stdDeviation="2"/>
<feComposite in2="hardAlpha" operator="out"/>
<feColorMatrix type="matrix" values="0 0 0 0 0.109804 0 0 0 0 0.0980392 0 0 0 0 0.0901961 0 0 0 0.08 0"/>
<feBlend mode="normal" in2="BackgroundImageFix" result="effect1_dropShadow_9779_92522"/>
<feBlend mode="normal" in="SourceGraphic" in2="effect1_dropShadow_9779_92522" result="shape"/>
</filter>
<filter id="filter1_d_9779_92522" x="52.8789" y="27.0879" width="67.082" height="25.4243" filterUnits="userSpaceOnUse" color-interpolation-filters="sRGB">
<feFlood flood-opacity="0" result="BackgroundImageFix"/>
<feColorMatrix in="SourceAlpha" type="matrix" values="0 0 0 0 0 0 0 0 0 0 0 0 0 0 0 0 0 0 127 0" result="hardAlpha"/>
<feOffset dx="2" dy="2"/>
<feComposite in2="hardAlpha" operator="out"/>
<feColorMatrix type="matrix" values="0 0 0 0 1 0 0 0 0 1 0 0 0 0 1 0 0 0 1 0"/>
<feBlend mode="normal" in2="BackgroundImageFix" result="effect1_dropShadow_9779_92522"/>
<feBlend mode="normal" in="SourceGraphic" in2="effect1_dropShadow_9779_92522" result="shape"/>
</filter>
<clipPath id="clip0_9779_92522">
<rect x="4" y="2" width="164" height="72" rx="5" fill="white"/>
</clipPath>
</defs>
</svg>
