<svg width="172" height="80" viewBox="0 0 172 80" fill="none" xmlns="http://www.w3.org/2000/svg">
<g filter="url(#filter0_d_9779_92532)">
<g clip-path="url(#clip0_9779_92532)">
<mask id="mask0_9779_92532" style="mask-type:luminance" maskUnits="userSpaceOnUse" x="4" y="2" width="164" height="72">
<path d="M163 2H9C6.23858 2 4 4.23858 4 7V69C4 71.7614 6.23858 74 9 74H163C165.761 74 168 71.7614 168 69V7C168 4.23858 165.761 2 163 2Z" fill="white"/>
</mask>
<g mask="url(#mask0_9779_92532)">
<path d="M168 2H4V74H168V2Z" fill="white"/>
<path d="M10 32H4V38L10 32Z" fill="#E3C5C8"/>
<path d="M10 38H4V44L10 38Z" fill="#E3C5C8"/>
<path d="M10 14H4V20L10 14Z" fill="#E3C5C8"/>
<path d="M10 26H4V32L10 26Z" fill="#E3C5C8"/>
<path d="M10 20H4V26L10 20Z" fill="#E3C5C8"/>
<path d="M10 44H4V50L10 44Z" fill="#E3C5C8"/>
<path d="M4 2V8L10 2H4Z" fill="#E3C5C8"/>
<path d="M10 68H4V74L10 68Z" fill="#E3C5C8"/>
<path d="M4 8V14L10 8H4Z" fill="#E3C5C8"/>
<path d="M10 56H4V62L10 56Z" fill="#E3C5C8"/>
<path d="M10 62H4V68L10 62Z" fill="#E3C5C8"/>
<path d="M10 50H4V56L10 50Z" fill="#E3C5C8"/>
<path d="M162 44H168V38L162 44Z" fill="#E3C5C8"/>
<path d="M162 38H168V32L162 38Z" fill="#E3C5C8"/>
<path d="M162 62H168V56L162 62Z" fill="#E3C5C8"/>
<path d="M162 50H168V44L162 50Z" fill="#E3C5C8"/>
<path d="M162 56H168V50L162 56Z" fill="#E3C5C8"/>
<path d="M162 32H168V26L162 32Z" fill="#E3C5C8"/>
<path d="M168 74V68L162 74H168Z" fill="#E3C5C8"/>
<path d="M162 8H168V2L162 8Z" fill="#E3C5C8"/>
<path d="M168 68V62L162 68H168Z" fill="#E3C5C8"/>
<path d="M162 20H168V14L162 20Z" fill="#E3C5C8"/>
<path d="M162 14H168V8L162 14Z" fill="#E3C5C8"/>
<path d="M162 26H168V20L162 26Z" fill="#E3C5C8"/>
<path fill-rule="evenodd" clip-rule="evenodd" d="M72.01 23.54L85.55 10V37.08L72.01 23.54ZM86.36 16.68H106.74L86.36 37.06V16.68ZM114 37.64H86.93L100.47 24.11L114.01 37.64H114ZM58 38.43H84.98L71.49 51.92L58 38.43ZM65.27 59.29H85.55V39.01L65.27 59.29ZM64.65 37.64V17.31L84.98 37.64H64.65ZM86.36 66L99.85 52.51L86.36 39.02V66ZM107.25 38.46V58.78L86.93 38.46H107.25Z" fill="#F6ECED"/>
</g>
<path d="M43 40L27 38L43 36L43 40Z" fill="#54080E"/>
<g filter="url(#filter1_d_9779_92532)">
<path d="M57.7006 50V47.888C58.1913 47.8667 58.5966 47.8027 58.9166 47.696C59.258 47.5893 59.514 47.344 59.6846 46.96C59.8766 46.576 59.9726 45.9573 59.9726 45.104V32.272L56.4846 34.352L55.3326 32.432L62.6606 27.088H64.5806V44.752C64.5806 45.328 64.57 45.8827 64.5486 46.416C64.5486 46.9493 64.5273 47.3547 64.4846 47.632C64.826 47.5893 65.2526 47.568 65.7646 47.568C66.298 47.5467 66.6713 47.536 66.8846 47.536V50H57.7006ZM76.3006 50.512C74.8926 50.512 73.762 50.3093 72.9086 49.904C72.0553 49.4987 71.426 48.976 71.0206 48.336C70.6366 47.696 70.4446 47.024 70.4446 46.32C70.4446 45.744 70.626 45.2107 70.9886 44.72C71.3726 44.208 71.8953 43.952 72.5566 43.952C73.3673 43.952 73.9113 44.1867 74.1886 44.656C74.466 45.104 74.6046 45.5413 74.6046 45.968C74.6046 46.1387 74.562 46.3733 74.4766 46.672C74.4126 46.9493 74.306 47.1733 74.1566 47.344C74.3273 47.6 74.594 47.824 74.9566 48.016C75.3406 48.1867 75.7993 48.2613 76.3326 48.24C76.9513 48.1973 77.4953 48.0267 77.9646 47.728C78.434 47.408 78.8286 46.9813 79.1486 46.448C79.49 45.9147 79.7566 45.3067 79.9486 44.624C80.162 43.9413 80.3006 43.216 80.3646 42.448C80.45 41.6587 80.4713 40.8587 80.4286 40.048C80.0873 40.4533 79.5326 40.848 78.7646 41.232C77.9966 41.616 77.2073 41.8293 76.3966 41.872C75.2233 41.8933 74.1993 41.7333 73.3246 41.392C72.4713 41.0293 71.7566 40.5067 71.1806 39.824C70.626 39.1413 70.21 38.3413 69.9326 37.424C69.6553 36.5067 69.5166 35.504 69.5166 34.416C69.5166 32.9867 69.8366 31.728 70.4766 30.64C71.138 29.5307 72.0446 28.6667 73.1966 28.048C74.37 27.408 75.714 27.088 77.2286 27.088C78.658 27.088 79.8633 27.3547 80.8446 27.888C81.8473 28.4213 82.658 29.1787 83.2766 30.16C83.8953 31.12 84.3433 32.2613 84.6206 33.584C84.9193 34.9067 85.0686 36.3467 85.0686 37.904C85.0686 38.864 84.994 39.9093 84.8446 41.04C84.7166 42.1707 84.4713 43.2907 84.1086 44.4C83.7673 45.5093 83.266 46.5333 82.6046 47.472C81.9646 48.3893 81.122 49.1253 80.0766 49.68C79.0526 50.2347 77.794 50.512 76.3006 50.512ZM77.2926 39.312C77.7406 39.312 78.1673 39.216 78.5726 39.024C78.978 38.832 79.3406 38.576 79.6606 38.256C79.9806 37.936 80.2366 37.584 80.4286 37.2C80.4286 36.176 80.3753 35.1947 80.2686 34.256C80.162 33.3173 79.9806 32.4747 79.7246 31.728C79.49 30.9813 79.1593 30.3947 78.7326 29.968C78.3273 29.5413 77.8153 29.328 77.1966 29.328C76.5566 29.328 76.0233 29.5413 75.5966 29.968C75.17 30.3733 74.85 30.9067 74.6366 31.568C74.4446 32.2293 74.3486 32.9333 74.3486 33.68C74.3486 34.1493 74.3806 34.704 74.4446 35.344C74.5086 35.984 74.6366 36.6133 74.8286 37.232C75.0206 37.8293 75.3086 38.3307 75.6926 38.736C76.098 39.12 76.6313 39.312 77.2926 39.312ZM94.5781 50.512C93.1915 50.512 92.0075 50.288 91.0261 49.84C90.0448 49.392 89.2875 48.8373 88.7541 48.176C88.2421 47.4933 87.9861 46.8107 87.9861 46.128C87.9861 45.5093 88.1781 44.9547 88.5621 44.464C88.9461 43.9733 89.4688 43.7173 90.1301 43.696C90.6635 43.6747 91.0795 43.7813 91.3781 44.016C91.6768 44.2293 91.8901 44.496 92.0181 44.816C92.1461 45.136 92.2101 45.4453 92.2101 45.744C92.2101 45.9147 92.1781 46.128 92.1141 46.384C92.0715 46.6187 91.9861 46.8427 91.8581 47.056C91.9648 47.2907 92.1568 47.504 92.4341 47.696C92.7115 47.8667 93.0208 48.0053 93.3621 48.112C93.7248 48.1973 94.0555 48.24 94.3541 48.24C95.2075 48.24 95.8901 48.016 96.4021 47.568C96.9355 47.12 97.3195 46.544 97.5541 45.84C97.7888 45.136 97.9061 44.4213 97.9061 43.696C97.9061 43.2053 97.8741 42.6507 97.8101 42.032C97.7461 41.4133 97.5861 40.8053 97.3301 40.208C97.0955 39.6107 96.7115 39.12 96.1781 38.736C95.6661 38.352 94.9621 38.16 94.0661 38.16C93.7675 38.16 93.4155 38.2027 93.0101 38.288C92.6048 38.352 92.1568 38.4693 91.6661 38.64C91.1968 38.8107 90.7168 39.0453 90.2261 39.344L88.8501 38.288L88.7221 27.6H97.0101C97.7568 27.6 98.3435 27.4827 98.7701 27.248C99.2181 26.992 99.4421 26.416 99.4421 25.52H101.458L101.234 30.704L91.1861 30.896V36.592C91.6768 36.3787 92.2848 36.1973 93.0101 36.048C93.7355 35.8987 94.4181 35.824 95.0581 35.824C96.3808 35.824 97.5328 36.016 98.5141 36.4C99.4955 36.784 100.306 37.3173 100.946 38C101.586 38.6613 102.055 39.4293 102.354 40.304C102.674 41.1573 102.834 42.064 102.834 43.024C102.834 44.6667 102.429 46.0533 101.618 47.184C100.829 48.2933 99.8048 49.1253 98.5461 49.68C97.2875 50.2347 95.9648 50.512 94.5781 50.512ZM106.419 50V47.888C106.91 47.8667 107.315 47.8027 107.635 47.696C107.977 47.5893 108.233 47.344 108.403 46.96C108.595 46.576 108.691 45.9573 108.691 45.104V32.272L105.203 34.352L104.051 32.432L111.379 27.088H113.299V44.752C113.299 45.328 113.289 45.8827 113.267 46.416C113.267 46.9493 113.246 47.3547 113.203 47.632C113.545 47.5893 113.971 47.568 114.483 47.568C115.017 47.5467 115.39 47.536 115.603 47.536V50H106.419Z" fill="#54080E"/>
</g>
<path d="M129 36L145 38L129 40V36Z" fill="#54080E"/>
</g>
<rect x="4.5" y="2.5" width="163" height="71" rx="4.5" stroke="#E7E5E4" shape-rendering="crispEdges"/>
</g>
<defs>
<filter id="filter0_d_9779_92532" x="0" y="0" width="172" height="80" filterUnits="userSpaceOnUse" color-interpolation-filters="sRGB">
<feFlood flood-opacity="0" result="BackgroundImageFix"/>
<feColorMatrix in="SourceAlpha" type="matrix" values="0 0 0 0 0 0 0 0 0 0 0 0 0 0 0 0 0 0 127 0" result="hardAlpha"/>
<feOffset dy="2"/>
<feGaussianBlur stdDeviation="2"/>
<feComposite in2="hardAlpha" operator="out"/>
<feColorMatrix type="matrix" values="0 0 0 0 0.109804 0 0 0 0 0.0980392 0 0 0 0 0.0901961 0 0 0 0.08 0"/>
<feBlend mode="normal" in2="BackgroundImageFix" result="effect1_dropShadow_9779_92532"/>
<feBlend mode="normal" in="SourceGraphic" in2="effect1_dropShadow_9779_92532" result="shape"/>
</filter>
<filter id="filter1_d_9779_92532" x="55.332" y="25.52" width="62.2695" height="26.9922" filterUnits="userSpaceOnUse" color-interpolation-filters="sRGB">
<feFlood flood-opacity="0" result="BackgroundImageFix"/>
<feColorMatrix in="SourceAlpha" type="matrix" values="0 0 0 0 0 0 0 0 0 0 0 0 0 0 0 0 0 0 127 0" result="hardAlpha"/>
<feOffset dx="2" dy="2"/>
<feComposite in2="hardAlpha" operator="out"/>
<feColorMatrix type="matrix" values="0 0 0 0 1 0 0 0 0 1 0 0 0 0 1 0 0 0 1 0"/>
<feBlend mode="normal" in2="BackgroundImageFix" result="effect1_dropShadow_9779_92532"/>
<feBlend mode="normal" in="SourceGraphic" in2="effect1_dropShadow_9779_92532" result="shape"/>
</filter>
<clipPath id="clip0_9779_92532">
<rect x="4" y="2" width="164" height="72" rx="5" fill="white"/>
</clipPath>
</defs>
</svg>
