<svg width="172" height="80" viewBox="0 0 172 80" fill="none" xmlns="http://www.w3.org/2000/svg">
<g filter="url(#filter0_d_9779_92523)">
<g clip-path="url(#clip0_9779_92523)">
<mask id="mask0_9779_92523" style="mask-type:luminance" maskUnits="userSpaceOnUse" x="4" y="2" width="164" height="72">
<path d="M163 2H9C6.23858 2 4 4.23858 4 7V69C4 71.7614 6.23858 74 9 74H163C165.761 74 168 71.7614 168 69V7C168 4.23858 165.761 2 163 2Z" fill="white"/>
</mask>
<g mask="url(#mask0_9779_92523)">
<path d="M168 2H4V74H168V2Z" fill="white"/>
<path d="M10 32H4V38L10 32Z" fill="#E3C5C8"/>
<path d="M10 38H4V44L10 38Z" fill="#E3C5C8"/>
<path d="M10 14H4V20L10 14Z" fill="#E3C5C8"/>
<path d="M10 26H4V32L10 26Z" fill="#E3C5C8"/>
<path d="M10 20H4V26L10 20Z" fill="#E3C5C8"/>
<path d="M10 44H4V50L10 44Z" fill="#E3C5C8"/>
<path d="M4 2V8L10 2H4Z" fill="#E3C5C8"/>
<path d="M10 68H4V74L10 68Z" fill="#E3C5C8"/>
<path d="M4 8V14L10 8H4Z" fill="#E3C5C8"/>
<path d="M10 56H4V62L10 56Z" fill="#E3C5C8"/>
<path d="M10 62H4V68L10 62Z" fill="#E3C5C8"/>
<path d="M10 50H4V56L10 50Z" fill="#E3C5C8"/>
<path d="M162 44H168V38L162 44Z" fill="#E3C5C8"/>
<path d="M162 38H168V32L162 38Z" fill="#E3C5C8"/>
<path d="M162 62H168V56L162 62Z" fill="#E3C5C8"/>
<path d="M162 50H168V44L162 50Z" fill="#E3C5C8"/>
<path d="M162 56H168V50L162 56Z" fill="#E3C5C8"/>
<path d="M162 32H168V26L162 32Z" fill="#E3C5C8"/>
<path d="M168 74V68L162 74H168Z" fill="#E3C5C8"/>
<path d="M162 8H168V2L162 8Z" fill="#E3C5C8"/>
<path d="M168 68V62L162 68H168Z" fill="#E3C5C8"/>
<path d="M162 20H168V14L162 20Z" fill="#E3C5C8"/>
<path d="M162 14H168V8L162 14Z" fill="#E3C5C8"/>
<path d="M162 26H168V20L162 26Z" fill="#E3C5C8"/>
<path fill-rule="evenodd" clip-rule="evenodd" d="M72.01 23.54L85.55 10V37.08L72.01 23.54ZM86.36 16.68H106.74L86.36 37.06V16.68ZM114 37.64H86.93L100.47 24.11L114.01 37.64H114ZM58 38.43H84.98L71.49 51.92L58 38.43ZM65.27 59.29H85.55V39.01L65.27 59.29ZM64.65 37.64V17.31L84.98 37.64H64.65ZM86.36 66L99.85 52.51L86.36 39.02V66ZM107.25 38.46V58.78L86.93 38.46H107.25Z" fill="#F6ECED"/>
</g>
<path d="M42.5 40L26.5 38L42.5 36L42.5 40Z" fill="#54080E"/>
<g filter="url(#filter1_d_9779_92523)">
<path d="M57.2788 50V47.888C57.7694 47.8667 58.1748 47.8027 58.4948 47.696C58.8361 47.5893 59.0921 47.344 59.2628 46.96C59.4548 46.576 59.5508 45.9573 59.5508 45.104V32.272L56.0628 34.352L54.9108 32.432L62.2388 27.088H64.1588V44.752C64.1588 45.328 64.1481 45.8827 64.1267 46.416C64.1267 46.9493 64.1054 47.3547 64.0628 47.632C64.4041 47.5893 64.8308 47.568 65.3428 47.568C65.8761 47.5467 66.2494 47.536 66.4628 47.536V50H57.2788ZM81.0308 44.752C81.0308 45.328 81.0201 45.8827 80.9988 46.416C80.9774 46.9493 80.9454 47.3547 80.9028 47.632C81.2654 47.5893 81.7028 47.568 82.2148 47.568C82.7268 47.5467 83.0894 47.536 83.3028 47.536V50H74.1828V47.888H74.3748C74.8654 47.888 75.2814 47.8347 75.6228 47.728C75.9854 47.6213 76.2627 47.376 76.4548 46.992C76.6681 46.5867 76.7748 45.9573 76.7748 45.104V44.208H68.1028V41.2L79.0788 27.088H81.0308V41.328H84.1667V44.208H81.0308V44.752ZM76.7428 33.808L71.0788 41.232L76.7748 41.264L76.8068 33.808H76.7428ZM91.6188 50.512C90.9574 50.512 90.4881 50.32 90.2108 49.936C89.9548 49.552 89.8268 49.1253 89.8268 48.656C89.8268 48.2293 89.9228 47.6853 90.1148 47.024C90.3281 46.3627 90.5948 45.6373 90.9148 44.848C91.2348 44.0373 91.5654 43.2373 91.9068 42.448C92.2694 41.5947 92.6854 40.6133 93.1548 39.504C93.6241 38.3947 94.1681 37.1253 94.7868 35.696C95.4054 34.2667 96.0988 32.6453 96.8668 30.832L90.1468 30.768C89.4214 30.7467 88.8348 30.9067 88.3868 31.248C87.9388 31.568 87.7148 32.1653 87.7148 33.04H85.6988L85.9228 27.6H99.5548V30.512C98.8294 31.984 98.2001 33.4133 97.6668 34.8C97.1548 36.1867 96.6854 37.5733 96.2588 38.96C95.8534 40.3467 95.4588 41.7867 95.0748 43.28C94.7121 44.7733 94.3174 46.3733 93.8908 48.08C93.7414 48.6773 93.4748 49.2427 93.0908 49.776C92.7281 50.288 92.2374 50.5333 91.6188 50.512ZM101.467 50C101.467 48.8907 101.605 47.8987 101.883 47.024C102.181 46.1493 102.565 45.36 103.035 44.656C103.525 43.952 104.059 43.3013 104.635 42.704C105.232 42.1067 105.84 41.52 106.459 40.944C108.016 39.4933 109.115 38.1813 109.755 37.008C110.416 35.8347 110.747 34.672 110.747 33.52C110.747 32.8373 110.661 32.176 110.491 31.536C110.32 30.896 110.011 30.3733 109.563 29.968C109.115 29.5413 108.485 29.3387 107.675 29.36C107.099 29.36 106.576 29.4987 106.107 29.776C105.659 30.032 105.317 30.3413 105.083 30.704C105.317 30.9387 105.477 31.216 105.563 31.536C105.669 31.856 105.723 32.1333 105.723 32.368C105.723 32.6027 105.648 32.8907 105.499 33.232C105.349 33.552 105.115 33.8293 104.795 34.064C104.496 34.2987 104.08 34.416 103.547 34.416C102.885 34.3733 102.373 34.128 102.011 33.68C101.669 33.232 101.499 32.6987 101.499 32.08C101.499 31.5893 101.648 31.0667 101.947 30.512C102.245 29.936 102.693 29.392 103.291 28.88C103.888 28.3467 104.613 27.92 105.467 27.6C106.341 27.2587 107.344 27.088 108.475 27.088C109.328 27.088 110.171 27.1947 111.003 27.408C111.856 27.6213 112.635 27.9627 113.339 28.432C114.043 28.9013 114.597 29.52 115.003 30.288C115.429 31.056 115.643 32.0053 115.643 33.136C115.643 33.6693 115.547 34.2347 115.355 34.832C115.163 35.408 114.811 36.048 114.299 36.752C113.787 37.4347 113.072 38.224 112.155 39.12C111.237 40.016 110.053 41.0613 108.603 42.256C107.429 43.216 106.565 44.0907 106.011 44.88C105.456 45.6693 105.125 46.2773 105.019 46.704L111.291 46.864C111.781 46.8853 112.197 46.8533 112.539 46.768C112.901 46.6613 113.179 46.4587 113.371 46.16C113.584 45.84 113.691 45.3813 113.691 44.784H115.739L115.483 50H101.467Z" fill="#54080E"/>
</g>
<path d="M129.5 36L145.5 38L129.5 40V36Z" fill="#54080E"/>
</g>
<rect x="4.5" y="2.5" width="163" height="71" rx="4.5" stroke="#E7E5E4" shape-rendering="crispEdges"/>
</g>
<defs>
<filter id="filter0_d_9779_92523" x="0" y="0" width="172" height="80" filterUnits="userSpaceOnUse" color-interpolation-filters="sRGB">
<feFlood flood-opacity="0" result="BackgroundImageFix"/>
<feColorMatrix in="SourceAlpha" type="matrix" values="0 0 0 0 0 0 0 0 0 0 0 0 0 0 0 0 0 0 127 0" result="hardAlpha"/>
<feOffset dy="2"/>
<feGaussianBlur stdDeviation="2"/>
<feComposite in2="hardAlpha" operator="out"/>
<feColorMatrix type="matrix" values="0 0 0 0 0.109804 0 0 0 0 0.0980392 0 0 0 0 0.0901961 0 0 0 0.08 0"/>
<feBlend mode="normal" in2="BackgroundImageFix" result="effect1_dropShadow_9779_92523"/>
<feBlend mode="normal" in="SourceGraphic" in2="effect1_dropShadow_9779_92523" result="shape"/>
</filter>
<filter id="filter1_d_9779_92523" x="54.9102" y="27.0879" width="62.8281" height="25.4561" filterUnits="userSpaceOnUse" color-interpolation-filters="sRGB">
<feFlood flood-opacity="0" result="BackgroundImageFix"/>
<feColorMatrix in="SourceAlpha" type="matrix" values="0 0 0 0 0 0 0 0 0 0 0 0 0 0 0 0 0 0 127 0" result="hardAlpha"/>
<feOffset dx="2" dy="2"/>
<feComposite in2="hardAlpha" operator="out"/>
<feColorMatrix type="matrix" values="0 0 0 0 1 0 0 0 0 1 0 0 0 0 1 0 0 0 1 0"/>
<feBlend mode="normal" in2="BackgroundImageFix" result="effect1_dropShadow_9779_92523"/>
<feBlend mode="normal" in="SourceGraphic" in2="effect1_dropShadow_9779_92523" result="shape"/>
</filter>
<clipPath id="clip0_9779_92523">
<rect x="4" y="2" width="164" height="72" rx="5" fill="white"/>
</clipPath>
</defs>
</svg>
