<svg width="172" height="80" viewBox="0 0 172 80" fill="none" xmlns="http://www.w3.org/2000/svg">
<g filter="url(#filter0_d_9779_92541)">
<g clip-path="url(#clip0_9779_92541)">
<mask id="mask0_9779_92541" style="mask-type:luminance" maskUnits="userSpaceOnUse" x="4" y="2" width="164" height="72">
<path d="M163 2H9C6.23858 2 4 4.23858 4 7V69C4 71.7614 6.23858 74 9 74H163C165.761 74 168 71.7614 168 69V7C168 4.23858 165.761 2 163 2Z" fill="white"/>
</mask>
<g mask="url(#mask0_9779_92541)">
<path d="M168 2H4V74H168V2Z" fill="white"/>
<path d="M10 32H4V38L10 32Z" fill="#E3C5C8"/>
<path d="M10 38H4V44L10 38Z" fill="#E3C5C8"/>
<path d="M10 14H4V20L10 14Z" fill="#E3C5C8"/>
<path d="M10 26H4V32L10 26Z" fill="#E3C5C8"/>
<path d="M10 20H4V26L10 20Z" fill="#E3C5C8"/>
<path d="M10 44H4V50L10 44Z" fill="#E3C5C8"/>
<path d="M4 2V8L10 2H4Z" fill="#E3C5C8"/>
<path d="M10 68H4V74L10 68Z" fill="#E3C5C8"/>
<path d="M4 8V14L10 8H4Z" fill="#E3C5C8"/>
<path d="M10 56H4V62L10 56Z" fill="#E3C5C8"/>
<path d="M10 62H4V68L10 62Z" fill="#E3C5C8"/>
<path d="M10 50H4V56L10 50Z" fill="#E3C5C8"/>
<path d="M162 44H168V38L162 44Z" fill="#E3C5C8"/>
<path d="M162 38H168V32L162 38Z" fill="#E3C5C8"/>
<path d="M162 62H168V56L162 62Z" fill="#E3C5C8"/>
<path d="M162 50H168V44L162 50Z" fill="#E3C5C8"/>
<path d="M162 56H168V50L162 56Z" fill="#E3C5C8"/>
<path d="M162 32H168V26L162 32Z" fill="#E3C5C8"/>
<path d="M168 74V68L162 74H168Z" fill="#E3C5C8"/>
<path d="M162 8H168V2L162 8Z" fill="#E3C5C8"/>
<path d="M168 68V62L162 68H168Z" fill="#E3C5C8"/>
<path d="M162 20H168V14L162 20Z" fill="#E3C5C8"/>
<path d="M162 14H168V8L162 14Z" fill="#E3C5C8"/>
<path d="M162 26H168V20L162 26Z" fill="#E3C5C8"/>
<path fill-rule="evenodd" clip-rule="evenodd" d="M72.01 23.54L85.55 10V37.08L72.01 23.54ZM86.36 16.68H106.74L86.36 37.06V16.68ZM114 37.64H86.93L100.47 24.11L114.01 37.64H114ZM58 38.43H84.98L71.49 51.92L58 38.43ZM65.27 59.29H85.55V39.01L65.27 59.29ZM64.65 37.64V17.31L84.98 37.64H64.65ZM86.36 66L99.85 52.51L86.36 39.02V66ZM107.25 38.46V58.78L86.93 38.46H107.25Z" fill="#F6ECED"/>
</g>
<path d="M41.5 40L25.5 38L41.5 36L41.5 40Z" fill="#54080E"/>
<g filter="url(#filter1_d_9779_92541)">
<path d="M54.9355 50C54.9355 48.8907 55.0742 47.8987 55.3515 47.024C55.6502 46.1493 56.0342 45.36 56.5035 44.656C56.9942 43.952 57.5275 43.3013 58.1035 42.704C58.7008 42.1067 59.3088 41.52 59.9275 40.944C61.4848 39.4933 62.5835 38.1813 63.2235 37.008C63.8848 35.8347 64.2155 34.672 64.2155 33.52C64.2155 32.8373 64.1302 32.176 63.9595 31.536C63.7888 30.896 63.4795 30.3733 63.0315 29.968C62.5835 29.5413 61.9542 29.3387 61.1435 29.36C60.5675 29.36 60.0448 29.4987 59.5755 29.776C59.1275 30.032 58.7862 30.3413 58.5515 30.704C58.7862 30.9387 58.9462 31.216 59.0315 31.536C59.1382 31.856 59.1915 32.1333 59.1915 32.368C59.1915 32.6027 59.1168 32.8907 58.9675 33.232C58.8182 33.552 58.5835 33.8293 58.2635 34.064C57.9648 34.2987 57.5488 34.416 57.0155 34.416C56.3542 34.3733 55.8422 34.128 55.4795 33.68C55.1382 33.232 54.9675 32.6987 54.9675 32.08C54.9675 31.5893 55.1168 31.0667 55.4155 30.512C55.7142 29.936 56.1622 29.392 56.7595 28.88C57.3568 28.3467 58.0822 27.92 58.9355 27.6C59.8102 27.2587 60.8128 27.088 61.9435 27.088C62.7968 27.088 63.6395 27.1947 64.4715 27.408C65.3248 27.6213 66.1035 27.9627 66.8075 28.432C67.5115 28.9013 68.0662 29.52 68.4715 30.288C68.8982 31.056 69.1115 32.0053 69.1115 33.136C69.1115 33.6693 69.0155 34.2347 68.8235 34.832C68.6315 35.408 68.2795 36.048 67.7675 36.752C67.2555 37.4347 66.5408 38.224 65.6235 39.12C64.7062 40.016 63.5222 41.0613 62.0715 42.256C60.8982 43.216 60.0342 44.0907 59.4795 44.88C58.9248 45.6693 58.5942 46.2773 58.4875 46.704L64.7595 46.864C65.2502 46.8853 65.6662 46.8533 66.0075 46.768C66.3702 46.6613 66.6475 46.4587 66.8395 46.16C67.0528 45.84 67.1595 45.3813 67.1595 44.784H69.2075L68.9515 50H54.9355ZM73.31 50V47.888C73.8007 47.8667 74.206 47.8027 74.526 47.696C74.8673 47.5893 75.1233 47.344 75.294 46.96C75.486 46.576 75.582 45.9573 75.582 45.104V32.272L72.094 34.352L70.942 32.432L78.27 27.088H80.19V44.752C80.19 45.328 80.1793 45.8827 80.158 46.416C80.158 46.9493 80.1367 47.3547 80.094 47.632C80.4353 47.5893 80.862 47.568 81.374 47.568C81.9073 47.5467 82.2807 47.536 82.494 47.536V50H73.31ZM84.998 50C84.998 48.8907 85.1367 47.8987 85.414 47.024C85.7127 46.1493 86.0967 45.36 86.566 44.656C87.0567 43.952 87.59 43.3013 88.166 42.704C88.7633 42.1067 89.3713 41.52 89.99 40.944C91.5473 39.4933 92.646 38.1813 93.286 37.008C93.9473 35.8347 94.278 34.672 94.278 33.52C94.278 32.8373 94.1927 32.176 94.022 31.536C93.8513 30.896 93.542 30.3733 93.094 29.968C92.646 29.5413 92.0167 29.3387 91.206 29.36C90.63 29.36 90.1073 29.4987 89.638 29.776C89.19 30.032 88.8487 30.3413 88.614 30.704C88.8487 30.9387 89.0087 31.216 89.094 31.536C89.2007 31.856 89.254 32.1333 89.254 32.368C89.254 32.6027 89.1793 32.8907 89.03 33.232C88.8807 33.552 88.646 33.8293 88.326 34.064C88.0273 34.2987 87.6113 34.416 87.078 34.416C86.4167 34.3733 85.9047 34.128 85.542 33.68C85.2007 33.232 85.03 32.6987 85.03 32.08C85.03 31.5893 85.1793 31.0667 85.478 30.512C85.7767 29.936 86.2247 29.392 86.822 28.88C87.4193 28.3467 88.1447 27.92 88.998 27.6C89.8727 27.2587 90.8753 27.088 92.006 27.088C92.8593 27.088 93.702 27.1947 94.534 27.408C95.3873 27.6213 96.166 27.9627 96.87 28.432C97.574 28.9013 98.1287 29.52 98.534 30.288C98.9607 31.056 99.174 32.0053 99.174 33.136C99.174 33.6693 99.078 34.2347 98.886 34.832C98.694 35.408 98.342 36.048 97.83 36.752C97.318 37.4347 96.6033 38.224 95.686 39.12C94.7687 40.016 93.5847 41.0613 92.134 42.256C90.9607 43.216 90.0967 44.0907 89.542 44.88C88.9873 45.6693 88.6567 46.2773 88.55 46.704L94.822 46.864C95.3127 46.8853 95.7287 46.8533 96.07 46.768C96.4327 46.6613 96.71 46.4587 96.902 46.16C97.1153 45.84 97.222 45.3813 97.222 44.784H99.27L99.014 50H84.998ZM114.125 44.752C114.125 45.328 114.114 45.8827 114.093 46.416C114.071 46.9493 114.039 47.3547 113.997 47.632C114.359 47.5893 114.797 47.568 115.309 47.568C115.821 47.5467 116.183 47.536 116.397 47.536V50H107.277V47.888H107.469C107.959 47.888 108.375 47.8347 108.717 47.728C109.079 47.6213 109.356 47.376 109.549 46.992C109.762 46.5867 109.869 45.9573 109.869 45.104V44.208H101.197V41.2L112.173 27.088H114.125V41.328H117.26V44.208H114.125V44.752ZM109.837 33.808L104.173 41.232L109.869 41.264L109.901 33.808H109.837Z" fill="#54080E"/>
</g>
<path d="M130.5 36L146.5 38L130.5 40V36Z" fill="#54080E"/>
</g>
<rect x="4.5" y="2.5" width="163" height="71" rx="4.5" stroke="#E7E5E4" shape-rendering="crispEdges"/>
</g>
<defs>
<filter id="filter0_d_9779_92541" x="0" y="0" width="172" height="80" filterUnits="userSpaceOnUse" color-interpolation-filters="sRGB">
<feFlood flood-opacity="0" result="BackgroundImageFix"/>
<feColorMatrix in="SourceAlpha" type="matrix" values="0 0 0 0 0 0 0 0 0 0 0 0 0 0 0 0 0 0 127 0" result="hardAlpha"/>
<feOffset dy="2"/>
<feGaussianBlur stdDeviation="2"/>
<feComposite in2="hardAlpha" operator="out"/>
<feColorMatrix type="matrix" values="0 0 0 0 0.109804 0 0 0 0 0.0980392 0 0 0 0 0.0901961 0 0 0 0.08 0"/>
<feBlend mode="normal" in2="BackgroundImageFix" result="effect1_dropShadow_9779_92541"/>
<feBlend mode="normal" in="SourceGraphic" in2="effect1_dropShadow_9779_92541" result="shape"/>
</filter>
<filter id="filter1_d_9779_92541" x="54.9336" y="27.0879" width="64.3281" height="24.9121" filterUnits="userSpaceOnUse" color-interpolation-filters="sRGB">
<feFlood flood-opacity="0" result="BackgroundImageFix"/>
<feColorMatrix in="SourceAlpha" type="matrix" values="0 0 0 0 0 0 0 0 0 0 0 0 0 0 0 0 0 0 127 0" result="hardAlpha"/>
<feOffset dx="2" dy="2"/>
<feComposite in2="hardAlpha" operator="out"/>
<feColorMatrix type="matrix" values="0 0 0 0 1 0 0 0 0 1 0 0 0 0 1 0 0 0 1 0"/>
<feBlend mode="normal" in2="BackgroundImageFix" result="effect1_dropShadow_9779_92541"/>
<feBlend mode="normal" in="SourceGraphic" in2="effect1_dropShadow_9779_92541" result="shape"/>
</filter>
<clipPath id="clip0_9779_92541">
<rect x="4" y="2" width="164" height="72" rx="5" fill="white"/>
</clipPath>
</defs>
</svg>
