<svg width="172" height="80" viewBox="0 0 172 80" fill="none" xmlns="http://www.w3.org/2000/svg">
<g filter="url(#filter0_d_9779_92524)">
<g clip-path="url(#clip0_9779_92524)">
<mask id="mask0_9779_92524" style="mask-type:luminance" maskUnits="userSpaceOnUse" x="4" y="2" width="164" height="72">
<path d="M163 2H9C6.23858 2 4 4.23858 4 7V69C4 71.7614 6.23858 74 9 74H163C165.761 74 168 71.7614 168 69V7C168 4.23858 165.761 2 163 2Z" fill="white"/>
</mask>
<g mask="url(#mask0_9779_92524)">
<path d="M168 2H4V74H168V2Z" fill="white"/>
<path d="M10 32H4V38L10 32Z" fill="#E3C5C8"/>
<path d="M10 38H4V44L10 38Z" fill="#E3C5C8"/>
<path d="M10 14H4V20L10 14Z" fill="#E3C5C8"/>
<path d="M10 26H4V32L10 26Z" fill="#E3C5C8"/>
<path d="M10 20H4V26L10 20Z" fill="#E3C5C8"/>
<path d="M10 44H4V50L10 44Z" fill="#E3C5C8"/>
<path d="M4 2V8L10 2H4Z" fill="#E3C5C8"/>
<path d="M10 68H4V74L10 68Z" fill="#E3C5C8"/>
<path d="M4 8V14L10 8H4Z" fill="#E3C5C8"/>
<path d="M10 56H4V62L10 56Z" fill="#E3C5C8"/>
<path d="M10 62H4V68L10 62Z" fill="#E3C5C8"/>
<path d="M10 50H4V56L10 50Z" fill="#E3C5C8"/>
<path d="M162 44H168V38L162 44Z" fill="#E3C5C8"/>
<path d="M162 38H168V32L162 38Z" fill="#E3C5C8"/>
<path d="M162 62H168V56L162 62Z" fill="#E3C5C8"/>
<path d="M162 50H168V44L162 50Z" fill="#E3C5C8"/>
<path d="M162 56H168V50L162 56Z" fill="#E3C5C8"/>
<path d="M162 32H168V26L162 32Z" fill="#E3C5C8"/>
<path d="M168 74V68L162 74H168Z" fill="#E3C5C8"/>
<path d="M162 8H168V2L162 8Z" fill="#E3C5C8"/>
<path d="M168 68V62L162 68H168Z" fill="#E3C5C8"/>
<path d="M162 20H168V14L162 20Z" fill="#E3C5C8"/>
<path d="M162 14H168V8L162 14Z" fill="#E3C5C8"/>
<path d="M162 26H168V20L162 26Z" fill="#E3C5C8"/>
<path fill-rule="evenodd" clip-rule="evenodd" d="M72.01 23.54L85.55 10V37.08L72.01 23.54ZM86.36 16.68H106.74L86.36 37.06V16.68ZM114 37.64H86.93L100.47 24.11L114.01 37.64H114ZM58 38.43H84.98L71.49 51.92L58 38.43ZM65.27 59.29H85.55V39.01L65.27 59.29ZM64.65 37.64V17.31L84.98 37.64H64.65ZM86.36 66L99.85 52.51L86.36 39.02V66ZM107.25 38.46V58.78L86.93 38.46H107.25Z" fill="#F6ECED"/>
</g>
<path d="M42 40L26 38L42 36L42 40Z" fill="#54080E"/>
<g filter="url(#filter1_d_9779_92524)">
<path d="M56.9663 50V47.888C57.4569 47.8667 57.8623 47.8027 58.1823 47.696C58.5236 47.5893 58.7796 47.344 58.9503 46.96C59.1423 46.576 59.2383 45.9573 59.2383 45.104V32.272L55.7503 34.352L54.5983 32.432L61.9263 27.088H63.8463V44.752C63.8463 45.328 63.8356 45.8827 63.8142 46.416C63.8142 46.9493 63.7929 47.3547 63.7503 47.632C64.0916 47.5893 64.5183 47.568 65.0303 47.568C65.5636 47.5467 65.9369 47.536 66.1503 47.536V50H56.9663ZM75.4062 50.512C74.0196 50.512 72.8356 50.288 71.8543 49.84C70.8729 49.392 70.1156 48.8373 69.5823 48.176C69.0703 47.4933 68.8143 46.8107 68.8143 46.128C68.8143 45.5093 69.0063 44.9547 69.3903 44.464C69.7743 43.9733 70.2969 43.7173 70.9583 43.696C71.4916 43.6747 71.9076 43.7813 72.2063 44.016C72.5049 44.2293 72.7183 44.496 72.8463 44.816C72.9743 45.136 73.0383 45.4453 73.0383 45.744C73.0383 45.9147 73.0063 46.128 72.9423 46.384C72.8996 46.6187 72.8143 46.8427 72.6863 47.056C72.7929 47.2907 72.9849 47.504 73.2623 47.696C73.5396 47.8667 73.8489 48.0053 74.1903 48.112C74.5529 48.1973 74.8836 48.24 75.1823 48.24C76.0356 48.24 76.7183 48.016 77.2303 47.568C77.7636 47.12 78.1476 46.544 78.3823 45.84C78.6169 45.136 78.7343 44.4213 78.7343 43.696C78.7343 43.2053 78.7023 42.6507 78.6383 42.032C78.5743 41.4133 78.4143 40.8053 78.1583 40.208C77.9236 39.6107 77.5396 39.12 77.0063 38.736C76.4943 38.352 75.7903 38.16 74.8943 38.16C74.5956 38.16 74.2436 38.2027 73.8383 38.288C73.4329 38.352 72.9849 38.4693 72.4943 38.64C72.0249 38.8107 71.5449 39.0453 71.0543 39.344L69.6783 38.288L69.5503 27.6H77.8383C78.5849 27.6 79.1716 27.4827 79.5983 27.248C80.0463 26.992 80.2703 26.416 80.2703 25.52H82.2863L82.0623 30.704L72.0143 30.896V36.592C72.5049 36.3787 73.1129 36.1973 73.8383 36.048C74.5636 35.8987 75.2463 35.824 75.8863 35.824C77.2089 35.824 78.3609 36.016 79.3423 36.4C80.3236 36.784 81.1343 37.3173 81.7743 38C82.4143 38.6613 82.8836 39.4293 83.1823 40.304C83.5023 41.1573 83.6623 42.064 83.6623 43.024C83.6623 44.6667 83.2569 46.0533 82.4463 47.184C81.6569 48.2933 80.6329 49.1253 79.3743 49.68C78.1156 50.2347 76.7929 50.512 75.4062 50.512ZM91.0875 50.512C90.4262 50.512 89.9568 50.32 89.6795 49.936C89.4235 49.552 89.2955 49.1253 89.2955 48.656C89.2955 48.2293 89.3915 47.6853 89.5835 47.024C89.7968 46.3627 90.0635 45.6373 90.3835 44.848C90.7035 44.0373 91.0342 43.2373 91.3755 42.448C91.7382 41.5947 92.1542 40.6133 92.6235 39.504C93.0928 38.3947 93.6368 37.1253 94.2555 35.696C94.8742 34.2667 95.5675 32.6453 96.3355 30.832L89.6155 30.768C88.8902 30.7467 88.3035 30.9067 87.8555 31.248C87.4075 31.568 87.1835 32.1653 87.1835 33.04H85.1675L85.3915 27.6H99.0235V30.512C98.2982 31.984 97.6688 33.4133 97.1355 34.8C96.6235 36.1867 96.1542 37.5733 95.7275 38.96C95.3222 40.3467 94.9275 41.7867 94.5435 43.28C94.1808 44.7733 93.7862 46.3733 93.3595 48.08C93.2102 48.6773 92.9435 49.2427 92.5595 49.776C92.1968 50.288 91.7062 50.5333 91.0875 50.512ZM107.752 50.512C106.152 50.512 104.84 50.2773 103.816 49.808C102.792 49.3173 102.034 48.7093 101.544 47.984C101.053 47.2587 100.808 46.5333 100.808 45.808C100.808 45.168 101 44.6133 101.384 44.144C101.789 43.6533 102.322 43.3973 102.984 43.376C103.517 43.3547 103.933 43.4613 104.232 43.696C104.53 43.9307 104.744 44.208 104.872 44.528C105 44.848 105.064 45.1467 105.064 45.424C105.064 45.6373 105.021 45.8827 104.936 46.16C104.85 46.416 104.722 46.6613 104.552 46.896C104.786 47.3013 105.17 47.6213 105.704 47.856C106.258 48.0693 106.834 48.176 107.432 48.176C108.776 48.176 109.789 47.7707 110.472 46.96C111.154 46.1493 111.496 45.1467 111.496 43.952C111.496 43.2267 111.357 42.5013 111.08 41.776C110.802 41.0507 110.322 40.4533 109.64 39.984C108.957 39.4933 107.997 39.2587 106.76 39.28C106.61 39.28 106.344 39.2907 105.96 39.312C105.576 39.3333 105.288 39.3547 105.096 39.376V37.072C105.266 37.0933 105.426 37.104 105.576 37.104C105.725 37.104 105.874 37.104 106.024 37.104C106.962 37.104 107.762 36.9333 108.424 36.592C109.085 36.2507 109.586 35.7813 109.928 35.184C110.29 34.5867 110.482 33.8933 110.504 33.104C110.525 32.3573 110.429 31.7067 110.216 31.152C110.024 30.576 109.704 30.128 109.256 29.808C108.829 29.488 108.253 29.328 107.528 29.328C106.952 29.328 106.429 29.4667 105.96 29.744C105.49 30.0213 105.17 30.3307 105 30.672C105.192 30.9067 105.32 31.184 105.384 31.504C105.469 31.8027 105.512 32.048 105.512 32.24C105.512 32.496 105.437 32.7947 105.288 33.136C105.16 33.456 104.936 33.7333 104.616 33.968C104.296 34.2027 103.869 34.3093 103.336 34.288C102.674 34.2667 102.173 34.032 101.832 33.584C101.49 33.136 101.32 32.6027 101.32 31.984C101.32 31.344 101.565 30.64 102.056 29.872C102.546 29.104 103.293 28.4533 104.296 27.92C105.298 27.3653 106.546 27.088 108.04 27.088C109.362 27.088 110.557 27.2693 111.624 27.632C112.712 27.9947 113.565 28.592 114.184 29.424C114.824 30.256 115.144 31.3653 115.144 32.752C115.144 33.3067 114.984 33.936 114.664 34.64C114.365 35.3227 113.864 35.952 113.16 36.528C112.456 37.104 111.517 37.5307 110.344 37.808C112.392 38.1707 113.896 38.9067 114.856 40.016C115.837 41.1253 116.328 42.3627 116.328 43.728C116.328 45.1787 115.954 46.416 115.208 47.44C114.482 48.4427 113.469 49.2107 112.168 49.744C110.888 50.256 109.416 50.512 107.752 50.512Z" fill="#54080E"/>
</g>
<path d="M130 36L146 38L130 40V36Z" fill="#54080E"/>
</g>
<rect x="4.5" y="2.5" width="163" height="71" rx="4.5" stroke="#E7E5E4" shape-rendering="crispEdges"/>
</g>
<defs>
<filter id="filter0_d_9779_92524" x="0" y="0" width="172" height="80" filterUnits="userSpaceOnUse" color-interpolation-filters="sRGB">
<feFlood flood-opacity="0" result="BackgroundImageFix"/>
<feColorMatrix in="SourceAlpha" type="matrix" values="0 0 0 0 0 0 0 0 0 0 0 0 0 0 0 0 0 0 127 0" result="hardAlpha"/>
<feOffset dy="2"/>
<feGaussianBlur stdDeviation="2"/>
<feComposite in2="hardAlpha" operator="out"/>
<feColorMatrix type="matrix" values="0 0 0 0 0.109804 0 0 0 0 0.0980392 0 0 0 0 0.0901961 0 0 0 0.08 0"/>
<feBlend mode="normal" in2="BackgroundImageFix" result="effect1_dropShadow_9779_92524"/>
<feBlend mode="normal" in="SourceGraphic" in2="effect1_dropShadow_9779_92524" result="shape"/>
</filter>
<filter id="filter1_d_9779_92524" x="54.5977" y="25.52" width="63.7305" height="27.0239" filterUnits="userSpaceOnUse" color-interpolation-filters="sRGB">
<feFlood flood-opacity="0" result="BackgroundImageFix"/>
<feColorMatrix in="SourceAlpha" type="matrix" values="0 0 0 0 0 0 0 0 0 0 0 0 0 0 0 0 0 0 127 0" result="hardAlpha"/>
<feOffset dx="2" dy="2"/>
<feComposite in2="hardAlpha" operator="out"/>
<feColorMatrix type="matrix" values="0 0 0 0 1 0 0 0 0 1 0 0 0 0 1 0 0 0 1 0"/>
<feBlend mode="normal" in2="BackgroundImageFix" result="effect1_dropShadow_9779_92524"/>
<feBlend mode="normal" in="SourceGraphic" in2="effect1_dropShadow_9779_92524" result="shape"/>
</filter>
<clipPath id="clip0_9779_92524">
<rect x="4" y="2" width="164" height="72" rx="5" fill="white"/>
</clipPath>
</defs>
</svg>
