<svg width="172" height="80" viewBox="0 0 172 80" fill="none" xmlns="http://www.w3.org/2000/svg">
<g filter="url(#filter0_d_9779_92531)">
<g clip-path="url(#clip0_9779_92531)">
<mask id="mask0_9779_92531" style="mask-type:luminance" maskUnits="userSpaceOnUse" x="4" y="2" width="164" height="72">
<path d="M163 2H9C6.23858 2 4 4.23858 4 7V69C4 71.7614 6.23858 74 9 74H163C165.761 74 168 71.7614 168 69V7C168 4.23858 165.761 2 163 2Z" fill="white"/>
</mask>
<g mask="url(#mask0_9779_92531)">
<path d="M168 2H4V74H168V2Z" fill="white"/>
<path d="M10 32H4V38L10 32Z" fill="#E3C5C8"/>
<path d="M10 38H4V44L10 38Z" fill="#E3C5C8"/>
<path d="M10 14H4V20L10 14Z" fill="#E3C5C8"/>
<path d="M10 26H4V32L10 26Z" fill="#E3C5C8"/>
<path d="M10 20H4V26L10 20Z" fill="#E3C5C8"/>
<path d="M10 44H4V50L10 44Z" fill="#E3C5C8"/>
<path d="M4 2V8L10 2H4Z" fill="#E3C5C8"/>
<path d="M10 68H4V74L10 68Z" fill="#E3C5C8"/>
<path d="M4 8V14L10 8H4Z" fill="#E3C5C8"/>
<path d="M10 56H4V62L10 56Z" fill="#E3C5C8"/>
<path d="M10 62H4V68L10 62Z" fill="#E3C5C8"/>
<path d="M10 50H4V56L10 50Z" fill="#E3C5C8"/>
<path d="M162 44H168V38L162 44Z" fill="#E3C5C8"/>
<path d="M162 38H168V32L162 38Z" fill="#E3C5C8"/>
<path d="M162 62H168V56L162 62Z" fill="#E3C5C8"/>
<path d="M162 50H168V44L162 50Z" fill="#E3C5C8"/>
<path d="M162 56H168V50L162 56Z" fill="#E3C5C8"/>
<path d="M162 32H168V26L162 32Z" fill="#E3C5C8"/>
<path d="M168 74V68L162 74H168Z" fill="#E3C5C8"/>
<path d="M162 8H168V2L162 8Z" fill="#E3C5C8"/>
<path d="M168 68V62L162 68H168Z" fill="#E3C5C8"/>
<path d="M162 20H168V14L162 20Z" fill="#E3C5C8"/>
<path d="M162 14H168V8L162 14Z" fill="#E3C5C8"/>
<path d="M162 26H168V20L162 26Z" fill="#E3C5C8"/>
<path fill-rule="evenodd" clip-rule="evenodd" d="M72.01 23.54L85.55 10V37.08L72.01 23.54ZM86.36 16.68H106.74L86.36 37.06V16.68ZM114 37.64H86.93L100.47 24.11L114.01 37.64H114ZM58 38.43H84.98L71.49 51.92L58 38.43ZM65.27 59.29H85.55V39.01L65.27 59.29ZM64.65 37.64V17.31L84.98 37.64H64.65ZM86.36 66L99.85 52.51L86.36 39.02V66ZM107.25 38.46V58.78L86.93 38.46H107.25Z" fill="#F6ECED"/>
</g>
<path d="M43 40L27 38L43 36L43 40Z" fill="#54080E"/>
<g filter="url(#filter1_d_9779_92531)">
<path d="M57.81 50V47.888C58.3007 47.8667 58.706 47.8027 59.026 47.696C59.3673 47.5893 59.6233 47.344 59.794 46.96C59.986 46.576 60.082 45.9573 60.082 45.104V32.272L56.594 34.352L55.442 32.432L62.77 27.088H64.69V44.752C64.69 45.328 64.6793 45.8827 64.658 46.416C64.658 46.9493 64.6367 47.3547 64.594 47.632C64.9353 47.5893 65.362 47.568 65.874 47.568C66.4073 47.5467 66.7807 47.536 66.994 47.536V50H57.81ZM76.41 50.512C75.002 50.512 73.8713 50.3093 73.018 49.904C72.1647 49.4987 71.5353 48.976 71.13 48.336C70.746 47.696 70.554 47.024 70.554 46.32C70.554 45.744 70.7353 45.2107 71.098 44.72C71.482 44.208 72.0047 43.952 72.666 43.952C73.4767 43.952 74.0207 44.1867 74.298 44.656C74.5753 45.104 74.714 45.5413 74.714 45.968C74.714 46.1387 74.6713 46.3733 74.586 46.672C74.522 46.9493 74.4153 47.1733 74.266 47.344C74.4367 47.6 74.7033 47.824 75.066 48.016C75.45 48.1867 75.9087 48.2613 76.442 48.24C77.0607 48.1973 77.6047 48.0267 78.074 47.728C78.5433 47.408 78.938 46.9813 79.258 46.448C79.5993 45.9147 79.866 45.3067 80.058 44.624C80.2713 43.9413 80.41 43.216 80.474 42.448C80.5593 41.6587 80.5807 40.8587 80.538 40.048C80.1967 40.4533 79.642 40.848 78.874 41.232C78.106 41.616 77.3167 41.8293 76.506 41.872C75.3327 41.8933 74.3087 41.7333 73.434 41.392C72.5807 41.0293 71.866 40.5067 71.29 39.824C70.7353 39.1413 70.3193 38.3413 70.042 37.424C69.7647 36.5067 69.626 35.504 69.626 34.416C69.626 32.9867 69.946 31.728 70.586 30.64C71.2473 29.5307 72.154 28.6667 73.306 28.048C74.4793 27.408 75.8233 27.088 77.338 27.088C78.7673 27.088 79.9727 27.3547 80.954 27.888C81.9567 28.4213 82.7673 29.1787 83.386 30.16C84.0047 31.12 84.4527 32.2613 84.73 33.584C85.0287 34.9067 85.178 36.3467 85.178 37.904C85.178 38.864 85.1033 39.9093 84.954 41.04C84.826 42.1707 84.5807 43.2907 84.218 44.4C83.8767 45.5093 83.3753 46.5333 82.714 47.472C82.074 48.3893 81.2313 49.1253 80.186 49.68C79.162 50.2347 77.9033 50.512 76.41 50.512ZM77.402 39.312C77.85 39.312 78.2767 39.216 78.682 39.024C79.0873 38.832 79.45 38.576 79.77 38.256C80.09 37.936 80.346 37.584 80.538 37.2C80.538 36.176 80.4847 35.1947 80.378 34.256C80.2713 33.3173 80.09 32.4747 79.834 31.728C79.5993 30.9813 79.2687 30.3947 78.842 29.968C78.4367 29.5413 77.9247 29.328 77.306 29.328C76.666 29.328 76.1327 29.5413 75.706 29.968C75.2793 30.3733 74.9593 30.9067 74.746 31.568C74.554 32.2293 74.458 32.9333 74.458 33.68C74.458 34.1493 74.49 34.704 74.554 35.344C74.618 35.984 74.746 36.6133 74.938 37.232C75.13 37.8293 75.418 38.3307 75.802 38.736C76.2073 39.12 76.7407 39.312 77.402 39.312ZM89.2475 50V47.888C89.7382 47.8667 90.1435 47.8027 90.4635 47.696C90.8048 47.5893 91.0608 47.344 91.2315 46.96C91.4235 46.576 91.5195 45.9573 91.5195 45.104V32.272L88.0315 34.352L86.8795 32.432L94.2075 27.088H96.1275V44.752C96.1275 45.328 96.1168 45.8827 96.0955 46.416C96.0955 46.9493 96.0742 47.3547 96.0315 47.632C96.3728 47.5893 96.7995 47.568 97.3115 47.568C97.8448 47.5467 98.2182 47.536 98.4315 47.536V50H89.2475ZM100.936 50C100.936 48.8907 101.074 47.8987 101.352 47.024C101.65 46.1493 102.034 45.36 102.504 44.656C102.994 43.952 103.528 43.3013 104.104 42.704C104.701 42.1067 105.309 41.52 105.928 40.944C107.485 39.4933 108.584 38.1813 109.224 37.008C109.885 35.8347 110.216 34.672 110.216 33.52C110.216 32.8373 110.13 32.176 109.96 31.536C109.789 30.896 109.48 30.3733 109.032 29.968C108.584 29.5413 107.954 29.3387 107.144 29.36C106.568 29.36 106.045 29.4987 105.576 29.776C105.128 30.032 104.786 30.3413 104.552 30.704C104.786 30.9387 104.946 31.216 105.032 31.536C105.138 31.856 105.192 32.1333 105.192 32.368C105.192 32.6027 105.117 32.8907 104.968 33.232C104.818 33.552 104.584 33.8293 104.264 34.064C103.965 34.2987 103.549 34.416 103.016 34.416C102.354 34.3733 101.842 34.128 101.48 33.68C101.138 33.232 100.968 32.6987 100.968 32.08C100.968 31.5893 101.117 31.0667 101.416 30.512C101.714 29.936 102.162 29.392 102.76 28.88C103.357 28.3467 104.082 27.92 104.936 27.6C105.81 27.2587 106.813 27.088 107.944 27.088C108.797 27.088 109.64 27.1947 110.472 27.408C111.325 27.6213 112.104 27.9627 112.808 28.432C113.512 28.9013 114.066 29.52 114.472 30.288C114.898 31.056 115.112 32.0053 115.112 33.136C115.112 33.6693 115.016 34.2347 114.824 34.832C114.632 35.408 114.28 36.048 113.768 36.752C113.256 37.4347 112.541 38.224 111.624 39.12C110.706 40.016 109.522 41.0613 108.072 42.256C106.898 43.216 106.034 44.0907 105.48 44.88C104.925 45.6693 104.594 46.2773 104.488 46.704L110.76 46.864C111.25 46.8853 111.666 46.8533 112.008 46.768C112.37 46.6613 112.648 46.4587 112.84 46.16C113.053 45.84 113.16 45.3813 113.16 44.784H115.208L114.952 50H100.936Z" fill="#54080E"/>
</g>
<path d="M129 36L145 38L129 40V36Z" fill="#54080E"/>
</g>
<rect x="4.5" y="2.5" width="163" height="71" rx="4.5" stroke="#E7E5E4" shape-rendering="crispEdges"/>
</g>
<defs>
<filter id="filter0_d_9779_92531" x="0" y="0" width="172" height="80" filterUnits="userSpaceOnUse" color-interpolation-filters="sRGB">
<feFlood flood-opacity="0" result="BackgroundImageFix"/>
<feColorMatrix in="SourceAlpha" type="matrix" values="0 0 0 0 0 0 0 0 0 0 0 0 0 0 0 0 0 0 127 0" result="hardAlpha"/>
<feOffset dy="2"/>
<feGaussianBlur stdDeviation="2"/>
<feComposite in2="hardAlpha" operator="out"/>
<feColorMatrix type="matrix" values="0 0 0 0 0.109804 0 0 0 0 0.0980392 0 0 0 0 0.0901961 0 0 0 0.08 0"/>
<feBlend mode="normal" in2="BackgroundImageFix" result="effect1_dropShadow_9779_92531"/>
<feBlend mode="normal" in="SourceGraphic" in2="effect1_dropShadow_9779_92531" result="shape"/>
</filter>
<filter id="filter1_d_9779_92531" x="55.4414" y="27.0879" width="61.7656" height="25.4243" filterUnits="userSpaceOnUse" color-interpolation-filters="sRGB">
<feFlood flood-opacity="0" result="BackgroundImageFix"/>
<feColorMatrix in="SourceAlpha" type="matrix" values="0 0 0 0 0 0 0 0 0 0 0 0 0 0 0 0 0 0 127 0" result="hardAlpha"/>
<feOffset dx="2" dy="2"/>
<feComposite in2="hardAlpha" operator="out"/>
<feColorMatrix type="matrix" values="0 0 0 0 1 0 0 0 0 1 0 0 0 0 1 0 0 0 1 0"/>
<feBlend mode="normal" in2="BackgroundImageFix" result="effect1_dropShadow_9779_92531"/>
<feBlend mode="normal" in="SourceGraphic" in2="effect1_dropShadow_9779_92531" result="shape"/>
</filter>
<clipPath id="clip0_9779_92531">
<rect x="4" y="2" width="164" height="72" rx="5" fill="white"/>
</clipPath>
</defs>
</svg>
