<svg width="172" height="80" viewBox="0 0 172 80" fill="none" xmlns="http://www.w3.org/2000/svg">
<g filter="url(#filter0_d_9779_92520)">
<g clip-path="url(#clip0_9779_92520)">
<mask id="mask0_9779_92520" style="mask-type:luminance" maskUnits="userSpaceOnUse" x="4" y="2" width="164" height="72">
<path d="M163 2H9C6.23858 2 4 4.23858 4 7V69C4 71.7614 6.23858 74 9 74H163C165.761 74 168 71.7614 168 69V7C168 4.23858 165.761 2 163 2Z" fill="white"/>
</mask>
<g mask="url(#mask0_9779_92520)">
<path d="M168 2H4V74H168V2Z" fill="white"/>
<path d="M10 32H4V38L10 32Z" fill="#E3C5C8"/>
<path d="M10 38H4V44L10 38Z" fill="#E3C5C8"/>
<path d="M10 14H4V20L10 14Z" fill="#E3C5C8"/>
<path d="M10 26H4V32L10 26Z" fill="#E3C5C8"/>
<path d="M10 20H4V26L10 20Z" fill="#E3C5C8"/>
<path d="M10 44H4V50L10 44Z" fill="#E3C5C8"/>
<path d="M4 2V8L10 2H4Z" fill="#E3C5C8"/>
<path d="M10 68H4V74L10 68Z" fill="#E3C5C8"/>
<path d="M4 8V14L10 8H4Z" fill="#E3C5C8"/>
<path d="M10 56H4V62L10 56Z" fill="#E3C5C8"/>
<path d="M10 62H4V68L10 62Z" fill="#E3C5C8"/>
<path d="M10 50H4V56L10 50Z" fill="#E3C5C8"/>
<path d="M162 44H168V38L162 44Z" fill="#E3C5C8"/>
<path d="M162 38H168V32L162 38Z" fill="#E3C5C8"/>
<path d="M162 62H168V56L162 62Z" fill="#E3C5C8"/>
<path d="M162 50H168V44L162 50Z" fill="#E3C5C8"/>
<path d="M162 56H168V50L162 56Z" fill="#E3C5C8"/>
<path d="M162 32H168V26L162 32Z" fill="#E3C5C8"/>
<path d="M168 74V68L162 74H168Z" fill="#E3C5C8"/>
<path d="M162 8H168V2L162 8Z" fill="#E3C5C8"/>
<path d="M168 68V62L162 68H168Z" fill="#E3C5C8"/>
<path d="M162 20H168V14L162 20Z" fill="#E3C5C8"/>
<path d="M162 14H168V8L162 14Z" fill="#E3C5C8"/>
<path d="M162 26H168V20L162 26Z" fill="#E3C5C8"/>
<path fill-rule="evenodd" clip-rule="evenodd" d="M72.01 23.54L85.55 10V37.08L72.01 23.54ZM86.36 16.68H106.74L86.36 37.06V16.68ZM114 37.64H86.93L100.47 24.11L114.01 37.64H114ZM58 38.43H84.98L71.49 51.92L58 38.43ZM65.27 59.29H85.55V39.01L65.27 59.29ZM64.65 37.64V17.31L84.98 37.64H64.65ZM86.36 66L99.85 52.51L86.36 39.02V66ZM107.25 38.46V58.78L86.93 38.46H107.25Z" fill="#F6ECED"/>
</g>
<path d="M42 40L26 38L42 36L42 40Z" fill="#54080E"/>
<g filter="url(#filter1_d_9779_92520)">
<path d="M56.8569 50V47.888C57.3475 47.8667 57.7529 47.8027 58.0729 47.696C58.4142 47.5893 58.6702 47.344 58.8409 46.96C59.0329 46.576 59.1289 45.9573 59.1289 45.104V32.272L55.6409 34.352L54.4889 32.432L61.8169 27.088H63.7369V44.752C63.7369 45.328 63.7262 45.8827 63.7049 46.416C63.7049 46.9493 63.6835 47.3547 63.6409 47.632C63.9822 47.5893 64.4089 47.568 64.9209 47.568C65.4542 47.5467 65.8275 47.536 66.0409 47.536V50H56.8569ZM68.5449 50C68.5449 48.8907 68.6835 47.8987 68.9609 47.024C69.2595 46.1493 69.6435 45.36 70.1129 44.656C70.6035 43.952 71.1369 43.3013 71.7129 42.704C72.3102 42.1067 72.9182 41.52 73.5369 40.944C75.0942 39.4933 76.1929 38.1813 76.8329 37.008C77.4942 35.8347 77.8249 34.672 77.8249 33.52C77.8249 32.8373 77.7395 32.176 77.5689 31.536C77.3982 30.896 77.0889 30.3733 76.6409 29.968C76.1929 29.5413 75.5635 29.3387 74.7529 29.36C74.1769 29.36 73.6542 29.4987 73.1849 29.776C72.7369 30.032 72.3955 30.3413 72.1609 30.704C72.3955 30.9387 72.5555 31.216 72.6409 31.536C72.7475 31.856 72.8009 32.1333 72.8009 32.368C72.8009 32.6027 72.7262 32.8907 72.5769 33.232C72.4275 33.552 72.1929 33.8293 71.8729 34.064C71.5742 34.2987 71.1582 34.416 70.6249 34.416C69.9635 34.3733 69.4515 34.128 69.0889 33.68C68.7475 33.232 68.5769 32.6987 68.5769 32.08C68.5769 31.5893 68.7262 31.0667 69.0249 30.512C69.3235 29.936 69.7715 29.392 70.3689 28.88C70.9662 28.3467 71.6915 27.92 72.5449 27.6C73.4195 27.2587 74.4222 27.088 75.5529 27.088C76.4062 27.088 77.2489 27.1947 78.0809 27.408C78.9342 27.6213 79.7129 27.9627 80.4169 28.432C81.1209 28.9013 81.6755 29.52 82.0809 30.288C82.5075 31.056 82.7209 32.0053 82.7209 33.136C82.7209 33.6693 82.6249 34.2347 82.4329 34.832C82.2409 35.408 81.8889 36.048 81.3769 36.752C80.8649 37.4347 80.1502 38.224 79.2329 39.12C78.3155 40.016 77.1315 41.0613 75.6809 42.256C74.5075 43.216 73.6435 44.0907 73.0889 44.88C72.5342 45.6693 72.2035 46.2773 72.0969 46.704L78.3689 46.864C78.8595 46.8853 79.2755 46.8533 79.6169 46.768C79.9795 46.6613 80.2569 46.4587 80.4489 46.16C80.6622 45.84 80.7689 45.3813 80.7689 44.784H82.8169L82.5609 50H68.5449ZM86.9194 50V47.888C87.41 47.8667 87.8154 47.8027 88.1354 47.696C88.4767 47.5893 88.7327 47.344 88.9034 46.96C89.0954 46.576 89.1914 45.9573 89.1914 45.104V32.272L85.7034 34.352L84.5514 32.432L91.8794 27.088H93.7994V44.752C93.7994 45.328 93.7887 45.8827 93.7674 46.416C93.7674 46.9493 93.746 47.3547 93.7034 47.632C94.0447 47.5893 94.4714 47.568 94.9834 47.568C95.5167 47.5467 95.89 47.536 96.1034 47.536V50H86.9194ZM107.535 50.512C105.914 50.512 104.538 50.1707 103.407 49.488C102.277 48.784 101.37 47.8667 100.687 46.736C100.005 45.584 99.5034 44.3253 99.1834 42.96C98.8847 41.5947 98.7354 40.24 98.7354 38.896C98.7354 37.552 98.9167 36.1867 99.2794 34.8C99.6634 33.4133 100.229 32.144 100.975 30.992C101.722 29.8187 102.65 28.88 103.759 28.176C104.869 27.4507 106.17 27.088 107.663 27.088C109.221 27.088 110.543 27.44 111.631 28.144C112.741 28.848 113.637 29.776 114.319 30.928C115.002 32.0587 115.503 33.3067 115.823 34.672C116.143 36.0373 116.303 37.392 116.303 38.736C116.303 40.0587 116.122 41.4133 115.759 42.8C115.418 44.1867 114.885 45.4667 114.159 46.64C113.434 47.792 112.517 48.7307 111.407 49.456C110.319 50.16 109.029 50.512 107.535 50.512ZM107.727 48.24C108.474 48.24 109.093 48.0053 109.583 47.536C110.074 47.0667 110.447 46.4267 110.703 45.616C110.981 44.784 111.173 43.8347 111.279 42.768C111.386 41.7013 111.439 40.5813 111.439 39.408C111.439 38.1067 111.386 36.8587 111.279 35.664C111.194 34.448 111.013 33.3707 110.735 32.432C110.479 31.472 110.095 30.7147 109.583 30.16C109.093 29.6053 108.431 29.328 107.599 29.328C106.831 29.328 106.191 29.5627 105.679 30.032C105.167 30.5013 104.751 31.152 104.431 31.984C104.133 32.816 103.919 33.7653 103.791 34.832C103.663 35.8987 103.599 37.0293 103.599 38.224C103.599 39.12 103.621 40.0373 103.663 40.976C103.727 41.9147 103.834 42.8213 103.983 43.696C104.154 44.5493 104.389 45.3173 104.687 46C104.986 46.6827 105.381 47.2267 105.871 47.632C106.383 48.0373 107.002 48.24 107.727 48.24Z" fill="#54080E"/>
</g>
<path d="M130 36L146 38L130 40V36Z" fill="#54080E"/>
</g>
<rect x="4.5" y="2.5" width="163" height="71" rx="4.5" stroke="#E7E5E4" shape-rendering="crispEdges"/>
</g>
<defs>
<filter id="filter0_d_9779_92520" x="0" y="0" width="172" height="80" filterUnits="userSpaceOnUse" color-interpolation-filters="sRGB">
<feFlood flood-opacity="0" result="BackgroundImageFix"/>
<feColorMatrix in="SourceAlpha" type="matrix" values="0 0 0 0 0 0 0 0 0 0 0 0 0 0 0 0 0 0 127 0" result="hardAlpha"/>
<feOffset dy="2"/>
<feGaussianBlur stdDeviation="2"/>
<feComposite in2="hardAlpha" operator="out"/>
<feColorMatrix type="matrix" values="0 0 0 0 0.109804 0 0 0 0 0.0980392 0 0 0 0 0.0901961 0 0 0 0.08 0"/>
<feBlend mode="normal" in2="BackgroundImageFix" result="effect1_dropShadow_9779_92520"/>
<feBlend mode="normal" in="SourceGraphic" in2="effect1_dropShadow_9779_92520" result="shape"/>
</filter>
<filter id="filter1_d_9779_92520" x="54.4883" y="27.0879" width="63.8164" height="25.4243" filterUnits="userSpaceOnUse" color-interpolation-filters="sRGB">
<feFlood flood-opacity="0" result="BackgroundImageFix"/>
<feColorMatrix in="SourceAlpha" type="matrix" values="0 0 0 0 0 0 0 0 0 0 0 0 0 0 0 0 0 0 127 0" result="hardAlpha"/>
<feOffset dx="2" dy="2"/>
<feComposite in2="hardAlpha" operator="out"/>
<feColorMatrix type="matrix" values="0 0 0 0 1 0 0 0 0 1 0 0 0 0 1 0 0 0 1 0"/>
<feBlend mode="normal" in2="BackgroundImageFix" result="effect1_dropShadow_9779_92520"/>
<feBlend mode="normal" in="SourceGraphic" in2="effect1_dropShadow_9779_92520" result="shape"/>
</filter>
<clipPath id="clip0_9779_92520">
<rect x="4" y="2" width="164" height="72" rx="5" fill="white"/>
</clipPath>
</defs>
</svg>
